<svg width="768" height="209" viewBox="0 0 768 209" fill="none" xmlns="http://www.w3.org/2000/svg">
<path fill-rule="evenodd" clip-rule="evenodd" d="M0 0V209H118C171.162 208.794 219.259 188.409 266.198 168.514L266.199 168.513L266.199 168.513L266.2 168.513L266.201 168.513L266.204 168.511C274.505 164.993 282.769 161.49 291.019 158.117C319.067 146.649 351.112 140.146 385.145 140.146C419.177 140.146 451.222 146.649 479.27 158.117C487.519 161.49 495.782 164.992 504.081 168.509L504.082 168.51L504.082 168.51L504.083 168.51L504.083 168.511L504.09 168.513L504.091 168.513C550.355 188.122 597.744 208.208 649.999 208.979V0H0ZM650 0V209H768V0H650Z" fill="#F1F0EC"/>
</svg>
