<svg width="51" height="50" viewBox="0 0 51 50" fill="none" xmlns="http://www.w3.org/2000/svg">
<path d="M25.0988 3.58594C25.4077 3.58546 25.5685 4.42019 25.6401 4.64753C26.3454 6.88637 26.7671 9.8242 26.5955 12.1801C26.3653 15.3382 24.9911 19.2669 22.5344 21.3916C22.3629 22.1275 22.319 23.0485 22.1625 23.8437C21.5258 27.0787 20.3884 30.2361 18.7978 33.1255C18.524 33.6228 18.1034 34.1943 17.9256 34.7192C18.2514 34.584 18.6157 34.5868 18.9609 34.5359C21.0909 34.2223 25.6302 31.1898 27.0261 29.3216C26.4607 24.8596 28.7899 20.5679 31.697 17.3412C34.1149 14.6574 37.3709 12.7179 40.7392 11.4885C41.5166 11.2047 42.7089 10.7287 43.5148 10.5686C44.3247 10.4078 43.4956 12.2259 43.3718 12.6921C42.1917 17.138 40.1344 21.4036 36.9417 24.7621C34.3333 27.5058 31.2814 29.63 27.4034 29.7279C26.9774 30.0085 26.4791 30.6287 26.0583 30.9883C25.1288 31.7823 24.2649 32.3916 23.3178 33.1264C24.6434 33.7089 28.5386 34.1429 29.9934 33.5633C30.3195 33.0351 30.549 32.4328 30.8588 31.8901C32.3959 29.1977 35.4663 26.5424 38.2455 25.0864C40.3277 23.9956 42.5903 23.558 44.8662 23.0805C45.2474 23.0004 46.6236 22.5904 46.8796 22.6272C47.2813 22.685 46.4798 24.2249 46.3474 24.5471C44.9565 27.9289 42.7246 31.231 39.5158 33.1268C37.0713 34.571 33.6062 35.1972 30.8277 34.4161C29.896 34.1542 30.0113 34.1261 29.0418 34.2794C26.6391 34.6592 25.0304 34.1276 22.834 33.5633C22.3583 33.6809 21.933 34.0079 21.4927 34.2238C20.2211 34.8476 18.9876 35.1317 17.5793 35.2051C17.5728 35.2125 17.5662 35.2198 17.5597 35.2273L17.5278 35.2651C17.2697 35.5658 17.0823 35.9312 16.8548 36.2567C15.8919 37.635 14.8224 38.9291 13.5932 40.0794C13.1849 40.4615 12.645 40.868 12.3039 41.2995C13.4753 41.2114 15.7201 41.0183 16.6893 40.3621C16.9827 40.2061 17.2498 39.993 17.5278 39.8107C20.514 37.8532 24.0327 37.0192 27.5848 37.5829C29.3185 37.8579 30.6876 38.3681 32.3153 38.9905C33.8523 39.5782 34.2288 39.3558 32.6755 40.5414C30.1058 42.5029 26.2216 43.6298 22.9567 43.3234C21.0285 43.1426 18.098 42.24 16.5979 41.0048C15.6239 41.4088 14.5905 41.6101 13.5458 41.7182C11.6056 41.919 12.1632 41.3753 10.6871 42.5382C9.16369 43.7384 6.20439 45.5942 4.28098 46.1827C3.66804 45.5561 5.04378 45.3176 5.62025 45.0412C7.35389 44.21 9.93179 42.6985 11.3139 41.2995C11.342 40.7309 11.2739 38.988 10.9934 38.5548C10.6759 38.1808 10.218 37.9668 9.83848 37.6659C6.04564 34.6578 4.90101 30.1157 5.97229 25.4369C6.11534 24.8121 6.493 23.0357 7.0322 22.6972C7.60297 23.017 8.3341 24.1417 8.72589 24.6761C11.4851 28.4394 12.8343 32.7657 11.8719 37.3661C11.6371 38.4889 11.5798 38.1581 11.7275 39.3296C11.7958 39.8714 11.8453 40.4168 11.8354 40.9634C14.2595 38.8489 16.3091 36.3925 17.9141 33.5987C18.1939 33.1116 18.5553 32.5864 18.7407 32.0563C18.5995 31.1156 18.3145 30.2333 18.0581 29.3216C17.7073 29.0928 17.2867 28.9511 16.9259 28.7287C12.1669 25.7942 10.1926 19.8596 11.3333 14.5271C11.604 13.2616 11.7162 13.4972 12.5807 14.2814C16.5931 17.9205 19.8476 22.6948 18.8213 28.3327C18.5489 29.829 18.6788 29.7954 19.1388 31.391C20.5252 27.7947 21.5123 25.4309 21.9911 21.3916C21.804 20.9812 21.5312 20.6203 21.3414 20.2096C18.8266 14.7698 19.4113 10.5503 22.9539 5.9077C23.3081 5.44354 24.6194 3.80566 25.0988 3.58594ZM42.7247 11.3595C38.411 12.4659 32.9173 15.7598 30.6775 19.5477C29.6797 21.235 28.95 25.0422 29.0509 27.1405C29.5651 26.3154 30.7665 25.2177 31.0916 24.59C31.2194 22.3733 31.0931 20.9395 32.1703 18.7559C32.2639 18.5662 32.4038 18.1941 32.6418 18.1548C33.0793 18.2887 32.6404 18.8614 32.5345 19.1061C32.0922 20.1287 31.787 21.2042 31.6335 22.3083C31.5546 22.9816 31.528 23.5051 31.5245 24.1802C32.0542 23.4018 32.6595 22.7157 33.2633 21.9935C33.5117 21.6966 33.7947 21.4045 34.0088 21.0826C34.0082 19.3647 34.3657 17.6901 35.157 16.16C35.1904 16.0953 35.8941 14.7053 36.1159 15.2107C36.2165 15.44 35.6542 16.2256 35.5472 16.4435C34.9059 17.7496 34.5962 19.1242 34.4291 20.5602C34.9404 20.2281 35.5089 19.3435 35.929 18.8709C37.8337 16.7277 37.887 16.9963 38.6593 14.0422C38.7314 13.7664 38.8081 12.9011 39.1147 12.8183C39.6305 12.6792 39.0958 13.8483 38.6136 15.8481C39.4217 14.7424 40.8103 13.393 41.7605 12.3883L42.4672 11.6438C42.5522 11.555 42.6504 11.4761 42.7299 11.383L42.7247 11.3595ZM45.688 23.4047C45.1194 23.4893 44.5712 23.6665 44.0094 23.7865C40.8177 24.4682 38.6139 25.1441 35.9098 27.2223C34.7257 28.1323 34.644 28.2839 33.9053 29.523C33.3197 30.5055 32.5432 31.8151 32.1377 32.8733C32.7433 32.6303 33.4018 32.2423 34.0088 32.0563C34.22 31.4707 34.409 30.8969 34.6745 30.3312C34.8925 29.8667 36.6454 26.3176 37.0865 27.1986C37.0833 27.4387 36.7969 27.6967 36.6652 27.8805C35.9062 28.9395 35.2787 30.0958 34.7431 31.2816C34.6791 31.441 34.649 31.608 34.5884 31.7662C36.8731 30.5334 36.5725 31.1455 37.4132 28.984C37.5708 28.5789 38.7972 25.8497 39.2589 25.827C39.7112 26.0086 38.9848 26.8311 38.8564 27.0512C38.4454 27.7549 37.664 29.2719 37.5345 30.038C38.8156 29.0719 39.6345 28.8854 40.2631 27.3957C40.4405 26.9756 41.244 24.6451 41.6488 24.7618C42.0458 24.8763 40.7875 27.2353 40.5788 27.7594C40.931 27.3944 41.3255 27.0753 41.7116 26.7471L44.5974 24.2663C44.8131 24.0843 45.5499 23.5666 45.688 23.4047ZM40.3921 18.8813C38.7511 19.1757 37.6736 19.6363 36.1587 20.3728C34.8429 21.0126 34.7466 21.0811 33.8176 22.1478C33.25 22.7995 32.6325 23.4703 32.1377 24.1802C33.732 23.6402 35.3082 23.1123 36.8086 22.341C36.9183 22.2846 38.0907 21.5224 38.093 21.9267C38.0962 22.497 35.304 23.4232 34.5884 23.8945C34.3463 23.9114 31.9224 24.6516 31.7339 24.755C31.5211 24.8715 29.862 26.8 29.7251 27.1405C32.5241 26.4817 35.3679 25.8916 37.303 23.5867C37.8765 22.9035 40.2896 19.6403 40.4028 18.89L40.3921 18.8813ZM46.1241 23.7453C45.5607 24.1596 44.3379 25.1389 43.872 25.6393L43.9141 25.6247C44.182 25.5304 44.9682 25.0909 45.2059 25.1891C45.8174 25.4419 44.0244 26.06 43.8608 26.1068C42.7299 26.4304 43.0468 26.3754 42.1611 27.1127C41.897 27.3325 41.6052 27.5233 41.3555 27.7594C41.7546 27.7613 42.1478 27.7673 42.5444 27.7152C42.729 27.6911 43.6006 27.3744 43.546 27.8289C43.2113 28.2929 41.4294 28.1722 40.9291 28.1674C40.3135 28.5221 38.787 29.7614 38.0898 30.3033C39.2638 30.3128 40.4618 30.0262 41.5646 29.6337C41.592 29.6238 43.0048 28.8877 42.6813 29.5319C42.4145 30.0631 39.6657 30.6452 39.0264 30.6923C38.5336 30.7286 38.0286 30.7084 37.5345 30.7069C37.1024 30.9547 36.1653 31.4992 35.7956 31.7662C35.5928 31.8431 35.4306 31.9365 35.25 32.0563C35.9101 31.981 36.6167 32.0739 37.2852 32.0524C38.1382 32.025 38.7134 31.8532 39.5205 31.6828C39.6186 31.8162 39.7303 31.9396 39.6273 32.1C39.0359 32.5217 36.6312 32.5296 35.9297 32.4824C35.5895 32.4596 34.8836 32.3309 34.5827 32.3878C34.3208 32.4373 32.9529 33.1217 32.6825 33.277C36.303 33.7767 37.5898 33.9889 40.4776 31.7963C42.8629 29.9849 44.5073 27.4125 45.7182 24.7148C45.8479 24.4259 46.1628 23.7769 46.1241 23.7453ZM25.0988 4.70991C24.8094 5.4407 24.3417 7.22969 24.1783 8.03648C24.4802 7.77331 24.9636 7.03687 25.3628 6.98857C25.8849 7.17728 24.4093 8.31962 24.1783 8.62967C23.9347 9.03729 23.5945 10.6518 23.5561 11.1794C24.1503 10.8002 24.9942 9.4177 25.3835 9.34926C25.8773 9.52162 24.2658 11.0804 24.101 11.2457C23.8898 11.4575 23.6453 11.648 23.4523 11.8755C23.2315 12.652 23.1819 13.4865 23.0989 14.2874C23.7201 13.7437 24.2945 12.9838 24.7592 12.2986C24.8775 12.1242 25.344 11.0983 25.6473 11.4811C25.8129 11.9984 23.8624 14.1395 23.4523 14.4846C23.3053 14.6073 23.1451 14.7271 23.0152 14.8677C22.9349 15.5944 22.8772 16.3329 22.834 17.063C23.499 16.4107 24.1843 15.8205 24.7756 15.0929C24.8755 14.97 25.0304 14.7181 25.1738 14.6533C25.8944 14.7748 23.8714 16.8503 22.834 17.4721C22.7667 18.103 22.7239 18.7316 22.718 19.3661C24.3355 17.6911 25.0078 16.8275 25.606 14.6372C26.1921 12.4914 26.1853 10.1892 25.8689 7.9968C25.8019 7.53245 25.3168 4.90714 25.0988 4.70991ZM24.4659 37.915C21.3657 38.2483 19.9527 38.9014 17.4255 40.44C17.7778 40.4343 18.1292 40.4854 18.4804 40.44C18.8094 40.1858 19.107 39.8921 19.4347 39.6362C19.6312 39.4829 21.5714 38.0629 21.5488 38.776C21.4278 38.8785 21.2277 38.9208 21.0861 38.997C20.7167 39.1955 19.271 40.0563 19.0499 40.4029L19.0592 40.4527C19.258 40.567 20.1733 40.5494 20.4169 40.4834C20.9484 40.3392 23.2284 38.1776 24.072 38.3175C24.3968 38.5992 22.6363 39.3071 22.1564 39.7001C21.7446 39.9122 21.3608 40.2161 21.0175 40.5264C22.2403 40.5636 25.4008 40.5227 26.5513 40.2381C26.7753 40.0294 26.9846 39.8045 27.2298 39.6199C27.4018 39.4904 29.1886 38.3839 29.048 39.0228C28.6973 39.3895 27.5979 39.4494 27.0261 40.2381C28.4586 40.2041 31.0094 39.8016 32.3958 39.5517C29.7823 38.4593 27.3142 37.8256 24.4659 37.915ZM12.1983 14.6126C12.2398 15.2055 13.0286 17.4335 13.315 18.0589C13.3711 17.7638 13.337 17.2334 13.5496 17.0163C14.0774 16.8158 13.6139 18.5017 13.6153 18.7187C13.6169 18.9597 14.7207 21.3907 14.9053 21.7458C15.1031 21.0835 15.1863 20.3968 15.239 19.7096C15.2563 19.4836 15.1452 18.757 15.5424 18.8065C15.9347 19.1322 15.2969 21.8706 15.1792 22.3083C15.6188 23.056 15.9315 23.8981 16.3403 24.59C16.6094 23.5916 16.694 22.5813 16.6893 21.5514L16.688 21.517C16.6818 21.303 16.8655 21.0974 17.0805 21.2657C17.2961 21.8718 16.8672 24.4946 16.5979 25.0802C16.9388 25.6392 17.2478 26.4944 17.5793 26.9326C17.8281 25.6951 18.1561 23.7888 17.8702 22.5873C17.2575 20.0129 14.5747 16.8495 12.7212 15.0731C12.5687 14.9269 12.384 14.7073 12.1983 14.6126ZM24.5906 4.70991C22.8783 6.46929 20.3128 10.7146 20.3554 13.0519C20.3704 13.8743 21.857 16.4497 22.344 17.063C22.3894 16.3701 22.375 15.6006 22.5344 14.9236C21.8692 14.2684 21.4893 13.3381 21.1913 12.4689C21.1053 12.1957 20.8481 11.4265 20.9208 11.1675C21.3315 10.7905 21.5229 12.0719 21.5805 12.2732C21.749 12.8613 22.2009 13.9467 22.6169 14.3896C22.6515 13.9234 22.7059 13.4599 22.7577 12.9956C22.9154 11.5822 22.2539 10.4119 22.2403 8.84882C22.6928 8.12585 22.6725 9.27633 22.6952 9.527C22.7505 10.1417 22.8739 10.6964 23.0989 11.2709C23.2104 9.95604 23.7106 7.90175 24.0567 6.60641C24.1654 6.1995 24.5727 5.06565 24.5906 4.70991ZM43.0713 11.7418C42.0075 12.7827 41.0075 13.9128 40.0089 15.0152C39.5922 15.4753 38.9261 16.1172 38.6136 16.6317C39.1875 16.4461 41.4359 15.305 41.6342 15.8982C41.7462 16.2336 40.7291 16.2857 40.5367 16.3382C39.4718 16.6284 38.0333 17.3709 37.2993 18.2133C36.7285 18.8356 36.0042 19.4432 35.597 20.1884C36.1799 19.8677 40.1507 17.7887 40.4705 18.7877C41.1059 17.7022 43.0487 13.043 43.0865 11.76L43.0713 11.7418ZM29.0509 40.5264C28.3493 40.5151 27.6429 40.6437 26.9399 40.6785C27.2698 40.9231 28.3648 41.3872 28.4024 41.5374C28.1508 41.8942 26.71 40.9412 26.44 40.7685C25.2087 40.7954 24.0001 41.005 22.718 41.0048C23.1916 41.3252 23.6716 41.6072 24.2045 41.8192C24.3695 41.8848 25.4979 42.1013 25.2722 42.386C24.6696 42.5615 22.7787 41.6544 22.344 41.0048C22.1379 41.0062 21.9277 41.0185 21.7223 41.0048C20.9288 41.0041 20.1194 40.9687 19.3281 41.0048C20.9127 41.8251 23.1469 43.0261 24.9896 42.8396C26.7227 42.6643 28.4609 42.2962 30.0403 41.5444C30.3375 41.4029 30.6276 41.242 30.9331 41.1185C30.6286 41.047 29.1533 40.505 29.064 40.5101L29.0853 40.5376L29.0583 40.5215L29.0509 40.5264ZM7.37534 23.7453L7.83143 26.4922C7.91079 26.9425 7.935 27.529 8.1484 27.9329C8.25891 27.6039 8.34847 27.2753 8.427 26.9373C8.44147 26.875 8.59458 25.903 8.80795 26.0782C9.18085 26.3844 8.40209 28.1755 8.31483 28.6113C8.4055 29.4277 8.62662 30.2215 8.80962 31.0203C9.11873 30.5118 9.35269 29.7771 9.50793 29.1974C9.53789 29.0855 9.68035 28.0273 9.98993 28.3952C10.1647 28.6029 9.69016 30.0027 9.59145 30.3033C9.39996 30.7324 9.21635 31.1684 8.99874 31.5851C9.20744 32.3281 9.44599 33.0537 9.59145 33.813C10.0148 33.212 10.3217 32.4763 10.5705 31.7857C10.73 31.3427 10.713 30.9107 11.1902 30.7069C10.3745 28.3467 9.70035 26.9231 8.27594 24.936C8.00921 24.5639 7.69317 24.061 7.37534 23.7453ZM11.7358 14.8677C11.0711 17.6523 11.5789 20.1066 12.5338 22.6972C13.3181 22.9387 14.5898 24.411 15.9954 24.8892C15.8383 24.5443 14.9181 22.6877 14.712 22.5242C14.0965 22.036 13.4884 21.9275 12.7344 21.1859C12.5566 20.977 11.9602 20.3405 12.0061 20.0597C12.0974 19.5006 12.9302 20.7671 13.014 20.8494C13.4551 21.2826 13.9611 21.6067 14.477 21.9414C14.3198 21.5406 13.6066 19.8671 13.3403 19.6598C13.0742 19.4529 11.4291 18.4803 11.5815 18.1478C11.77 17.7367 12.9686 18.9199 13.2168 19.1071C12.8034 18.0589 12.4017 17.0222 12.0873 15.9381C12.0282 15.7343 11.8642 14.9825 11.7358 14.8677ZM6.92833 23.8945C6.31906 25.7857 5.67 29.6994 6.47142 31.6121C6.4821 31.6104 6.49036 31.6016 6.49963 31.5962L6.47677 31.624L6.47001 31.5851C6.50977 31.5721 6.52531 31.5527 6.54971 31.519C6.79364 31.1819 7.31791 31.998 7.46177 32.1425C7.96221 32.6448 8.55018 33.1647 9.13543 33.5633C9.10016 33.4154 8.50956 31.5621 8.45532 31.4913C8.16093 31.1069 7.62636 30.7228 7.27007 30.3033C7.21443 30.2429 5.74408 28.7498 6.53084 28.8792C7.00098 29.2238 7.82712 30.3243 8.31483 30.8133C8.26157 30.4362 8.13882 30.0667 8.05486 29.6951C7.80507 28.5897 8.04967 28.8141 7.28827 27.95C7.12088 27.76 6.32724 26.8329 6.59027 26.5642C6.78365 26.3668 7.46439 27.5067 7.61574 27.667L6.99706 24.1078C6.9843 24.0385 6.97728 23.9474 6.92833 23.8945ZM34.9048 26.0067C33.7664 26.4757 32.6813 26.9577 31.4695 27.2364C28.8031 27.8498 29.6827 27.0774 27.8895 29.1976L27.8827 29.2453C30.1987 28.9785 32.2304 28.0873 34.0871 26.6762C34.2012 26.5894 34.9293 26.0983 34.9048 26.0067ZM29.4911 21.1859C28.2911 23.2157 27.5579 25.3684 27.4581 27.7352C27.4474 27.9882 27.3977 28.5906 27.4476 28.8142C28.8367 27.8356 28.6034 27.168 28.6404 25.7592C28.6745 24.466 28.9192 23.1747 29.2824 21.9356C29.3326 21.7643 29.5082 21.3474 29.4911 21.1859ZM11.1902 31.1428C10.9385 32.2301 10.4297 33.3286 9.79621 34.2471C10.092 34.8137 10.2852 35.4225 10.5682 35.9924C10.6356 36.1476 10.7347 36.2796 10.8176 36.4258C10.9466 34.6585 11.7981 34.0037 11.4714 31.983C11.4333 31.747 11.3976 31.2956 11.1902 31.1428ZM12.8856 23.4047C13.1199 23.8869 13.6596 24.8862 14.0384 25.2482C14.2628 25.4627 16.7833 27.1448 17.0971 27.1405C16.9523 26.6644 16.5046 25.8738 16.2127 25.4648C15.4566 25.1121 14.6836 24.7616 13.9997 24.2783C13.6155 24.0068 13.2759 23.6604 12.8856 23.4047ZM6.55176 31.8554C6.9003 33.1474 7.03213 33.5549 7.9975 34.4137C8.67816 35.0192 9.37324 35.5721 10.1048 36.1147C9.35504 33.9416 9.52856 34.5158 8.01726 33.2333C7.55969 32.845 6.99202 32.1671 6.55176 31.8554ZM20.2997 14.1282C20.1723 15.6232 20.7837 17.0863 21.5755 18.3131C21.6598 18.4436 22.1584 19.3731 22.2403 19.1071C22.2392 18.6182 22.2419 18.093 22.344 17.6138C21.622 16.879 20.5452 15.2765 20.3372 14.2682C20.3273 14.2204 20.321 14.1722 20.2997 14.1282ZM33.4999 29.3216C32.9624 29.8156 30.6616 32.6922 30.7357 33.3773C30.9957 33.2798 31.2542 33.1913 31.5245 33.1264C31.9762 32.1471 32.4174 31.1731 32.9375 30.2261C33.0192 30.0773 33.4949 29.4082 33.4999 29.3216ZM32.027 33.4747C31.6479 33.6976 31.1532 33.8005 30.7357 33.9381C32.0865 34.4327 33.2756 34.1503 34.589 34.2422L34.6666 34.2471C35.0399 34.1607 35.6207 34.1734 35.9217 34.0712C34.6588 33.8905 33.2851 34.101 32.027 33.4747ZM17.3061 40.889C18.0471 41.5025 21.1446 42.7129 22.2403 42.7468C21.5113 42.4863 20.7803 42.1792 20.0946 41.8189C18.569 41.0176 19.0157 41.0138 17.3061 40.889ZM18.3708 24.59C18.1759 25.5635 18.0332 26.4439 17.8126 27.4257C17.8952 27.726 18.0294 28.0242 18.1521 28.3105L18.2376 28.5159C18.4121 27.973 18.617 25.1019 18.3708 24.59ZM32.3958 40.0242C31.5022 40.1079 30.6201 40.2776 29.7251 40.3621C29.8956 40.4475 30.0619 40.5301 30.2427 40.591C30.6259 40.7034 31.0131 40.7895 31.3995 40.889C31.823 40.537 32.2013 40.2941 32.6825 40.0242H32.3958ZM14.9819 26.4329C15.6299 27.271 16.844 28.1579 17.8126 28.6113C17.6662 28.3346 17.5238 28.0578 17.4255 27.7594C16.8478 27.5039 16.2667 27.2249 15.721 26.9067C15.4781 26.765 15.2392 26.5391 14.9819 26.4329ZM8.0375 34.9993C8.70622 35.7835 9.98022 37.3461 10.8176 37.7262C10.2291 36.3355 10.3819 36.8471 9.196 35.9297C8.8968 35.6982 8.34655 35.1222 8.0375 34.9993ZM11.7358 34.3744C11.4828 35.2281 11.2603 36.069 10.9266 36.8959C10.9928 37.0933 11.0543 37.2585 11.1902 37.4216C11.2299 37.5235 11.2675 37.627 11.3139 37.7262C11.5023 36.6881 11.7569 35.4355 11.7358 34.3744ZM24.271 18.3357C23.9853 18.5875 23.7784 18.9221 23.5065 19.1891C23.2271 19.4636 22.8858 19.6683 22.6169 19.9531C22.6057 20.1984 22.5532 20.5358 22.6169 20.7746C22.9815 20.3771 24.2432 18.6113 24.271 18.3357ZM21.0175 18.2133C21.1863 18.735 21.8802 20.363 22.1154 20.665C22.1523 20.6556 22.1408 20.665 22.1564 20.6482C22.1537 20.3645 22.1506 20.0811 22.1564 19.7974C22.041 19.6506 21.0307 18.2231 21.0175 18.2133Z" fill="#418D12"/>
<path d="M26.672 38.5547C26.7819 38.5408 26.8497 38.5749 26.8983 38.6801C26.8491 38.8281 26.4327 38.9219 26.2796 38.9757C25.458 39.2644 24.7235 39.7563 24.0051 40.238C22.8871 40.1508 26.0095 38.7237 26.672 38.5547Z" fill="#418D12"/>
</svg>
