<svg width="51" height="50" viewBox="0 0 51 50" fill="none" xmlns="http://www.w3.org/2000/svg">
<path d="M41.5393 3.493C42.1815 3.42472 43.8407 3.75523 43.4288 4.71774C43.0484 5.60705 41.6436 4.94778 40.6255 7.47172C41.9239 8.72694 42.6035 10.8959 42.702 12.6627C42.9413 16.9559 40.2684 22.5869 38.2261 26.4857C35.7232 31.2639 32.651 35.7423 28.7428 39.4899C24.9107 43.1644 18.0145 48.2847 12.4078 45.6917C7.76267 43.4559 6.69217 38.0132 8.37617 33.5162C9.95253 29.3066 13.9032 27.2065 17.7086 25.36C23.7818 22.4131 25.3607 19.5614 28.0634 13.6711C29.9091 9.64857 32.8984 5.92382 37.7263 5.93459C38.7164 4.75297 39.8934 3.56075 41.5393 3.493ZM36.7781 6.64087C34.5017 6.83967 32.5712 8.1708 31.1223 9.89355C29.4695 11.8588 28.681 14.054 27.5852 16.3231C26.4664 18.6397 25.065 20.8755 23.141 22.6064C20.9225 24.6023 19.0941 25.337 16.5659 26.6142C13.3275 28.2501 10.2636 30.2568 8.93294 33.8078C7.19058 38.4572 8.80709 44.0885 13.8425 45.5639C16.1433 46.1356 18.2071 45.587 20.3166 44.6373C29.6573 40.4324 35.7146 30.6099 39.7909 21.5863C41.475 17.8582 43.241 12.7821 40.9315 8.98069C39.9365 7.34286 38.6578 6.56202 36.7781 6.64087ZM41.5667 4.15184C40.4124 4.20666 39.0654 5.18292 38.4052 6.11174C38.9105 6.24677 39.5331 6.50468 39.9132 6.87434C39.9664 6.92879 40.0211 6.98245 40.0729 7.03825C41.0881 4.71459 41.5232 5.43108 42.8677 4.45763C42.4233 4.18527 42.0857 4.10786 41.5667 4.15184Z" fill="#418D12"/>
<path d="M10.7489 40.644C11.1244 40.6093 11.4726 41.1993 11.0068 41.5293C10.5467 41.5445 10.3196 40.8735 10.7489 40.644Z" fill="#418D12"/>
<path d="M17.55 30.433C18.4125 30.3486 17.6989 31.0277 17.3284 31.2443C16.7768 31.3095 16.9191 30.6409 17.55 30.433Z" fill="#418D12"/>
<path d="M31.4394 15.847C32.129 15.7645 31.6874 16.693 31.4394 16.9233C30.6892 16.9408 31.1509 16.119 31.4394 15.847Z" fill="#418D12"/>
<path d="M17.1462 42.0446C17.3588 42.0183 17.6897 42.1373 17.5581 42.4165C17.4457 42.6546 17.0452 42.7519 16.8158 42.8298C16.2851 42.89 16.1815 42.3561 17.1462 42.0446Z" fill="#418D12"/>
<path d="M22.7585 27.0186C23.5584 27.1887 22.7949 27.861 22.4135 28.0193C22.2287 28.0244 22.0098 27.8688 22.06 27.6624C22.1237 27.4008 22.5397 27.1517 22.7585 27.0186Z" fill="#418D12"/>
<path d="M15.4788 39.7695C16.4839 39.7896 15.421 40.4811 15.0457 40.6447C14.8378 40.6893 14.6109 40.529 14.6854 40.2941C14.763 40.0491 15.261 39.8732 15.4788 39.7695Z" fill="#418D12"/>
<path d="M14.6287 31.1291L14.6966 31.1221C15.3729 31.4323 14.3517 31.9788 14.0809 32.0938C13.1972 31.7255 14.2418 31.2734 14.6287 31.1291Z" fill="#418D12"/>
<path d="M9.60491 38.7681C9.79119 38.7616 9.86785 38.8118 9.99221 38.9542C10.0013 39.3342 10.2427 39.7471 9.84388 39.9857C9.32193 40.0174 9.21023 39.038 9.60491 38.7681Z" fill="#418D12"/>
<path d="M25.233 32.3281C26.1008 32.4129 25.1766 33.2396 24.8238 33.3843C24.0655 33.2068 24.8835 32.4558 25.233 32.3281Z" fill="#418D12"/>
<path d="M28.66 19.9717C28.8901 19.9693 28.9525 20.0823 29.061 20.2749L29.0416 20.3172C28.9247 20.5764 28.7129 20.9529 28.4845 21.1253C27.6744 21.0738 28.2362 20.2023 28.66 19.9717Z" fill="#418D12"/>
<path d="M21.628 35.3711C22.4927 35.4466 21.768 36.1227 21.3712 36.3752C20.5725 36.4419 21.0327 35.6612 21.628 35.3711Z" fill="#418D12"/>
<path d="M14.0816 33.6211C14.8989 33.8338 13.867 34.522 13.4955 34.6472C12.63 34.5068 13.6706 33.751 14.0816 33.6211Z" fill="#418D12"/>
<path d="M27.184 22.6301C28.1414 22.6145 27.2453 23.5117 26.9619 23.7597C26.0481 23.748 26.8893 22.8702 27.184 22.6301Z" fill="#418D12"/>
<path d="M24.8239 25.0469C25.6928 25.0792 24.5001 26.1313 24.2949 26.2834C23.4008 26.0554 24.4957 25.2286 24.8239 25.0469Z" fill="#418D12"/>
<path d="M24.0871 37.7931C25.0601 37.7797 24.1865 38.6399 23.7492 38.8549C22.9475 38.9712 23.4896 38.1079 24.0871 37.7931Z" fill="#418D12"/>
<path d="M19.9478 28.4424C20.1575 28.4289 20.3801 28.5562 20.2955 28.8032C20.2009 29.0795 19.6209 29.3607 19.3756 29.4925C19.1904 29.5336 18.9424 29.4156 18.9892 29.1904C19.054 28.8777 19.6862 28.5857 19.9478 28.4424Z" fill="#418D12"/>
<path d="M31.4392 29.2285C32.2661 29.3345 31.5177 30.3123 31.0644 30.4336C30.1935 30.5216 31.1624 29.3709 31.4392 29.2285Z" fill="#418D12"/>
<path d="M21.3715 39.7689C21.5135 39.7589 21.6068 39.8045 21.6733 39.9389C21.8561 40.3086 20.9475 40.7054 20.7146 40.8144C20.0038 40.8239 20.5029 39.9769 21.3715 39.7689Z" fill="#418D12"/>
<path d="M28.2066 29.2282C29.2108 29.1352 28.2022 30.236 27.8726 30.4333C26.9459 30.383 27.8656 29.4302 28.2066 29.2282Z" fill="#418D12"/>
<path d="M33.686 26.2842C34.508 26.4881 33.7202 27.4439 33.3252 27.6817C32.4663 27.6436 33.4598 26.4195 33.686 26.2842Z" fill="#418D12"/>
<path d="M18.4167 37.5508C19.3891 37.7798 17.7514 38.519 17.5496 38.5969C16.4794 38.298 18.0904 37.638 18.4167 37.5508Z" fill="#418D12"/>
<path d="M29.2733 32.0938C30.1806 32.2635 29.0287 33.2525 28.6602 33.3837C28.0441 33.1253 28.4866 32.8267 28.7736 32.555C28.9457 32.3921 29.064 32.2162 29.2733 32.0938Z" fill="#418D12"/>
<path d="M27.3492 34.9648C28.2334 35.1883 27.0844 36.0689 26.6445 36.2006C25.7331 36.0296 27.159 35.0217 27.3492 34.9648Z" fill="#418D12"/>
<path d="M13.4957 42.5088C13.7936 42.5505 14.3063 42.56 14.5566 42.6189C14.8933 42.6982 14.9057 43.0364 14.6295 43.1922C14.3274 43.2374 13.1259 43.309 13.2582 42.7492C13.2867 42.6285 13.3951 42.5637 13.4957 42.5088Z" fill="#418D12"/>
<path d="M35.3747 23.1934C36.3574 23.1883 35.4109 24.5058 35.0113 24.7087C34.2152 24.7052 34.8894 23.9606 35.0348 23.7351C35.1531 23.5518 35.2234 23.3563 35.3747 23.1934Z" fill="#418D12"/>
<path d="M11.5767 36.5264C12.2356 36.6247 11.6677 37.2638 11.573 37.5828C11.4639 37.9504 11.6139 38.716 11.1751 38.8551C10.3808 38.7748 11.1109 36.7342 11.5767 36.5264Z" fill="#418D12"/>
<path d="M39.1666 7.98762C39.7091 7.95312 39.7645 8.61572 39.8896 9.02075C40.456 10.8542 40.5565 13.5811 39.4844 15.2806C38.4462 16.9264 38.7172 16.3956 38.3438 18.2797C38.1897 19.0568 37.0707 21.3387 36.362 21.8134C35.3752 21.9581 36.4133 20.757 36.539 20.5803C37.0963 19.797 37.6008 18.8752 37.7695 17.9181C37.8617 17.3953 37.8866 16.8564 38.0694 16.3533C38.3078 15.6973 38.8559 15.1951 39.1509 14.5555C39.8667 13.0028 39.8247 10.8691 39.2817 9.25424C39.1642 8.90466 38.7288 8.24069 39.1666 7.98762Z" fill="#418D12"/>
<path d="M38.1511 8.378C38.7524 8.36927 38.5568 9.15006 38.5587 9.56382C38.5657 11.1393 38.3965 11.9212 37.5552 13.277C36.3209 15.2662 37.1395 15.9674 36.5254 17.3104C36.1431 18.1466 35.2993 18.673 34.8447 19.4762C34.3421 20.3642 34.5201 21.3328 34.0578 22.2947C33.4905 23.4752 32.4929 23.8104 32.0136 24.639C31.4105 25.6813 31.9879 27.0187 30.2527 27.6816C29.8441 27.7129 29.624 27.3597 30.1602 27.032C31.3189 26.324 30.9664 25.488 31.3865 24.4631C31.7783 23.5073 32.9387 23.1195 33.4588 22.074C33.9539 21.0787 33.7263 20.1322 34.3296 19.1183C34.7898 18.3449 35.6311 17.7646 35.9675 16.9603C36.3063 16.1502 36.0168 15.2407 36.2843 14.3905C36.7682 12.8525 37.8506 12.2384 37.9262 10.3467C37.945 9.87293 37.7214 8.5156 38.1511 8.378Z" fill="#418D12"/>
<path d="M36.1337 6.87439C36.4553 6.79754 36.7936 7.10125 36.4934 7.38683C36.3445 7.52857 36.0007 7.6816 35.8044 7.82147C34.0683 9.05907 33.0987 11.1008 32.151 12.9457C29.6195 17.8731 26.1969 22.3185 21.6575 25.562C17.8152 28.3075 13.2608 30.0479 10.8472 34.3793C10.5496 34.9133 10.2355 35.5441 10.127 36.1464C10.0712 36.4561 10.12 36.8145 9.99175 37.1053C8.92887 37.3555 9.6424 35.5513 9.82062 35.1038C10.8411 32.5407 13.2176 30.3046 15.4746 28.7885C17.2823 27.5742 19.1956 26.5419 20.994 25.2728C24.4637 22.8241 27.7006 19.2897 29.9323 15.6409C31.2895 13.4219 33.5434 7.67027 36.1337 6.87439Z" fill="#418D12"/>
<path d="M37.0744 8.17454C37.9291 8.0911 37.1429 8.9659 36.9778 9.15265C35.5225 10.798 34.816 12.8817 34.0404 14.8938C31.3901 21.7695 26.5732 28.0266 20.4089 32.0806C17.5195 33.9809 14.6782 35.5821 13.202 38.8921C13.0699 39.1884 12.9747 39.6257 12.7268 39.8484C11.4188 39.8594 13.8163 36.6085 14.0776 36.2776C15.5245 34.4443 17.5768 33.1852 19.4945 31.9094C24.929 28.2938 28.5652 24.2624 31.6883 18.4942C32.1638 17.6159 32.6075 16.6927 32.9885 15.7703C33.7712 13.8759 35.3141 9.31733 37.0744 8.17454Z" fill="#418D12"/>
<path d="M40.9064 10.0859C41.4753 10.0609 41.3822 10.5676 41.4253 10.9913C41.5842 12.5539 41.5962 14.109 41.2542 15.6502C40.5394 18.8721 39.1209 21.9321 37.5955 24.8404C34.4116 30.9111 30.3745 36.9181 24.8526 41.0827C21.8242 43.3667 17.9014 45.4771 13.9964 44.6056C13.6087 44.4957 13.4255 43.9953 13.9081 43.964C14.2043 43.9447 14.5737 44.0757 14.8728 44.1194C17.8379 44.5527 20.7987 43.0722 23.2015 41.494C28.6749 37.8986 33.5069 31.2524 36.5808 25.3936C38.6736 21.4045 41.1875 16.6232 40.8884 11.9756C40.8566 11.4809 40.4886 10.2602 40.9064 10.0859Z" fill="#418D12"/>
</svg>
