<svg width="51" height="50" viewBox="0 0 51 50" fill="none" xmlns="http://www.w3.org/2000/svg">
<path d="M19.5727 3.4375C20.3506 3.46308 21.8321 7.22125 22.1305 7.90337C22.1586 7.46775 21.8408 6.06735 22.4446 6.25838C22.6586 6.48793 22.501 8.5983 22.5503 9.08297C22.9272 8.02719 23.2164 7.53652 23.1342 6.39449C23.1197 6.19387 22.8694 5.43991 23.1304 5.34202C23.4662 5.21612 23.4995 5.73575 23.537 5.94463C23.7328 7.03297 23.5456 7.9505 23.0812 8.94062C22.4682 10.2477 22.957 9.92554 23.23 11.3138C23.2507 10.905 23.0929 9.47394 23.5759 9.87202C23.7843 10.0438 23.662 11.3739 23.6869 11.7129C24.3217 10.3728 24.0786 8.85758 24.1827 8.6195C24.7936 8.06198 24.6833 9.84419 24.6699 10.027C24.9912 9.26123 25.4774 8.58346 25.5524 7.73372C25.5568 7.68472 25.5364 6.45736 25.9497 6.91328C26.127 7.10865 26.0325 7.78562 25.9897 8.0317C25.8242 8.9853 25.0838 10.2572 24.5768 11.0985C23.4192 13.019 23.6742 12.5041 23.8348 14.5445C23.9029 15.408 23.9324 16.2962 23.9086 17.1622C24.9533 16.1985 25.2671 13.9169 25.0955 12.6087C25.0692 12.408 24.7499 11.5869 25.0767 11.5585C25.3296 11.5366 25.4258 11.9721 25.4744 12.1478C25.8723 13.5863 25.3302 14.4078 25.3725 15.6114C26.2556 13.9052 26.5359 12.9075 26.2312 10.8985C26.1984 10.6821 26.4184 10.509 26.5852 10.7026C27.0044 11.1894 26.7403 12.807 26.7147 13.408C27.2886 12.3617 27.6627 11.5366 27.8601 10.3683C28.074 9.10259 28.5423 9.33319 28.3255 10.4888C28.0452 11.9837 27.4841 12.9037 26.8213 14.1829C27.04 14.0589 28.6049 13.2124 28.6889 13.7336C28.7437 14.0737 28.0299 14.132 27.8196 14.208C26.1973 14.7942 26.2069 15.3006 25.2414 16.4436C24.8021 16.9637 24.2107 17.4956 23.8198 17.9981C23.6877 18.8083 23.6253 19.6564 23.4902 20.4888C24.898 19.4741 26.7721 17.7797 28.3945 17.3335C28.5935 16.9126 29.1822 15.2015 29.2889 14.7204C29.4512 13.988 29.4168 13.0174 29.1405 12.3274C28.988 11.9467 28.794 11.7828 29.2399 11.5779C29.7495 12.1214 29.7957 13.0707 29.8681 13.7727C30.3505 12.753 30.5311 11.5543 29.912 10.5435C29.8005 10.3614 29.2641 9.8687 29.5935 9.69799C30.0577 9.45746 30.6832 11.1658 30.8226 11.4311C30.8336 10.6333 30.8198 9.87222 30.6416 9.08765C30.58 8.816 30.4181 8.54394 30.3803 8.27892C30.3523 8.08276 30.6071 7.93845 30.7416 8.09578C31.1972 8.62841 31.356 10.589 31.3008 11.2301C31.6729 10.7725 32.3483 9.17246 32.5531 9.23763C33.2262 9.45185 31.573 11.6947 31.3667 11.9788C30.7759 12.7922 30.4824 13.4429 30.1059 14.3576C30.7556 14.0786 32.0885 12.7223 32.244 12.7403C32.9015 12.8162 31.2869 14.2223 30.9134 14.4539C29.4839 15.3405 29.5566 14.8997 29.0456 16.9583C29.5936 16.6895 31.0346 16.1317 31.4531 15.8355C32.7846 14.8931 32.9665 12.7234 33.4328 12.9336C33.9753 13.1785 32.687 14.9966 32.4697 15.4392L32.4514 15.4772C33.294 14.9611 34.329 14.1583 34.8785 13.3407C34.9267 13.2689 35.7149 11.7867 35.7492 12.6762C35.7679 13.164 34.5527 14.4274 34.2199 14.7583C35.2773 14.313 36.2834 13.7331 37.2311 13.0895C37.4651 12.9305 38.1995 12.1519 38.4816 12.3518C38.9227 13.047 34.9277 14.8815 34.2199 15.3539C34.5559 15.2692 36.3575 14.8822 36.5945 15.0456C36.9479 15.6983 34.0601 15.6654 32.8333 15.8863C32.0213 16.0325 30.3269 16.7981 29.5817 17.3335C30.8578 17.2368 31.202 17.4767 32.5987 16.8742C32.6971 16.8318 34.1167 15.8673 33.9793 16.4981C33.8729 16.9869 32.4706 17.3587 32.0491 17.6255C32.6542 17.7548 33.4412 17.8153 34.014 17.5784C34.1653 17.5158 34.2671 17.3154 34.4485 17.3556C35.0034 17.479 34.4401 18.0557 34.3605 18.1834C34.0177 18.7333 33.314 19.8645 33.077 20.453L33.0628 20.4888C33.3025 20.3747 34.0737 19.8198 34.2782 19.85C34.4287 19.8724 34.587 20.0234 34.4798 20.1766C33.8857 21.0259 32.7105 20.4507 31.994 22.4847C32.3604 22.3783 33.5827 21.7421 33.7526 21.7446C34.6345 22.2369 32.2236 22.903 31.8708 23.07C31.5428 23.2252 30.5706 24.6896 30.3205 25.0957C31.0121 24.7212 32.9848 23.2539 33.4044 23.1994C33.7209 23.1583 33.6991 23.5049 33.5318 23.6636C33.2442 23.9363 32.1449 24.5184 31.6706 24.8212C30.8784 25.3272 30.0478 25.7587 29.3026 26.3415C28.4741 26.9893 27.0813 28.1554 26.3555 28.8941C27.2511 28.472 28.396 28.0943 29.3376 27.7212L32.2027 26.6C32.7547 26.3829 33.2996 26.1449 33.8607 25.9517C33.8389 25.26 34.4175 24.1115 34.7487 23.498C35.2087 22.6457 35.0333 23.017 35.1312 22.0414C35.1633 21.7214 35.4291 20.0892 35.5869 19.8955C35.7181 19.7344 36.0014 19.8553 35.9793 20.063C35.9294 20.5321 35.6933 21.5396 35.5881 22.0414C35.8308 21.5511 36.973 18.7807 37.3906 18.9156C37.7951 19.0461 36.9575 20.3298 36.7994 20.6404C37.0765 20.4247 38.0017 19.3295 38.2736 19.4147C38.7964 19.5784 38.0413 20.0784 37.8933 20.2185C37.5531 20.5401 37.2273 20.8876 36.8744 21.1945C36.312 21.6834 36.2539 21.5165 35.9738 22.335C36.1856 22.2574 36.6927 21.8625 36.864 21.9026C36.9843 21.9307 37.055 22.068 37.011 22.1832C36.8285 22.6604 35.8815 22.809 35.5137 23.2181C35.0454 23.739 34.5279 25.0748 34.3259 25.7615C35.4936 25.346 36.6206 24.7455 37.7033 24.1466C37.2276 21.8433 40.2766 18.7104 40.8853 19.1151C41.2364 19.3486 40.4402 19.7428 40.3016 19.8486C39.9223 20.1377 39.5779 20.4821 39.2557 20.8331C39.6323 20.7736 40.3827 20.3483 40.636 20.4606C41.3224 20.7648 38.9826 21.3323 38.7065 21.666C38.2239 22.2492 38.0436 23.15 38.1013 23.8867C39.0864 23.5265 39.9627 22.5717 40.8813 22.0414C40.4719 20.8418 42.1763 18.4578 42.6146 18.882C43.0532 19.3064 41.432 19.5163 41.2649 21.7239C42.136 21.1171 43.2212 19.9842 43.8675 19.1776C44.0245 18.9816 44.7658 17.626 45.0009 18.272C44.8321 19.1607 42.4956 21.2467 41.5985 22.0414C43.0307 22.2391 43.5708 21.644 44.486 20.893C44.8327 20.6085 45.1082 21.1933 44.0368 21.9083C43.1987 22.4675 42.2381 22.605 41.2623 22.414C41.1138 22.3849 39.4853 23.5917 39.1625 23.7944C39.0256 23.8803 38.3863 24.1985 38.5373 24.2808C39.9922 25.0727 42.1279 22.4773 42.0579 23.5622C41.8757 23.8754 40.849 24.3437 40.4937 24.543C41.4802 24.4016 42.4369 24.1134 43.2228 23.4829C43.4309 23.3159 43.8378 22.6956 44.1495 22.9346C44.3299 23.3825 42.9178 24.2581 42.5842 24.4272C40.8441 25.3096 39.6226 25.095 37.9338 24.543C37.5736 24.6989 37.2726 24.95 36.9267 25.1313C36.2364 25.4929 35.5197 25.7931 34.8091 26.1111C35.156 26.231 36.2709 26.5618 36.6027 26.5652C37.3914 26.5733 39.4037 24.9038 39.3237 25.7545C39.1113 26.0587 37.7762 26.6542 37.3816 26.8276C37.7568 26.9205 38.1431 26.9246 38.5198 27.0036C39.1356 26.7363 40.9289 25.655 41.3488 25.8327C41.4312 25.9075 41.4806 25.9812 41.4939 26.0944C41.3466 26.3632 39.8158 26.7336 39.2557 27.197C39.863 27.0689 40.8299 27.2412 41.6505 27.1019C41.8985 27.0598 42.6866 26.7661 42.6141 27.2623C42.1943 27.962 38.4068 27.457 37.7033 27.3004C38.1196 27.9949 38.7899 28.4013 39.5672 28.5786C40.4401 28.7777 40.1459 29.288 39.1512 29.0112C37.8024 28.6357 37.7585 27.8165 36.9541 27.197C35.9372 26.8909 35.1001 26.748 34.0407 26.3791C32.6114 27.1168 30.4196 27.8919 28.8545 28.4783L27.5991 28.9461C27.2994 29.0591 26.9812 29.1546 26.7147 29.3366C27.4069 29.3974 28.1103 29.4398 28.7984 29.5352C29.2743 29.6011 29.7829 29.777 30.2631 29.7532C30.7939 29.7268 32.8828 29.1931 33.378 28.965C34.0341 28.6627 34.7066 28.2555 35.322 27.8733C35.3963 27.8272 36.3486 27.0879 36.2882 27.7046C36.2617 27.9756 34.6401 28.8102 34.3259 29.0512C35.0113 29.1259 36.4785 28.9633 37.1224 28.7618C37.3221 28.6993 37.6029 28.7431 37.6724 28.9689C37.5998 29.4548 35.211 29.5217 34.8368 29.5146C33.7279 29.4935 33.7654 29.4492 32.6961 29.7214C32.1681 29.8559 31.628 29.9774 31.0904 30.0673C31.6007 30.2535 33.5871 30.8883 33.9959 30.8961C34.9084 30.9136 37.6222 29.2409 37.2831 30.1353C37.1808 30.4051 35.3978 31.0622 35.0999 31.1625C35.6778 31.1951 36.2047 31.3142 36.7994 31.3143C36.9462 31.136 37.9245 29.7873 38.2009 30.3695C38.2225 30.6739 37.587 31.0098 37.3992 31.3479L37.3816 31.3798C38.182 31.3497 39.069 31.2101 39.8374 31.0085C40.0637 30.9492 40.7302 30.6342 40.922 30.7087C41.0447 30.7565 41.1327 30.9263 41.0289 31.0328C40.604 31.4689 38.3197 31.7862 37.7033 31.7807C37.8965 31.9331 38.9447 32.5535 38.5871 32.8541C38.4518 32.9678 38.2379 32.8063 38.1294 32.7208C37.0013 31.8328 37.0411 31.8948 35.7358 31.7058C35.8832 31.8627 37.1786 32.7782 36.6329 33.0248C36.4369 33.1132 36.1493 32.7339 36.0333 32.6205C34.7197 31.3341 34.5905 31.6697 32.8785 31.1598C32.3427 31.0002 31.8283 30.7936 31.3008 30.6107C31.8064 31.5544 32.9263 32.4639 33.8532 33.0053C34.1125 33.1568 34.7288 33.3021 34.8047 33.631C34.683 34.3962 32.9235 32.9664 32.7226 32.784C33.1445 33.5058 33.8823 34.2205 34.6164 34.6208C34.8101 34.7265 35.7275 34.9405 35.3445 35.2804C34.9256 35.652 33.3327 34.3212 33.0628 34.0076C32.6219 33.5924 32.3296 33.0648 31.994 32.5686C31.9745 33.1305 32.0743 33.6851 32.0648 34.2411C32.062 34.4027 31.8657 34.6421 31.7155 34.4812C31.4243 34.1688 31.5071 32.2497 31.5079 31.7807C31.1752 31.3349 30.8662 30.9205 30.5775 30.4409C29.8514 30.2185 25.8452 29.5156 25.2015 29.8871C24.9024 30.0596 23.1496 31.343 22.9766 31.5523C23.8286 31.6535 24.9869 32.186 25.7314 32.075C26.7439 31.9242 27.7592 31.6124 28.6371 31.0755C28.8153 30.9667 29.1281 30.5954 29.3455 30.6185C30.143 30.7033 28.6769 31.5901 28.3945 31.7807C28.688 31.8446 28.9332 31.9202 29.2389 31.9171C29.4724 31.9149 30.0395 31.6882 30.0633 32.0997C30.0981 32.6994 28.2164 32.1655 27.8047 32.1383L27.7658 32.1361C27.3144 32.1425 26.8366 32.2987 26.4077 32.4334C27.0878 32.4735 27.9578 32.769 28.6354 32.9209C28.8577 32.9708 29.8247 32.9928 29.7786 33.3455C29.7144 33.8368 28.4526 33.3657 28.1707 33.2974L26.4155 32.8725C25.1243 32.5581 23.8276 32.286 22.5503 31.9127C22.9173 32.4201 23.8225 33.1766 24.3738 33.5383C25.6046 34.3459 27.0688 33.6781 27.647 33.9886C27.9363 34.5874 26.0707 34.4185 25.8351 34.418C26.7463 34.9441 28.377 35.1278 29.4298 34.9504C29.617 34.9189 29.9829 34.7458 30.1464 34.8573C30.2505 34.9284 30.2959 35.0806 30.2056 35.1789C29.853 35.5627 27.7903 35.4464 27.2749 35.4745C27.7958 35.6521 28.287 35.9059 28.8082 36.0717C29.579 36.317 30.3269 36.3988 31.1123 36.5418C31.3054 36.577 31.504 36.6374 31.4362 36.8735C31.2765 37.4291 28.0482 36.3277 27.5028 35.9975C27.7786 36.4752 28.809 37.4904 28.8636 37.6219C28.9484 37.826 28.7244 37.9852 28.5363 37.8924C28.1038 37.679 27.2887 36.5638 26.9891 36.1461C26.332 35.2303 26.5927 35.5458 25.6673 34.9867C25.2953 34.7618 24.9459 34.5011 24.5676 34.2862C24.8302 35.1196 25.134 35.8579 25.911 36.3389C26.0172 36.4047 27.072 36.8464 26.7779 37.0865C26.3537 37.4326 25.1736 36.382 24.9462 36.0932C25.1448 36.5749 25.3297 37.0845 25.5843 37.5394C25.6654 37.6842 26.4703 38.7022 25.9201 38.7416C25.2725 38.7878 24.2455 35.3618 24.1459 34.7932C24.1016 34.5402 24.1307 34.1505 23.9863 33.9317C23.7837 33.6246 22.4629 32.6506 21.9922 32.1361C21.6642 32.2977 21.3543 32.5274 21.0384 32.7143C19.5539 33.5923 18.0637 34.4198 16.5191 35.1874C14.932 35.976 15.2814 35.7042 14.265 37.214L13.2781 38.6569C12.3257 40.0358 8.14165 45.6204 6.79132 46.4789C6.49273 46.4973 6.32847 46.4854 6.14964 46.2133C6.05293 45.6582 6.61821 45.3172 6.96584 44.9655C7.28722 44.6403 7.58294 44.284 7.88579 43.9412C10.9099 40.5179 14.4591 36.0258 15.9455 31.6409C16.3305 30.505 16.8872 28.7626 16.8827 27.6306C14.6213 23.3904 12.5329 26.2048 10.231 24.6518C10.0968 24.5613 9.85718 24.408 9.84239 24.2334C9.7948 23.6716 10.7103 24.3864 10.8404 24.4446C11.4288 24.7077 11.9708 24.6469 12.5931 24.6363C12.3906 24.5173 10.9089 23.6295 11.4289 23.2838C11.5946 23.1737 12.2003 23.8275 12.3376 23.9373C12.909 24.394 13.6394 24.5791 14.3373 24.7414C13.701 24.2754 13.1408 23.7125 12.6002 23.1407C11.8382 22.3345 12.2583 22.3729 11.1846 22.0808C10.6387 21.9323 9.36924 21.4901 9.03456 21.0817C8.94949 20.9779 8.93875 20.7483 9.09324 20.7006C9.25351 20.6511 9.46286 20.8644 9.5876 20.9417C10.1367 21.2822 10.7311 21.4473 11.3437 21.6314C11.1738 21.2555 10.8917 21.1054 10.5709 20.8615C9.91665 20.364 9.00626 19.4008 9.47896 19.3606C9.77074 19.3357 10.4566 20.1692 10.6998 20.3863C10.4388 19.5392 9.3898 16.8083 9.90124 16.301C10.35 15.8559 10.3138 17.0956 10.3223 17.2043C10.4467 18.8125 11.1652 20.6795 12.1723 21.9185L12.1905 21.9405C12.0057 20.9557 11.7579 19.8783 11.5998 18.9048C11.5606 18.6627 11.8605 18.5797 11.9815 18.7774C12.2858 19.2747 12.5534 21.2713 12.6841 21.9493C12.8277 22.6935 12.8696 22.6896 13.3955 23.231C14.6127 24.484 16.1853 25.4402 17.0309 27.0036C17.1496 24.8316 16.3871 21.9746 15.4192 20.044C13.8688 19.0327 12.2671 18.4599 11.2967 16.7032C11.201 16.5298 10.3535 14.7925 11.1316 15.054C11.3669 15.2455 11.5985 17.1744 12.915 17.8232C12.7466 17.4875 12.2817 16.857 12.3476 16.4752C12.7114 15.8612 13.4481 17.9265 13.5604 18.1503C13.7829 18.5933 14.5922 18.9942 15.0274 19.2686L13.2999 15.729C12.6846 15.3234 12.2724 15.1393 11.8752 14.4832C11.7477 14.2724 11.2279 13.4007 11.7067 13.3055C12.0873 13.2297 11.8392 14.2606 13.0724 15.0013C12.8455 14.3177 11.9374 11.4381 12.1203 10.8168C12.1608 10.6789 12.3542 10.611 12.4754 10.6822C12.6166 10.7653 12.6329 11.4222 12.6594 11.6046C12.8292 12.7746 13.2374 13.8615 13.5216 15.0013C13.6298 14.5073 13.7317 14.0084 13.6963 13.4997C13.6794 13.2557 13.4212 12.241 13.8712 12.2453C14.4621 12.5529 13.9656 15.2211 13.8636 15.729C14.0056 16.0363 14.1517 16.3307 14.3373 16.6146C14.3807 16.2318 14.5367 15.8751 14.5829 15.4926C14.6201 15.1863 14.5446 14.8361 14.6331 14.542C15.0713 14.0896 15.0254 15.1128 15.0274 15.2265C15.2558 14.817 15.4137 14.3949 15.4879 13.9317C15.5243 13.7044 15.4765 13.0625 15.8277 13.07C16.4162 13.4358 15.5357 15.3111 15.268 15.7209C14.933 16.2337 14.7138 16.637 14.5999 17.2514C14.9074 17.9786 15.3009 18.8427 15.7465 19.4888C15.9133 18.6619 15.9548 18.1618 15.8419 17.3172C15.8314 17.2384 15.5155 16.1303 16.0176 16.4415C16.2905 16.6105 16.3255 17.6422 16.3935 17.9627L16.4012 17.9981C16.7097 16.9694 17.0502 16.2735 17.0495 15.1182C17.0494 14.781 16.9822 14.4006 17.0821 14.0746L17.1346 14.0696L17.096 14.0528C17.7542 13.6728 17.6179 16.2187 16.9042 17.9624C16.7116 18.4333 16.2158 19.5958 15.9829 20.044C16.695 21.7199 17.2763 23.4067 17.4946 25.2222C17.5496 25.6809 17.5246 26.1465 17.5763 26.6068C17.8186 25.9484 18.3694 24.3539 18.4862 23.7169C18.2195 22.761 17.7334 21.6782 17.3301 20.7658C17.221 20.5191 16.7787 19.9578 16.9406 19.6863C17.6624 19.2263 18.3189 22.3435 18.6938 22.9224C19.2446 21.3823 18.8069 20.7774 18.1461 19.2729C18.0499 19.0539 17.6355 18.4339 18.0074 18.2799C18.4893 18.333 19.0776 20.3803 19.1809 20.8331C19.6982 19.1944 19.33 17.1339 18.1913 15.854C17.9731 15.6085 18.022 15.4708 18.3224 15.3539C19.5013 16.3223 19.8409 17.8981 19.835 19.3611C20.1092 18.8897 20.4773 18.1716 21.0435 17.9988C21.2317 17.9414 21.3543 18.1156 21.2811 18.2899C21.2272 18.418 20.8445 18.6983 20.7247 18.8293C19.9182 19.7125 19.3899 21.8053 19.1809 23.0599C19.7139 22.4832 20.0637 21.9913 20.1805 21.2048C20.1946 21.1103 20.1342 19.8508 20.5765 20.3086C20.7339 20.4717 20.6634 20.9968 20.6646 21.2131C20.8513 20.8919 21.1975 20.2918 21.4592 20.049C21.6646 19.8583 21.8977 19.9972 21.814 20.2745C21.6667 20.7625 20.43 22.3784 20.0006 22.8408C19.0465 23.8681 19.1081 23.4136 18.6886 24.8142C18.2932 26.1341 17.7163 27.3976 17.3058 28.7149C16.7327 30.554 16.4841 32.0037 15.6352 33.8946C15.4835 34.2324 15.272 34.5465 15.1597 34.9005C15.6593 34.3355 16.1056 33.7091 16.5781 33.1195C18.3802 30.8704 20.3187 28.091 21.4768 25.426C22.3349 23.4513 23.3396 20.0302 23.3032 17.8232C22.5525 16.9621 22.0267 16.2478 20.7974 16.1881C20.5639 16.1768 20.2727 16.2458 20.0564 16.1541C19.5146 15.4978 21.266 15.7988 21.4754 15.7973C20.8221 15.1745 20.4006 14.7239 19.4914 14.5075C19.3048 14.463 18.2865 14.3913 18.626 13.9827C18.8002 13.773 19.3016 14.0619 19.5579 14.0199L19.5511 13.983C19.0622 13.4295 17.1096 12.6542 17.0645 12.3706C16.9405 11.5895 19.3049 13.1566 19.7598 13.5524C19.5772 13.1147 19.3481 12.6023 19.2076 12.156C19.1041 11.8274 19.3892 11.5157 19.6067 11.8932C19.9436 12.4785 20.1782 13.7426 20.5388 14.2067C20.7986 14.5409 21.1822 14.7757 21.4754 15.082C21.283 14.5414 20.9033 12.4468 21.397 12.3744C21.7531 12.5167 21.6375 13.2377 21.6622 13.5472C21.8026 15.3075 22.2539 16.0009 23.4254 17.2514C23.5328 15.5354 23.2687 14.2883 23.1444 12.6724C21.7099 11.6379 20.0667 11.0394 19.271 9.32597C19.1926 9.15706 19.0781 8.84104 19.3186 8.75774C19.6519 8.79293 19.8077 9.37564 19.9469 9.63419C20.3498 10.3824 22.1208 11.4796 22.9766 11.9843C22.6569 11.1981 22.5073 10.3491 22.1731 9.57503C20.7886 9.07974 19.2733 8.1792 19.129 6.5738C19.1176 6.44607 19.1087 6.10355 19.3543 6.20617C19.6155 6.31529 19.6394 8.04265 21.8271 8.97543L21.8595 8.98906C21.5695 8.59551 20.2571 7.5561 20.5212 7.15825C20.8582 6.97631 21.4591 7.82997 21.6356 8.05408C21.3004 7.08688 20.8196 5.91386 20.3069 5.03509C20.0542 4.60205 19.1412 3.72567 19.5727 3.4375ZM28.9414 17.5513C27.271 18.237 24.4782 20.0969 23.3032 21.3198C23.2025 21.698 23.1367 22.0839 23.0362 22.4623C21.9387 26.592 19.5115 30.2029 16.8898 33.5189C16.5056 34.0049 16.16 34.524 15.7465 34.9862C16.3154 34.8219 17.1488 34.3284 17.6987 34.0358C19.1576 33.2597 20.6548 32.4551 22.027 31.5287C23.0771 30.8197 24.0686 29.9816 25.1581 29.3366C24.8793 27.895 24.5749 27.2713 24.8967 25.6555C25.1483 24.3923 25.6659 24.3915 25.3942 25.7803C25.241 26.5637 25.1624 27.4805 25.3725 28.2579C25.5679 27.5908 26.0959 26.3111 26.1539 25.7429C26.222 25.0759 26.087 23.9248 25.7617 23.3396C25.6878 23.207 25.3439 22.8035 25.3979 22.6644C25.4502 22.5296 25.5753 22.4536 25.7045 22.5311C26.2772 22.875 26.435 23.7051 26.5468 24.3234C26.6266 23.9893 26.7209 23.6582 26.8213 23.3297C26.9986 22.6487 27.1355 21.9498 27.2337 21.2526C27.2584 21.0777 27.2424 20.3896 27.3999 20.2916C28.1175 19.8447 27.546 22.1895 27.5028 22.335C27.7529 22.1176 28.1966 21.5618 28.5397 21.5849C29.1168 21.8441 27.601 22.7942 27.454 23.0186C27.3137 23.2329 26.9377 24.7237 26.8213 25.0957L26.8411 25.0749C27.0675 24.8308 28.4682 22.9415 28.5928 22.9301C29.6423 22.8341 27.0607 25.3732 26.5995 26.1785C26.3063 26.6903 25.8283 28.287 25.6951 28.8941C26.413 28.0543 29.4863 25.7724 29.6706 25.0498C29.832 24.4176 29.8233 20.4362 30.6002 20.4297C30.9563 20.4267 30.5723 21.3649 30.5368 21.5456C30.3534 22.4777 30.2349 23.4741 30.2204 24.4245C30.5821 23.8717 30.9626 23.3386 31.3008 22.7695C30.8156 21.4696 31.0535 19.6106 31.5331 19.9999C31.6299 20.0785 31.5388 21.7676 31.608 22.1337C31.8205 21.674 32.0699 21.2569 32.3455 20.8331C32.312 20.6757 31.9365 19.1511 32.5459 19.5164C32.6633 19.6927 32.6836 19.9461 32.7226 20.1529C33.0493 19.5269 33.4174 18.7213 33.8607 18.1865C33.2281 18.1892 32.6115 18.1959 31.9859 18.0751C31.6954 18.0191 31.414 17.8824 31.1245 17.8419C30.247 17.7193 29.9501 17.8633 28.9414 17.5513Z" fill="#418D12"/>
</svg>
