<svg width="51" height="50" viewBox="0 0 51 50" fill="none" xmlns="http://www.w3.org/2000/svg">
<path d="M27.2759 3.44453C28.1787 3.39654 27.5738 4.83736 27.4631 5.42976C27.2722 6.45044 27.0034 8.24426 27.0406 9.24959C27.4081 8.88023 29.4345 6.75506 29.802 7.36567C29.9122 7.54876 29.8563 8.05655 29.8561 8.2759C29.8497 13.6009 31.001 15.9783 35.0064 19.0987C40.1494 23.1054 45.7949 28.3184 44.6194 35.5749C43.512 42.4105 36.7993 44.3829 30.7913 43.4026C30.406 44.4862 29.7236 45.4852 28.6783 46.0221C28.3005 46.2162 27.2699 46.4164 27.5516 45.7567C27.7355 45.3263 29.1787 45.4408 30.0477 43.3163C29.2201 43.3442 28.6999 43.223 27.9103 43.0979C27.7133 43.9218 26.1301 47.2018 25.633 45.9881C25.4897 45.6384 27.4182 43.486 27.1466 42.8732L27.0406 42.8559L26.636 42.7391C25.6106 43.1468 25.1733 43.2159 24.1001 43.3163C24.1764 43.7609 24.2417 44.2463 24.4032 44.669C24.5341 45.0114 24.7849 45.3763 24.8535 45.7312C24.9203 46.077 24.5266 46.3107 24.2511 46.0835C23.7597 45.6781 23.4081 43.9641 23.342 43.2379C22.3788 43.0569 22.7114 43.027 21.6925 43.1614C21.3691 43.2042 21.0418 43.2242 20.7159 43.2379C21.08 43.9675 21.8591 44.9814 22.6399 45.3146C22.8468 45.4028 23.1802 45.4565 23.3057 45.6597C23.5473 46.051 23.1069 46.2891 22.6818 46.1566C21.4148 45.7622 20.4725 44.4344 19.8861 43.3163C19.5784 43.3443 19.2626 43.4363 18.9576 43.4936C12.1349 44.7744 5.57616 40.3684 6.29426 32.9043C6.77103 27.9486 10.0515 24.1511 13.6313 21.0076C16.7688 18.2524 19.3687 17.0201 20.6487 12.7873C21.1504 11.1281 21.3483 9.64564 22.1069 8.0419C23.0966 5.94921 25.0928 4.2275 27.2759 3.44453ZM26.8725 4.441C24.9944 5.16937 23.4011 6.91044 22.6029 8.71694C22.1427 9.75831 21.9103 10.8397 21.6332 11.9361C20.4459 16.632 18.5211 17.9409 14.9114 20.8881C11.0859 24.0114 7.38892 28.1449 7.01063 33.2921C6.73144 37.0907 8.56313 40.4316 12.1216 41.996C14.2188 42.918 16.0537 43.0226 18.3078 42.8559C17.939 42.6683 17.5502 42.5233 17.1747 42.35C11.0837 39.5374 8.71367 33.132 11.766 27.1135C11.9621 26.7269 12.8349 24.8338 13.4193 25.1191C13.8641 25.3361 13.2513 26.0663 13.1024 26.2922C11.5637 28.6266 10.7305 31.6181 11.3724 34.3835C12.2739 38.2676 15.4999 41.3863 19.3739 42.2822C19.8197 42.3854 20.2699 42.4459 20.7159 42.5528C20.3977 42.335 20.0479 42.2102 19.6988 42.0524C17.0152 40.8395 14.6863 38.5492 13.4432 35.8904C13.2865 35.5552 12.5902 34.0363 12.8771 33.7066C13.4442 33.0548 13.7091 34.5111 13.7885 34.7471C14.7062 37.4726 17.2561 40.1893 19.8861 41.2397C17.7875 39.415 16.5094 35.1981 16.3245 32.5693C16.0079 28.0711 17.7596 25.0239 19.9012 21.3822C21.2748 19.0465 21.8435 18.4985 21.9432 15.6284C21.9544 15.3081 21.8431 14.3593 22.0668 14.1183C22.7658 13.3651 22.669 15.3674 22.6681 15.5092C22.5773 17.6587 22.3102 19.0301 21.1341 20.8432C18.2437 25.2988 16.0975 29.4131 17.4412 34.9621C19.8766 45.0201 29.0917 45.2357 29.4315 34.8469C29.5144 32.3146 28.9917 29.9802 27.7528 27.7592C27.6151 27.5123 27.2869 27.0908 27.5561 26.8215C28.0444 26.3332 28.6273 27.8308 28.7574 28.0974C30.6858 32.0494 30.4711 35.244 29.3155 39.2621C30.4932 37.7768 31.341 35.6588 31.5694 33.7852C32.0946 29.4751 29.9637 25.4112 27.2303 22.2316C26.8097 21.7425 25.9271 21.1468 26.7691 20.716C27.9249 21.1998 30.8656 26.2071 31.3463 27.3759C33.0776 31.5858 32.6053 36.4817 29.6426 39.9984C28.9545 40.8154 28.1412 41.4474 27.3706 42.1715C27.8954 42.2802 28.409 42.4335 28.9419 42.5026C33.0505 43.0359 36.321 40.1564 37.1256 36.2286C38.3049 30.471 34.8411 25.2727 31.3528 21.064C30.7247 20.3063 30.0616 19.5686 29.4616 18.7882C26.1809 14.5206 25.7264 10.2531 26.7874 5.02843C26.8192 4.87165 26.914 4.61045 26.8947 4.45689L26.8725 4.441ZM29.0578 8.39384C26.3298 10.0295 26.9473 11.4739 27.6707 14.1765C27.6724 13.9897 27.6416 11.7284 28.3783 12.4517C28.6608 12.729 28.221 15.2848 28.6535 16.2691C29.1993 17.511 31.026 19.5254 31.9087 20.5802C35.5878 24.9768 39.1171 30.5375 37.8171 36.515C37.2277 39.225 36.0596 40.5255 34.0516 42.1715C36.6683 41.2943 38.8116 39.2098 39.6771 36.5826C39.8036 36.1987 40.212 34.9812 40.6264 36.0234C40.4941 36.577 40.3 37.1139 40.076 37.6364C39.0059 40.0605 36.9501 41.8441 34.529 42.8559C40.3199 42.6591 44.2655 39.1138 44.0263 33.1649C43.8081 27.7361 39.3904 23.4221 35.378 20.3069C31.3633 17.1901 29.3739 14.9178 29.1417 9.75451C29.1319 9.53867 29.1465 8.53401 29.0953 8.40307L29.0578 8.39384Z" fill="#418D12"/>
<path d="M24.4121 9.3326C25.0525 9.28733 24.8833 9.86127 24.8171 10.2976C24.4237 12.8871 24.9255 15.0411 25.7415 17.4399C25.6683 17.6033 25.6221 17.6915 25.4595 17.7761C25.1842 17.7828 25.0787 17.5969 24.9684 17.3611C24.1051 15.5147 23.864 12.4521 24.0724 10.4884C24.1083 10.15 24.0375 9.49253 24.4121 9.3326Z" fill="#418D12"/>
</svg>
