<svg width="51" height="50" viewBox="0 0 51 50" fill="none" xmlns="http://www.w3.org/2000/svg">
<path d="M31.2882 5.3242C31.8786 5.31097 32.7137 5.27869 33.2706 5.46659C34.1128 10.8045 30.488 15.4491 25.6863 17.3027C25.2669 17.4646 24.7971 17.5546 24.425 17.8122C24.288 18.1196 24.2131 18.4593 24.1179 18.7816C23.3651 21.3324 22.1251 23.6837 20.4566 25.757C21.3685 25.7423 21.5153 25.3868 22.2569 24.8378C24.5124 23.1681 25.8351 22.8573 28.2896 22.0568C29.2113 21.7561 31.519 20.0264 32.0002 19.079C30.8761 14.4637 34.7203 9.68032 39.3797 9.62987C41.4793 9.60714 41.3899 10.6845 42.4637 10.998C42.7765 11.0894 44.5744 10.6053 44.2309 11.1892C44.105 11.4033 43.188 11.4978 42.9075 11.5679C43.0238 14.4025 40.3426 17.2853 37.944 18.4085C41.4765 18.2769 43.9265 19.208 46.104 22.0836C47.0921 23.3883 47.5003 23.5475 46.1933 24.2671C43.1171 25.9603 40.0761 26.3742 36.8031 24.7309C35.84 24.2473 34.8266 23.6284 34.0444 22.8745C33.844 22.6812 33.6605 22.4606 33.4195 22.3154L33.3844 22.3068C30.3338 21.5722 25.3746 23.2829 22.9453 25.0062C22.5209 25.3073 22.1271 25.6303 21.6815 25.9036C21.9047 26.0438 22.1206 26.2053 22.3362 26.3571C24.8007 25.8261 27.3078 25.6135 29.7326 26.51C30.0378 26.3918 30.3233 26.2199 30.6195 26.0804C32.9028 25.0046 35.7073 25.2733 37.8537 26.5444C40.0324 27.8346 43.0606 30.8346 41.4229 33.5602C41.5665 33.8812 42.0451 35.1349 41.9411 35.4575C41.8689 35.6813 41.6162 35.6098 41.5375 35.4373C41.3192 34.9593 41.2198 34.3696 41.0167 33.8636C37.1689 35.0053 33.3396 32.8372 31.1961 29.6385C30.6289 28.7921 30.1475 27.7714 29.5743 26.9825C26.9732 26.1569 25.3272 26.3978 22.7399 26.7783C23.0382 27.2792 23.2112 27.6297 23.3628 28.1919C24.2415 28.2179 24.9389 28.5621 25.5201 29.2345C27.0064 30.8123 25.9511 33.5738 23.7287 33.8213C23.4314 33.8544 23.1244 33.8425 22.825 33.8636C23.4906 36.0887 21.7647 37.8233 19.5302 37.503C21.5441 38.9732 20.5172 42.3865 17.8358 42.4892C16.3105 42.5476 14.9558 41.4184 14.8982 39.8674C14.046 39.8698 13.8306 39.8669 13.0243 39.5446C14.0701 41.996 10.8784 44.8178 8.24252 42.3084C7.60439 43.027 5.69012 44.7549 4.59411 44.1595C3.75831 43.7055 4.16089 42.7336 4.41587 42.0431C5.17414 39.99 6.0474 38.818 7.09658 37.0542C6.41635 36.3744 6.58229 34.6926 7.18808 34.0358C6.50657 33.9686 5.96634 33.9677 5.36065 33.5732C3.34034 32.2576 3.87132 29.0024 6.40709 28.4768C5.15221 26.519 5.96321 24.4153 8.24252 23.9644C6.835 21.9178 9.23272 18.9953 11.7776 19.9861C14.0581 20.874 14.2226 24.1588 11.8715 25.1331C11.6153 25.2392 11.3458 25.307 11.089 25.4147C11.6034 26.194 11.5368 27.089 11.1836 27.9302C12.4173 27.9144 13.6964 28.1376 14.281 29.3887C14.3793 29.599 14.4425 29.8232 14.5321 30.0374C14.8202 29.7032 15.0631 29.2575 15.2664 28.8668C14.8471 28.7079 14.4086 28.5552 14.0464 28.2839C12.8478 27.3862 12.695 25.6466 13.5958 24.4872C14.3794 23.4786 16.1929 22.9936 17.2284 23.8117C17.6394 22.8058 17.8103 22.0738 18.0538 21.016C16.922 20.4874 15.5327 18.7906 14.9126 17.7695C13.5397 15.5087 13.0418 11.6236 15.3239 9.73043C15.5672 9.52862 15.8405 9.36837 16.11 9.20473C16.0848 8.92029 15.9004 8.15271 16.0064 7.92029C16.0574 7.80863 16.269 7.72097 16.3739 7.80798C16.5308 7.93815 16.578 8.84233 16.6152 9.09338C21.3462 10.4504 22.0933 16.8998 19.2429 20.2637C18.8805 20.6916 18.6259 20.8304 18.5107 21.4022C18.2883 22.507 18.0327 23.0481 17.7245 24.0476L17.7125 24.0872C18.5506 24.8518 18.5856 25.3611 18.695 26.4389C19.6758 25.7691 19.5646 26.0466 20.3442 25.0378C21.6249 23.3806 23.6735 19.6372 23.9256 17.4786C23.5756 16.6653 23.2614 15.8927 23.1713 15.001C22.6841 10.1767 26.5212 5.79511 31.2882 5.3242ZM31.3777 5.83636C26.8872 6.28497 23.2036 10.3581 23.6971 14.9327C23.7661 15.5731 23.9375 16.332 24.258 16.8946C24.472 16.06 23.9897 11.181 25.0435 12.1126C25.0012 13.2865 24.8443 14.3094 24.8495 15.5493C24.9872 15.3191 25.8235 13.6053 25.8568 13.4262C25.97 12.8184 25.6467 9.6213 26.5639 9.51318C27.0352 9.45763 26.551 10.5897 26.511 10.7368C26.3411 11.3624 26.289 12.1124 26.3314 12.7611C26.7766 12.0193 27.4201 11.3208 27.7953 10.6708C27.7695 9.70443 27.9568 8.0474 28.8602 7.44259C29.4907 7.82482 28.8819 8.0867 28.6456 8.56659C28.4185 9.02772 28.3001 9.57255 28.2798 10.0838C29.0469 9.11245 29.9221 8.2708 31.0346 7.70235C31.2991 7.56717 32.0406 7.14519 32.1389 7.65602C32.0954 7.91259 31.7841 7.93433 31.5772 8.02437C30.3778 8.54606 29.5056 9.4331 28.6208 10.3747C29.0576 10.2867 30.4833 9.9118 30.8754 10.1534C31.1096 10.2977 31.118 10.6173 30.8056 10.6254C30.5316 10.6325 30.2586 10.5857 29.9794 10.5967C28.2258 10.6657 27.7076 11.5532 26.8771 12.8543C27.2642 12.6361 29.5102 11.6749 29.7771 12.2655C29.9772 12.7083 28.9362 12.6484 28.7115 12.6919C26.8377 13.0543 26.0001 14.0057 25.3853 15.6821C25.9687 15.3556 27.3579 13.9727 27.9108 14.1551C28.4947 14.3476 27.5719 14.7923 27.47 14.8451C26.8777 15.1521 24.759 16.7929 24.7022 17.0431L24.7316 17.0641C25.2651 16.9429 25.8243 16.6818 26.3185 16.4507C29.9412 14.7559 32.593 11.4958 32.8552 7.424C32.8867 6.93441 32.8957 6.38952 32.7871 5.90936C32.3172 5.83454 31.8524 5.82782 31.3777 5.83636ZM38.9515 10.1575C35.0165 10.5381 31.5576 14.6365 32.4166 18.6207C32.6015 18.426 32.7827 18.228 32.963 18.0291C32.9803 17.3947 33.2834 14.1792 34.2896 14.2436C34.7609 14.2738 34.0475 15.1702 33.9682 15.3387C33.6895 15.931 33.571 16.6111 33.4936 17.2569C34.0011 16.6631 34.6042 16.1064 35.0723 15.5493C35.0777 14.673 35.1069 13.4723 35.7939 12.8223C35.9491 12.6756 36.295 12.6729 36.2792 12.955C36.2635 13.2377 35.64 13.7334 35.6244 15.0189C36.3406 14.5045 37.1401 13.9225 37.4579 13.1085C38.2032 11.1993 39.5864 10.8203 39.5425 11.5383C39.3551 11.8454 38.3143 11.8438 37.944 13.2814C38.9203 12.6646 40.4962 11.7894 41.6472 11.6703C41.7235 11.7367 41.9649 11.9697 41.8243 12.0789C41.6616 12.2051 40.3461 12.5772 39.9445 12.7611C39.4969 12.9783 39.0424 13.1968 38.609 13.4417C39.048 13.4257 41.4736 13.6262 40.6733 14.4694L40.6432 14.4586C39.4325 14.0109 38.9482 13.5623 37.4946 14.2238C36.9661 14.4643 36.1952 15.0914 35.8366 15.5493C37.6927 14.866 39.1513 15.6667 38.6675 16.0727C38.3717 16.1422 38.0132 15.9368 37.7246 15.8747C36.745 15.6641 35.9986 16.1236 35.0723 16.2235C34.7997 16.4472 33.9191 17.4963 33.6734 17.8122C34.1547 17.6963 36.8212 16.3457 36.954 17.1762C36.9763 17.3152 36.8477 17.4077 36.7506 17.4786C35.7255 17.4955 33.5398 18.145 32.8527 18.9942C33.139 18.9811 33.425 19.003 33.7113 19.0052C37.6845 19.035 42.1219 15.718 42.4082 11.5679C41.0232 10.95 40.9981 10.0113 38.9515 10.1575ZM38.4939 18.9228C35.9089 19.1733 35.3454 19.8155 33.8521 21.6435C34.0964 21.6637 34.3248 21.6839 34.5693 21.6435C35.3676 20.6516 36.3205 20.026 37.612 19.8843C37.8803 19.8549 38.351 20.0125 37.9904 20.3238C37.6551 20.6133 36.3292 20.3791 35.2041 21.6435C35.9813 21.5551 36.8378 21.6341 37.5607 21.5312C37.9228 20.837 40.0102 19.6255 40.537 19.7684C41.0264 20.1904 39.8864 20.4637 39.7158 20.5448C39.1985 20.7905 38.6268 21.1307 38.22 21.5312C39.891 21.546 43.2873 22.0345 44.5747 22.8834C44.9704 23.1443 45.5204 23.4272 44.9363 23.8117C44.0152 23.0565 42.8798 22.6534 41.7207 22.4207C41.7841 22.494 43.2317 24.2183 42.3619 24.0694C42.3171 24.0618 41.1324 22.5425 40.8933 22.3154C40.3235 22.2399 39.7572 22.1766 39.1907 22.076C38.9186 22.0518 38.641 22.0361 38.3712 21.993L38.4042 22.0172C38.8626 22.3482 40.9024 23.5005 40.484 24.0508C40.3571 24.2176 40.2053 24.1858 40.0788 24.0523C39.1312 23.0514 38.7024 22.5984 37.2514 22.1302C36.7619 21.9722 36.1336 22.0914 35.6244 22.076C36.0246 22.2488 38.882 23.6221 37.7812 23.8176C37.539 23.8605 36.8684 23.2628 36.6349 23.1317C35.8684 22.7015 34.9324 22.3429 34.0675 22.1904C35.5354 23.7921 38.4843 25.1264 40.5827 25.2152C43.0223 25.3184 44.3635 24.6533 46.4483 23.5128C44.4494 20.3421 42.1855 18.8742 38.4939 18.9228ZM33.4936 25.9036C32.4372 26.0417 31.3381 26.222 30.409 26.7783C30.858 26.8421 31.2498 27.0351 31.6867 27.1247L31.7233 27.1157C32.0197 27.0416 32.2982 26.9098 32.5872 26.8126C33.144 26.6252 34.87 26.4855 35.3813 26.8158C35.5738 26.9402 35.5151 27.2461 35.2752 27.2687C34.4377 27.3479 33.7732 26.7611 32.4836 27.4179C32.8472 27.5737 34.4354 28.2511 34.6291 28.272C34.8912 28.3005 35.2429 28.1732 35.5089 28.1365C35.8532 28.089 39.2792 28.0245 38.13 28.8668C37.3091 28.6212 36.2295 28.523 35.3909 28.6819C36.1792 28.9518 37.174 29.6494 37.8445 30.1674C39.689 29.1957 41.3655 31.082 39.8563 30.6186C39.337 30.4592 38.8963 30.3752 38.3712 30.5405C38.8206 30.8132 40.5773 32.3345 40.3351 32.9182C39.9867 33.2453 39.5803 32.4206 39.398 32.2013C39.0222 31.7495 38.0692 30.7894 37.5607 30.5405C37.7207 30.9989 38.4481 32.4829 38.2137 32.8977C38.1468 33.0162 37.9191 33.0649 37.8147 32.9728C37.6775 32.8519 37.669 32.3942 37.6342 32.206C37.5109 31.5409 37.1135 30.9688 36.9741 30.1674C36.6223 29.9365 35.1329 28.9652 34.8112 28.9219C34.8275 28.9887 34.8584 29.0293 34.8985 29.083C35.1636 29.521 36.1107 31.1534 35.988 31.6651C35.9588 31.7868 35.8034 31.9214 35.672 31.8753C35.175 31.7013 35.4121 28.8241 32.3115 27.9302C32.717 28.4335 33.5927 29.5674 33.9071 30.1425C34.0138 30.3374 33.8437 30.5694 33.6328 30.4833C33.087 30.2603 32.2579 27.9075 30.409 27.305C32.0189 30.3791 34.4514 33.059 38.0323 33.6016C38.7935 33.7171 40.0107 33.7483 40.7056 33.3982C41.7773 32.8582 41.2463 30.8707 40.8234 30.0838C39.6867 27.9679 36.9292 26.2123 34.5098 25.9713C34.1719 25.9376 33.8314 25.9362 33.4936 25.9036ZM16.4564 9.64421C13.7261 10.856 14.0116 14.5363 15.0318 16.8324C15.4553 17.7853 17.1365 19.9839 18.1546 20.4188C18.1534 20.2876 18.1474 20.1545 18.1546 20.0235L18.1402 19.9931C17.8698 19.4335 16.9947 18.2667 16.5967 17.785C16.45 17.6077 15.8943 17.2096 15.9826 16.9603C16.2863 16.1022 17.98 18.7767 18.1546 18.9942C17.9793 17.8345 18.0556 17.4997 17.3148 16.4887C16.8696 15.8809 16.3169 15.3394 15.5638 15.157C15.3821 15.1131 14.8191 15.0334 15.1587 14.7075C15.7596 14.131 17.3623 15.7503 17.7125 16.0878C17.0472 14.4604 17.157 13.8234 15.5242 12.7679C15.0832 12.4829 15.3782 12.0062 16.0713 12.501L16.11 12.529C16.4167 12.7497 16.6687 12.9815 16.8994 13.2814C16.7645 12.853 16.3067 11.4607 16.4814 11.0932C16.9145 10.1819 17.3488 13.1204 17.4044 13.4417C17.6331 12.7584 17.8651 12.1 18.6109 11.8755C19.1254 12.2293 18.4722 12.4739 18.2367 12.7995C17.5472 13.7532 17.9768 14.9843 18.1841 16.0154C18.3405 16.7934 18.4978 17.6257 18.6109 18.4085C18.9001 17.5737 18.9002 16.5844 18.9218 15.7085C18.9272 15.4836 18.831 14.7559 19.0825 14.6353C19.8997 14.2435 19.2766 18.06 19.1351 18.5907C18.9754 19.1897 18.6798 19.508 18.695 20.1651C20.758 17.488 21.1707 12.7255 18.298 10.5138C17.97 10.2613 16.8553 9.55693 16.4564 9.64421ZM10.4164 38.258C7.3064 38.2609 7.48248 42.7195 10.358 42.7497C13.4951 42.7674 13.2803 38.0791 10.4164 38.258ZM8.39871 24.5208C5.38069 24.8929 5.76864 29.2621 8.95434 28.936C9.54071 28.8743 10.1219 28.5019 10.4874 28.0472C11.6648 26.5828 10.2365 24.143 8.39871 24.5208ZM9.37905 33.3821C7.15251 33.729 6.34729 36.1407 8.06521 37.3634C8.58069 37.7303 9.07141 37.7814 9.68599 37.7687C11.7597 37.5122 12.6136 35.1087 10.9211 33.824C10.5051 33.5082 9.90795 33.2874 9.37905 33.3821ZM6.57933 28.936C3.59696 29.646 4.2249 33.7997 7.4083 33.4901C8.53469 33.0756 8.74242 32.774 9.26236 31.7153C8.91832 31.1514 8.88825 30.6024 8.95434 29.9568C8.87597 29.7762 8.80857 29.6913 8.64415 29.5793C7.92496 29.413 7.47244 29.3457 6.82372 28.936H6.57933ZM14.1922 34.8405C11.0364 35.4762 11.6364 39.378 14.5321 39.3761C17.4529 39.0342 17.1445 34.8372 14.1922 34.8405ZM10.4164 20.4188C8.7502 20.3378 7.93149 22.4657 8.7539 23.9644C9.76422 24.1116 9.9643 24.2013 10.7713 24.8303H10.9806C13.0919 24.497 13.8164 22.0206 12.0851 20.7809C11.6646 20.4799 10.9307 20.1777 10.4164 20.4188ZM15.648 23.9644C12.7639 24.0806 12.9105 28.659 16.11 28.3167C18.188 27.9984 18.9027 25.5928 17.1784 24.3781C16.7781 24.0961 16.1459 23.8125 15.648 23.9644ZM20.4566 26.2797C17.6697 26.5091 17.4981 30.6526 20.7828 30.8279C24.2693 29.7606 22.7309 26.1393 20.4566 26.2797ZM16.4564 29.9568C13.4218 30.0595 13.7201 34.5015 16.8788 34.3238L16.8994 34.3225C20.1124 33.8169 18.9635 29.5974 16.4564 29.9568ZM19.6607 32.393C19.2751 32.4153 19.4315 32.6238 19.2853 33.0511C19.0252 33.8103 18.4221 34.3209 17.7125 34.6391C17.8047 36.3193 18.9053 36.9747 20.4566 37.0542C23.7257 36.3111 22.5542 31.9032 19.6607 32.393ZM11.538 28.4768C11.0383 28.522 10.0572 28.969 9.72777 29.3928C9.44507 29.7562 9.41321 30.4205 9.48441 30.8552C9.70062 32.1749 10.748 32.7041 11.9811 32.6656C15.1456 32.3052 14.4011 28.204 11.538 28.4768ZM17.328 37.3833C17.2553 37.3865 17.1583 37.3734 17.1051 37.4223L17.1028 37.4544C17.018 38.5212 16.3171 39.3504 15.3539 39.7432C15.5701 41.05 16.6636 42.2434 18.0538 41.9474C21.1867 41.4137 20.3557 36.9637 17.328 37.3833ZM23.3628 28.6819C23.1718 29.6071 22.9522 30.3176 22.1131 30.8624C21.1553 31.4843 19.9953 31.4134 19.0532 30.8279C19.2255 31.1471 19.3796 31.4971 19.4699 31.8493C20.3886 31.8635 20.9784 31.8295 21.7664 32.393C22.1068 32.6447 22.3168 32.9418 22.5844 33.2597C26.3154 33.9517 26.7244 28.9979 23.3628 28.6819ZM7.4083 37.503C6.62887 38.7503 4.69491 41.8782 4.61595 43.3644L4.61437 43.3908C4.67855 43.5252 4.74448 43.621 4.85462 43.7204C5.27939 43.7555 5.56697 43.6523 5.94687 43.4812C6.70696 43.0289 7.3532 42.4615 7.96882 41.8302C7.13527 40.5033 7.68151 39.2756 8.64415 38.258C7.93637 37.9813 7.84502 37.7346 7.4083 37.503ZM35.7106 19.196C35.1296 19.3115 34.5928 19.4765 33.9926 19.5059C33.4663 19.5316 32.9458 19.4694 32.4166 19.5078C32.1418 19.7042 31.2824 20.6968 30.9513 21.0218C30.665 21.3029 30.2675 21.4731 29.9963 21.7589L29.9925 21.7937L30.0238 21.7969C30.9179 21.6132 32.4055 21.5248 33.2706 21.7969C33.9416 20.1498 35.6527 19.3622 35.7377 19.2014L35.7106 19.196ZM13.7814 32.393C13.0933 33.0069 12.5882 33.1759 11.6706 33.2597C11.5718 33.3302 11.4897 33.4045 11.4046 33.4901L11.4173 33.5087C11.7692 34.0133 12.1178 34.2644 12.258 34.9183C12.3459 35.4522 12.649 34.8662 13.0055 34.6637C13.3525 34.4667 13.8049 34.3958 14.1922 34.3225C14.2491 34.1507 14.335 33.9278 14.2938 33.7468C14.1536 33.3485 13.9397 32.8131 13.7814 32.393ZM17.861 27.9302C17.4386 28.622 16.5323 28.8074 15.7851 28.936C15.6997 29.1499 15.5911 29.3596 15.5234 29.5793C15.7435 29.5148 15.941 29.4771 16.1705 29.4734C16.8698 29.3545 17.628 29.4534 18.1546 29.9568C17.8377 29.1693 17.8266 28.7695 17.861 27.9302ZM15.9363 34.7959C16.4739 35.5367 16.9742 35.5365 17.1016 36.828C17.4904 36.8246 17.9098 36.8946 18.2786 36.8829C17.6738 36.41 17.1831 35.6324 17.2284 34.8405C16.7942 34.851 16.3675 34.8573 15.9363 34.7959ZM9.57997 32.2457C9.48609 32.4595 9.37576 32.661 9.26236 32.8647C9.6768 32.8562 10.0347 32.8747 10.4164 33.0484C10.4947 33.0645 10.5578 33.092 10.6344 33.0657L10.6284 33.028C10.1942 32.7506 9.93858 32.6764 9.57997 32.2457ZM11.538 37.503C11.4176 37.5879 11.2923 37.6689 11.1836 37.7687C11.3054 37.8085 11.4209 37.8516 11.538 37.9043C11.6096 37.9542 11.677 38.0032 11.7413 38.0624C11.7015 37.936 11.632 37.5669 11.538 37.503ZM14.7651 34.2053L14.7174 34.3061C14.7872 34.4205 15.0355 34.432 15.1559 34.4707L15.155 34.4344C15.0397 34.3448 14.9151 34.2179 14.7651 34.2053Z" fill="#418D12"/>
<path d="M24.7582 30.2991C25.6946 30.2409 25.122 32.2754 24.1209 32.6657C23.2673 32.4961 24.2983 31.8529 24.4834 31.5937C24.7738 31.1876 24.3839 30.5723 24.7582 30.2991Z" fill="#418D12"/>
<path d="M19.2244 39.2087C20.0488 39.1666 19.5473 41.1096 18.2787 41.3799C18.1566 41.3887 18.0511 41.3628 17.9657 41.268C17.6 40.8615 18.4696 40.7007 18.668 40.5314C19.1873 40.0888 18.8728 39.4943 19.2244 39.2087Z" fill="#418D12"/>
<path d="M12.8402 29.3633C13.6001 29.3625 13.8679 31.2916 12.8402 31.849C11.9051 31.9548 12.9256 31.0932 12.9782 30.6684C13.0383 30.1835 12.3216 29.6968 12.8402 29.3633Z" fill="#418D12"/>
<path d="M21.6818 34.2051C22.583 34.4115 21.625 36.0106 20.7831 36.4024C19.7806 36.378 20.767 35.7787 20.9727 35.6356C21.5893 35.2069 21.1495 34.5264 21.6818 34.2051Z" fill="#418D12"/>
<path d="M18.0533 31.272C18.6812 31.0819 18.6546 33.1565 17.2279 33.6674C16.2717 33.513 17.5803 32.7889 17.7135 32.5689C18.0894 31.9482 17.424 31.3486 18.0533 31.272Z" fill="#418D12"/>
<path d="M21.916 28.1914C22.7444 28.2673 22.1277 29.8446 20.9694 30.1669C20.7971 30.2133 20.583 30.0927 20.6205 29.8904C20.6619 29.6667 21.271 29.5339 21.4899 29.2662C21.7557 28.9412 21.5938 28.4568 21.916 28.1914Z" fill="#418D12"/>
<path d="M17.3283 25.4678C18.0676 25.568 17.57 27.2352 16.6155 27.5962C15.8061 27.5295 16.8088 26.7816 16.9324 26.6015C17.1705 26.2545 16.9329 25.5917 17.3283 25.4678Z" fill="#418D12"/>
<path d="M11.9058 21.4268C12.7762 21.5922 12.7287 23.3892 11.7409 23.964C10.9919 24.1107 12.0053 22.974 11.9969 22.6017C11.9873 22.1744 11.4713 21.7677 11.9058 21.4268Z" fill="#418D12"/>
<path d="M15.7848 36.8274C16.4253 36.7391 16.2144 38.5022 14.7649 38.8166C14.5221 38.8257 14.3018 38.7594 14.3948 38.4501C14.5029 38.0901 15.4276 38.3755 15.5287 37.2757C15.5504 37.0396 15.5426 36.9232 15.7848 36.8274Z" fill="#418D12"/>
<path d="M6.57896 29.4733C6.7102 29.4538 6.88681 29.5469 6.91095 29.6853C6.95259 29.9242 6.26511 30.2301 6.08514 30.3783C5.74616 30.6574 5.73872 31.105 5.50455 31.4436C4.61653 31.464 5.32878 29.8147 6.57896 29.4733Z" fill="#418D12"/>
<path d="M8.64367 34.1104C9.50764 34.1173 8.44189 34.8963 8.40171 34.9441C8.12301 35.276 8.27971 35.9412 7.96834 36.1185C7.16599 36.0699 7.73967 34.405 8.64367 34.1104Z" fill="#418D12"/>
<path d="M10.0314 25.9035C10.831 25.8842 10.4364 27.5625 9.5799 28.0998C8.66519 28.2454 9.84741 27.0579 9.87725 26.9464C9.97014 26.5994 9.71182 26.1501 10.0314 25.9035Z" fill="#418D12"/>
<path d="M11.7415 40.1401C12.5841 40.1082 12.1718 41.8212 10.7715 42.1542C10.5971 42.1517 10.3976 42.023 10.4065 41.8261C10.4171 41.5939 11.0522 41.4405 11.2621 41.2758C11.6851 40.944 11.4326 40.3735 11.7415 40.1401Z" fill="#418D12"/>
<path d="M42.5444 20.5861C42.6727 20.5761 42.7555 20.5726 42.8597 20.6587C43.2636 20.9927 41.7893 21.3544 41.4223 21.561C41.3358 21.5849 41.2647 21.6124 41.1757 21.589C40.4035 21.0817 42.3168 20.6457 42.5444 20.5861Z" fill="#418D12"/>
</svg>
