<svg width="51" height="50" viewBox="0 0 51 50" fill="none" xmlns="http://www.w3.org/2000/svg">
<path d="M31.7043 3.47657C33.0322 3.39633 34.1253 4.97829 34.2461 6.05975C34.3724 7.19122 33.6237 7.74799 32.5911 7.85964C31.5615 7.97094 29.8629 9.31775 29.2148 10.1273C31.6215 9.55573 34.0796 10.2423 35.7229 12.1609C37.482 12.3554 38.8105 12.7651 40.0184 14.209C40.4436 14.7173 40.4504 14.851 40.9881 15.3236C43.9939 17.9663 42.2616 27.3985 41.4859 30.6347C40.4218 35.0745 36.6821 45.3891 30.4417 43.8687C29.0268 45.8491 25.7505 46.735 23.511 45.8069C21.9271 45.3659 21.516 44.5046 20.4285 43.8687C18.0684 44.2217 16.3059 43.4085 14.6983 41.6143C12.8074 39.5037 11.5231 36.9646 10.579 34.3086C9.19131 30.4047 6.18465 18.3147 10.312 15.0879C10.8575 14.6614 10.7606 14.7803 11.1399 14.1716C12.0122 12.7718 13.901 12.0607 15.4851 12.1609C16.8367 9.52391 20.639 9.53436 23.0025 10.6696C23.2884 10.8069 23.5813 10.9506 23.8328 11.1451C24.7968 8.56827 26.7019 6.16889 29.0827 4.77542C29.6269 4.45694 31.2142 3.53384 31.7043 3.47657ZM18.8632 15.9674C14.5488 17.1522 15.1892 23.276 16.1225 26.6C16.9129 29.4154 16.8757 30.7224 17.0868 33.603C17.362 37.3578 19.3383 42.5462 22.8381 44.4961C25.5118 45.9857 28.1475 45.2265 30.0328 42.9547C30.2506 42.6923 30.4337 42.3932 30.656 42.1378C32.7512 38.9343 33.6399 35.9569 34.0476 32.1781C34.1829 30.9239 34.1928 29.6738 34.4264 28.4292C34.5873 27.5722 34.8972 26.7759 35.1488 25.9446C36.0478 22.9753 36.2042 18.4351 33.2274 16.5183C31.6699 15.5153 29.6676 16.1765 28.0832 16.7912C24.3008 18.259 24.8471 17.4118 21.1373 16.2973C20.3894 16.0726 19.64 15.9982 18.8632 15.9674ZM12.874 15.1112C7.16522 15.1717 9.5456 26.8106 10.3009 30.0038C11.2145 33.867 13.8702 41.8784 18.3871 42.9313C18.8622 43.0398 19.3136 43.0585 19.7979 43.0546C17.579 39.9765 16.4306 37.5061 16.1653 33.5856C15.9822 30.878 15.9898 29.6477 15.2831 27.0094C14.3758 23.6221 13.8284 19.7517 16.0208 16.7024C16.2103 16.4389 16.4503 16.2149 16.6596 15.9674C15.4636 15.5399 14.178 14.9838 12.874 15.1112ZM37.7478 15.2081C36.711 15.2268 35.1152 15.5818 34.2049 16.0628C36.9201 18.5475 37.0992 22.7649 36.058 26.0843C35.8053 26.8899 35.4964 27.6839 35.3351 28.515C35.0847 29.8049 35.1081 31.1191 34.965 32.4197C34.6007 35.7321 33.652 39.1162 31.8886 41.9658C31.6475 42.3557 31.3482 42.6816 31.0928 43.0546C31.6012 43.105 32.0505 43.0228 32.5478 42.9313C35.7111 41.8541 37.0464 39.5094 38.4728 36.6105C40.3615 32.7717 41.1942 28.1507 41.5905 23.9072C41.8082 21.5774 42.2851 16.8149 39.6699 15.5454C39.0823 15.2601 38.3995 15.131 37.7478 15.2081ZM31.8554 4.33033C31.6449 4.3536 29.5738 5.56074 29.2525 5.75095C26.3819 7.45058 24.0233 11.4973 24.0606 14.8554C24.5784 15.0374 25.0734 15.0682 25.6176 15.0616C26.0377 15.0099 26.4304 14.9207 26.8209 14.7547C26.8134 12.4246 27.2903 10.6941 29.0207 8.95393C29.6996 8.27129 31.1223 7.27292 32.0477 6.99155C32.4684 6.86365 33.802 6.98468 33.3123 5.8913C33.073 5.35701 32.5214 4.35302 31.8554 4.33033ZM19.7979 10.8176C18.6133 10.8306 17.3158 11.3269 16.5429 12.2472C17.7626 12.3487 19.5338 13.2577 20.4285 14.1008C20.4836 14.1264 20.5381 14.1506 20.5888 14.1845C21.3117 13.3376 22.0574 12.3865 23.3743 12.5151C23.4231 12.3508 23.4695 12.1866 23.511 12.0203C22.4325 11.3259 21.1031 10.7412 19.7979 10.8176ZM30.5825 10.8176C29.802 10.9313 29.0965 11.087 28.3543 11.3508C28.1873 11.7278 28.0619 12.123 27.9358 12.5151C29.9914 12.6492 29.4971 13.4026 30.4417 14.2831C30.6981 14.052 30.9723 13.8396 31.25 13.6346C32.5588 12.7465 33.2273 12.6743 34.585 12.2472C33.0146 11.159 32.4033 10.9149 30.5825 10.8176ZM15.0913 13.063C13.7673 13.2015 13.3194 13.4598 12.2599 14.1845L12.301 14.1888C12.6998 14.2274 13.1014 14.1609 13.501 14.1874C14.6452 14.263 16.5671 14.7385 17.533 15.451C17.5854 15.4404 17.6239 15.4151 17.6689 15.3872C18.3424 14.9692 19.4599 14.9887 20.2227 15.1112C18.8322 13.8088 17.0474 12.9975 15.1198 13.0618L15.0913 13.063ZM35.1566 13.1364C33.6634 13.3065 31.973 13.9512 30.9504 15.1112C31.9923 14.9607 32.3597 15.1879 33.2602 15.451C33.6176 15.3101 33.9462 15.1174 34.3304 15.0616C35.4914 14.2418 37.5173 14.3816 38.8616 14.2831C37.6123 13.5168 36.7731 12.9779 35.1566 13.1364ZM27.7414 13.4503C27.7404 13.695 27.7387 13.9398 27.7414 14.1845C28.2925 14.1326 29.3224 13.4366 28.6519 14.3006C26.7782 16.7149 23.5825 16.6147 21.9675 13.958C21.6027 14.3029 21.332 14.7407 21.1519 15.2081L21.0924 15.3188L21.1004 15.3426C22.1512 15.5569 23.0836 16.1067 24.103 16.4161C26.0865 17.0181 27.7745 15.7467 29.8277 15.2929C29.2156 14.3501 29.1008 13.3865 27.7414 13.4503ZM23.1581 13.4503C22.816 13.4986 22.5822 13.5891 22.2953 13.7811C22.4079 13.8824 22.5023 13.9996 22.6139 14.1008C22.8016 14.1501 22.978 14.211 23.1581 14.2831C23.1571 14.1735 23.2018 13.4828 23.1711 13.4493L23.1581 13.4503Z" fill="#418D12"/>
<path d="M36.1635 31.1191C36.6254 31.145 36.4867 31.805 36.491 32.1249C36.527 34.8083 35.7775 37.5675 34.5393 39.9391C34.3542 40.2934 34.1582 40.7855 33.8819 41.0695C33.1433 41.0351 33.9038 40.1601 34.0613 39.8702C35.3262 37.5427 36.0598 34.5564 36.0455 31.9356C36.0441 31.6931 35.9842 31.3004 36.1635 31.1191Z" fill="#418D12"/>
<path d="M31.6301 17.5537C31.8945 17.646 32.0761 17.9014 32.2441 18.1136C33.5111 19.714 33.8301 22.4483 33.5982 24.4205C33.5301 24.9992 33.2858 26.5325 32.8606 26.868C32.2924 26.7345 32.7581 26.128 32.8884 25.6709C33.4699 23.632 33.2659 20.0809 31.8587 18.359C31.6009 18.0436 31.1755 17.8996 31.6301 17.5537Z" fill="#418D12"/>
<path d="M18.497 28.1783C19.1371 28.1278 18.8616 29.3022 18.8641 29.8554C18.8808 33.6089 19.8284 38.4598 22.0151 41.5925C22.2025 41.861 22.5943 42.1308 22.2952 42.4526C21.8208 42.5019 21.3641 41.4667 21.1745 41.1247C19.7229 38.5058 18.8297 35.6279 18.5317 32.6498C18.4711 32.0443 18.2371 28.5472 18.497 28.1783Z" fill="#418D12"/>
</svg>
