<svg width="51" height="50" viewBox="0 0 51 50" fill="none" xmlns="http://www.w3.org/2000/svg">
<path d="M34.9725 3.44432C36.0611 3.38685 36.4241 5.91408 36.4369 6.66606C37.3986 7.17792 37.5618 8.48256 37.4687 9.46167C37.2258 12.0171 35.5838 13.7477 33.7344 15.284C35.142 17.7097 33.8025 21.1573 31.3664 22.356C30.9943 22.5391 30.6026 22.6606 30.212 22.7964C30.196 22.9379 30.2063 23.0794 30.212 23.2213C31.6284 23.1668 32.524 23.9321 33.5136 24.7441C34.4719 23.5453 35.1443 23.3306 36.4369 22.7964C32.376 17.908 38.3949 11.1449 43.5413 14.1061C47.4849 16.3752 47.3293 22.3467 43.1098 24.0718C42.8174 24.1913 42.514 24.2687 42.2091 24.3485C43.3226 25.5673 43.9377 27.1127 43.8236 28.776C43.4822 33.7523 37.2982 35.9845 34.0686 32.2139C32.4512 34.1476 30.7039 34.8104 28.1287 34.3557C26.9914 34.8759 26.2471 36.4098 26.318 37.603C27.1552 37.2275 26.8765 37.431 27.5452 36.7617C29.2335 35.0719 32.9514 33.7171 35.192 34.8044C35.213 35.0984 35.1736 35.3795 35.1328 35.67C37.1696 36.0889 39.0647 38.3504 39.1484 40.398C39.1871 41.3482 38.965 41.9435 38.4687 42.7329C35.9887 46.6779 29.8809 47.0738 26.5586 43.9673C24.0787 41.6142 23.7124 37.726 26.0783 35.1342C26.4664 34.7089 26.9096 34.3636 27.386 34.0436C26.8481 33.7548 26.3855 33.4533 25.9212 33.0555C25.6418 33.6242 25.676 33.7017 25.2787 34.2057C23.6406 36.2832 20.9623 36.9424 18.5341 35.8053C15.8176 34.5331 14.6263 31.1333 15.9069 28.4317C16.7803 26.589 18.0126 25.9352 19.8896 25.2597C19.2887 24.8245 18.9833 23.6475 18.7809 22.9499C17.5123 23.7743 16.0846 23.984 14.6083 23.7659C16.2565 26.0265 15.8657 29.0519 13.9282 31.0192C11.9001 33.0785 8.28242 32.9574 6.26961 30.9449C2.9946 27.6705 4.89348 21.9475 9.56706 21.5216C10.0708 21.4757 10.5814 21.5047 11.0867 21.5079C10.7045 20.9287 10.3737 20.3507 10.1637 19.6835C8.70063 15.0331 13.6962 10.8159 17.7363 12.9651C17.6469 12.666 17.5042 12.3846 17.4195 12.0847C15.7218 6.08078 23.859 2.36689 27.2694 7.5558C28.2449 9.03998 28.3967 10.5577 28.0466 12.2403C28.328 12.1975 28.6014 12.1799 28.8856 12.171C29.5476 9.63188 33.0053 6.24693 35.7276 6.34565C35.6287 5.39865 35.4599 4.90057 34.921 4.12257C34.7195 3.83162 34.638 3.64355 34.9725 3.44432ZM29.2103 23.8509C23.0986 24.6395 23.3491 34.1801 30.212 33.7882C33.0793 33.2243 34.9706 30.7717 34.3891 27.8477C33.9189 25.4832 31.6792 23.5568 29.2103 23.8509ZM15.2947 13.1484C12.4806 13.2681 10.5 15.5541 10.6347 18.3401C10.7609 20.949 13.0275 23.11 15.6353 23.1212C17.0614 23.1665 17.5578 22.7687 18.698 22.1926C18.6943 20.8499 19.0003 19.6635 19.7328 18.5291C19.9109 18.2531 20.1509 18.026 20.3145 17.7392C20.1879 15.0634 17.9634 13.0687 15.2947 13.1484ZM9.76608 22.1926C5.33837 22.6925 3.70933 28.0822 7.07722 30.7121C8.16392 31.5607 9.18651 31.829 10.54 31.8129C11.7121 31.7739 12.8172 31.1802 13.6068 30.3322C16.6398 27.075 14.1229 21.9582 9.80681 22.1901L9.76608 22.1926ZM40.6044 14.1635C36.3871 14.3848 34.2845 19.4366 37.2305 22.6226C38.8002 22.622 39.7198 22.6142 41.1118 23.494C41.238 23.578 41.3545 23.6703 41.472 23.7659C43.0308 23.4882 43.9747 23.0058 44.9001 21.6877C46.4881 19.4262 45.6713 16.4234 43.4471 14.9025C42.7765 14.4439 41.4166 13.959 40.6044 14.1635ZM37.55 23.3146C35.5794 23.5539 35.2208 24.1165 33.9552 25.2597C35.2495 26.4389 35.4173 29.2296 34.8397 30.7967C34.7368 31.0757 34.5966 31.3412 34.5232 31.6305C35.2335 33.0457 37.4326 33.473 38.877 33.3741C39.1868 33.2804 39.5064 33.2127 39.811 33.1037C45.2733 31.1494 43.5866 22.9653 37.55 23.3146ZM22.3176 5.82C17.8516 6.25256 16.3943 11.7979 19.7775 14.5044C20.7812 15.3074 22.026 15.6999 23.3069 15.6721C23.4383 15.6706 23.5697 15.6687 23.7011 15.6721C24.2883 13.9718 25.5211 12.9899 27.1562 12.4405C28.1981 10.27 27.0454 7.36217 24.9005 6.34003C24.1895 6.00118 23.1031 5.68887 22.3176 5.82ZM23.8599 16.7976C20.0431 17.264 18.2032 21.6769 20.3067 24.7506C20.7465 25.3933 20.7973 25.147 21.5632 25.1725C22.6345 25.2082 23.8823 25.763 24.6351 26.5043C24.6899 26.3876 24.7519 26.2816 24.8206 26.173C25.4972 24.3481 27.6394 23.3279 29.4555 23.1212C30.2853 19.7521 27.3131 16.4099 23.8599 16.7976ZM20.7314 25.8932C19.2507 26.0376 18.133 26.5574 17.1764 27.7229C14.5764 30.8902 16.8206 35.5615 20.9712 35.6181C23.2677 35.6349 24.4988 34.4019 25.4231 32.4947C24.1179 31.4144 23.878 28.7748 24.3531 27.1965C23.3694 26.282 22.0803 25.762 20.7314 25.8932ZM28.5333 12.8905C26.7949 12.9548 24.64 14.3464 24.2539 16.1099C25.9381 16.1235 27.4301 16.6905 28.6382 17.9104C29.3514 18.6306 30.1475 20.0535 30.212 21.0743C30.2593 21.3879 30.2699 21.6993 30.2746 22.0158C32.6354 21.4283 34.0328 18.7091 33.4598 16.4116C32.9273 14.2764 30.7326 12.681 28.5333 12.8905ZM34.2654 40.6476C32.65 40.7629 31.8298 41.8208 30.0655 41.9467C30.6045 43.2515 32.1909 44.1142 33.5801 44.0426C34.9313 44.1257 37.2662 43.2384 37.9001 41.9467C36.8655 41.0133 35.6713 40.497 34.2654 40.6476ZM28.8856 37.6821C27.8936 37.748 27.2175 37.958 26.318 38.3374C26.9547 40.3738 28.7663 41.7049 30.9075 41.1181C31.6916 40.8938 32.5676 40.3259 33.5136 40.0183C32.3105 38.4498 31.0048 37.5276 28.8856 37.6821ZM25.4733 37.6821C23.8904 43.5489 30.5758 46.9369 35.4682 44.5553C35.6275 44.4805 35.7919 44.4104 35.9382 44.3118C35.7457 44.3294 35.5142 44.4522 35.328 44.5141C32.7617 45.3661 30.2651 44.3212 29.2103 41.8524C27.5768 41.545 26.0316 40.311 25.7023 38.6246C25.6588 38.4021 25.6466 37.8361 25.4733 37.6821ZM35.4682 7.04534C32.8936 7.23427 30.5707 9.97939 29.5778 12.2403C29.9304 12.2691 30.231 12.3314 30.5663 12.4405C31.1944 11.2345 32.0034 10.5872 32.9462 9.63399C33.1864 9.45095 33.6495 9.52413 33.5879 9.90361C33.5369 10.2187 33.1289 10.5024 32.9122 10.7036C32.24 11.3271 31.7116 11.9174 31.2221 12.6946C31.4016 12.7817 31.5789 12.8714 31.7549 12.9651C33.7082 11.607 35.1939 9.78369 35.6264 7.36581C35.6715 7.11374 35.7675 7.00492 35.4682 7.04534ZM34.9725 36.3279C34.5831 37.1763 34.1178 38.0881 33.2868 38.5809C33.6336 39.0151 33.9496 39.3983 34.1678 39.917C35.7331 39.8487 36.1733 40.0782 37.4869 40.6476C37.7845 40.88 38.0917 41.0934 38.3232 41.3959C38.8526 39.2245 36.9797 36.8451 34.9725 36.3279ZM32.605 35.1799C31.0111 35.3702 29.5613 36.0052 28.2972 36.9883C29.3513 37.0016 30.0304 36.9115 31.109 37.2466C31.7856 37.4936 32.264 37.8826 32.8646 38.1199C33.6387 36.9846 34.1197 37.1807 34.5232 35.3086C33.903 35.1833 33.238 35.1345 32.605 35.1799ZM36.3117 7.45754C35.8046 10.1457 34.4355 11.7493 32.3991 13.4516C32.7105 13.6824 32.9485 13.9896 33.1852 14.2937L33.424 14.633C34.9878 13.4798 36.4316 11.5408 36.7248 9.5908C36.8198 8.95955 36.835 7.92612 36.3117 7.45754ZM20.6022 15.836C20.7809 16.2835 20.9004 16.7148 20.9712 17.1911C21.3265 16.9319 21.6451 16.7617 22.0637 16.6212C22.2338 16.5377 22.4029 16.4547 22.5787 16.3835C21.8572 16.3661 21.2649 16.0603 20.6022 15.836Z" fill="#418D12"/>
<path d="M21.07 33.8654C21.2962 33.8411 21.4066 33.8879 21.5779 34.0443C21.757 34.5079 21.5148 34.7318 21.07 34.8052C20.4245 34.8276 20.265 34.1514 21.07 33.8654Z" fill="#418D12"/>
<path d="M19.8898 32.214C20.5393 32.1253 21.2454 32.7163 20.4971 33.1383C19.8736 33.2691 19.1285 32.5614 19.8898 32.214Z" fill="#418D12"/>
<path d="M17.9551 31.3037C18.4694 31.3356 19.1776 32.2678 18.3995 32.409C17.7562 32.3617 17.0028 31.5557 17.9551 31.3037Z" fill="#418D12"/>
<path d="M18.3994 33.3745C18.8907 33.3231 20.0966 34.1136 19.2627 34.4973C18.6923 34.5561 17.5364 33.8235 18.3994 33.3745Z" fill="#418D12"/>
<path d="M23.3072 19.1185C23.9283 19.0804 24.2755 19.8626 23.5942 20.1096C23.3025 20.1713 23.099 20.0567 22.9395 19.8096C22.918 19.4778 22.9764 19.2545 23.3072 19.1185Z" fill="#418D12"/>
<path d="M21.2565 19.4875C22.0171 19.4736 21.9677 20.3172 21.363 20.5439C20.6971 20.5218 20.6088 19.6971 21.2565 19.4875Z" fill="#418D12"/>
<path d="M24.4414 18.1056C24.4436 18.0983 24.4456 18.0909 24.4479 18.0835L24.4593 18.0468C24.6291 17.4933 25.0878 17.5564 25.4233 17.9031C25.6094 18.101 25.6392 18.2137 25.4233 18.3998C24.9943 18.783 24.5717 18.6521 24.4414 18.1056Z" fill="#418D12"/>
<path d="M22.9399 17.6068C23.19 17.5899 23.5666 17.7306 23.4677 18.0523C23.3781 18.3433 22.7137 18.6194 22.4526 18.7635C21.5671 18.9903 21.8139 17.9278 22.9399 17.6068Z" fill="#418D12"/>
<path d="M19.2632 9.74312C19.9412 9.59847 20.0776 10.3885 19.5194 10.6644C19.2562 10.6886 19.1258 10.6386 18.9352 10.442C18.8371 10.0743 18.8933 9.87898 19.2632 9.74312Z" fill="#418D12"/>
<path d="M21.9401 6.66614C22.3887 6.64769 22.5427 6.86066 22.5789 7.28778C22.487 7.4573 22.3775 7.59239 22.1904 7.65539C21.4676 7.70711 21.3388 6.94906 21.9401 6.66614Z" fill="#418D12"/>
<path d="M21.2572 8.7244C22.0135 8.6653 21.8187 9.58865 21.0708 9.7433C20.2358 9.68669 20.5707 8.84831 21.2572 8.7244Z" fill="#418D12"/>
<path d="M20.0565 7.45841C20.9403 7.36521 20.4315 8.33776 19.7612 8.7251C18.7619 8.73083 19.4216 7.77029 20.0565 7.45841Z" fill="#418D12"/>
<path d="M40.028 26.9086C40.2124 26.8948 40.3289 26.924 40.4956 26.9958C40.7647 27.4084 40.6282 27.7516 40.1953 27.9486C39.8018 27.9948 39.6729 27.8277 39.6084 27.4553C39.6533 27.1853 39.7799 27.0329 40.028 26.9086Z" fill="#418D12"/>
<path d="M41.551 28.5411C42.351 28.5066 42.2181 29.3268 41.6632 29.6433C40.8641 29.6859 40.9681 28.793 41.551 28.5411Z" fill="#418D12"/>
<path d="M39.6082 24.845C40.1978 24.7521 41.1155 25.4807 40.3013 25.894C39.6447 25.8703 38.8916 25.0038 39.6082 24.845Z" fill="#418D12"/>
<path d="M41.3648 26.1732C41.9155 26.1127 42.6887 27.2576 41.975 27.6466C41.5506 27.7075 40.7199 26.5013 41.3648 26.1732Z" fill="#418D12"/>
<path d="M42.1307 15.2842C42.6756 15.2377 42.9321 15.7504 42.6547 16.1821C42.5659 16.2373 42.4893 16.2759 42.388 16.3029C41.7079 16.3 41.5513 15.5719 42.1307 15.2842Z" fill="#418D12"/>
<path d="M44.176 18.9486C44.9302 18.9266 44.8399 19.8714 44.2704 20.1098C43.526 19.9464 43.6169 19.2692 44.176 18.9486Z" fill="#418D12"/>
<path d="M42.4654 17.1919C43.0615 17.167 43.6119 18.1182 43.0128 18.497C42.4845 18.5288 41.8581 17.4807 42.4654 17.1919Z" fill="#418D12"/>
<path d="M43.9806 16.6211C44.5623 16.6332 44.8242 17.4266 44.7528 17.9027C44.6924 17.979 44.6091 18.0415 44.5357 18.1053C44.0542 17.9949 43.4057 16.9829 43.9806 16.6211Z" fill="#418D12"/>
<path d="M7.46797 24.4668C8.20652 24.4618 8.05439 25.2174 7.46797 25.4655C6.68954 25.4858 6.86048 24.7039 7.46797 24.4668Z" fill="#418D12"/>
<path d="M7.13568 28.6486C7.76191 28.5598 8.39723 29.3394 7.75842 29.6441C7.25014 29.6375 6.34456 28.9326 7.13568 28.6486Z" fill="#418D12"/>
<path d="M7.95319 26.1738C8.52399 26.2755 8.69292 27.3526 8.13534 27.5578C7.53003 27.4109 7.23711 26.3587 7.95319 26.1738Z" fill="#418D12"/>
<path d="M6.44195 26.3662C7.09427 26.3792 6.98776 27.8568 6.44195 27.9486C5.80491 27.7796 5.82502 26.5734 6.44195 26.3662Z" fill="#418D12"/>
<path d="M12.177 17.0674C12.9348 17.1648 12.6221 17.9811 12.0792 18.1938C11.8858 18.1899 11.7321 18.0387 11.6113 17.9034C11.5849 17.4596 11.7361 17.1915 12.177 17.0674Z" fill="#418D12"/>
<path d="M14.8431 13.9976C15.7817 13.9342 15.6804 14.7556 15.0686 14.9229C14.3081 15.1382 14.1291 14.1972 14.8431 13.9976Z" fill="#418D12"/>
<path d="M14.033 15.9482C14.8113 15.8908 14.6842 16.7146 13.9344 17.0667C13.6359 17.0393 13.5053 16.9061 13.3994 16.6211C13.4844 16.267 13.688 16.0751 14.033 15.9482Z" fill="#418D12"/>
<path d="M13.1602 14.8255C14.1023 14.7408 13.0009 15.9532 12.4928 16.1828C11.5494 16.0747 12.2618 14.9898 13.1602 14.8255Z" fill="#418D12"/>
<path d="M30.9075 26.5897C31.6456 26.5391 31.7674 27.1904 31.2221 27.5578C30.5111 27.7113 30.2452 26.8938 30.9075 26.5897Z" fill="#418D12"/>
<path d="M30.0653 24.745C30.2668 24.7054 30.3929 24.7426 30.5661 24.845C30.6165 24.9845 30.6702 25.1225 30.7246 25.2605C30.6393 25.5042 30.5368 25.6732 30.2745 25.7569C29.6296 25.7664 29.423 24.9206 30.0653 24.745Z" fill="#418D12"/>
<path d="M32.7188 27.5576C33.1548 27.6011 33.3053 27.9129 33.2874 28.3189C33.1589 28.4846 33.0593 28.5656 32.8652 28.6485C32.0593 28.6483 32.0945 27.8262 32.7188 27.5576Z" fill="#418D12"/>
<path d="M31.9031 25.4651C32.3847 25.447 33.3773 26.3371 32.7182 26.726C32.2114 26.8007 31.2649 25.8326 31.9031 25.4651Z" fill="#418D12"/>
</svg>
