<svg width="51" height="50" viewBox="0 0 51 50" fill="none" xmlns="http://www.w3.org/2000/svg">
<path d="M27.4525 8.62742C29.6609 8.45965 30.1719 10.6124 31.5194 11.8145C31.8085 12.0724 32.1598 12.2046 32.5083 12.3609C33.6978 12.8943 34.4127 14.3164 34.8002 15.5022C35.0752 16.3437 35.3373 17.926 35.7894 18.5783C36.0118 18.8991 36.4976 18.9124 36.8194 19.0988C38.6534 20.1616 38.9122 23.4811 39.9335 25.1369C40.6202 26.2501 41.821 26.7118 42.4707 27.9592C43.1697 29.3015 43.1318 31.0697 43.8466 32.195C44.5041 33.2298 45.7696 33.6373 46.5127 34.594C47.0912 35.3386 47.246 36.3823 46.4065 36.9973C45.5332 37.6373 44.0628 37.4044 43.0273 37.5932C40.8664 37.9868 40.3421 39.4805 37.3398 39.0103C36.3876 40.0176 34.5773 39.5567 33.3652 39.4161C31.389 39.1869 30.3321 39.5188 28.5293 40.2174C26.8249 40.8779 25.8 41.1326 23.9253 41.1122C21.3237 41.0376 19.2068 39.4395 16.1268 39.5032C14.2803 39.5415 12.0042 39.9283 10.8388 38.173C9.21496 38.3658 6.38156 38.2302 4.97903 37.3694C4.0214 36.7817 3.93726 35.593 4.48053 34.6855C5.21975 33.4507 6.78966 32.5488 7.67166 31.3157C9.00248 29.4554 9.49033 26.6165 11.394 25.5314C13.0455 24.5899 12.7841 24.3715 13.7881 22.7719C14.7323 21.2677 15.8808 19.972 17.6489 19.5655C18.1502 17.3877 19.5875 13.2764 21.9927 12.4556C24.1486 11.7198 24.9138 8.94884 27.4525 8.62742ZM6.41371 37.2823C6.04924 33.895 9.66226 34.0522 8.9938 34.8571C8.42944 35.5365 7.10923 34.2283 7.0836 37.3881C8.45897 37.6406 9.46948 37.5124 10.7609 37.5976C11.1673 35.0131 13.8759 35.0944 14.7157 32.6102C14.8404 32.241 14.9298 31.8617 15.0442 31.4897C15.1045 31.308 15.1703 31.128 15.2343 30.9477C15.6966 29.8693 16.3335 29.5147 16.9257 28.6284C17.18 28.2479 17.3568 27.8263 17.5772 27.4267C18.5342 25.6912 20.9316 23.1396 23.0339 23.9776C24.53 24.5738 24.8849 26.2285 26.0816 26.9473C26.9529 27.4706 27.8333 27.2376 28.7533 27.9553C30.27 27.4212 31.1655 28.1767 32.1741 27.9195C33.164 27.6669 33.556 26.5625 34.8435 26.3757C36.6207 26.1179 37.1263 27.5789 38.4868 28.0764C38.9335 28.2399 39.6103 28.3153 39.1263 28.9017C37.4079 28.8254 36.6928 27.1539 35.3506 27.007C34.0531 26.8649 33.4832 28.3097 32.2999 28.5743C31.5386 28.7447 30.3855 28.3796 29.4404 28.3945C29.6341 28.6408 29.8893 28.8173 30.115 29.0315C31.3037 30.1599 31.5468 32.048 32.4827 32.8024C33.5659 33.6757 34.7724 33.2974 36.2048 34.793C37.2662 35.9012 37.6641 36.9176 37.6337 38.4039C40.2292 38.4975 40.6008 37.5224 42.7294 36.9962C43.4988 36.806 46.7359 37.1182 46.3599 35.643C46.0909 34.5873 44.8876 34.0932 44.1179 33.4667C42.4356 32.0977 42.7902 29.9123 41.8703 28.1848C41.3123 27.1369 40.1517 26.6237 39.4877 25.6493C39.1086 25.0929 38.8904 24.3882 38.6701 23.7565C38.6326 23.5017 38.4775 23.1096 38.3527 22.89C38.0326 21.9878 37.4505 20.1571 36.5442 19.7162C36.3344 19.6142 36.1043 19.5641 35.8917 19.4705C34.9385 19.0509 34.6246 17.5391 34.4374 16.6096C33.5384 16.9523 33.9414 16.0463 33.9569 15.5843C33.9855 14.7296 33.2175 13.5056 32.4977 13.0724C31.9443 12.7394 31.431 12.6141 30.937 12.1462C29.857 11.1234 29.1056 8.82859 27.2362 9.31819C25.1921 9.85354 24.3205 12.3777 22.2562 13.0422C20.083 13.7418 19.0262 17.4497 18.3002 19.495C19.3728 20.2465 18.173 20.2036 17.6982 20.2603C16.0725 20.4544 14.6287 22.6308 13.8719 23.9114C13.4183 24.6792 13.0465 25.426 12.2201 25.8517C10.2851 26.8483 10.1004 28.0503 9.25597 29.9222C8.55299 31.4804 7.60792 32.504 6.35447 33.6363C4.53711 35.2779 3.80445 36.3519 6.41371 37.2823ZM22.0136 24.4953C19.4985 24.8557 18.6792 27.1955 17.5231 28.9047C17.0348 29.6265 16.3252 30.2083 15.9424 31C15.155 32.6287 15.491 33.6557 13.8681 34.9524C13.0556 35.6016 11.2736 36.4817 11.4446 37.7456C11.534 38.4068 12.323 38.6406 12.8872 38.6953C13.4429 35.9037 14.7995 36.798 15.7066 35.9823C16.402 35.3572 16.1943 34.1875 17.0349 33.5877C17.5304 33.2343 18.1769 33.3757 18.6699 33.0556C18.9667 32.863 19.2339 32.2535 19.5504 32.324C20.3061 32.4922 19.1903 33.5579 18.8235 33.7285C18.0894 34.0698 17.3531 33.7856 17.0027 34.7349C16.3797 36.4228 16.5837 36.4975 14.89 37.0272C14.0276 37.2969 13.5942 38.0193 13.6113 38.8852H15.738C17.0652 38.8799 18.0146 38.858 19.3175 39.2119C20.795 39.6132 22.1819 40.3628 23.7295 40.453C27.3855 40.666 29.538 38.4597 33.06 38.7093C34.0081 38.7765 37.1256 39.5657 37.0393 37.9152C36.9561 36.3215 35.6312 34.7881 34.171 34.2127C33.4293 33.9205 32.6781 33.8153 32.0412 33.289C31.0394 32.4612 30.7798 30.7239 29.7777 29.6327C27.9175 27.6072 27.1791 28.4321 25.7508 27.5202C24.5129 26.7299 23.71 24.3411 22.0136 24.4953Z" fill="#418D12"/>
<path d="M24.4228 27.415C24.8948 27.5812 24.9423 28.8017 26.1358 29.1747C26.3484 29.2412 26.8701 29.2765 26.9633 29.5213C27.0389 29.7195 26.8877 29.9003 26.7117 29.9747C25.681 29.9118 24.8316 29.3258 24.3203 28.4279C24.0535 27.9593 23.9103 27.6875 24.4228 27.415Z" fill="#418D12"/>
<path d="M29.7188 35.9079C30.3142 35.8677 31.6465 37.6875 29.9133 37.7231C28.1585 37.7511 29.0326 36.2153 29.7188 35.9079Z" fill="#418D12"/>
<path d="M29.9132 36.5225C30.0089 36.733 30.0531 36.9231 30.1802 37.1334H29.7187C29.6284 37.1421 29.5314 37.1342 29.4404 37.1334C29.5654 36.8627 29.6835 36.7072 29.9132 36.5225Z" fill="#FFFFFC"/>
<path d="M28.2585 32.0079C28.9706 31.9555 29.9361 33.811 28.5381 33.8631C26.6617 33.8723 27.3196 32.4972 28.2585 32.0079Z" fill="#418D12"/>
<path d="M28.3502 32.6348C28.6062 33.0295 28.8708 33.3146 28.3502 33.2925C28.2151 33.2986 28.0845 33.3013 27.9492 33.2925C28.0497 33.0204 28.1597 32.854 28.3502 32.6348Z" fill="#FFFFFC"/>
<path d="M25.1785 34.7024C25.6227 34.6496 27.1368 36.3008 25.4865 36.645C25.0523 36.6571 24.723 36.5886 24.423 36.2332C24.338 35.6186 24.5975 34.9838 25.1785 34.7024Z" fill="#418D12"/>
<path d="M25.2789 35.3447C25.4276 35.5576 25.5301 35.8144 25.6119 36.0591H25.2789C25.1497 36.0329 25.0544 35.9762 24.9443 35.9079C25.0263 35.6826 25.1234 35.526 25.2789 35.3447Z" fill="#FFFFFC"/>
<path d="M21.7194 30.9473C22.2227 30.9708 23.6349 32.6214 21.8657 33.0072C20.299 32.9629 20.8477 31.5468 21.7194 30.9473Z" fill="#418D12"/>
<path d="M21.8658 31.6055C21.97 31.7127 22.1301 32.2146 22.1961 32.3802C22.0867 32.3875 21.9755 32.3819 21.8658 32.3802C21.1909 32.3357 21.5715 31.8972 21.8658 31.6055Z" fill="#FFFFFC"/>
<path d="M21.2887 35.6992C21.4269 35.7006 22.6843 36.6651 22.5303 36.9828C22.3694 37.3145 21.9362 37.4949 21.605 37.5975C21.2835 37.5899 20.9552 37.6742 20.664 37.4867C20.0543 37.0941 20.6765 35.819 21.2887 35.6992Z" fill="#418D12"/>
<path d="M21.2884 36.3398C21.5065 36.5252 21.5727 36.7059 21.8653 36.8515L21.5407 36.9734C20.7668 37.0665 20.9679 36.8785 21.2884 36.3398Z" fill="#FFFFFC"/>
<path d="M20.9318 26.0537C21.8572 26.3314 20.6301 26.8904 20.4475 27.0165C19.1469 27.9142 19.6641 30.7298 17.8458 31.2622C16.9203 31.1955 17.9539 30.4646 18.0986 30.3494C19.2387 29.4417 18.4269 26.7546 20.9318 26.0537Z" fill="#418D12"/>
<path d="M14.1296 26.8083C14.7768 26.7666 15.0078 27.5429 14.3914 27.7607C13.7103 27.9211 13.5841 27.0754 14.1296 26.8083Z" fill="#418D12"/>
<path d="M32.5076 29.3226C32.7504 29.3049 32.9752 29.4657 32.8085 29.7281C32.583 30.0832 32.0176 30.238 31.6375 30.327C31.2028 30.2583 31.1946 30.0592 31.3037 29.6755L31.514 29.6684C31.8999 29.6581 32.1766 29.4999 32.5076 29.3226Z" fill="#418D12"/>
<path d="M41.9031 34.3996C42.4142 34.3861 44.1107 35.2468 43.3391 35.7853C42.9212 35.8152 42.8643 35.5335 42.5557 35.3395C42.2424 35.1426 41.223 34.8772 41.9031 34.3996Z" fill="#418D12"/>
<path d="M21.5413 18.7232C22.4719 18.5767 21.4432 20.4002 20.5472 20.7362C20.3839 20.7579 20.1231 20.6925 20.1022 20.4937C20.0776 20.2599 20.7498 19.9161 20.9142 19.7229C21.1751 19.4165 21.2733 19.0246 21.5413 18.7232Z" fill="#418D12"/>
<path d="M34.9012 28.1829C35.5255 28.0613 36.937 28.5514 36.3363 28.9689C36.0895 29.1404 35.5692 28.7787 35.2806 28.7394L35.2484 28.7353C34.6858 28.7354 34.5318 28.9603 34.0543 29.0981C33.5396 29.2466 33.3563 28.3419 34.9012 28.1829Z" fill="#418D12"/>
<path d="M26.8324 10.8137C27.0555 10.7364 27.3154 10.9214 27.2527 11.1715C27.2088 11.3461 26.6555 11.5012 26.4929 11.5885C25.6582 12.0361 25.3957 13.0846 24.8345 13.3744C24.7459 13.3924 24.688 13.3927 24.6047 13.3539C23.8525 13.0043 25.9771 10.9345 26.8324 10.8137Z" fill="#418D12"/>
<path d="M11.8745 31.7862C12.5856 31.7786 12.2315 32.5972 12.0463 32.9733C11.6703 33.737 11.0186 34.2704 10.223 34.5432C10.0209 34.5701 9.77479 34.4324 9.82111 34.1951C9.88361 33.875 10.7736 33.5983 11.1235 33.2233C11.5097 32.8095 11.4868 32.0321 11.8745 31.7862Z" fill="#418D12"/>
<path d="M28.5385 10.8138C29.0714 10.7647 29.8057 12.1368 30.2651 12.5626C30.557 12.8331 31.7341 13.1049 31.0927 13.6293C30.214 13.7489 29.339 12.4303 28.8633 11.8234C28.628 11.523 28.085 11.1535 28.5385 10.8138Z" fill="#418D12"/>
<path d="M15.0438 31.4896C12.3359 31.9829 13.9748 29.4505 14.5367 29.6954C15.0392 29.9144 15.0389 30.5241 15.234 30.9476C15.1699 31.128 15.1042 31.3079 15.0438 31.4896ZM14.3911 30.3266C14.2537 30.5193 14.1441 30.7285 14.0553 30.9476C14.1663 30.9786 14.2769 31.0133 14.3911 31.0302C15.0028 31.0532 14.6098 30.4081 14.3911 30.3266Z" fill="#418D12"/>
<path d="M34.112 30.3265C34.5581 30.2992 36.0556 32.0234 34.1824 32.1709C32.3161 32.2331 33.4622 30.4715 34.112 30.3265ZM34.112 30.9475C33.9374 31.1443 33.8431 31.3659 33.7423 31.6059C33.865 31.6073 33.9894 31.613 34.112 31.6059C34.6616 31.5421 34.4413 31.2135 34.112 30.9475Z" fill="#418D12"/>
<path d="M34.6852 23.6651C34.8541 23.6545 36.8725 25.0922 34.9011 25.5087C32.9973 25.732 33.8301 23.9837 34.6852 23.6651ZM34.6852 24.3063C34.5274 24.4995 34.3973 24.7108 34.3098 24.9455C34.4355 24.9496 34.5596 24.9548 34.6852 24.9455C34.8218 24.9206 34.9457 24.8857 35.0765 24.8397C34.96 24.6687 34.841 24.4417 34.6852 24.3063Z" fill="#418D12"/>
<path d="M31.303 19.1713C31.712 19.1382 33.3251 20.9467 31.2269 20.9748C29.4882 20.9784 30.2779 19.5195 31.303 19.1713Z" fill="#418D12"/>
<path d="M31.3036 19.7744C31.4312 19.9214 31.538 20.159 31.6374 20.3289C31.5019 20.3795 31.3668 20.4238 31.2275 20.4635C31.0778 20.4437 30.9414 20.3837 30.8018 20.3289C30.9639 20.1394 31.1473 19.9693 31.3036 19.7744Z" fill="#FFFFFC"/>
<path d="M38.6694 23.7568C38.3488 24.1078 37.9179 24.2257 37.4476 24.2013C36.2429 24.1387 36.6203 22.9195 37.3139 22.4476C37.7631 22.142 38.0812 22.5342 38.3147 22.8966L38.352 22.8903C38.4768 23.1099 38.6319 23.502 38.6694 23.7568ZM37.6331 22.9651C37.4557 23.1407 37.3333 23.3321 37.2519 23.5683C37.3608 23.5715 37.4714 23.5796 37.5799 23.5683C37.7259 23.5783 37.8742 23.5956 38.0192 23.5683C37.9454 23.3658 37.845 23.0611 37.6331 22.9651Z" fill="#418D12"/>
<path d="M24.616 17.1216C24.7247 17.1164 24.8351 17.121 24.9441 17.1216C25.6779 17.4941 26.5137 18.6419 25.0173 18.9136C23.1585 19.0962 23.778 17.5027 24.616 17.1216Z" fill="#418D12"/>
<path d="M24.8342 17.7256C25.156 18.1218 25.3326 18.324 24.6918 18.312C24.1497 18.2806 24.6044 17.877 24.8342 17.7256Z" fill="#FFFFFC"/>
<path d="M28.8813 15.4083C28.9921 15.401 29.1022 15.4053 29.2131 15.4083C29.8695 15.7861 30.653 16.9747 29.2131 17.2451C27.4459 17.4577 27.9123 15.8738 28.8813 15.4083Z" fill="#418D12"/>
<path d="M29.0458 16C29.1413 16.0623 29.3587 16.4879 29.4401 16.6096C29.3104 16.64 29.1777 16.6529 29.0458 16.6692C28.8933 16.6796 28.7734 16.6564 28.6279 16.6096C28.7324 16.3635 28.8514 16.1838 29.0458 16Z" fill="#FFFFFC"/>
<path d="M23.2901 20.4639C23.7738 20.4773 24.2145 21.4703 24.2756 21.8581C24.3469 22.3109 23.5947 22.3835 23.2901 22.4356C21.6036 22.4794 22.4531 20.6706 23.2901 20.4639ZM23.2901 21.1751C23.0991 21.3923 22.9845 21.5652 22.8732 21.8304C23.0123 21.8324 23.1512 21.8357 23.2901 21.8304C23.4 21.8315 23.5106 21.8353 23.6203 21.8304C23.5603 21.6136 23.4615 21.3302 23.2901 21.1751Z" fill="#418D12"/>
<path d="M30.7338 24.8394C31.1825 24.7668 32.794 26.2804 30.8769 26.8079C30.5748 26.7758 29.9763 26.7748 29.8472 26.4216C29.6644 25.9214 30.2626 24.9919 30.7338 24.8394ZM30.8769 25.5085C30.6174 25.6849 30.5205 25.8726 30.3831 26.1469H30.7338C31.2266 26.079 31.177 25.9981 30.8769 25.5085Z" fill="#418D12"/>
<path d="M39.2659 32.8711C39.6404 32.8232 41.5204 34.5363 39.6136 34.7838C39.34 34.828 39.0667 34.8648 38.7891 34.8634C38.1199 34.516 38.6846 33.4075 38.9867 33.0078C39.0766 32.9511 39.1675 32.9109 39.2659 32.8711Z" fill="#418D12"/>
<path d="M27.8588 22.2423C28.1917 22.2236 29.9209 23.9081 28.0414 24.1689C26.1067 24.2242 26.9036 22.6097 27.8588 22.2423ZM27.8588 22.8899C27.5668 23.2614 27.1696 23.622 27.9495 23.5679C28.0502 23.5686 28.1589 23.5783 28.2586 23.5679C28.1758 23.3653 28.0463 23.0184 27.8588 22.8899Z" fill="#418D12"/>
<path d="M40.1458 27.9554L40.1835 27.9538C40.6891 27.9334 40.6051 28.4007 40.6602 28.7726C40.7814 29.5914 41.0645 30.4423 41.579 31.1022C41.8494 31.449 42.6068 31.8135 42.0527 32.2547C41.0415 32.2976 40.1111 29.6203 39.9837 28.8522C39.9231 28.4879 39.8086 28.1863 40.1458 27.9554Z" fill="#418D12"/>
<path d="M33.2257 17.1221C34.2784 17.1981 32.2994 19.1908 35.8332 20.6214C36.233 20.7833 36.1559 21.1559 35.7875 21.271C34.7164 21.0733 33.529 20.1562 33.1231 19.1602C32.9379 18.7054 32.607 17.3733 33.2257 17.1221Z" fill="#418D12"/>
<path d="M22.5577 13.8218C22.7888 13.8065 23.0619 13.906 22.9451 14.1997C22.7368 14.7235 21.653 14.3582 21.2987 16.3802C21.0734 17.6665 20.9278 18.8096 19.4523 19.3698C19.2077 19.4225 18.9329 19.0859 19.0941 18.8765C19.3622 18.5283 19.9426 18.4598 20.2673 17.8417C20.8897 16.6571 20.4893 14.2522 22.5577 13.8218Z" fill="#418D12"/>
<path d="M12.7977 26.6953C13.01 26.6761 13.1697 26.7224 13.222 26.9542C13.2984 27.2917 12.6722 27.397 12.4616 27.5214C10.7746 28.5161 12.2942 31.6133 9.35344 32.255C8.88252 32.208 8.61837 31.6877 9.48219 31.5059C11.6571 31.0483 10.0321 27.2646 12.7977 26.6953Z" fill="#418D12"/>
<path d="M18.2292 21.175C18.5329 21.1354 18.833 21.3906 18.5918 21.6883C18.4098 21.9131 17.5842 21.8872 17.0483 22.2903C15.578 23.3962 16.359 25.7368 13.836 26.0542C13.6489 26.02 13.4404 25.8931 13.4068 25.6876C13.3525 25.3545 14.2066 25.2804 14.4261 25.1903C15.8424 24.6091 14.8975 21.634 18.2292 21.175Z" fill="#418D12"/>
</svg>
