<svg width="51" height="50" viewBox="0 0 51 50" fill="none" xmlns="http://www.w3.org/2000/svg">
<path d="M18.4638 6.79098C18.9291 6.74281 19.4055 6.79146 19.8716 6.81661L28.1281 7.32567C28.6641 7.36384 29.6934 7.22175 29.9649 7.78998C30.608 9.13603 31.1237 10.5524 31.7046 11.9261L32.8571 14.5974C33.1965 15.4044 33.5758 16.4141 33.1756 17.3114C32.9221 17.8796 30.4124 20.232 29.721 21.1165C30.1282 20.9407 30.5155 20.6533 30.9105 20.4418L33.9679 18.8185C36.1477 17.6508 36.1761 17.1472 38.5409 18.397L43.2047 20.8809C44.7293 21.6879 44.5806 21.3516 44.9964 22.9029L46.5548 28.6007C47.1985 30.9889 47.3183 31.2697 45.1712 32.6161L43.3835 33.7228C42.1089 34.4999 39.8831 35.9932 38.5244 36.5071C37.6363 36.843 37.106 36.3833 36.3052 36.0224L34.7217 35.3146C34.6966 36.0139 34.6196 36.7006 34.5427 37.3956C34.4143 38.6627 33.6964 38.8376 32.6635 39.3661C32.1725 39.6173 31.6859 39.8808 31.2014 40.1448L28.5633 41.5798C25.403 43.3095 25.6093 43.0387 22.6343 41.3758C21.1959 40.5718 19.7282 39.8374 18.2738 39.0628C17.3452 38.5682 16.8299 38.449 16.2844 37.5006C14.6103 38.7359 13.6036 38.3871 11.7685 37.8163L6.62255 36.1599C3.60508 35.2316 3.94744 34.6808 4.03868 31.9181L4.17054 27.1468C4.18416 26.7592 4.16229 26.0282 4.2697 25.6771C4.4328 25.1441 7.85009 22.5943 8.44239 22.125C9.95203 20.9291 9.47627 21.1536 9.99549 19.2933C10.1692 18.6708 11.4751 13.5999 11.6877 13.2816C12.1671 12.5638 12.829 11.9638 13.4165 11.3364L15.4487 9.12907C16.296 8.21219 17.1237 6.9123 18.4638 6.79098ZM12.5825 14.0162C13.2282 15.9842 13.9199 17.9327 14.6249 19.8799C15.1175 21.2411 15.2666 22.6857 16.9673 22.8934C17.6138 22.9724 18.2757 23.0013 18.9257 23.046L21.7698 23.2477C22.6315 23.3074 25.7022 23.7715 26.2967 23.4118C26.363 23.3285 26.4193 23.2466 26.4714 23.1539C26.3421 22.7024 26.13 22.259 25.9537 21.8224L23.6839 15.9944C23.5563 15.6646 23.4478 15.3249 23.3157 14.9977C22.8185 14.8484 22.2473 14.8705 21.7302 14.8197L14.4768 14.1411C13.8536 14.0804 13.2089 14.0032 12.5825 14.0162ZM44.155 22.4135L40.5367 24.5618C40.2698 24.7211 40.0206 24.9101 39.7523 25.0659L37.5574 26.3368C37.1014 26.6016 36.5668 26.8547 36.1756 27.2082C36.4378 27.8922 36.5464 28.6637 36.7142 29.3764L37.4698 32.7292C37.5834 33.2334 38.1381 35.8014 38.2245 35.9138C38.285 35.921 38.2807 35.9151 38.3311 35.8886C40.2644 34.7791 42.1783 33.6626 44.0673 32.4753C44.6454 32.1119 45.3183 31.7833 45.8314 31.3325C46.6353 30.6257 46.1606 29.7364 45.9387 28.8922C45.4227 26.9292 44.8422 24.984 44.3251 23.0208C44.2785 22.844 44.2438 22.5659 44.155 22.4135ZM18.5905 7.46167C17.7204 7.55768 17.3094 8.1348 16.7598 8.74306L13.4457 12.3277C13.1744 12.6209 12.8767 12.9109 12.6277 13.2227L12.5825 13.2801C14.9527 13.2976 17.9376 13.7535 20.3207 13.9962C21.0018 14.0656 22.4143 14.0945 23.028 14.2825C23.1843 14.2843 23.3408 14.2875 23.4972 14.2825C23.898 13.9989 24.4408 13.3074 24.7784 12.9191L26.0077 11.5257C26.8985 10.5164 28.3149 9.10758 29.0174 8.04494C27.9021 8.05174 26.782 7.94947 25.6692 7.87926L21.5857 7.63255L19.9331 7.50691C19.4916 7.47353 19.033 7.42571 18.5905 7.46167ZM29.5191 8.60781C28.7348 9.53784 27.9031 10.4301 27.0923 11.337L23.9936 14.8195L25.7266 19.369C25.9671 20.0133 26.7852 22.378 27.1235 22.8954C28.4538 21.5057 29.739 20.0765 31.0298 18.6499C32.7494 16.7494 33.1371 17.0463 32.0137 14.3689L30.9018 11.7697C30.6761 11.2392 29.796 8.86169 29.5191 8.60781ZM36.6201 18.3678C35.7066 18.4471 30.4455 21.5293 29.3536 22.0852C28.9715 22.2796 28.5351 22.4488 28.2098 22.7308C28.9929 22.9431 31.2356 24.2082 32.0529 24.6426L33.6978 25.5017C34.2927 25.8114 34.8837 26.1615 35.4969 26.431L35.7423 26.6333C36.5901 26.0195 37.5458 25.5551 38.4389 25.0143L41.4166 23.2307C42.1333 22.7938 42.8736 22.2858 43.6342 21.9358C42.6404 21.2452 41.1805 20.5882 40.0979 20.0174L38.221 19.0078C37.7177 18.7398 37.2062 18.3955 36.6201 18.3678ZM34.6494 29.0765C34.078 29.3109 33.5384 29.6482 32.9839 29.9231C31.07 30.8718 29.1908 31.8952 27.2954 32.8803C27.1678 33.4957 27.1334 34.1457 27.0687 34.7705L26.8075 37.0911C26.7383 37.7463 26.1838 41.6837 26.2681 41.9756L26.2967 41.9848C27.59 41.329 28.8381 40.5851 30.1208 39.911L32.2334 38.8057C33.975 37.8979 33.7668 38.2067 33.936 36.3322L34.133 34.2825C34.1875 33.7106 34.7708 29.3069 34.6959 29.0859L34.6494 29.0765ZM25.5634 24.4424C25.1185 24.523 24.7331 24.8433 24.3363 25.042C22.8024 25.8104 21.2957 26.5424 19.7684 27.3504C19.35 27.5718 18.8362 27.738 18.4638 28.0244C18.9984 28.3326 19.5708 28.5808 20.1205 28.8614L24.2473 30.9453C25.1372 31.3838 26.0549 31.7902 26.92 32.2754L27.1235 32.2015C27.909 31.713 28.7654 31.3059 29.589 30.8852L32.8481 29.2057C33.3623 28.9406 33.9061 28.69 34.4019 28.3929C32.1006 27.6265 29.3737 26.0454 27.0743 25.0534C26.6122 24.8539 26.0803 24.4153 25.5634 24.4424ZM12.1171 20.2928C11.3543 20.4904 10.7448 21.162 10.1501 21.6413L5.89011 25.0243C5.7054 25.1727 5.49343 25.2682 5.32986 25.4453C7.69711 26.0749 10.0747 26.8927 12.4198 27.4833C12.7793 27.5953 13.1416 27.7237 13.5126 27.7921C13.8626 27.6165 14.2837 27.2056 14.6155 26.9638C15.9303 26.0057 17.711 24.7752 18.9236 23.705C17.7577 23.7068 16.1208 23.7062 15.261 22.8556C14.7497 22.3497 14.2124 21.2986 14.1887 20.5689C13.5025 20.4549 12.8211 20.2201 12.1171 20.2928ZM19.9363 23.8523C19.3845 24.1487 18.8747 24.6462 18.3695 25.0233L13.9335 28.3929C13.9537 29.3708 14.0755 30.3397 14.1919 31.3098L14.7482 36.0475C14.7978 36.4922 14.8189 36.9595 14.9205 37.3956L14.9429 37.4359C15.2611 37.3688 15.8587 36.9494 16.1871 36.7876C16.2642 36.3022 16.3153 35.8133 16.3813 35.3263L17.1944 29.1237C17.3861 27.7357 17.4482 27.7456 18.6087 27.1418C19.3427 26.7598 20.0925 26.4149 20.8296 26.0415C20.7349 25.7124 20.3519 23.9918 20.1999 23.8686C20.1092 23.8503 20.0285 23.8495 19.9363 23.8523ZM27.9357 23.4118C27.8874 23.8381 27.8236 24.2836 27.8497 24.713C28.6993 24.8924 30.5701 25.9231 31.4142 26.3169C32.5376 26.841 33.7361 27.2842 34.8075 27.9108C35.5614 28.3517 35.415 28.7934 35.3542 29.541C35.2167 31.2318 34.9678 32.9107 34.8178 34.6005C35.5553 34.835 36.3264 35.2073 37.015 35.5552C37.1662 35.6304 37.3183 35.7032 37.4616 35.7929L36.143 29.9858C35.9341 29.0639 35.6605 28.1387 35.4969 27.2082C34.8544 26.978 34.2635 26.573 33.6594 26.2581L29.6786 24.209C29.1543 23.9394 28.576 23.5378 27.9972 23.4239L27.9589 23.416C27.9511 23.4145 27.9434 23.4132 27.9357 23.4118ZM11.9919 14.6739C11.7892 15.162 11.6043 16.0804 11.4556 16.6274L10.3669 20.5689C10.8352 20.3257 11.0677 19.9575 11.64 19.7285C12.399 19.4695 13.0832 19.6389 13.8325 19.8372C13.6805 18.989 13.005 17.4552 12.7053 16.5203C12.5849 16.1446 12.2869 14.8711 11.9919 14.6739ZM20.9642 23.9132C20.9795 24.2354 21.3417 25.34 21.4597 25.6996C21.9392 25.4095 22.8566 24.9708 23.4113 24.713C23.7812 24.5246 24.1379 24.3541 24.4664 24.0979C23.3187 24.1497 21.9929 23.8274 20.9642 23.9132ZM27.1235 23.7574L27.0997 23.7762C26.991 23.8606 26.4129 24.0951 26.7789 24.167C26.8935 24.2089 27.0101 24.2484 27.1235 24.2933C27.1266 24.1152 27.1348 23.9352 27.1235 23.7574Z" fill="#418D12"/>
<path d="M13.3138 22.1914C13.5289 22.1938 13.8162 22.308 13.756 22.5761C13.7207 22.7334 11.2294 25.459 10.8105 25.6999C10.5282 25.7868 10.2099 25.5424 10.4297 25.2533C10.7299 24.8587 12.9642 22.3935 13.3138 22.1914Z" fill="#418D12"/>
<path d="M29.2838 26.9994C29.5187 26.9614 29.7541 27.1803 29.6282 27.4217C29.4401 27.7823 23.8825 29.2314 23.2031 29.4101C22.874 29.4586 22.7329 29.0494 22.9334 28.8148C23.0807 28.6424 26.4 27.7785 26.7945 27.6674C27.4142 27.4929 28.6906 27.0256 29.2838 26.9994Z" fill="#418D12"/>
<path d="M39.0748 20.4874C39.3175 20.4677 39.5537 20.7276 39.4366 20.9667C39.3106 21.2239 38.0341 21.7065 37.7542 21.8329L34.0288 23.5038C33.7193 23.6437 33.4066 23.8076 33.0842 23.9137C32.8173 23.9102 32.6195 23.6703 32.7588 23.4044C32.8997 23.135 33.4523 23.0052 33.7099 22.8906L35.5633 22.0635C36.6119 21.5833 38.0029 20.8578 39.0748 20.4874Z" fill="#418D12"/>
<path d="M23.0272 8.49707C23.2178 8.55026 23.4557 8.82347 23.3449 9.02678C23.1777 9.33365 19.7439 11.3073 19.197 11.6402L18.0886 12.3171C17.7793 12.507 17.4692 12.726 17.1272 12.852C16.899 12.8359 16.6567 12.5743 16.7825 12.3472C16.9091 12.1189 17.8787 11.6303 18.1232 11.4776L21.7429 9.26188C22.0351 9.08588 22.7541 8.5735 23.0272 8.49707Z" fill="#418D12"/>
<path d="M4.89485 26.042C5.99008 26.3242 7.07753 26.6595 8.16295 26.9778L13.1892 28.4687C13.1689 29.2159 13.3434 30.0244 13.4306 30.771L14.0067 35.6743C14.061 36.1306 14.2504 37.2316 14.2085 37.6509C14.1517 37.6832 14.0525 37.6715 13.986 37.6721C13.1764 37.594 12.3933 37.285 11.623 37.036L8.25882 35.9311C7.51279 35.6911 5.52456 35.2305 5.10387 34.8153C4.552 34.2708 4.68632 33.5425 4.71047 32.8396L4.79169 29.5085C4.83047 28.3551 4.89628 27.1958 4.89485 26.042Z" fill="#FFFFFC"/>
<path d="M11.8761 34.251C12.2361 34.2652 12.4143 34.66 12.117 34.9118C11.5838 34.932 11.4043 34.5062 11.8761 34.251Z" fill="#418D12"/>
<path d="M10.3661 32.959C10.735 32.9985 11.0274 33.4637 10.5714 33.6418C10.0359 33.6522 9.89235 33.1766 10.3661 32.959Z" fill="#418D12"/>
<path d="M7.57407 28.1018C8.09043 28.0724 8.18332 28.5897 7.78412 28.821C7.31925 28.8379 7.2046 28.3264 7.57407 28.1018Z" fill="#418D12"/>
<path d="M11.8755 31.5146C12.3848 31.4705 12.5028 31.9415 12.1164 32.2017C11.6125 32.3212 11.5325 31.7706 11.8755 31.5146Z" fill="#418D12"/>
<path d="M7.57329 33.79C8.05405 33.8231 8.20215 34.2526 7.78334 34.4961C7.27205 34.5151 7.11011 33.9971 7.57329 33.79Z" fill="#418D12"/>
<path d="M7.30678 31.6932C7.80486 31.6387 7.98016 32.0671 7.57402 32.3732C7.09427 32.3761 6.82644 31.9595 7.30678 31.6932Z" fill="#418D12"/>
<path d="M9.11545 30.2041C9.59921 30.1698 9.84361 30.5907 9.43263 30.8832C8.93409 30.9063 8.69788 30.5173 9.11545 30.2041Z" fill="#418D12"/>
<path d="M10.7014 29.2996C11.2303 29.2346 11.3312 29.7473 10.9287 29.997C10.4291 30.0342 10.2542 29.5203 10.7014 29.2996Z" fill="#418D12"/>
<path d="M6.41337 29.568C6.96283 29.5336 7.0214 30.0567 6.60464 30.2916C6.10688 30.2891 5.97232 29.7808 6.41337 29.568Z" fill="#418D12"/>
<path d="M42.5106 24.9492C42.9288 25.0109 42.9865 25.5302 42.5865 25.6998C42.0024 25.5582 42.1434 25.2182 42.5106 24.9492Z" fill="#418D12"/>
<path d="M38.8769 28.3936C39.2868 28.3949 39.3561 28.8521 39.0745 29.0771C38.5408 29.1305 38.4131 28.6345 38.8769 28.3936Z" fill="#418D12"/>
<path d="M43.989 27C44.4527 27.0116 44.5652 27.5719 44.1551 27.7928C43.6796 27.6731 43.558 27.248 43.989 27Z" fill="#418D12"/>
<path d="M38.7071 31.2217C39.2447 31.2373 39.247 31.7323 38.8767 31.9855C38.4092 31.8912 38.2963 31.462 38.7071 31.2217Z" fill="#418D12"/>
<path d="M43.9887 29.5675C44.4627 29.5592 44.4175 30.1326 44.0562 30.291C43.5559 30.2043 43.4566 29.6461 43.9887 29.5675Z" fill="#418D12"/>
<path d="M40.2202 26.2705C40.6646 26.4014 40.6736 26.9098 40.2202 26.9997C39.9737 26.9825 39.8986 26.8493 39.8057 26.6337L39.8111 26.6219C39.9056 26.4109 39.9815 26.3287 40.2202 26.2705Z" fill="#418D12"/>
<path d="M41.4731 29.0771C41.9045 29.286 42.0525 29.7122 41.556 29.9128C40.9529 29.8978 41.1448 29.3264 41.4731 29.0771Z" fill="#418D12"/>
<path d="M40.956 31.6934C41.4406 31.7913 41.4932 32.2834 41.0522 32.4653C40.552 32.3836 40.4498 31.826 40.956 31.6934Z" fill="#418D12"/>
<path d="M17.9348 28.5566C19.3446 29.1176 21.1345 30.1597 22.5199 30.8576L25.0237 32.0895C25.5391 32.3423 26.06 32.5778 26.5487 32.8807C26.4959 33.1987 26.4879 33.5271 26.4548 33.8483L25.658 40.9281C25.6346 41.1518 25.649 41.9406 25.563 42.0853C25.131 41.955 24.7167 41.6953 24.3189 41.4829L19.2552 38.7737C18.6986 38.4811 18.1188 38.22 17.5718 37.9119C16.7436 37.4453 16.9156 36.7757 17.0134 35.971L17.6017 31.4434C17.7327 30.4879 17.8912 29.5206 17.9348 28.5566Z" fill="#FFFFFC"/>
<path d="M20.3441 31.5146C20.4922 31.5354 20.6878 31.5915 20.7476 31.7448C20.8106 31.9066 19.0666 36.0983 18.7378 36.2072C17.7894 36.217 18.8664 34.5873 19.0593 34.1466L19.748 32.577C19.8848 32.2634 20.0199 31.6872 20.3441 31.5146Z" fill="#418D12"/>
</svg>
