<svg width="51" height="50" viewBox="0 0 51 50" fill="none" xmlns="http://www.w3.org/2000/svg">
<path d="M29.1489 3.50104C30.3125 3.41044 31.0841 4.89079 30.2506 5.7544C29.7626 6.26005 29.2627 5.98574 28.7463 6.27753C27.3452 7.06907 26.0993 8.97659 25.6827 10.4737C26.1757 10.4634 26.6686 10.4871 27.1614 10.4737C27.4324 10.339 27.6896 10.0968 27.933 9.91403C30.0283 8.34029 32.7383 8.66123 35.1156 9.32678C35.2786 9.37241 36.6449 9.63317 36.2594 10.0496C35.7543 10.5952 32.2641 8.55935 29.3384 12.0075C30.7004 11.4382 32.1348 11.1731 33.6125 11.2885C34.1739 11.3324 34.2915 11.3022 34.3385 11.8879C38.1528 12.7108 42.2364 15.7281 44.2745 18.9889C48.2695 25.3807 45.723 33.6091 41.1364 38.9892C38.0518 42.6075 32.9427 45.5425 28.1178 45.9179C19.2836 46.9314 9.24803 42.8089 6.05319 34.0132C4.33767 29.2904 4.02629 23.2059 8.03469 19.5046C9.00104 18.6123 10.2323 17.8408 11.1064 16.9906C11.6141 16.4968 11.9173 15.8131 12.4009 15.2891C13.6203 13.9676 15.3545 13.2733 17.1479 13.2003C15.5354 11.7114 13.428 11.4079 11.3063 11.4656C10.0552 11.4996 10.8934 10.9691 11.4769 10.7363C14.208 9.64689 17.9277 9.22864 20.0198 11.7496C20.7047 11.1816 22.4265 10.7328 23.3259 10.7111C23.7481 8.82995 24.7369 7.13164 26.0443 5.72779C26.7526 4.96723 28.0701 3.64788 29.1489 3.50104ZM32.9979 12.7231C31.9748 12.9981 30.7534 13.5937 29.872 14.1775C31.8166 14.5154 33.6749 17.5987 35.1456 19.1132C35.3401 19.3135 36.1645 19.855 35.6041 20.1038C35.3965 20.196 33.5507 19.0823 33.2618 18.9117C31.65 17.9593 30.6451 17.1354 28.7281 17.1647C29.8781 18.7057 30.942 21.5677 30.8698 23.5343C30.3914 24.3126 30.1616 23.0886 30.0276 22.7578C29.5767 21.6441 28.7832 20.2356 27.7856 19.5456C26.5404 18.6841 23.7994 19.0308 23.0281 17.6193C22.5708 17.8382 22.1514 18.1313 21.6945 18.3485C19.7788 19.2593 17.7689 19.9486 16.3661 21.623C16.231 21.7843 15.52 22.95 15.3365 22.2234C15.2175 21.7519 15.9448 19.9439 16.19 19.4341C16.6891 18.3961 17.5868 17.0757 18.5363 16.4643C17.9112 16.2926 17.2843 16.0666 16.6546 15.9223C14.7089 15.4767 14.2104 15.7927 12.8088 16.8915L9.98783 19.1355C9.54209 19.4854 9.08251 19.8245 8.67088 20.2146C6.15285 22.601 5.33632 26.7775 6.04228 30.0973C6.92648 35.5922 9.77038 39.6312 14.5815 42.2873C22.4771 46.6462 32.5948 45.9497 39.1945 39.5892C43.2091 35.7202 46.0442 29.6229 45.1085 24.0169C44.5456 20.6452 42.5084 17.5439 39.7307 15.5622C38.2601 14.5132 34.8849 12.6575 32.9979 12.7231ZM28.1178 4.95181C25.3826 6.70688 23.7489 10.5241 23.767 13.6876C23.7684 13.939 23.907 14.6902 23.6681 14.8563C23.093 15.2562 23.1075 13.6715 23.095 13.457C19.5911 13.3784 19.769 11.6655 17.6726 10.8482C16.4933 10.3884 14.0798 10.5009 12.9048 10.917C14.7228 10.9591 16.2331 11.4937 17.6199 12.7128C18.5994 13.5737 19.3813 14.4579 20.838 14.0445C21.3288 13.9052 21.5176 13.6016 21.7397 14.1775C21.5448 14.493 21.2417 14.6099 20.8965 14.6901C19.6764 14.9733 18.734 14.5451 17.8194 13.7957C16.0947 14.1332 14.2041 14.3722 12.9048 15.7003C14.9036 14.7976 15.509 14.866 17.7629 15.5466C18.8997 15.89 18.9207 15.9771 20.044 15.5799C20.4772 15.4266 22.1042 14.9662 22.4016 15.532C22.7216 16.1406 21.4225 15.8706 21.1307 15.9231C19.1524 16.2795 17.7358 17.921 16.8248 19.6133C16.6111 20.0096 16.4143 20.4065 16.2965 20.8434C18.0789 18.813 20.5577 18.447 22.7177 17.0489C23.2318 15.7081 24.3447 15.408 25.6827 15.4529C25.9695 13.8128 27.8174 13.6768 29.1489 13.8832C30.6406 12.7052 31.9296 12.5608 33.4702 11.8879L33.4284 11.8835C31.67 11.7072 30.0254 12.4263 28.4164 13.0052C28.0743 13.1283 26.2925 13.7591 26.0421 13.5115C25.718 12.8177 27.7141 12.7531 28.2644 12.3804C28.5389 12.1947 28.7014 11.8172 28.9069 11.5594C29.9102 10.3012 31.1481 9.59281 32.7958 9.48022C31.2443 9.22874 29.6713 9.52546 28.3767 10.4609C27.237 11.2844 26.3766 12.4877 25.1705 13.2003C25.1885 13.3091 25.6247 15.353 24.8427 14.6694C23.8591 13.8097 24.7284 10.3597 25.1867 9.38052C25.9152 7.82384 26.9644 6.46128 28.4765 5.5887C28.2514 5.32349 28.231 5.10296 28.1178 4.95181ZM25.0659 16.041C23.9892 16.1841 22.4704 16.9202 24.1496 17.769C26.3383 18.8753 27.2331 17.5941 29.3384 20.2362C29.5644 20.5994 29.7731 20.9785 30.0036 21.3373C29.3742 19.0303 27.9328 15.7806 25.0659 16.041ZM27.9474 14.4549C27.2415 14.4751 26.4912 14.8008 26.2585 15.5189C27.0343 15.6327 27.7676 16.0729 28.3069 16.635C30.1023 16.2181 31.3487 17.1804 32.7958 17.8986C33.1325 18.1497 33.5181 18.3794 33.884 18.5865C33.662 18.2185 33.2802 17.9136 33.0032 17.5825C31.6417 15.9549 30.3378 14.2882 27.9474 14.4549ZM23.0281 11.7496C22.3007 11.8991 21.612 12.0599 20.942 12.3945C21.1092 12.4455 21.2778 12.4935 21.4406 12.5576C21.9857 12.7174 22.5244 12.8338 23.095 12.8406C23.0858 12.5885 23.2185 11.7233 23.0281 11.7496ZM26.2585 11.3929C25.9553 11.4277 25.6578 11.4566 25.3519 11.4532C25.332 11.6213 25.1699 12.2846 25.2635 12.3945C25.5639 12.2274 26.1922 11.6803 26.2642 11.3986L26.2585 11.3929Z" fill="#418D12"/>
<path d="M29.056 4.24903C29.6539 4.24681 30.2655 4.76165 29.7126 5.26666C29.0386 5.56156 28.6679 4.73049 29.056 4.24903Z" fill="#FFFFFC"/>
<path d="M11.2972 21.8408C11.8638 21.8839 11.5515 22.3682 11.3802 22.6584C10.6423 23.9093 10.2065 25.3344 10.0584 26.7764C10.011 27.2382 10.1797 27.7456 9.78879 28.0613C9.30539 27.9117 9.44987 27.3299 9.46681 26.9303C9.52422 25.5752 10.2267 22.8239 11.2972 21.8408Z" fill="#418D12"/>
<path d="M13.3983 25.3896C13.5734 25.3966 13.626 25.4595 13.7269 25.6012C13.6869 27.8717 14.4101 30.8717 16.252 32.3811C16.4912 32.5771 17.3266 33.0658 16.7221 33.3638C16.3968 33.3027 16.1151 33.0376 15.8753 32.8273C14.0373 31.2158 13.2592 28.6283 13.1418 26.2526C13.1271 25.9528 13.0291 25.5 13.3983 25.3896Z" fill="#418D12"/>
<path d="M37.5829 16.3076C37.8115 16.3165 38.0602 16.4733 38.2541 16.5841C40.7221 17.9926 42.5809 20.4403 43.3776 23.154C43.493 23.5465 43.7942 24.084 43.4285 24.4139C42.8399 24.4407 42.7775 23.2281 42.548 22.6208C41.8234 20.7038 40.5274 18.8865 38.8476 17.7064C38.5689 17.5107 36.8633 16.7768 37.5829 16.3076Z" fill="#418D12"/>
<path d="M14.5523 18.7045C15.4334 18.6016 14.473 19.6257 14.3368 19.8283C12.2966 22.8634 11.4609 27.7844 13.0375 31.1277C13.2436 31.5649 13.5398 31.9013 13.7858 32.307L13.8008 32.3321C13.7194 32.4271 13.6321 32.5072 13.5382 32.5889C13.2573 32.628 13.0968 32.367 12.9556 32.1601C10.6369 28.7603 11.5384 22.4183 14.0412 19.2446C14.1914 19.0541 14.349 18.8415 14.5523 18.7045Z" fill="#418D12"/>
<path d="M43.3371 27.4168C44.1979 27.3112 43.4801 29.5162 43.368 29.966C42.5124 33.4004 40.5893 36.5564 37.9873 38.95C36.3504 40.4557 33.744 42.1134 31.4335 42.0169C31.1495 42.0056 30.8707 41.6964 31.1388 41.577C31.2309 41.5359 31.9133 41.4811 32.0769 41.4521C37.5555 40.4823 42.2495 34.159 43.0395 28.7512C43.0947 28.3737 43.0543 27.7042 43.3371 27.4168Z" fill="#418D12"/>
</svg>
