<svg width="51" height="50" viewBox="0 0 51 50" fill="none" xmlns="http://www.w3.org/2000/svg">
<path d="M28.7891 3.49189C29.9648 3.44004 31.9024 3.40887 33.0737 3.49639C35.1295 3.65001 34.1524 6.6213 33.7026 7.71484C34.4366 7.66515 35.1127 7.73185 35.2672 8.58167C35.4214 9.42919 35.3575 10.4916 34.3371 10.6307V12.8677C35.304 12.9317 35.8881 12.8358 36.926 13.0651C39.9867 13.7412 42.2134 16.6877 42.0251 19.8086C41.948 21.0874 40.8972 24.2143 40.5051 25.5054C40.2871 26.2228 40.0082 26.9286 39.8446 27.6612C40.968 30.711 41.5506 32.9522 40.9827 36.3086C40.5789 38.695 39.3176 41.6325 37.6858 43.443C36.3048 44.9753 35.4896 44.7206 33.6569 44.7197L27.6893 44.7203C26.4389 44.7212 25.4592 44.7571 24.4802 43.8486C22.1704 46.4589 18.1682 47.1825 15.0899 45.5296C11.0785 43.3758 9.80235 38.7277 11.9401 34.755C12.5683 33.6681 13.4646 32.7185 14.5486 32.0788C13.1496 32.602 11.3774 32.2277 9.97912 31.8691C7.886 31.3324 9.48527 30.8993 10.4475 30.2365C12.0408 29.1386 12.9148 27.9676 15.1319 27.9516C16.0904 27.9447 16.8348 28.225 17.5147 28.8934C17.8878 28.5583 18.3718 28.3143 18.7117 27.9548C18.5719 27.7616 18.3976 27.6035 18.2258 27.4396C18.0488 27.5438 17.8744 27.5816 17.6721 27.5957C14.8513 27.7923 13.0703 25.5482 12.4908 23.0038C12.0332 20.9946 12.7746 21.7119 13.9073 22.2427C14.8334 22.6768 16.1833 23.0484 16.9632 23.4757C18.2036 24.1553 18.8133 25.5253 18.7117 26.911C18.8183 27.1173 18.9554 27.2735 19.1158 27.4396C19.3309 26.1842 19.5482 23.9696 20.0777 22.9588C20.1637 22.7948 20.414 22.695 20.5758 22.81C20.8506 23.0054 20.4847 23.8117 20.422 24.0611C19.8996 26.1392 19.5416 26.9021 20.0037 28.9231C20.0752 29.2359 20.3138 31.1831 20.7293 31.0965C20.8567 30.9433 20.8077 30.6686 20.8272 30.482C21.1673 27.2429 23.0811 25.4292 24.8938 22.9471C27.0561 19.9866 27.2752 18.377 27.2753 14.9649L27.2752 10.6307C26.1951 10.4489 25.6764 7.57698 27.889 7.71484C27.7363 7.32248 27.6524 6.91308 27.5438 6.50759C27.167 5.09924 26.9514 3.77232 28.7891 3.49189ZM24.4059 27.8413C23.8402 29.0804 23.1275 30.9254 23.1957 32.3005C24.5195 32.9867 25.6628 34.8212 26.107 36.2263C26.6706 38.0089 26.5543 39.4633 26.0509 41.2379C26.1416 41.4839 26.3003 41.7699 26.4715 41.9688C26.9475 42.0014 27.4404 41.9689 27.9186 41.9688L33.6057 41.969C35.349 41.9688 35.2497 42.1837 36.3368 40.6512C38.7817 37.2374 39.3382 32.2659 37.3888 28.4893C37.2903 28.2988 37.196 28.0906 37.0716 27.9159C34.1273 28.9927 26.8878 29.0727 24.4059 27.8413ZM19.1158 31.4646L19.0943 31.5052C18.8916 31.8922 18.7872 32.3125 18.5456 32.6821C17.6738 34.0153 15.911 34.576 14.4654 35.0371C13.094 35.4745 14.2297 33.5985 14.4525 32.9302C13.3764 33.4753 12.2672 35.244 11.8996 36.3712C10.7404 39.9264 12.5281 43.87 15.9947 45.288C22.0627 47.6158 27.9236 41.4486 25.257 35.6783C24.1933 33.3766 22.1961 31.9177 19.7122 31.5365C19.5151 31.5062 19.3105 31.4993 19.1158 31.4646ZM33.2883 15.6909C32.1892 15.8185 31.5015 16.9001 29.7725 16.3233C28.9101 16.0355 28.9493 15.6854 27.889 15.6909C27.8872 19.1078 27.1996 21.0031 25.1175 23.77C24.6587 24.3795 24.1308 24.9309 23.6677 25.5361C22.4739 27.0961 21.4064 29.2828 21.424 31.3037C21.809 31.477 22.1858 31.654 22.5569 31.8559C22.6503 31.2542 22.7339 30.6545 22.8894 30.0645C24.0535 25.6497 27.845 23.0844 28.4331 18.4364C28.4695 18.1485 28.4196 17.1003 28.6453 16.9837C29.3774 16.6054 29.1079 18.0878 29.0823 18.3465C28.8546 20.6535 27.9717 22.4176 26.6759 24.307C26.207 24.9907 25.6612 25.6539 25.2987 26.4025C27.9731 25.52 32.6277 25.6094 35.2666 26.1508C37.2669 26.5613 37.8393 27.3601 38.4433 29.3496C38.6722 29.834 38.7949 30.4013 38.9065 30.9242C39.5197 33.7954 39.0808 36.7776 37.7914 39.4009C37.3809 40.2361 36.1491 42.5383 35.1101 42.5965C34.6507 42.6222 34.1802 42.6032 33.7196 42.6031L28.2803 42.6029C26.9046 42.6035 26.7156 42.8784 25.6745 41.9688C25.4865 42.4727 25.1697 42.918 24.8897 43.3728C25.535 44.0266 26.1678 44.1105 27.0578 44.1166L34.507 44.1176C35.5189 44.1201 36.1103 44.1479 36.8861 43.3794C37.4629 42.8081 37.9394 42.1201 38.3621 41.4305C41.46 36.3761 41.3026 30.1349 37.6887 25.3744C35.963 23.1013 34.4767 21.8175 33.8403 18.7152C33.6384 17.7302 33.7012 16.6909 33.7026 15.6909C33.5647 15.6843 33.4257 15.6725 33.2883 15.6909ZM34.9421 13.5493C34.7391 13.5807 34.5379 13.6135 34.3371 13.6576V15.6909C34.6816 15.6591 35.0296 15.6015 35.3754 15.597C37.3732 15.5711 39.1975 16.9433 39.3807 18.9962C39.4386 19.6449 39.2601 20.2576 39.1009 20.878L38.3435 23.8449C38.2617 24.1659 38.1902 24.5024 38.0689 24.811C38.4125 25.3433 39.0411 26.3224 39.4184 26.8092C39.7995 25.9007 40.1404 24.437 40.4185 23.47L40.9774 21.5865C41.3979 20.1459 41.6044 18.8068 41.0161 17.354C40.0692 15.0158 37.496 13.3018 34.9421 13.5493ZM27.9822 10.6307L27.9115 10.6476C27.8464 10.7808 27.8889 14.4853 27.889 15.0309C28.5745 15.0264 28.8642 15.0388 29.4549 15.4149C31.1541 16.497 31.6888 15.3517 32.8546 15.1097C33.138 15.0488 33.4135 15.0367 33.7026 15.0309C33.6816 13.5692 33.6709 12.0923 33.7026 10.6307C33.1908 10.6788 32.654 10.6316 32.1383 10.6307L29.4024 10.6289C28.9302 10.6288 28.454 10.6162 27.9822 10.6307ZM35.1172 16.2694C34.8477 16.2975 34.5959 16.3503 34.3371 16.4296C34.3231 19.0659 34.8548 20.6752 36.4772 22.8835C36.8168 23.3456 37.227 23.7564 37.5582 24.22C37.5927 24.1215 37.6364 24.0201 37.662 23.9195L38.4212 20.8971C38.5544 20.3461 38.7578 19.7861 38.7599 19.2154C38.7663 17.4142 36.8373 16.0058 35.1172 16.2694ZM28.6329 4.12574C27.2373 4.63771 28.2489 6.57246 28.4781 7.71484C28.8717 7.73416 29.2693 7.71632 29.6635 7.71525L31.8807 7.71275C32.2479 7.71262 32.632 7.67911 32.997 7.71484L33.0888 7.71295C33.2593 7.52585 33.305 6.92692 33.3676 6.67424C33.5286 6.02419 34.2169 4.33023 33.1165 4.14737C32.6882 4.07619 31.7464 4.12486 31.2796 4.12485L29.6135 4.12441C29.2869 4.12342 28.9591 4.10823 28.6329 4.12574ZM30.2789 26.4025C29.1106 26.45 25.6619 26.5262 24.8897 27.3079C25.5561 28.0154 29.7525 28.0571 31.146 28.0548C32.3274 28.0555 36.0253 27.9172 36.5685 27.396C36.8091 27.1652 35.9879 26.9691 35.8586 26.9325C34.2046 26.4639 32.0001 26.397 30.2789 26.4025ZM27.5448 8.33222C27.3705 8.34985 27.2066 8.37632 27.0366 8.41829C26.8671 10.1759 27.0087 10.034 28.4649 10.0338L30.1064 10.0325C31.4757 10.0316 32.8483 10.0541 34.2172 10.0323C34.9003 9.92855 34.6822 9.10239 34.6804 8.59117C34.3408 8.18069 33.6369 8.32818 33.1583 8.33019L28.8291 8.33196C28.4033 8.33148 27.9697 8.31244 27.5448 8.33222ZM18.3975 30.0128C16.5061 30.2622 15.3943 32.2719 14.7658 33.8872C14.6867 34.0909 14.4783 34.3806 14.8494 34.2524C16.1423 33.781 17.6361 33.2557 18.2652 31.918C18.3612 31.7141 18.7385 30.1123 18.5102 30.0027L18.3975 30.0128ZM16.9184 29.6435C16.1296 29.8177 15.3004 30.1689 14.5002 30.397C13.2536 30.7525 11.9509 31.0323 10.733 31.3888C10.8296 31.4151 10.9296 31.4498 11.0283 31.4646C12.5014 31.7789 14.1653 31.8127 15.476 30.9622C15.6568 30.8449 16.9203 29.7847 16.9547 29.6498L16.9184 29.6435ZM14.8494 28.6384C13.5264 28.6895 11.7968 29.8319 10.8268 30.7685C11.331 30.5776 11.8568 30.4761 12.3708 30.3191C13.8489 29.9191 15.3002 29.3882 16.7855 29.0236C16.2165 28.7121 15.4992 28.5288 14.8494 28.6384ZM13.2176 23.28C13.8732 25.1452 15.367 27.3636 17.6461 26.911C17.5908 26.7853 16.9797 26.3979 16.833 26.2874C16.0143 25.6711 15.1936 25.048 14.4249 24.3696C14.177 24.1508 13.4404 23.3992 13.2176 23.28ZM13.81 22.9211C14.4653 23.5132 15.1118 24.1118 15.8011 24.6655C16.0727 24.8835 17.9276 26.3439 18.0713 26.4025C18.0491 24.4009 16.5753 24.0503 15.0768 23.4425C14.6514 23.27 14.2461 23.0695 13.81 22.9211ZM19.3242 29.0236C19.2327 29.6482 19.155 30.3026 19.1158 30.9323C19.3077 30.9248 19.5049 30.908 19.6957 30.9323L19.7976 30.926C19.8636 30.7719 19.4913 29.2788 19.3242 29.0236ZM18.7117 28.7828C18.4338 29.0023 18.1327 29.1892 17.8561 29.4102L17.8537 29.4409C18.1196 29.4019 18.3823 29.3684 18.6506 29.3496C18.6866 29.1706 18.7316 28.9655 18.7117 28.7828Z" fill="#418D12"/>
<path d="M28.7892 5.6377C28.9441 5.68182 29.743 6.84834 28.9917 7.15C28.7665 7.07071 28.0697 5.90594 28.7892 5.6377Z" fill="#418D12"/>
<path d="M28.4781 4.7386C28.6742 4.7311 31.1775 4.52354 30.5866 5.22246C30.4945 5.33144 30.4131 5.33227 30.2789 5.34627C30.0611 5.34587 27.4377 5.59305 28.0424 4.87953C28.1481 4.75485 28.3282 4.7551 28.4781 4.7386Z" fill="#418D12"/>
<path d="M14.2263 35.3936C15.0111 35.4545 14.0059 36.6629 13.8098 36.8095C12.8392 36.8322 13.9533 35.6299 14.2263 35.3936Z" fill="#418D12"/>
<path d="M13.0874 37.2042C13.6981 37.1017 13.4031 37.9137 13.3542 38.2213C13.2698 38.7518 13.2529 39.3202 13.347 39.8515C13.4312 40.3277 13.7244 40.6393 13.296 40.929C12.4193 40.9667 12.604 37.6979 13.0874 37.2042Z" fill="#418D12"/>
</svg>
