<svg width="51" height="50" viewBox="0 0 51 50" fill="none" xmlns="http://www.w3.org/2000/svg">
<path d="M37.325 13.1367C37.8338 13.3269 38.7128 15.444 38.8862 15.9911C39.3439 17.4353 39.1663 19.3188 37.325 19.368C34.8454 19.3264 35.3582 16.3048 36.1288 14.7825C36.3707 14.3045 36.782 13.315 37.325 13.1367ZM37.2493 14.3245C36.5881 15.2365 35.2354 18.4851 37.325 18.6224C38.1948 18.5311 38.4452 17.7974 38.3439 17.0175C38.2869 16.578 37.6182 14.5687 37.2493 14.3245Z" fill="#418D12"/>
<path d="M25.3752 4.71003C25.7629 4.70408 25.8644 5.09226 26.0333 5.38374C26.8372 6.77153 28.0163 8.6739 26.8547 10.1906C26.5282 10.617 26.0966 10.8447 25.5699 10.9158C24.3362 10.8827 23.4613 9.92873 23.5215 8.69802C23.568 7.74697 24.818 5.22029 25.3752 4.71003ZM25.4601 5.94178C25.0229 6.6256 24.1627 8.4355 24.3305 9.15347C24.4521 9.67422 24.9209 10.102 25.4601 10.1237C26.2538 10.0221 26.677 9.30777 26.5634 8.54582C26.5115 8.19878 25.7506 6.13425 25.4601 5.94178Z" fill="#418D12"/>
<path d="M14.0031 32.5694C14.6919 32.5453 16.6648 37.2489 16.9054 38.012C17.5654 40.1044 16.4018 42.4269 14.0747 42.4643C11.9801 42.4493 10.6418 40.5606 11.0714 38.5737C11.2768 37.6241 13.2631 33.0434 14.0031 32.5694ZM14.0747 33.7818C13.6309 34.5362 13.2701 35.3477 12.9047 36.1419C12.4162 37.2034 11.543 38.7299 11.8655 39.9455C12.1345 40.9598 13.04 41.6397 14.0747 41.6586C15.3773 41.6031 16.369 40.4586 16.3088 39.1632C16.2383 37.6526 14.7405 35.1976 14.0747 33.7818Z" fill="#418D12"/>
<path d="M14.5509 36.8662C15.3329 36.8625 16.0323 40.4217 14.1701 40.8924C13.9839 40.9015 13.8332 40.8053 13.754 40.6324C13.5202 40.1221 14.9216 39.947 14.5328 38.3858C14.4103 37.8942 13.8455 37.1404 14.5509 36.8662Z" fill="#418D12"/>
<path d="M35.7298 28.8525C36.0332 28.9119 36.2011 29.427 36.3483 29.6581C37.3103 31.1693 38.7806 33.9747 38.7094 35.7576C38.6445 37.3803 37.4625 38.9238 35.7298 38.8404C33.4879 38.9352 32.3579 37.0548 32.7673 35.0088C33.1337 33.1774 34.1465 31.5168 35.0662 29.9158C35.2481 29.599 35.4189 29.0583 35.7298 28.8525ZM35.7298 30.2018C34.9333 31.6978 32.9967 34.8924 33.5078 36.5937C33.8023 37.5742 34.6491 38.1198 35.6422 38.1136C37.0215 38.1001 37.9521 37.054 37.9315 35.6921C37.9086 34.1687 37.0058 32.42 36.2935 31.1003C36.1563 30.8461 35.9966 30.3398 35.7298 30.2018Z" fill="#418D12"/>
<path d="M36.2049 33.126C37.0661 33.3151 37.5433 36.7589 35.8963 37.1896C34.9625 37.0539 35.9893 36.2081 36.1492 35.8291C36.4836 35.0363 36.0147 34.2336 35.7297 33.5144C35.8552 33.3058 35.9881 33.2235 36.2049 33.126Z" fill="#418D12"/>
<path d="M25.7653 13.5342C26.1127 13.6369 26.3788 14.3641 26.5393 14.6531C27.2423 15.9192 28.8279 18.9898 28.7424 20.422C28.6441 22.0673 27.3457 23.7777 25.5703 23.6576C23.5778 23.7505 22.1826 21.5549 22.6668 19.7267C23.0005 18.4666 24.7996 14.5547 25.7653 13.5342ZM25.7653 14.8345C25.637 15.007 25.579 15.2142 25.4716 15.3981C24.8159 16.5215 23.1943 19.6287 23.3701 20.8793C23.5311 22.0251 24.4691 22.9492 25.6468 22.9257C26.995 22.7916 28.1005 21.4366 27.9527 20.0804C27.8597 19.226 26.3774 15.6103 25.7653 14.8345Z" fill="#418D12"/>
<path d="M26.1356 18.1151C26.8857 17.9855 27.8891 21.238 25.8632 22.1323L25.7547 22.1426C25.6027 22.092 25.5354 21.8737 25.46 21.7408C25.6811 21.3145 26.0871 21.0744 26.2462 20.6673C26.6864 19.5408 25.2902 18.4153 26.1356 18.1151Z" fill="#418D12"/>
<path d="M27.8953 25.7558C28.2327 25.7241 28.5224 26.4855 28.6866 26.7764C29.5325 28.2736 30.7291 30.648 30.8826 32.3569C31.0512 34.236 29.7738 35.7872 27.8953 35.9593C26.758 35.9355 25.761 35.3953 25.1923 34.3756C24.3413 32.8497 25.1837 31.0126 25.8091 29.5012C26.0523 28.9135 27.353 26.0543 27.8953 25.7558ZM27.8953 26.9457C27.2117 28.4691 25.0834 31.9717 25.7201 33.6225C26.1002 34.6082 26.8762 35.1163 27.8953 35.1749C29.417 34.9479 30.3264 33.6464 30.1039 32.1403C29.9956 31.4067 28.469 27.5254 27.8953 26.9457Z" fill="#418D12"/>
<path d="M28.4427 30.2021C29.3345 30.3886 29.7995 34.0666 28.0239 34.3151C27.8145 34.303 27.6021 34.2405 27.5369 34.0075C27.3888 33.4787 29.025 33.3366 28.3443 31.4708C28.2401 31.185 28.0882 30.9165 28.0239 30.6169C28.1076 30.3975 28.2054 30.2731 28.4427 30.2021Z" fill="#418D12"/>
<path d="M32.9377 18.1154C33.3552 18.1028 33.6701 18.9677 33.8474 19.2825C34.6609 20.7265 35.9899 23.1773 35.9896 24.8429C35.9893 26.5292 34.7019 28.1576 32.9377 28.1472C31.8562 28.1759 30.8641 27.6539 30.2926 26.7208C29.3516 25.1843 30.0815 23.5443 30.7159 22.0536C31.0206 21.3378 32.4056 18.4375 32.9377 18.1154ZM32.9377 19.3674C32.0606 20.62 30.4214 24.2286 30.6533 25.4974C30.8655 26.6586 31.7717 27.4048 32.9377 27.3961C34.2783 27.3212 35.3369 25.9757 35.2497 24.6667C35.1742 23.5335 33.4072 19.5459 32.9377 19.3674Z" fill="#418D12"/>
<path d="M33.4953 22.5137C34.0748 22.506 35.2208 25.6956 33.1478 26.5467C32.9578 26.5752 32.7853 26.5409 32.699 26.3425C32.5496 25.999 33.1344 25.6813 33.3116 25.4502C34.2065 24.2839 32.4501 22.901 33.4953 22.5137Z" fill="#418D12"/>
<path d="M12.8517 11.0811C13.1629 11.0916 13.2465 11.4491 13.3773 11.6821C14.1406 13.041 15.8514 16.2984 15.8682 17.7607C15.8885 19.526 14.5327 21.1543 12.7154 21.1673C11.6673 21.1856 10.7119 20.6585 10.1592 19.759C9.287 18.3396 9.61398 17.2746 10.1968 15.8903C10.5093 15.1484 12.193 11.4787 12.8517 11.0811ZM12.8517 12.3203C12.211 13.4625 10.7085 16.2336 10.4505 17.5305C10.1621 18.9798 11.2506 20.3767 12.7154 20.3855C14.0404 20.4015 15.0801 19.1465 15.0825 17.8683C15.0843 16.9208 14.5986 16.0036 14.2171 15.1623C14.0638 14.8244 13.0528 12.499 12.8517 12.3203Z" fill="#418D12"/>
<path d="M13.1756 15.4078C14.1018 15.3549 14.9782 18.9931 12.8518 19.597C12.6731 19.6171 12.5216 19.5646 12.4325 19.3946C12.2518 19.05 12.8616 18.7858 13.0487 18.583C14.2948 17.232 12.1469 15.969 13.1756 15.4078Z" fill="#418D12"/>
<path d="M41.5732 17.8662C41.8921 17.8848 42.1048 18.5036 42.254 18.739C43.2852 20.3647 45.1262 23.8187 45.2603 25.7286C45.4181 27.9783 43.9109 29.7552 41.6523 29.9009C40.2899 29.8621 39.0381 29.1825 38.3633 27.968C37.4946 26.4046 38.0076 24.9044 38.6064 23.3808C38.9084 22.6123 40.8833 18.2458 41.5732 17.8662ZM41.5732 19.157L41.5557 19.1929C41.3993 19.5101 41.1909 19.7995 41.0222 20.1104C40.1951 21.6344 38.1878 25.2807 38.7705 27.006C39.1999 28.2776 40.2615 29.0389 41.5732 29.0919C42.4096 29.0566 43.061 28.8584 43.6452 28.2291C45.1884 26.5671 44.2599 24.4833 43.4759 22.713C43.2155 22.1249 41.9848 19.5662 41.5732 19.157Z" fill="#418D12"/>
<path d="M42.6772 23.5621C42.9927 23.5452 43.0591 23.6667 43.1699 23.9621C43.6204 25.163 43.877 27.4614 42.3579 28.0127C41.2535 28.0788 42.4225 26.9625 42.5293 26.8027C43.4756 25.3875 41.8349 24.063 42.6772 23.5621Z" fill="#418D12"/>
<path d="M19.2472 18.6222C19.633 18.6103 19.829 19.3061 19.9816 19.587C20.9463 21.3632 23.0472 25.4238 22.9499 27.3934C22.8563 29.2905 21.2153 31.0801 19.2472 30.9801C16.9945 31.0775 15.1936 28.8416 15.526 26.6703C15.7576 25.1579 18.6515 19.0554 19.2472 18.6222ZM19.308 19.9377C18.9226 20.4926 18.6451 21.1377 18.3486 21.7432C17.6829 23.1032 16.0569 26.2392 16.3298 27.71C16.5863 29.0916 17.828 30.2172 19.2472 30.2025C20.9216 30.1846 22.2328 28.7579 22.2075 27.0987C22.1913 26.0479 19.9399 20.5766 19.308 19.9377Z" fill="#418D12"/>
<path d="M20.4795 24.8555C20.9825 24.9453 21.2318 26.1061 21.3132 26.5285C21.5112 27.5551 21.0008 29.1171 19.8851 29.3112C19.7252 29.2785 19.605 29.1952 19.5521 29.0315C19.3434 28.3854 21.2642 28.2739 20.331 25.9713C20.159 25.5468 19.783 25.0477 20.4795 24.8555Z" fill="#418D12"/>
<path d="M19.1141 3.56543C19.5124 3.57712 19.7812 4.34522 19.9497 4.63917C20.9006 6.29851 22.8499 9.66421 22.85 11.59C22.8501 13.7108 21.2244 15.6051 19.0475 15.5992C16.5105 15.6577 14.7883 13.0975 15.3898 10.7032C15.7894 9.11236 16.9239 7.04631 17.6894 5.6091C17.9513 5.11725 18.5692 3.62885 19.1141 3.56543ZM19.1141 4.71011C18.1247 6.04114 16.4622 9.57502 16.1377 10.998C15.6764 13.0213 17.0182 14.6945 19.0475 14.8344C20.9422 14.6771 22.22 13.2109 22.0482 11.2944C21.967 10.3896 19.838 5.46642 19.1141 4.71011Z" fill="#418D12"/>
<path d="M20.2688 9.42969C21.1535 9.50117 21.7888 13.3981 19.6243 13.9717C18.4502 13.943 19.9501 12.7815 20.0575 12.5985C20.9863 11.0144 19.1596 9.65 20.2688 9.42969Z" fill="#418D12"/>
<path d="M9.57625 21.5508C9.93027 21.5648 10.2396 22.392 10.3907 22.6577C11.3678 24.3757 13.1449 27.7876 13.3095 29.7246C13.5006 31.9737 11.782 33.7279 9.57625 33.9111C7.28995 33.9212 5.53147 31.8103 5.79228 29.5791C5.9774 27.9955 8.80647 22.1561 9.57625 21.5508ZM9.57625 22.9255C8.68149 24.4226 6.95798 27.72 6.60843 29.4709C6.20596 31.4868 7.68157 32.9035 9.57625 33.1263C10.4898 33.0131 11.2499 32.6897 11.8318 31.9482C12.759 30.767 12.6654 29.8981 12.2535 28.6043C12.0555 27.9824 10.0894 23.1628 9.57625 22.9255Z" fill="#418D12"/>
<path d="M10.8046 27.79C11.5983 27.7896 12.2802 31.3553 10.2421 32.1634C10.032 32.1846 9.87183 32.0859 9.81526 31.87C9.71746 31.4967 10.395 31.2188 10.5725 30.8887C11.3179 29.5027 9.82806 28.0713 10.8046 27.79Z" fill="#418D12"/>
<path d="M31.7073 3.56556C32.1641 3.4892 32.7038 4.86577 32.881 5.20917C33.811 7.01121 35.5481 10.1533 35.4426 12.2101C35.3429 14.1523 33.7803 16.1029 31.7073 15.9907C29.2777 16.0951 27.5531 13.662 27.9387 11.3569C28.1715 9.96614 28.9266 8.62008 29.5428 7.3715C29.8784 6.6916 31.1422 3.96606 31.7073 3.56556ZM31.7073 4.82107C30.893 6.53615 29.9703 8.06309 29.238 9.86282C28.7856 10.9742 28.4368 12.0065 28.8655 13.1965C29.2928 14.3825 30.4372 15.2354 31.7073 15.2116C33.4331 15.2256 34.6922 13.6451 34.6773 11.9815C34.6625 10.3282 33.0139 7.21207 32.2568 5.72973C32.1306 5.48264 31.9718 4.94245 31.7073 4.82107Z" fill="#418D12"/>
<path d="M32.7874 9.64453C33.5491 9.57468 34.8309 13.2794 32.2468 14.3238C32.0553 14.3554 31.8927 14.3426 31.7877 14.151C31.4011 13.4457 33.6248 13.5115 32.8629 11.1018C32.6868 10.5447 32.1138 10.0081 32.7874 9.64453Z" fill="#418D12"/>
<path d="M21.8807 33.9111C22.5077 33.7937 24.777 39.21 25.1028 40.0784C25.5602 41.2977 25.9209 42.2735 25.5574 43.6301C25.1381 45.1945 23.5477 46.5442 21.8807 46.4588C19.4969 46.6129 17.6478 44.1076 18.1336 41.8624C18.4915 40.2085 21.0749 34.4287 21.8807 33.9111ZM21.8807 35.1752C21.7118 35.7532 21.3278 36.2731 21.0509 36.8037C20.3307 38.1842 18.9358 41.0597 18.8812 42.5659C18.8216 44.2083 20.2315 45.7077 21.8807 45.6794C23.5113 45.6728 24.8777 44.226 24.8676 42.605C24.857 40.9023 23.5024 38.2331 22.7706 36.7416C22.5302 36.2518 22.2415 35.5803 21.8807 35.1752Z" fill="#418D12"/>
<path d="M23.0932 40.2393C23.9747 40.26 24.7767 43.8805 22.5954 44.7405C22.3604 44.7423 22.0885 44.6342 22.0411 44.3703C21.9387 43.7991 23.836 43.6825 23.0472 41.4979C22.9055 41.1056 22.4395 40.3908 23.0932 40.2393Z" fill="#418D12"/>
</svg>
