<svg width="197" height="145" viewBox="0 0 197 145" fill="none" xmlns="http://www.w3.org/2000/svg">
<path d="M170.356 74.3717C170.577 74.1927 170.835 74.0445 171.011 73.8388C174.341 69.6983 177.7 65.5692 180.988 61.4118C184.88 56.4832 188.725 51.5278 192.585 46.5781C192.991 46.0545 193.359 45.4902 193.827 44.8407C192.558 43.4208 191.325 42.0655 190.11 40.692C189.722 40.2608 189.363 39.8073 188.992 39.3579C188.907 39.2568 188.849 39.0661 188.747 39.0504C187.483 38.8124 186.976 37.7978 186.284 36.8684C186.817 36.6213 187.21 36.6781 187.517 37.1189C187.67 37.3393 187.796 37.5821 187.984 37.7661C188.523 38.2831 189.549 37.9739 189.953 38.872C190.231 39.4936 190.878 39.9448 191.386 40.508C192.285 40.1481 193.033 40.0626 193.476 40.9678C193.577 41.1755 193.931 41.2589 194.178 41.3743C195.496 42.019 196.433 42.9629 197.223 44.1912C198.092 45.5346 199.138 46.8068 200.54 47.711C201.738 48.483 201.847 49.0707 201.04 50.3631C200.738 50.8448 200.39 51.2997 200.18 51.6091C200.764 52.0519 201.391 52.3531 201.787 52.8376C202.95 54.2657 204.153 55.7008 205.084 57.2784C205.585 58.115 205.635 59.2563 205.735 60.2757C205.771 60.566 205.3 60.98 204.998 61.2696C203.638 62.5245 202.253 63.7443 200.888 64.9894C200.466 65.3727 200.061 65.7715 199.642 66.1646C199.686 66.2488 199.732 66.3428 199.775 66.427C200.267 66.2303 200.758 66.0336 201.246 65.8271C203.374 64.8625 205.484 63.8488 207.629 62.9333C208.873 62.4016 209.342 62.6647 209.467 63.8776C209.579 64.9938 209.792 66.0247 210.542 66.8855C210.791 67.1692 210.825 67.6179 210.978 68.064C211.669 67.8887 212.311 67.7106 213.023 67.5269C213.628 67.9613 214.098 68.551 213.894 69.3315C213.477 70.9303 214.164 72.3014 214.382 73.7697C214.44 74.1525 214.501 74.5452 214.446 74.9502C213.841 73.0844 212.095 71.6076 212.839 69.2355C210.299 69.5081 207.944 70.2143 205.673 71.2136C200.152 73.6492 194.668 76.183 189.126 78.5933C182.587 81.4251 176.415 84.9893 170.122 88.3207C167.018 89.9577 163.983 91.714 160.929 93.4212C160.55 93.6293 160.185 93.8767 159.882 94.2575C160.426 94.0398 160.969 93.8222 161.517 93.6144C159.621 95.1738 157.364 96.2125 155.624 97.9349C162.362 94.2455 169.067 90.5014 175.837 86.9005C182.618 83.2953 189.344 79.5429 196.521 76.7825C196.572 76.8863 196.629 76.9762 196.679 77.08C196.109 77.3873 195.546 77.7143 194.971 78.0118C187.271 82.0189 179.567 85.9825 171.881 90.0289C169.379 91.346 166.985 92.8568 164.516 94.2287C161.191 96.0784 157.876 97.9239 154.745 100.102C154.047 100.584 154.026 100.559 153.79 101.611C154.367 101.256 154.806 101.013 155.229 100.731C161.477 96.5276 168.219 93.2083 174.865 89.7249C176.285 88.9875 177.794 88.4282 179.25 87.789C179.279 87.8676 179.322 87.9518 179.362 88.0261C176.682 89.3808 173.984 90.6863 171.333 92.0859C168.57 93.5413 165.836 95.0416 163.138 96.6065C160.489 98.1407 157.907 99.7605 155.344 101.463C156.608 101.735 157.713 101.574 158.856 100.835C163.282 97.9695 167.837 95.3231 172.693 93.2662C173.007 93.1406 173.32 93.0151 173.655 92.9148C173.729 92.8855 173.831 92.9348 174.118 92.9662C173.052 93.9118 171.795 94.2794 170.703 94.897C169.563 95.5452 168.376 96.1331 167.232 96.7716C166.126 97.3835 165.023 98.0052 163.925 98.6367C162.794 99.2808 161.671 99.9445 160.61 100.742C162.481 100.511 164.271 100.516 166.039 99.3909C170.695 96.4335 175.631 93.9729 180.667 91.7537C180.876 91.67 181.104 91.6354 181.374 91.7186C176.414 94.4035 171.464 97.0841 166.294 99.8863C166.95 100.199 167.45 100.123 167.926 100.112C169.355 100.082 170.791 100.037 172.223 99.982C172.496 99.9742 172.797 99.9439 173.037 99.814C175.486 98.5178 177.867 97.0686 180.367 95.9099C184.556 93.9624 188.82 92.1538 193.074 90.3494C194.143 89.8987 195.289 89.6542 196.439 89.4195C188.886 92.3642 181.661 96.0008 174.562 99.9474C174.926 100.478 175.335 100.123 175.69 99.9468C178.102 98.7781 180.468 97.5154 182.92 96.421C186.298 94.9107 189.702 93.4692 193.145 92.102C199.157 89.6955 205.194 87.3913 211.22 85.024C212.708 84.4395 214.172 83.8199 215.59 83.2408C215.22 80.9086 214.873 78.7363 214.53 76.5739C215.616 77.4017 215.755 78.654 216.19 79.7652C216.4 80.3011 216.551 80.872 216.733 81.4303C217.237 83.0211 217.052 83.918 215.408 84.599C210.543 86.6026 205.719 88.6807 200.836 90.6352C195.546 92.753 190.216 94.7291 184.94 96.8862C182.146 98.0275 179.456 99.42 176.73 100.714C176.566 100.791 176.445 100.952 176.199 101.163C177.309 101.339 178.267 101.53 179.239 101.66C183.537 102.217 187.562 103.525 191.542 104.976C193.636 105.738 195.757 106.445 197.895 107.1C203.026 108.676 208.137 110.294 213.322 111.724C217.959 113.002 222.734 113.875 227.635 114.179C227.82 114.195 228.048 114.16 228.189 114.25C228.358 114.351 228.526 114.544 228.57 114.729C228.596 114.831 228.392 115.026 228.253 115.138C228.152 115.223 227.981 115.247 227.856 115.297C224.585 116.223 221.326 117.178 218.044 118.041C215.234 118.783 212.378 119.204 209.129 119.118C209.631 119.47 209.823 119.664 210.07 119.779C212.684 120.942 215.305 122.125 217.94 123.246C219.563 123.938 221.251 124.446 223.071 124.337C223.344 125.141 222.859 125.516 222.347 125.788C220.67 126.674 219.027 127.681 217.27 128.351C211.194 130.648 205.002 131.266 198.705 130.563C190.697 129.677 182.845 128.175 174.97 126.74C165.907 125.08 156.697 124.416 147.332 124.828C141.51 125.084 135.78 126.206 130.093 127.704C129.252 127.928 128.415 128.23 127.624 128.591C123.539 130.463 119.616 132.609 115.918 135.171C111.839 138 107.695 140.752 103.658 143.631C98.9414 147.007 93.9117 149.765 88.5226 151.809C83.5621 153.682 78.5431 155.365 73.5391 157.12C69.7764 158.435 66.0101 159.74 62.2401 161.035C61.1311 161.411 60.0107 161.724 58.8939 162.047C51.6356 164.198 44.3664 166.319 37.1154 168.489C34.3832 169.312 31.6737 170.261 28.9493 171.138C28.3038 171.34 27.633 171.473 26.9726 171.602C25.5296 171.887 24.8495 171.573 24.2728 170.304C23.7681 169.198 23.3331 168.054 22.8912 166.923C22.5977 166.161 22.3041 165.399 22.077 164.622C21.2345 161.757 20.4756 158.86 20.2931 155.832C20.1731 153.851 20.8739 152.24 22.6599 150.838C24.2621 149.587 25.9694 148.881 27.8394 148.291C31.6352 147.098 35.3942 145.774 39.1936 144.591C44.4375 142.965 49.6963 141.412 54.9516 139.849C59.1877 138.582 63.428 137.358 67.6605 136.081C71.7744 134.84 75.5735 132.811 79.4596 131.019C87.3783 127.375 94.8103 122.934 101.62 117.491C103.447 116.038 105.182 114.465 106.828 112.813C109.674 109.96 112.432 107.03 115.186 104.09C115.943 103.28 116.642 102.38 117.155 101.43C119.52 97.1126 121.942 92.8176 124.078 88.4C125.77 84.8928 127.068 81.2278 128.559 77.632C130.468 72.9896 132.388 68.3431 134.311 63.7064C134.545 63.1391 134.839 62.5704 135.211 62.0833C136.803 60.0255 138.214 57.8371 140.44 56.2923C141.11 55.8323 141.609 55.1365 142.197 54.5517C142.567 54.1893 142.911 53.7245 143.703 53.9826C143.554 54.3581 143.447 54.7504 143.237 55.0935C143.045 55.4184 142.772 55.7192 142.481 55.971C139.294 58.7126 138.143 62.3526 137.766 66.0432C137.225 71.3331 137.195 76.6437 136.945 81.9412C136.943 82.066 137.014 82.1951 137.091 82.435C137.367 82.1439 137.613 81.9327 137.785 81.6835C139.134 79.7458 140.56 77.856 141.791 75.8634C145.154 70.3799 148.929 65.137 152.93 60.0516C158.379 53.1352 163.493 46.0261 167.538 38.2966C167.883 37.6398 168.397 37.5693 168.957 37.5256C170.339 37.4007 171.726 37.3866 173.104 37.1846C174.558 36.9631 175.919 36.8466 177.215 37.6245C178.139 38.1786 179.215 37.6803 179.886 36.7016C180.151 36.3138 180.464 35.9289 180.796 35.593C181.177 35.1928 181.66 35.1685 182.118 35.3685C182.702 35.6192 183.318 35.8237 183.851 36.1626C184.211 36.3904 184.437 36.8073 184.719 37.1457C184.29 36.7986 183.834 36.4738 183.221 36.7306C183.054 36.7975 182.955 37.0511 182.766 37.2849C183.435 37.5694 184.006 37.8144 184.689 38.1046C184.772 37.7444 184.818 37.5118 184.874 37.275C184.945 37.3368 185.061 37.3917 185.073 37.4548C185.188 39.0322 186.645 39.8244 187.128 41.1642C187.906 40.9316 187.829 39.88 188.829 39.7277C188.708 40.1144 188.652 40.4186 188.512 40.6889C188.109 41.4479 187.687 42.1915 187.227 42.9281C184.687 46.9327 182.136 50.9415 179.581 54.9404C179.193 55.5467 178.777 56.1417 178.325 56.7058C174.126 61.9381 170.815 67.6264 168.093 73.6088C167.552 74.8064 166.996 75.9984 166.441 77.1903C166.532 77.2438 166.624 77.2972 166.716 77.3507C167.249 76.6185 167.797 75.892 168.331 75.1598C168.895 74.3814 169.442 73.5876 169.992 72.8036C170.573 71.9733 171.141 71.1375 171.729 70.3269C172.294 69.5485 172.858 68.7702 173.454 68.0129C174.047 67.2458 174.661 66.5039 175.271 65.7523C175.864 65.0188 176.447 64.2895 177.04 63.5561C177.132 63.6095 177.22 63.6532 177.301 63.7108C176.955 64.3003 176.641 64.911 176.252 65.4836C174.475 68.1116 172.67 70.7283 170.903 73.3521C170.68 73.6895 170.562 74.0861 170.399 74.4559C169.048 75.6729 168.241 77.2247 167.23 78.6443C167.336 78.7034 167.445 78.7723 167.541 78.8356C168.475 77.3682 169.422 75.9064 170.356 74.439L170.356 74.3717ZM164.302 76.5356C164.103 76.8072 163.914 77.0746 163.714 77.3462C163.812 77.3857 163.904 77.4391 164.003 77.4786C164.09 77.1619 164.184 76.8312 164.271 76.5145C164.864 76.1077 165.159 75.5728 165.108 74.8829C165.298 74.6828 165.534 74.5094 165.668 74.2868C166.926 72.1372 168.155 69.9764 169.385 67.8156C170.193 66.3984 170.903 64.9418 171.793 63.5822C174.981 58.6648 178.066 53.6981 180.587 48.4387C181.559 46.426 182.644 44.4584 183.655 42.4528C184.106 41.5621 184.49 40.6529 184.957 39.643C184.225 39.35 183.595 39.1062 182.933 38.8414C182.585 39.5557 182.302 40.1538 182.019 40.7518C180.954 42.9368 179.843 45.095 178.821 47.2969C177.658 49.8027 176.7 52.3734 175.436 54.83C172.111 61.3243 168.687 67.7792 165.306 74.251C165.2 74.4513 165.189 74.6812 165.136 74.8942C164.57 75.3123 164.266 75.8514 164.299 76.5258L164.302 76.5356ZM25.5016 166.712L25.4848 166.764C25.8552 165.883 25.8308 165.069 25.3337 164.276C25.1013 163.907 25.018 163.422 24.9528 162.986C24.6295 160.455 23.3826 158.282 22.4948 155.977C22.3351 155.545 21.9804 155.202 21.6412 154.706C20.6731 157.867 23.4447 168.291 25.6925 170.119C26.0796 168.893 25.7504 167.807 25.5157 166.718L25.5016 166.712ZM196.211 67.3691C195.677 67.7747 195.139 68.1704 194.605 68.5759C194.669 68.6517 194.747 68.7332 194.811 68.809C195.359 68.4091 196.216 68.3253 196.179 67.3481C196.752 66.916 197.346 66.5092 197.879 66.0364C200.186 64.0305 202.472 61.9993 204.765 59.9878C204.305 58.0298 203.681 56.893 202.114 55.1865C201.778 55.4452 201.438 55.6941 201.109 55.9724C199.293 57.5223 197.492 59.0777 195.669 60.6079C195.267 60.9491 194.917 61.4952 194 61.321C196.305 58.6281 199.09 56.7129 201.845 54.6855C201.546 54.298 201.34 54.0312 201.087 53.704C200.546 54.1572 200.039 54.5403 199.586 54.9699C197.485 56.9159 195.384 58.8619 193.322 60.8486C192.81 61.3467 192.461 61.9937 192.027 62.5733C192.649 63.2825 191.812 63.55 191.473 63.9335C190.358 65.2029 189.204 66.4315 188.089 67.7009C187.889 67.9388 187.809 68.2752 187.662 68.5595C191.817 65.0922 195.697 61.4645 200.004 58.3087C199.158 59.2338 198.226 60.0577 197.294 60.8816C196.356 61.7196 195.41 62.5715 194.476 63.4192C193.541 64.267 192.623 65.1302 191.692 65.9878C190.723 66.8719 189.753 67.756 188.784 68.6402C187.849 69.4879 186.896 70.3202 185.987 71.2031C185.104 72.0635 184.01 72.7385 183.313 74.0999C185.232 73.2863 186.936 72.6041 188.611 71.8433C190.335 71.0518 192.016 70.176 193.774 69.3145C193.523 68.6032 194.064 68.2173 194.532 67.7934C196.256 66.2238 197.963 64.6388 199.701 63.0748C200.567 62.2998 201.482 61.5614 202.387 60.8271C202.609 60.6481 202.912 60.5604 203.177 60.4319C203.017 60.8115 202.775 61.0326 202.522 61.2578C200.621 62.9995 198.717 64.7314 196.841 66.4745C196.571 66.7179 196.41 67.0639 196.197 67.3635L196.211 67.3691ZM142.268 102.842C140.332 105.917 138.396 108.992 136.415 112.141C136.809 112.265 137.14 112.381 137.537 112.515C140.677 107.988 143.783 103.532 146.885 99.0659C147.982 97.4881 149.076 95.9004 150.201 94.3338C150.414 94.0342 150.587 93.5593 151.352 93.6814C149.427 97.0787 147.013 100.029 144.836 103.133C142.624 106.273 140.376 109.383 138.14 112.522C139.743 112.996 140.002 112.949 140.725 112.016C140.781 112.265 140.833 112.503 140.889 112.785C141.854 112.309 141.934 112.333 142.998 110.599C145.355 106.747 148.298 103.28 150.987 99.6446C152.643 97.4033 154.451 95.2142 155.839 92.8322C158.08 88.9924 160.029 85.0105 162.088 81.0975C162.207 80.8692 162.249 80.5931 162.323 80.3381C160.364 83.2531 158.676 86.2514 156.776 89.1315C152.722 95.3089 148.58 101.443 144.444 107.563C143.526 108.911 142.485 110.185 141.472 111.47C141.275 111.717 140.951 111.881 140.688 112.077C142.746 109.009 144.802 105.931 146.871 102.86C151.34 96.2455 155.836 89.6427 159.857 82.7909C161.434 80.1078 162.792 77.3206 164.369 74.6375C168.147 68.2324 171.4 61.6089 174.653 54.9855C176.636 50.9335 178.292 46.7421 180.112 42.6085C180.671 41.359 181.272 40.1265 181.933 38.7006C181.319 38.6644 180.888 38.6341 180.545 38.6138C179.102 42.2462 177.774 45.7317 176.326 49.186C175.337 51.5436 174.282 53.8828 173.095 56.1614C171.581 59.0788 169.912 61.9341 168.285 64.8063C165.459 69.7931 162.669 74.8108 159.745 79.7582C157.698 83.2156 155.45 86.5843 153.284 89.977C153.04 90.3564 152.736 90.7035 152.46 91.0619C152.475 90.5488 152.687 90.1483 152.931 89.7688C153.95 88.1431 155.015 86.5442 155.989 84.8918C158.375 80.8588 160.768 76.8119 163.077 72.7311C165.847 67.8227 168.512 62.8552 171.265 57.9313C173.439 54.0396 175.424 50.0885 176.971 45.9628C177.849 43.6275 178.641 41.2583 179.53 38.7267C178.764 38.8304 178.205 38.9078 177.761 38.9728C176.737 40.8144 175.771 42.5201 174.834 44.237C174.166 45.4512 173.513 46.671 172.905 47.9176C171.076 51.6376 169.33 55.3914 167.441 59.079C165.131 63.5776 162.75 68.048 160.334 72.4874C157.846 77.0571 155.32 81.6197 152.726 86.1303C150.797 89.4842 148.741 92.7874 146.7 96.0962C145.392 98.2092 144 100.288 142.64 102.389C142.806 101.961 142.913 101.502 143.149 101.103C147.513 93.9444 151.905 86.7975 155.937 79.4563C159.387 73.1711 162.664 66.8085 165.959 60.4613C169.254 54.1141 172.518 47.7458 175.795 41.3831C176.185 40.6184 176.588 39.8593 176.978 39.0946C177.012 39.0246 176.976 38.9264 176.963 38.7623C176.664 38.6678 176.341 38.5719 176.091 38.4802C173.479 43.2348 170.884 47.8701 168.383 52.5351C165.831 57.2884 163.297 62.0571 160.903 66.8821C158.977 70.7646 157.267 74.7413 155.492 78.676C152.57 85.1557 148.887 91.2638 144.699 97.1115C141.533 101.535 138.279 105.916 135.078 110.309C134.968 110.466 134.9 110.639 134.753 110.89C135.072 111.236 135.378 111.575 135.769 112.016C136.082 111.598 136.289 111.346 136.478 111.079C137.795 109.12 139.087 107.16 140.421 105.216C140.992 104.39 141.654 103.618 142.271 102.818L142.268 102.842ZM139.2 89.8316C138.723 90.5863 138.249 91.3509 137.762 92.1098C137.477 92.5396 137.195 92.9456 137.492 93.4916C138.439 92.7406 138.774 91.5356 140.073 90.9591C139.163 93.206 137.116 94.747 136.894 97.0682C137.145 96.9677 137.304 96.8138 137.421 96.643C140.137 92.6584 142.394 88.4401 144.459 84.1528C147.481 77.8808 151.001 71.8495 154.275 65.7027C154.387 65.4884 154.592 65.3276 154.751 65.14C154.711 65.8437 154.459 66.4293 154.155 67.0021C151.826 71.3842 149.482 75.7607 147.167 80.1485C144.449 85.2954 141.801 90.4704 138.663 95.4243C137.101 97.8873 135.458 100.36 135.029 103.26C134.871 104.326 134.678 105.362 134.211 106.372C134.01 106.802 133.999 107.291 133.907 107.756C134.899 106.773 135.695 105.744 136.467 104.714C137.279 103.633 138.064 102.541 138.859 101.445C139.623 100.395 140.384 99.335 141.13 98.2696C141.897 97.1621 142.618 96.0279 143.417 94.9416C144.154 93.9476 144.675 92.792 145.761 92.0301C145.554 92.7671 145.268 93.4563 144.845 94.0654C143.054 96.6877 141.259 99.3002 139.394 101.885C137.79 104.105 136.098 106.282 134.434 108.47C133.918 109.15 133.9 109.721 134.613 110.349C135.002 109.843 135.357 109.408 135.687 108.938C138.289 105.292 140.858 101.625 143.491 98.0008C148.106 91.6211 152.112 84.922 155.331 77.8499C158.455 70.9738 161.592 64.1034 165.276 57.4429C168.703 51.2572 172.041 45.0279 175.408 38.8098C175.514 38.6095 175.546 38.3712 175.61 38.1541C175.508 38.1048 175.409 38.0653 175.307 38.0161C174.874 38.6629 174.431 39.314 174.001 39.9706C173.523 40.6917 173.049 41.4226 172.582 42.1395C172.139 42.8242 171.71 43.5145 171.271 44.209C170.828 44.8937 170.385 45.5784 169.942 46.2631C169.468 46.994 168.986 47.7052 168.526 48.4417C168.083 49.1264 167.654 49.8167 167.229 50.5169C166.814 51.2128 166.417 51.9243 165.992 52.6244C165.566 53.3245 165.109 54.0036 164.694 54.6995C164.248 55.4417 163.841 56.191 163.409 56.9388C162.998 57.6445 162.583 58.3405 162.172 59.0463C161.771 59.7479 161.392 60.4747 160.977 61.1707C160.545 61.9185 160.127 62.6719 159.622 63.3817C159.188 63.9949 159.312 64.9148 158.146 65.4607C158.619 64.4032 158.938 63.5767 159.358 62.7994C162.497 56.8416 166.049 51.0908 169.703 45.3892C171.104 43.2049 172.434 40.9924 173.776 38.7757C173.902 38.5671 173.934 38.2952 174.021 37.9785C172.667 38.081 171.408 38.2804 170.189 38.2275C168.938 38.1872 168.314 38.7075 167.714 39.748C163.789 46.4375 160.002 53.2071 155.185 59.3971C154.634 60.1138 154.192 60.9331 153.81 61.7511C152.679 64.2107 151.537 66.6745 150.543 69.1806C148.016 75.5924 144.943 81.7606 141.014 87.5612C140.453 88.383 139.78 89.1262 139.156 89.9058C139.378 89.5011 139.555 89.0696 139.813 88.6958C143.537 83.2818 146.468 77.5087 149.068 71.5863C150.225 68.9361 151.339 66.2689 152.468 63.6074C152.57 63.3637 152.648 63.1185 152.776 62.7178C149.023 65.8774 140.344 79.9038 138.486 85.7547C138.639 85.6485 138.785 85.5899 138.843 85.4876C140.673 82.613 142.595 79.7919 144.295 76.8567C145.898 74.084 147.255 71.1958 148.743 68.3682C149.054 67.7814 149.436 67.2227 149.817 66.6641C149.951 66.4751 150.16 66.3241 150.329 66.166C148.448 70.2672 146.405 74.2532 144.358 78.2293C144.296 78.3554 144.21 78.48 144.131 78.5906C142.099 81.5686 140.082 84.5522 138.032 87.5147C137.114 88.8293 136.949 90.1693 137.627 91.4534C138.146 90.9076 138.668 90.3717 139.186 89.826L139.2 89.8316ZM146.166 110.988C146.416 111.925 146.431 111.964 147.477 111.839C149.145 111.644 150.816 111.393 152.485 111.198C152.897 111.146 153.311 111.194 153.732 111.195C153.722 111.267 153.716 111.348 153.706 111.419C151.566 111.701 149.437 111.979 147.296 112.261C148.736 113.037 150.514 112.1 152.08 113.254C151.478 113.54 151.082 113.8 150.666 113.91C149.734 114.148 148.781 114.361 147.829 114.482C143.374 115.06 138.909 115.382 134.611 114.34C132.317 113.782 130.617 114.541 129.108 116.239C129.039 116.311 128.98 116.38 128.911 116.453C126.805 118.807 124.999 121.356 123.397 124.038C123.233 124.307 123.206 124.656 123.115 124.962L123.142 124.906C121.623 126.315 120.911 128.156 120.009 129.971C120.824 129.837 121.546 129.615 122.243 129.325C124.079 128.545 125.867 127.604 127.736 126.946C132.255 125.339 136.943 124.579 141.616 124.038C150.157 123.054 158.613 123.333 167.031 124.191C174.863 124.99 182.469 126.736 190.205 127.957C196.274 128.921 202.364 129.65 208.628 129.194C208.919 129.168 209.201 129.055 209.617 128.945C207.782 128.722 206.034 128.7 204.431 128.293C200.418 127.273 196.305 126.699 192.173 126.234C184.648 125.39 177.104 124.69 169.564 123.932C168.992 123.879 168.417 123.816 167.845 123.763C168.049 123.569 168.235 123.551 168.406 123.561C176.058 124.196 183.703 124.878 191.36 125.465C197.71 125.956 203.852 127.375 210.116 128.25C211.495 128.442 212.741 128.371 214.043 128.03C215.136 127.739 216.217 127.385 217.309 127.061C217.061 126.845 216.876 126.862 216.69 126.88C212.511 127.392 208.371 127.426 204.332 126.563C201.947 126.052 199.598 125.38 197.19 124.969C192.64 124.186 188.078 123.499 183.495 122.853C176.42 121.864 169.256 121.541 162.069 121.318C155.428 121.113 148.808 121.385 142.164 122.534C139.85 122.93 137.517 123.177 135.197 122.843C135.469 122.767 135.746 122.736 136.022 122.704C137.977 122.507 139.956 122.471 141.895 122.1C147.955 120.96 154.006 120.577 160.081 120.615C161.608 120.623 163.129 120.646 164.653 120.678C168.742 120.766 172.854 120.755 176.924 120.986C184.239 121.394 191.348 122.866 198.535 123.901C201.385 124.304 204.175 125.002 207.037 125.311C209.752 125.61 212.524 125.673 215.284 125.673C216.882 125.676 218.507 125.431 220.075 124.77C219.604 124.632 219.127 124.575 218.651 124.619C217.556 124.708 216.459 124.955 215.383 124.935C209.746 124.846 204.249 123.936 198.766 123.03C195.698 122.522 192.64 121.977 189.565 121.483C186.36 120.962 183.135 120.483 179.923 119.976C179.477 119.907 178.928 119.946 178.506 119.292C179.148 119.34 179.568 119.341 179.965 119.407C181.78 119.707 183.585 120.044 185.403 120.319C192.071 121.314 198.74 122.376 205.431 123.237C209.262 123.732 213.174 123.891 217.041 124.192C217.09 124.195 217.159 124.088 217.332 123.94C215.459 123.224 213.65 122.517 211.83 121.847C211.538 121.739 211.184 121.689 210.862 121.728C206.892 122.19 203.06 121.661 199.235 121.084C195.36 120.504 191.502 119.873 187.604 119.393C183.998 118.954 180.348 118.657 176.718 118.351C172.047 117.955 167.363 117.62 162.686 117.272C161.217 117.161 159.73 117.068 158.254 116.972C158.605 116.752 158.934 116.7 159.256 116.695C161.776 116.757 164.308 116.758 166.818 116.925C170.65 117.195 174.477 117.546 178.279 117.963C183.881 118.572 189.453 119.296 195.044 119.909C199.457 120.386 203.907 120.769 208.333 121.185C208.694 121.22 209.069 121.194 209.503 121.201C209.396 121.041 209.366 120.929 209.3 120.91C206.591 120.044 203.887 119.188 201.165 118.35C200.908 118.272 200.59 118.354 200.31 118.342C196.713 118.091 193.113 117.898 189.525 117.575C185.18 117.184 180.875 116.608 176.534 116.26C171.81 115.885 167.051 115.705 162.315 115.425C161.761 115.387 161.214 115.302 160.663 115.241C160.937 115.007 161.171 114.992 161.403 115.001C165.208 115.135 169.021 115.221 172.81 115.406C175.414 115.536 178.013 115.781 180.604 116.006C184.139 116.316 187.678 116.669 191.216 116.989C192.009 117.055 192.811 117.049 193.6 117.072C193.203 116.779 192.792 116.64 192.346 116.57C188.58 115.959 184.813 115.347 181.033 114.763C178.285 114.342 175.513 113.986 172.768 113.54C169.219 112.965 165.668 112.482 162.001 112.755C159.947 112.912 157.89 113.16 155.844 113.404C154.98 113.502 154.148 113.621 153.498 112.934C153.913 112.238 154.509 111.966 155.197 111.848C155.861 111.729 156.532 111.63 157.197 111.544C163.26 110.706 169.223 110.833 175.132 111.85C178.565 112.437 182.092 112.66 185.515 113.285C192.513 114.553 199.463 115.987 206.144 118.25C207.569 118.728 209.044 118.465 210.519 118.201C210.271 118.019 210.015 117.941 209.747 117.867C206.98 117.036 204.219 116.191 201.438 115.388C197.986 114.391 194.539 113.347 191.043 112.492C187.311 111.585 183.526 110.857 179.761 110.053C179.237 109.936 178.714 109.818 178.19 109.701C178.217 109.611 178.24 109.512 178.257 109.426C178.614 109.452 178.979 109.464 179.333 109.514C184.968 110.246 190.51 111.341 195.916 112.819C201.632 114.386 207.26 116.203 212.928 117.902C213.062 117.938 213.21 117.981 213.336 117.964C214.492 117.749 215.649 117.534 216.802 117.309C216.811 117.204 216.81 117.103 216.819 116.998C216.246 116.878 215.664 116.762 215.091 116.641C211.136 115.812 207.158 115.082 203.406 113.665C201.97 113.123 200.479 112.728 198.995 112.285C196.893 111.661 194.783 111.051 192.667 110.455C189.468 109.56 186.248 108.707 182.878 108.422C178.965 108.094 175.037 107.761 171.091 107.605C166.388 107.414 161.665 107.331 156.924 108.012C156.787 108.033 156.625 107.917 156.488 107.871C157.386 107.444 158.276 107.189 159.147 107.144C161.678 107.01 164.213 106.886 166.742 106.911C169.597 106.94 172.435 107.214 175.293 107.253C184.458 107.372 193.029 109.747 201.595 112.078C205.151 113.71 209.004 114.557 212.871 115.343C215.034 115.774 217.238 116.086 219.435 116.379C220.47 116.517 220.563 116.412 221.543 115.783C219.446 115.371 217.434 114.959 215.415 114.562C214.947 114.467 214.494 114.378 214.041 114.255C209.294 112.874 204.534 111.522 199.709 110.319C194.396 108.997 189.17 107.391 183.914 105.899C183.605 105.808 183.308 105.656 183.002 105.542C184.886 105.735 186.663 106.128 188.434 106.569C190.163 106.993 191.838 107.597 193.902 107.92C193.626 107.659 193.601 107.624 193.558 107.607C192.748 107.266 191.921 106.944 191.111 106.603C184.603 103.865 177.707 102.645 170.422 102.935C167.841 103.033 165.255 103.211 162.671 103.332C159.454 103.493 156.273 103.977 153.118 104.857C152.594 104.999 152.074 105.184 151.558 105.346C151.573 105.453 151.589 105.559 151.604 105.666C154.74 105.448 157.871 105.152 161.005 105.025C164.201 104.907 167.396 104.913 170.584 104.933C173.684 104.944 176.832 104.597 179.881 105.214C178.965 105.659 178.052 105.495 177.138 105.489C172.948 105.452 168.757 105.315 164.558 105.418C160.976 105.499 157.386 105.854 153.803 106.093C152.515 106.181 151.22 106.282 149.932 106.369C148.973 106.437 148.342 106.938 147.836 107.873C149.015 107.785 150.068 107.712 151.118 107.63C151.123 107.741 151.124 107.842 151.129 107.953C150.259 108.098 149.382 108.291 148.501 108.374C147.069 108.496 146.22 108.892 146.132 111.092L146.166 110.988ZM124.198 92.0719C123.993 92.4585 123.791 92.8548 123.597 93.2372C123.428 93.4626 123.231 93.6767 123.08 93.9175C121.569 96.518 120.079 99.1437 118.539 101.733C118.008 102.633 117.421 103.545 116.695 104.309C113.269 107.867 109.794 111.389 106.33 114.907C105.012 116.246 103.401 117.308 102.377 118.924C102.233 119.151 101.933 119.474 101.726 119.467C100.629 119.455 100.027 120.294 99.2492 120.819C97.4675 122.006 95.7503 123.302 93.94 124.444C88.9123 127.629 83.7302 130.527 78.2864 132.943C74.8626 134.46 71.5331 136.233 67.9133 137.219C63.3373 138.476 58.7539 139.714 54.1706 140.951C50.7985 141.861 47.4292 142.714 44.0721 143.697C42.5017 144.157 40.9835 144.855 39.4317 145.397C36.6313 146.361 33.8454 147.363 31.015 148.18C29.5388 148.602 28.195 149.253 26.9121 150.003C26.1125 150.47 25.4921 151.26 24.7823 151.904L24.8137 151.892C24.0878 152.104 23.7866 152.653 23.5113 153.304C23.8074 153.456 24.0437 153.576 24.2554 153.694C24.1729 154.088 24.0063 154.481 24.0356 154.853C24.2565 157.594 25.1059 160.185 25.725 162.835C25.8659 163.443 25.9864 164.094 26.6951 164.453C27.5818 164.222 28.5208 163.97 29.4531 163.732C30.3957 163.49 31.3315 163.262 32.271 163.044C33.1546 162.837 34.0381 162.629 34.9253 162.432C34.9334 162.519 34.9556 162.612 34.9638 162.698C32.3904 163.886 29.5705 164.147 26.8605 165.063C26.8653 165.433 26.8696 165.77 26.8898 166.246C27.4588 166.098 27.9233 165.99 28.3769 165.854C31.395 164.928 34.4099 164.025 37.4134 163.059C40.2356 162.155 43.0396 161.202 45.8437 160.248C51.1345 158.457 56.4362 156.695 61.7088 154.855C65.4715 153.54 69.2233 152.196 72.9247 150.748C76.4066 149.388 79.8408 147.867 83.29 146.418C83.8651 146.188 84.4296 145.962 85.0046 145.732C84.7085 146.132 84.3366 146.36 83.9466 146.539C80.2964 148.158 76.664 149.793 72.9956 151.363C70.5815 152.397 68.175 153.484 65.7023 154.327C58.9433 156.627 52.1662 158.878 45.3669 161.037C39.998 162.746 34.5883 164.281 29.2008 165.907C28.4331 166.136 27.6767 166.427 26.9235 166.695C26.9713 167.409 27.0027 167.949 27.0491 168.561C32.3737 167.219 37.3395 164.938 42.6366 163.911C42.3292 164.248 41.9641 164.462 41.5873 164.579C37.1807 165.937 32.789 167.368 28.3561 168.591C26.9425 168.987 26.5357 169.77 26.234 171.097C28.5949 170.276 30.7958 169.542 32.9749 168.748C34.0244 168.373 35.0154 167.807 36.0795 167.471C42.2443 165.545 48.4167 163.671 54.5888 161.764C57.6486 160.821 60.7194 159.907 63.7643 158.891C67.1302 157.769 70.4484 156.486 73.8147 155.398C81.7335 152.859 89.5076 149.961 96.893 145.978C100.855 143.84 104.796 141.642 108.166 138.681C113.361 134.098 118.018 129.032 121.387 123.016C121.692 122.477 122.022 121.939 122.386 121.432C124.4 118.665 126.297 115.842 127.754 112.768C128.347 111.515 129.028 110.307 129.654 109.076C132.619 103.266 134.303 97.2033 134.681 90.8854C134.989 85.6778 135.272 80.4687 135.65 75.2555C135.995 70.5064 136.263 65.7431 138.05 61.1271C138.074 61.0613 137.996 60.9798 137.937 60.789C137.688 61.0577 137.467 61.2704 137.267 61.5083C136.159 62.831 135.654 64.4198 134.92 65.9087C132.025 71.78 130.08 77.9476 127.618 83.9501C126.789 85.9617 125.893 87.9549 125.04 89.9651C124.744 90.6585 124.476 91.3631 124.195 92.0621L124.198 92.0719ZM173.672 82.5025C173.672 82.5025 173.785 82.5476 173.845 82.58C175.885 79.7226 177.873 76.8188 179.966 74.0078C182.091 71.1506 184.307 68.3468 186.527 65.5528C188.723 62.7911 190.904 60.0237 193.185 57.3294C195.494 54.6128 197.923 51.9944 200.312 49.3018C198.211 47.7078 196.594 45.8975 195.479 43.627C194.513 44.8476 194.403 45.4895 195.031 46.3768C195.426 46.9285 195.247 47.4174 194.9 47.906C194.535 48.4128 194.092 48.8718 193.728 49.3786C190.808 53.332 187.892 57.2952 184.972 61.2486C184.766 61.5342 184.496 61.7776 184.247 62.0463C184.187 62.0139 184.113 61.9759 184.053 61.9436C184.157 61.575 184.261 61.2066 184.361 60.8282C182.949 62.4307 181.752 64.1275 180.385 65.6894C175.949 70.7684 171.732 75.9852 168.204 81.6702C167.844 82.2541 167.526 82.8549 167.183 83.4543C167.275 83.5078 167.377 83.557 167.465 83.6007C172.011 77.5195 176.203 71.1965 181.41 65.5722C181.408 65.7307 181.347 65.8567 181.271 65.9771C178.42 70.0835 175.53 74.1827 172.711 78.3102C170.81 81.0893 169 83.9219 167.173 86.7391C166.874 87.1969 166.663 87.6984 166.369 88.267C167.309 88.3081 167.536 87.7548 167.806 87.252C171.294 80.9066 175.53 74.9945 179.936 69.1836C180.177 68.8616 180.481 68.5818 180.758 68.2908C180.797 68.3315 180.846 68.368 180.886 68.4088C176.714 74.6898 172.542 80.9708 168.381 87.2476C169.187 87.0262 169.88 86.6925 170.515 86.269C170.863 86.0397 171.313 85.6677 171.379 85.3257C171.657 83.7715 172.816 82.6536 173.598 81.3598C173.749 81.1189 174.006 80.9372 174.217 80.7287C174.266 80.7652 174.316 80.8018 174.369 80.8482C174.127 81.3958 173.9 81.9492 173.658 82.4969L173.672 82.5025ZM186.032 76.9456C186.065 77.034 186.098 77.1223 186.13 77.2107C184.201 78.3888 181.985 79.0167 180.207 80.4727C183.117 79.3526 185.949 78.0838 188.665 76.5343C189.677 75.9601 190.631 75.2961 191.672 74.7668C193.753 73.7082 195.856 72.6748 197.983 71.7103C200.867 70.4205 203.79 69.2051 206.696 67.9743C206.999 67.8529 207.342 67.8396 207.667 67.7771C207.679 67.8403 207.686 67.8936 207.698 67.9567C206.577 68.4956 205.445 69.0388 204.321 69.5679L204.408 69.8036C206.209 69.0599 208.014 68.326 209.669 67.6409C209.17 66.1272 208.721 64.751 208.247 63.306C207.798 63.5197 207.408 63.6983 207.025 63.8967C204.074 65.3938 201.138 66.9302 198.158 68.3824C194.607 70.1082 191.024 71.7457 187.462 73.4421C185.216 74.5102 183.003 75.633 180.775 76.7165C180.236 76.9777 179.816 77.3035 179.675 78.0252C181.465 77.252 183.158 76.5404 184.837 75.7894C189.723 73.5853 194.592 71.3657 199.474 69.1518C201.912 68.0519 204.36 66.9477 206.806 65.8674C207.199 65.6985 207.633 65.6377 208.048 65.5278C207.974 65.7828 207.885 65.8976 207.773 65.9534C200.892 69.0579 194.017 72.1483 187.139 75.2626C184.433 76.4812 181.755 77.7447 179.056 78.9829C178.45 79.2593 178.282 79.7441 178.117 80.3059C180.814 79.1588 183.437 78.041 186.06 76.9232L186.032 76.9456ZM194.2 42.5716C193.894 43.0402 193.97 43.453 194.43 43.81C194.949 43.3091 194.873 42.8963 194.2 42.5716ZM165.83 81.2226C165.739 81.1691 165.64 81.1297 165.548 81.0762C165.082 81.8604 164.616 82.6446 164.238 83.2803C164.7 82.6784 165.258 81.9477 165.816 81.2169L165.83 81.2226ZM180.869 37.1199C181.337 37.0563 181.838 37.5662 182.271 36.953C181.834 36.5269 181.366 36.5825 180.869 37.1199ZM193.276 42.8965C193.381 42.5953 193.522 42.3922 193.495 42.2226C193.48 42.116 193.231 42.058 193.079 41.9722C192.994 42.1641 192.86 42.3531 192.855 42.5353C192.856 42.6363 193.071 42.7306 193.276 42.8965ZM166.109 85.4514C166.109 85.4514 166.222 85.4965 166.267 85.5232C166.449 85.2025 166.631 84.8818 166.812 84.5611C166.756 84.5386 166.696 84.5062 166.639 84.4837C166.458 84.8044 166.29 85.1307 166.109 85.4514ZM162.914 85.7381C162.914 85.7381 163.024 85.7734 163.08 85.796C163.158 85.6181 163.233 85.4303 163.301 85.2566C163.258 85.2397 163.206 85.227 163.163 85.2101C163.085 85.388 163.007 85.5659 162.918 85.748L162.914 85.7381Z" fill="#ADC584"/>
<path d="M180.193 86.8614C180.185 86.065 180.761 85.8436 181.233 85.5971C183.131 84.5973 185.078 83.6999 186.965 82.6711C192.548 79.6272 198.474 77.3998 204.256 74.8084C205.124 74.4245 205.995 74.0171 206.874 73.6622C207.456 73.427 208.056 73.2734 208.691 73.2167C199.014 77.3705 189.549 81.9492 180.19 86.8517L180.193 86.8614Z" fill="#ADC584"/>
<path d="M185.658 42.9629C184.034 45.2971 182.506 47.6949 180.758 49.9543C176.511 55.4509 172.471 61.0465 169.004 67.0137C168.732 67.4846 168.374 67.9216 168.019 68.3346C170.1 62.9989 182.579 45.7751 185.662 42.9727L185.658 42.9629Z" fill="#ADC584"/>
<path d="M173.958 92.7108C176.171 90.4387 192.856 82.0553 197.417 80.7248C196.986 81.0215 196.782 81.237 196.527 81.3403C192.139 83.2122 187.909 85.4207 183.706 87.6736C180.89 89.1889 178.056 90.6557 175.229 92.1418C174.814 92.3541 174.38 92.5179 173.968 92.7067L173.958 92.7108Z" fill="#ADC584"/>
<path d="M207.276 71.5105C203.864 73.0778 200.451 74.6451 197.036 76.2028C196.882 76.2646 196.687 76.2435 196.53 76.2625C196.495 76.1657 196.478 76.1172 196.484 76.0703C196.48 76.0274 196.493 75.9666 196.52 75.9445C196.833 75.7406 197.145 75.5035 197.478 75.3577C200.711 73.9738 203.945 72.6232 207.181 71.249C207.213 71.3362 207.244 71.4234 207.272 71.5008L207.276 71.5105Z" fill="#ADC584"/>
<path d="M123.252 91.6695C123.501 91.3547 123.757 91.0258 124.146 90.5303C124.045 92.5413 122.331 96.6813 120.225 99.9395C120.289 99.6863 120.335 99.4176 120.428 99.1758C121.043 97.5204 121.697 95.8723 122.301 94.2211C122.466 93.78 122.534 93.3089 122.634 92.8592C122.842 92.4692 123.047 92.0693 123.245 91.6836L123.252 91.6695Z" fill="#ADC584"/>
<path d="M123.659 125.412C124.826 124.507 126.222 124.557 127.568 124.371C126.341 124.754 125.114 125.138 123.884 125.511C123.843 125.528 123.756 125.418 123.7 125.362L123.673 125.418L123.659 125.412Z" fill="#ADC584"/>
<path d="M132.835 76.1066C132.788 79.236 132.267 82.2697 131.569 85.283C129.898 92.4632 127.339 99.4166 124.35 106.257C120.491 115.101 115.362 123.245 108.472 130.351C104.768 134.172 101.011 137.98 96.5651 141.05C96.2171 141.291 95.8475 141.506 95.3659 141.583C95.7589 141.268 96.1588 140.939 96.5518 140.624C105.862 133.227 113.575 124.579 119.292 114.396C122.929 107.923 125.999 101.232 128.533 94.3445C129.732 91.0758 130.543 87.7452 131.204 84.3719C131.651 82.117 132.058 79.8549 132.491 77.5942C132.583 77.0922 132.714 76.5973 132.82 76.1009L132.835 76.1066Z" fill="#ADC584"/>
<path d="M106.582 137.867C112.505 132.393 117.839 126.507 122.026 119.752C126.18 113.044 129.46 106.003 132.042 98.6514C132.004 98.9049 132.018 99.1712 131.94 99.4175C131.248 101.529 130.595 103.648 129.81 105.739C127.986 110.603 125.845 115.365 122.91 119.752C120.845 122.829 118.516 125.785 116.082 128.623C113.869 131.204 111.379 133.566 108.958 135.981C108.249 136.682 107.38 137.243 106.592 137.862L106.582 137.867Z" fill="#ADC584"/>
<path d="M133.21 81.4424C133.6 83.7511 133.303 86.0573 132.859 88.3644C132.149 91.985 130.81 95.466 129.647 98.9914C129.182 100.395 128.644 101.77 128.15 103.162C126.303 108.325 123.443 113.044 120.392 117.679C119.84 118.524 119.15 119.297 118.348 120.001C119.564 118.051 120.83 116.104 121.988 114.131C123.192 112.083 124.396 110.035 125.416 107.922C126.447 105.806 127.319 103.626 128.138 101.434C128.939 99.2934 129.639 97.1133 130.304 94.9358C130.989 92.716 131.707 90.4835 132.187 88.2416C132.668 85.9998 132.876 83.7173 133.199 81.4466L133.21 81.4424Z" fill="#ADC584"/>
<path d="M60.8745 140.598C52.3648 144.19 43.5705 146.708 34.6852 149.363C34.7104 148.464 35.2741 148.369 35.7244 148.221C37.1298 147.764 38.5251 147.312 39.9308 146.889C43.4656 145.806 47.0141 144.728 50.5524 143.655C53.8177 142.67 57.0933 141.68 60.3587 140.695C60.5293 140.648 60.6968 140.625 60.8745 140.598Z" fill="#ADC584"/>
<path d="M121.117 104.492C116.303 115.015 109.291 124.031 99.8806 131.36C108.907 123.778 115.486 114.471 121.117 104.492Z" fill="#ADC584"/>
<path d="M97.731 129.285C97.8244 129.18 97.9069 129.045 98.0217 128.965C103.328 124.846 107.261 119.582 111.354 114.458C113.188 112.167 114.912 109.807 116.816 107.511C116.666 107.819 116.547 108.149 116.351 108.43C115.173 110.188 114.042 111.972 112.779 113.662C109.567 117.949 106.174 122.105 102.267 125.846C100.918 127.141 99.4064 128.288 97.9691 129.506C97.8944 129.434 97.8057 129.357 97.731 129.285Z" fill="#ADC584"/>
<path d="M128.211 89.8258C128.167 90.1958 128.183 90.5645 128.081 90.9117C126.522 96.1903 124.68 101.365 122.042 106.332C119.794 110.554 117.381 114.658 114.445 118.505C113.81 119.348 113.063 120.121 112.378 120.927C112.299 120.879 112.22 120.83 112.144 120.792C112.301 120.559 112.44 120.311 112.625 120.09C115.601 116.512 118.074 112.633 120.217 108.59C121.097 106.934 122.005 105.29 122.881 103.624C125.027 99.5563 126.312 95.239 127.719 90.953C127.845 90.5734 128.064 90.2138 128.244 89.8471L128.215 89.8357L128.211 89.8258Z" fill="#ADC584"/>
<path d="M104.742 140.614C104.239 141.04 103.784 141.535 103.242 141.888C97.1174 145.862 90.7543 149.344 83.9603 151.963C83.3453 152.211 82.7302 152.46 82.0445 152.514C83.5645 151.845 85.0876 151.152 86.6146 150.502C90.7071 148.761 94.6138 146.639 98.4608 144.385C100.149 143.403 101.725 142.21 103.351 141.12C103.739 140.863 104.128 140.606 104.516 140.349L104.742 140.614Z" fill="#ADC584"/>
<path d="M105.953 136.829C110.506 132.312 114.819 127.664 118.846 122.342C118.934 123.457 118.394 123.978 117.951 124.505C116.743 125.947 115.573 127.43 114.272 128.786C111.884 131.264 109.419 133.66 106.971 136.073C106.669 136.362 106.293 136.58 105.949 136.82L105.953 136.829Z" fill="#ADC584"/>
<path d="M101.763 122.609C105.114 118.73 108.464 114.851 111.804 110.976C109.028 115.302 105.812 119.286 101.763 122.609Z" fill="#ADC584"/>
<path d="M99.8729 135.812C103.742 132.787 107.137 129.32 110.114 125.502C110.283 125.604 110.336 125.616 110.361 125.651C110.375 125.691 110.397 125.75 110.359 125.776C109.753 126.571 109.205 127.421 108.514 128.149C106.646 130.102 104.757 132.031 102.801 133.907C101.979 134.698 101 135.327 100.086 136.031C100.011 135.96 99.9368 135.888 99.8729 135.812Z" fill="#ADC584"/>
<path d="M76.3962 135.611C78.6814 134.255 81.1105 133.263 83.8419 132.393C82.9008 133.384 77.9177 135.541 76.3962 135.611Z" fill="#ADC584"/>
<path d="M65.4839 139.57C66.6269 138.641 69.631 137.562 71.5289 137.319C70.6191 138.243 67.2776 139.525 65.4839 139.57Z" fill="#ADC584"/>
<path d="M125.272 90.6443C125.347 90.1919 125.383 89.7321 125.498 89.2869C125.948 87.5103 126.413 85.7395 126.877 83.9686C126.968 83.979 127.072 83.995 127.163 84.0054C126.932 85.1243 126.767 86.252 126.443 87.3506C126.122 88.4592 125.653 89.5346 125.239 90.6229L125.272 90.6443Z" fill="#ADC584"/>
<path d="M95.1768 141.268C94.3825 141.756 93.5881 142.244 92.7938 142.731C92.7585 142.667 92.7231 142.603 92.681 142.553C93.4681 142.046 94.2589 141.548 95.046 141.041C95.085 141.115 95.1378 141.194 95.1768 141.268Z" fill="#ADC584"/>
<path d="M127.212 89.6546C127.184 89.4827 127.113 89.2937 127.15 89.1306C127.284 88.5408 127.469 87.9541 127.881 87.415C127.645 88.1591 127.42 88.899 127.183 89.6431L127.212 89.6546Z" fill="#ADC584"/>
<path d="M125.472 90.6813C125.386 91.1376 125.31 91.5896 125.224 92.0459C125.102 92.0143 124.979 91.9826 124.86 91.9609C125.073 91.5462 125.292 91.1174 125.504 90.7027L125.472 90.6813Z" fill="#ADC584"/>
<path d="M96.791 139.867C96.6209 140.026 96.4402 140.188 96.2701 140.347C96.2309 140.306 96.1916 140.265 96.1524 140.224C96.3367 140.071 96.5069 139.913 96.6912 139.76C96.7268 139.791 96.766 139.832 96.791 139.867Z" fill="#ADC584"/>
<path d="M128.452 122.467C128.966 122.407 129.482 122.356 129.992 122.286C134.241 121.744 138.488 121.192 142.737 120.649C146.997 120.103 151.245 119.685 155.496 119.86C155.812 119.878 156.129 119.897 156.461 120.156C155.987 120.223 155.519 120.31 155.044 120.344C152.862 120.493 150.686 120.56 148.519 120.781C145.357 121.11 142.197 121.607 139.027 121.917C135.511 122.254 131.993 122.457 128.469 122.707C128.465 122.631 128.467 122.54 128.463 122.463L128.452 122.467Z" fill="#ADC584"/>
<path d="M145.777 111.711C147.018 111.392 148.264 110.925 149.525 110.789C155.068 110.179 160.61 110.085 166.146 110.005C168.507 109.978 170.887 109.807 173.251 109.722C173.734 109.707 174.208 109.798 174.688 109.84L174.648 110.216C173.967 110.276 173.283 110.36 172.608 110.373C168.21 110.467 163.804 110.508 159.407 110.636C156.142 110.735 152.868 110.905 149.598 111.119C148.33 111.202 147.057 111.5 145.777 111.711Z" fill="#ADC584"/>
<path d="M138.203 118.88C144.023 118.123 149.858 117.44 155.829 117.353C155.582 118.204 155.073 118.116 154.653 118.139C151.717 118.286 148.789 118.419 145.86 118.552C143.306 118.669 140.76 118.772 138.213 118.875L138.203 118.88Z" fill="#ADC584"/>
<path d="M176.434 120.96C172.088 121.217 167.821 120.777 163.509 120.671C165.244 120.054 175.163 120.209 176.434 120.96Z" fill="#ADC584"/>
<path d="M132.53 125.354C128.662 126.082 125.104 127.596 121.666 129.796C121.581 129.141 121.945 128.916 122.282 128.713C125.169 126.936 128.188 125.617 131.568 125.42C131.89 125.401 132.222 125.379 132.54 125.35L132.53 125.354Z" fill="#ADC584"/>
<path d="M176.47 112.389C179.484 112.639 182.55 112.575 185.517 113.183C185.504 113.279 185.491 113.374 185.468 113.474C182.454 113.223 179.429 112.977 176.419 112.737C176.438 112.627 176.454 112.508 176.474 112.399L176.47 112.389Z" fill="#ADC584"/>
<path d="M153.953 123.447C156.597 123.387 159.232 123.332 161.876 123.272C161.874 123.363 161.872 123.454 161.859 123.549C159.194 123.977 156.562 123.908 153.953 123.447Z" fill="#ADC584"/>
<path d="M155.23 65.0746C155.088 66.517 154.439 67.8422 153.772 69.1518C152.087 72.4899 150.473 75.8565 148.655 79.1336C145.663 84.5121 143.072 90.0839 139.618 95.2367C138.818 96.4174 137.924 97.5442 136.938 98.6171C140.574 93.3011 143.234 87.5545 146.215 81.9529C149.225 76.3287 152.231 70.6946 155.237 65.0605L155.23 65.0746Z" fill="#ADC584"/>
<path d="M167.112 38.0762C166.847 40.1324 154.223 60.5315 152.222 62.2913C153.215 60.1722 154.634 58.2473 155.845 56.2232C157.091 54.1625 158.327 52.106 159.587 50.051C160.816 48.0425 162.06 46.0396 163.3 44.0268C164.543 42.0239 165.529 39.885 167.112 38.0762Z" fill="#ADC584"/>
<path d="M144.228 89.2242C144.533 88.6374 144.791 88.0237 145.149 87.4837C148.445 82.4491 151.175 77.1725 153.34 71.6542C153.738 70.6326 154.203 69.6296 154.673 68.6365C154.862 68.2317 155.145 67.8469 155.496 67.2871C155.824 69.7263 148.257 84.6494 144.232 89.2341L144.228 89.2242Z" fill="#ADC584"/>
<path d="M136.827 101.028C136.469 101.499 136.122 101.966 135.764 102.437C135.736 102.425 135.722 102.42 135.693 102.408C136.008 101.92 136.319 101.422 136.634 100.934C136.695 100.967 136.755 101 136.827 101.028Z" fill="#ADC584"/>
<path d="M178.335 67.5887C178.575 67.2891 178.804 66.9937 179.044 66.6941C179.094 66.7308 179.141 66.7577 179.191 66.7945C178.965 67.0998 178.725 67.3994 178.499 67.7046C178.449 67.6679 178.385 67.6254 178.335 67.5887Z" fill="#ADC584"/>
</svg>
