<svg width="87" height="49" viewBox="0 0 87 49" fill="none" xmlns="http://www.w3.org/2000/svg">
<path d="M64.8538 62.7239C61.532 66.2685 58.8377 70.7636 54.424 73.092C50.0514 75.3955 44.271 74.6491 39.5224 74.1801C34.9986 73.7405 30.2749 72.6735 26.7713 69.5846C22.9164 66.1931 21.2074 61.1334 17.742 57.4156C16.0078 55.5531 13.6945 54.3312 12.0838 52.3511C9.73239 49.4573 8.63327 45.2188 8.52766 41.5457C8.4602 38.9907 8.95272 36.365 10.2874 34.1608C11.7411 31.7641 14.1177 30.353 16.4355 28.9228C18.2551 27.8028 20.0115 26.6313 21.3931 24.9707C23.0158 23.0177 24.0874 20.6887 25.5896 18.6475C32.9917 8.59597 46.8512 10.3791 56.7245 15.112C56.6701 15.0826 56.8333 14.2333 56.6085 14.1188C47.1613 9.30056 34.0485 7.42324 26.2584 16.3773C24.5887 18.2981 23.4936 20.611 22.0209 22.683C20.1777 25.2781 17.7026 26.7627 15.0716 28.4119C10.8666 31.0488 8.4928 34.5124 8.28381 39.5299C8.11015 43.5704 8.97262 48.0911 10.8948 51.6594C12.1836 54.0495 14.1839 55.4477 16.2076 57.1604C18.4635 59.0698 20.0551 61.4922 21.6128 63.9792C24.505 68.6081 27.4839 72.4098 32.816 74.1877C37.7233 75.8203 43.4288 76.1024 48.5626 75.9145C55.0852 75.6822 58.8495 71.3469 62.743 66.6958C64.7626 64.2857 66.9673 62.2105 69.2778 60.1016C71.3429 58.2101 73.1096 56.2336 73.8726 53.4741C73.949 53.1964 73.683 52.5529 73.7154 52.4633C72.2983 56.9331 67.914 59.4628 64.8538 62.7239Z" fill="#ADC584"/>
<path d="M61.9904 16.9162C61.9904 16.9162 61.9463 17.3599 62.0389 17.4422C66.0158 20.7337 70.2661 23.8989 72.6879 28.5881C74.4646 32.0272 74.4997 35.7796 74.4759 39.5556C74.4626 42.3134 75.3118 47.1632 73.3275 49.2353C73.2261 49.3441 73.3627 50.1756 73.4318 50.1565C74.4768 49.8066 74.5827 48.7928 74.6798 47.7995C74.8651 45.8762 74.7197 43.8722 74.7315 41.9416C74.7508 38.6446 74.9171 35.2888 74.2721 32.0361C72.9585 25.3866 67.6443 20.2441 61.986 16.9265L61.9904 16.9162Z" fill="#ADC584"/>
<path d="M24.4984 34.4156C23.7238 34.5465 23.1182 35.4194 22.7478 36.0278C21.6719 37.7706 21.078 39.8659 21.0073 41.9052C21.0058 41.9655 21.069 42.1873 21.072 42.1946C21.5071 40.5975 21.8129 39.0606 22.5934 37.5808C22.9859 36.8358 23.4915 35.9262 24.3057 35.5749C25.2787 35.1515 25.7887 35.8507 26.3133 36.5867C26.3104 36.5793 26.3266 36.2576 26.2913 36.1694C25.968 35.404 25.5213 34.2449 24.5086 34.42L24.4984 34.4156Z" fill="#ADC584"/>
<path d="M34.6108 43.6446C32.3445 43.1368 30.1179 42.4938 27.7972 42.2976C25.6984 42.1232 23.6261 42.3985 21.545 42.0126C21.5273 42.0112 21.5376 42.3138 21.5817 42.3388C23.6319 43.6488 26.0011 43.2207 28.3071 43.4655C30.8277 43.7352 33.2924 44.3766 35.7924 44.8079C38.4922 45.2701 45.2897 46.1293 45.8396 42.1343C45.8484 42.0711 45.7911 41.9066 45.7926 41.8889C44.7723 45.7313 37.2577 44.2302 34.6078 43.6372L34.6108 43.6446Z" fill="#ADC584"/>
<path d="M48.7639 33.9744C47.4515 32.7185 46.1965 31.3715 44.3446 30.962C42.0151 30.4455 39.6782 31.2101 37.7339 29.4401C37.7251 29.4181 37.7074 29.4166 37.6942 29.4475C36.7828 32.1981 35.0161 34.3451 32.5395 35.8473C32.4836 35.8782 32.4748 35.984 32.4895 36.1059C30.0468 35.7966 27.6527 35.2462 25.1645 34.7164C25.1645 34.7164 25.1586 34.8296 25.1792 34.8384C28.2964 36.4288 32.0676 37.0758 35.5465 37.1836C37.194 37.2317 38.8387 37.1446 40.4657 36.9282C42.2294 36.6912 45.1586 35.8941 45.8874 38.2697C45.9521 38.4739 45.9198 37.967 45.9007 37.898C44.9955 34.2721 39.8484 36.2378 37.2044 36.3413C35.9287 36.3916 34.6867 36.3346 33.461 36.2115C34.0768 35.7691 34.6574 35.2812 35.1807 34.7139C36.0861 33.7381 36.5462 32.5229 37.3546 31.5177C37.7705 31.0019 37.2914 30.8272 38.2703 30.802C38.6156 30.7916 39.3152 31.3468 39.69 31.4525C40.8422 31.7754 42.0121 31.6738 43.1879 31.7572C46.1141 31.9754 47.5676 33.8821 49.6956 35.6212C50.5172 36.2895 51.6724 36.705 51.9986 37.6481C52.222 38.2916 52.0676 39.2481 52.1836 39.943C52.2791 40.5013 52.4129 41.0699 52.6098 41.6047C52.6054 41.5724 53.3196 43.3147 53.2373 42.9386C53.4312 43.8495 53.1902 43.8863 52.5964 44.6181C50.5915 47.0649 48.3721 49.4016 45.9631 51.4562C44.8887 52.3718 44.2214 52.1957 42.8766 51.9242C41.6788 51.6791 40.4149 51.844 39.2641 51.6313C38.2603 51.4449 37.33 50.2066 36.36 49.7852C35.2592 49.3138 34.2025 49.2509 33.0516 49.4642C33.0165 47.0752 32.3273 44.8627 30.5064 43.1456C30.5226 43.1647 30.4241 43.7495 30.5549 43.8846C32.0481 45.4857 33.0503 47.2662 32.8826 49.6171C32.8723 49.6979 32.8973 50.3355 33.0119 50.3238C35.2959 50.1939 37.2241 50.9647 38.7614 52.676C38.7643 52.6834 38.7746 52.6878 38.7849 52.6922C40.8881 51.3223 42.8604 53.7372 44.9592 53.2724C45.8748 53.068 46.8508 51.8424 47.5019 51.2325C48.4338 50.3654 49.3333 49.4601 50.2093 48.5387C51.8849 46.7604 54.1998 45.1099 53.496 42.5198C53.0419 40.8523 52.6496 39.0408 52.2617 37.3469C52.2235 37.1662 52.2617 36.9634 52.1809 36.7827C51.6724 35.5971 49.7001 34.8865 48.7463 33.9729L48.7639 33.9744Z" fill="#ADC584"/>
<path d="M22.9684 58.0772C21.6398 57.3136 20.0643 57.0407 18.7049 56.3064C17.2366 55.5134 15.9522 54.4338 14.6853 53.3557C13.8726 52.6668 13.0628 51.9853 12.3662 51.1818C12.8718 51.8487 13.4611 52.4906 14.1459 53.0943C16.7252 55.3857 19.5352 57.4654 22.9846 58.2241C22.9846 58.2241 22.989 58.086 22.9655 58.0699L22.9684 58.0772Z" fill="#ADC584"/>
<path d="M10.1603 46.7128C10.504 47.9558 10.9713 49.1663 11.6725 50.2577C11.8828 50.5911 12.1239 50.8951 12.3768 51.1859C11.352 49.8405 10.648 48.3583 10.1603 46.7128Z" fill="#ADC584"/>
<path d="M9.68178 44.7482C9.81684 45.427 9.97545 46.0794 10.1576 46.7052C9.97546 46.0367 9.81833 45.3668 9.69063 44.685C9.67889 44.613 9.68032 44.7232 9.68178 44.7482Z" fill="#ADC584"/>
<path d="M24.2413 56.4001C21.9485 56.5506 19.5309 55.3875 17.5983 54.2435C15.4966 52.9966 13.6478 51.3589 12.1385 49.4404C12.1385 49.4404 12.137 49.4581 12.1473 49.4625C13.5802 51.3604 15.3056 52.9879 17.3323 54.2391C19.2267 55.4155 21.9632 56.8856 24.2634 56.5618C24.2781 56.5559 24.2634 56.3913 24.2457 56.3899L24.2413 56.4001Z" fill="#ADC584"/>
<path d="M30.4605 50.998C28.7512 51.4774 26.8332 50.4127 25.1739 50.037C25.1739 50.037 25.1695 50.0899 25.1798 50.0943C26.1277 50.4393 27.1007 50.6977 28.056 50.9972C28.8349 51.2394 29.7197 51.6608 30.4781 51.1699C30.5075 51.1582 30.4678 50.9951 30.4605 50.998Z" fill="#ADC584"/>
<path d="M10.2911 46.6344C10.2911 46.6344 10.2941 46.5565 10.2852 46.5345C10.1618 46.3112 10.0604 46.079 9.96631 45.844C10.0692 46.1011 10.175 46.3655 10.2881 46.627L10.2911 46.6344Z" fill="#ADC584"/>
<path d="M9.96965 45.8522C9.83006 45.482 9.72282 45.1074 9.62001 44.7224C9.71253 45.103 9.8227 45.4849 9.96965 45.8522Z" fill="#ADC584"/>
<path d="M9.40695 43.5706C9.44798 43.9717 9.52284 44.3508 9.62272 44.7283C9.5302 44.3478 9.45975 43.9585 9.41431 43.5676C9.40549 43.5456 9.40549 43.5456 9.41431 43.5676L9.40695 43.5706Z" fill="#ADC584"/>
<path d="M8.83709 41.1903C8.60201 39.8357 8.82254 38.5118 9.32672 37.279C8.79755 38.4707 8.57556 39.7696 8.83709 41.1903Z" fill="#ADC584"/>
<path d="M12.3155 33.2206C11.0573 34.3375 9.96377 35.738 9.33023 37.2867C10.4841 34.6947 13.1033 32.6327 15.3991 31.0835C18.3122 29.1169 21.434 27.1605 22.8657 23.7927C22.8745 23.7721 22.8496 23.731 22.8569 23.728C20.7505 28.2436 15.8489 30.077 12.3155 33.2206Z" fill="#ADC584"/>
<path d="M8.99905 41.8936C8.97108 41.8024 8.95048 41.7082 8.92988 41.6141C8.95343 41.7156 8.97403 41.8097 8.99758 41.9112C9.00052 41.9186 8.99464 41.9039 8.99169 41.8965L8.99905 41.8936Z" fill="#ADC584"/>
<path d="M8.83708 41.1905C8.84591 41.2552 8.86209 41.317 8.87093 41.3818C8.85474 41.32 8.84591 41.2552 8.83708 41.1905Z" fill="#ADC584"/>
<path d="M8.87122 41.3816C8.88594 41.4611 8.90508 41.5302 8.92715 41.6067C8.90508 41.5302 8.89035 41.4508 8.87122 41.3816Z" fill="#ADC584"/>
<path d="M19.9905 29.2641L19.9993 29.3288C21.672 28.0119 23.008 26.3866 23.8812 24.4352C23.89 24.4146 23.865 24.3735 23.8724 24.3705C22.9184 26.2691 21.6543 27.9252 19.9979 29.2612L19.9905 29.2641Z" fill="#ADC584"/>
<path d="M21.8119 28.766C21.7737 28.7983 21.8428 28.9496 21.831 28.9629C22.7952 28.1766 23.5669 27.1861 24.0225 26.0238C24.0358 25.993 24.0034 25.9122 24.0034 25.9122C23.4669 27.0216 22.7717 27.99 21.8075 28.7763L21.8119 28.766Z" fill="#ADC584"/>
<path d="M23.2097 28.8284C23.1744 28.8681 23.242 29.037 23.242 29.037C23.9196 28.2376 24.5076 27.3632 24.9015 26.3875C24.9103 26.367 24.8854 26.2832 24.8854 26.2832C24.3944 27.187 23.8755 28.0422 23.2024 28.8313L23.2097 28.8284Z" fill="#ADC584"/>
<path d="M24.4817 28.5145L24.5008 28.6262C24.6686 28.3631 24.8363 28.0999 25.0041 27.8368C25.0203 27.8133 24.9836 27.7428 24.9909 27.7398C24.8202 27.9956 24.6524 28.2587 24.489 28.5116L24.4817 28.5145Z" fill="#ADC584"/>
<path d="M25.4593 28.6774C25.4593 28.6774 25.4593 28.6355 25.4521 28.6384C25.4449 28.6413 25.4521 28.6803 25.4593 28.6774Z" fill="#ADC584"/>
<path d="M26.9617 28.3417C26.847 28.9073 26.5222 29.31 26.1356 29.7288C26.1165 29.745 26.1518 29.8758 26.1591 29.8728C26.6574 29.6053 26.9161 28.9734 26.9852 28.443C26.9867 28.4254 26.9632 28.324 26.9617 28.3417Z" fill="#ADC584"/>
<path d="M28.1281 45.0624C28.1281 45.0624 28.1207 45.1505 28.1383 45.152C30.4488 45.3012 31.4466 47.4329 32.005 49.3824C32.0285 49.4412 32.0153 49.3016 32.0094 49.2869C31.5451 47.2742 30.4708 45.0794 28.1251 45.055L28.1281 45.0624Z" fill="#ADC584"/>
<path d="M30.2385 44.5422C30.2385 44.5422 30.215 44.6965 30.2591 44.7215C31.5524 45.4822 32.368 46.775 32.4003 48.3044C32.4062 48.3191 32.4253 48.4308 32.4297 48.3779C32.4459 46.7779 31.6538 45.3309 30.2385 44.5422Z" fill="#ADC584"/>
<path d="M29.8248 47.6636C29.8248 47.6636 29.8042 47.7827 29.8336 47.8135C29.9527 47.9192 30.0718 48.025 30.1953 48.1204C30.1953 48.1204 30.2115 48.0117 30.188 47.9955C30.066 47.8824 29.9469 47.7767 29.8248 47.6636Z" fill="#ADC584"/>
<path d="M28.2623 28.8861C28.0889 29.6458 27.8243 30.3481 27.4612 31.0388C27.445 31.0623 27.4774 31.1431 27.4774 31.1431C27.8904 30.4921 28.155 29.7471 28.2756 28.9831C28.277 28.9655 28.2609 28.8611 28.252 28.8817L28.2623 28.8861Z" fill="#ADC584"/>
<path d="M28.2088 31.1812C28.2088 31.1812 28.2088 31.1393 28.2016 31.1422C28.1944 31.1451 28.2016 31.1841 28.2088 31.1812Z" fill="#ADC584"/>
<path d="M9.43699 38.9818C9.32081 40.3321 9.37805 41.6896 9.61166 43.0192C9.62635 43.0986 9.63223 43.0281 9.62489 42.9884C9.42949 41.6691 9.36489 40.357 9.44728 39.0288C9.44434 39.0215 9.43258 38.9495 9.42964 38.9847L9.43699 38.9818Z" fill="#ADC584"/>
<path d="M10.6247 44.038C10.6247 44.038 10.6129 44.0086 10.6173 44.0409C10.8303 46.2565 11.8678 48.2529 13.6593 49.5983C13.6593 49.5983 13.6637 49.5454 13.6535 49.541C11.9487 48.1354 10.8538 46.2726 10.6247 44.038Z" fill="#ADC584"/>
<path d="M20.398 53.2075C16.9781 51.2014 13.7007 48.8911 12.1268 45.1067C12.1239 45.0993 12.1224 45.1596 12.1283 45.1743C13.6537 48.8588 16.8928 51.5849 20.4171 53.3192C20.4171 53.3192 20.4289 53.2207 20.4053 53.2046L20.398 53.2075Z" fill="#ADC584"/>
<path d="M23.8684 22.3363L23.8743 22.351C24.496 21.9233 24.9619 21.4045 25.3059 20.73C25.3147 20.7094 25.2941 20.658 25.2912 20.6507C24.9046 21.2825 24.4343 21.8542 23.8684 22.3363Z" fill="#ADC584"/>
<path d="M54.6977 16.2477C52.3756 14.4499 49.0688 12.6626 46.0764 12.5988C46.0764 12.5988 46.0705 12.6693 46.0882 12.6707C49.1731 12.8595 52.2506 14.6703 54.7138 16.3946C54.7138 16.3946 54.7315 16.2682 54.705 16.2447L54.6977 16.2477Z" fill="#ADC584"/>
<path d="M49.7225 14.1895C49.7225 14.1895 49.7019 14.3938 49.7504 14.4084C51.1996 14.8768 52.4091 15.6625 53.5246 16.6819C53.5246 16.6819 53.5452 16.5203 53.5128 16.4821C52.4841 15.4024 51.1452 14.6344 49.7269 14.1792L49.7225 14.1895Z" fill="#ADC584"/>
<path d="M49.5145 14.8611C49.5145 14.8611 49.488 15.0506 49.5395 15.0727C50.6726 15.5822 51.6029 16.3093 52.614 17.0039C52.614 17.0039 52.6273 16.8879 52.6008 16.8644C51.7572 15.9919 50.6036 15.3457 49.5116 14.8538L49.5145 14.8611Z" fill="#ADC584"/>
<path d="M49.2308 15.3242C49.2308 15.3242 49.2043 15.5138 49.2558 15.5358C50.3595 16.1423 51.2281 16.9281 52.1481 17.7786C52.1481 17.7786 52.1584 17.6552 52.1363 17.6214C51.3604 16.6622 50.3008 15.9102 49.2279 15.3169L49.2308 15.3242Z" fill="#ADC584"/>
<path d="M49.5887 16.4331C49.5887 16.4331 49.5578 16.6329 49.6151 16.6696C50.4808 17.2351 51.2156 17.921 52.018 18.5629C52.018 18.5629 52.0269 18.4571 52.0107 18.438C51.3273 17.6463 50.4602 17.0132 49.5916 16.4404L49.5887 16.4331Z" fill="#ADC584"/>
<path d="M49.5814 17.6296C49.5814 17.6296 49.5623 17.7736 49.5946 17.8118C50.1354 18.3964 50.6645 18.9942 51.2245 19.5627C51.2245 19.5627 51.2377 19.4892 51.2215 19.4701C50.6954 18.837 50.134 18.2436 49.5814 17.6296Z" fill="#ADC584"/>
<path d="M51.4696 16.8729C51.4696 16.8729 51.4696 16.831 51.4624 16.8339C51.4551 16.8368 51.4624 16.8758 51.4696 16.8729Z" fill="#ADC584"/>
<path d="M53.7411 14.6864C53.7411 14.6864 53.7411 14.6445 53.7338 14.6474C53.7266 14.6502 53.7338 14.6892 53.7411 14.6864Z" fill="#ADC584"/>
<path d="M52.3216 37.0696C52.3745 37.2018 52.4245 37.3266 52.47 37.4618C52.5332 37.5558 52.6038 37.6469 52.6669 37.7409C52.7625 37.8731 52.7228 38.2214 52.7154 38.3947C52.7345 38.5064 52.758 38.6078 52.7771 38.7194C52.7977 38.7708 52.808 38.8178 52.8242 38.8796C52.8447 38.931 52.8521 39.0985 52.8638 39.2557C52.9681 40.0916 52.9578 41.1098 53.3178 41.8179C53.4647 42.4835 53.5265 42.4673 53.4971 41.7547C53.4942 41.7474 53.4986 41.7371 53.503 41.7268C53.312 41.0789 53.1577 40.4163 53.0548 39.7331C53.0034 39.3702 52.9843 39.0029 52.9579 38.6386C52.7301 37.7923 52.4759 37.0504 52.2437 36.7684C52.2819 36.8639 52.301 36.9755 52.3319 37.074L52.3216 37.0696Z" fill="#ADC584"/>
<path d="M62.8891 39.4043C62.6525 39.3456 62.4085 39.3324 62.1645 39.3618C61.2945 39.318 60.4685 39.3843 59.6146 39.5726C58.8165 39.5596 58.0081 39.8404 57.2189 40.1051C56.6251 40.1552 56.0343 40.0848 55.4728 39.7896C55.4934 39.7984 55.4405 40.0923 55.5037 40.1437C55.6845 40.2759 55.8652 40.3655 56.0504 40.4448C55.2582 40.6169 54.491 40.6171 53.7709 40.0957C53.5607 39.5918 53.4138 39.0115 53.2904 38.5325C53.2257 38.2431 53.1567 37.9639 53.0832 37.6951C53.0244 37.2073 53.0289 36.6857 52.8393 36.2332C52.3264 35.0154 51.1786 34.81 50.1425 34.1593C48.4817 33.1195 47.2046 31.6535 46.2626 29.9597C46.2538 29.9377 46.2288 29.9392 46.2229 29.9671C46.2024 30.0009 46.1891 30.0318 46.1686 30.0656C46.1333 29.9348 46.0569 29.6586 46.0392 29.6998C45.9599 29.9275 45.8555 30.1141 45.7262 30.2596C45.3205 30.2685 44.9149 30.4479 44.4916 30.5405C42.3296 30.9966 40.1573 30.6386 38.1512 29.7796C38.1512 29.7796 38.1247 30.0544 38.1821 30.0911C40.0015 31.3571 42.0664 31.9796 44.296 31.6925C44.5224 31.6616 44.7281 31.6218 44.9119 31.5909C45.2558 31.6834 45.4777 31.5776 45.6849 31.4776C45.6996 31.4717 45.7276 31.4776 45.7452 31.4791C45.7511 31.4938 45.7599 31.5158 45.7628 31.5232C45.8569 31.6304 45.9465 31.7479 46.0406 31.8551C46.3771 32.5897 46.1978 32.312 46.8254 33.0068C46.8283 33.0142 46.8327 32.8335 46.8283 32.6307C47.0253 32.8246 47.2266 33.0082 47.4279 33.1918C47.572 33.4239 47.7615 33.6208 48.104 33.7735C48.0937 33.7691 48.0981 33.6735 48.0981 33.5457C48.9064 34.4153 49.8352 35.1174 50.8523 35.7415C51.2814 36.0044 51.6297 36.1719 51.9134 36.3481C51.931 36.4348 51.9457 36.5141 51.9575 36.5435C51.9795 36.6199 52.0015 36.6963 52.0236 36.7727C52.0221 36.9607 52.0206 37.1914 52.0588 37.2869C52.7906 39.1159 52.7229 41.12 53.246 42.9814C52.886 42.6142 52.4333 42.3352 52.0218 42.0311C51.5765 41.7065 51.1312 41.3819 50.6859 41.0573C50.6859 41.0573 50.6006 41.6113 50.7343 41.7111C51.2134 42.0563 51.6823 42.397 52.1614 42.7422C52.5362 43.0183 52.955 43.4472 53.415 43.5529C53.415 43.5529 53.4268 43.5397 53.4253 43.5147C53.4429 43.5588 53.4562 43.6131 53.4738 43.6572C53.1754 44.1686 52.905 44.6858 52.6477 45.1722C51.7349 46.8753 50.659 48.0642 49.0614 49.1636C48.4058 49.6133 47.7356 50.0264 47.1124 50.5143C46.6524 50.8774 46.1174 51.6283 45.6103 51.9164C44.6402 52.4749 43.8157 51.8419 42.8325 51.707C41.8316 51.5706 41.1599 51.7882 40.2222 52.0867C40.2149 52.0896 40.2193 52.1646 40.2296 52.169C42.1064 52.4065 43.9288 52.9982 45.4088 54.2041C45.4411 54.2422 45.4661 54.2408 45.4838 54.1996C47.1623 52.0879 49.9034 51.332 51.6187 49.2908C52.3286 48.4443 52.7079 47.4319 53.2282 46.4738C53.5104 45.9434 53.8426 45.4525 54.188 44.9735C54.2086 45.0249 54.2453 45.0528 54.2659 45.019C54.601 44.5355 55.0361 44.0461 55.3639 43.523C56.1737 43.7359 56.7645 43.2949 57.3422 42.7144C57.8934 42.153 58.3225 41.7342 59.0324 41.399C59.1133 41.3667 59.1941 41.3343 59.272 41.2946C60.4096 40.8991 61.5472 40.5036 62.6936 40.1302C62.7083 40.1243 62.7186 40.0861 62.7259 40.0405C62.8141 40.0478 62.9023 40.0551 62.9934 40.0698C63.0214 40.0757 63.0332 39.4659 62.9185 39.4351L62.8891 39.4043ZM52.9479 38.6354C52.9744 38.9998 52.9934 39.3671 53.0449 39.73C53.1448 40.4058 53.299 41.0684 53.493 41.7237C53.496 41.731 53.4915 41.7413 53.4871 41.7516C53.5135 42.4568 53.4548 42.4803 53.3078 41.8148C52.9478 41.1067 52.9581 40.0885 52.8538 39.2525C52.8494 39.0924 52.8347 38.9279 52.8142 38.8764C52.7906 38.8177 52.7804 38.7707 52.7671 38.7163C52.748 38.6046 52.7319 38.5003 52.7054 38.3916C52.7128 38.2182 52.7525 37.87 52.657 37.7378C52.5938 37.6438 52.5232 37.5527 52.46 37.4587C52.4145 37.3235 52.3719 37.1957 52.3116 37.0665C52.2808 36.968 52.2572 36.8666 52.2234 36.7609C52.463 37.04 52.7099 37.7848 52.9376 38.631L52.9479 38.6354Z" fill="#ADC584"/>
<path d="M65.1696 40.8859C65.1696 40.8859 65.1608 40.9917 65.1814 41.0005C67.768 41.542 69.8844 43.0812 71.2673 45.3229C71.2614 45.3082 71.2775 45.1995 71.2526 45.1584C70.0108 42.8431 67.7534 41.2922 65.1623 40.8888L65.1696 40.8859Z" fill="#ADC584"/>
<path d="M61.3568 22.214C61.2832 22.2434 61.3921 22.6436 61.4068 22.6377C61.4804 22.6083 61.3715 22.2081 61.3568 22.214Z" fill="#ADC584"/>
<path d="M59.7178 17.5017C65.1027 20.6901 70.5757 24.3971 72.2905 30.7923C72.3052 30.8291 72.295 30.7394 72.2994 30.7291C70.7918 24.4044 65.2012 20.3184 59.7222 17.4914L59.7178 17.5017Z" fill="#ADC584"/>
<path d="M66.9065 23.3011C66.9065 23.3011 66.8977 23.3643 66.9139 23.3834C69.2653 25.8938 70.9259 28.8083 71.7003 32.1712C71.7135 32.2256 71.7135 32.1404 71.7076 32.1257C71.02 28.7877 69.3961 25.6454 66.9065 23.3011Z" fill="#ADC584"/>
<path d="M68.3762 26.2496C68.3762 26.2496 68.3556 26.4113 68.3938 26.4642C69.6537 28.312 70.4663 30.3217 70.8832 32.5153C70.9008 32.602 70.9038 32.4815 70.8994 32.4492C70.537 30.1997 69.6846 28.1121 68.3836 26.2467L68.3762 26.2496Z" fill="#ADC584"/>
<path d="M47.0794 28.7629C47.0794 28.7629 47.119 28.9686 47.119 28.8833C47.1515 27.0468 47.6733 25.4319 48.5655 23.8478C48.5905 23.8038 48.5347 23.6642 48.5347 23.6642C47.5161 25.1455 47.0574 26.9821 47.0794 28.7629Z" fill="#ADC584"/>
<path d="M28.9165 31.4373C28.9165 31.4373 28.9283 31.5092 28.9312 31.5166C29.2605 30.9758 29.4663 30.3822 29.5222 29.7548C29.5192 29.7475 29.5133 29.6902 29.5089 29.7004C29.4325 30.319 29.2414 30.9068 28.9121 31.4475L28.9165 31.4373Z" fill="#ADC584"/>
<path d="M30.4636 29.4023C30.3327 30.8436 29.8006 32.0706 28.951 33.2286C28.9436 33.2315 28.9657 33.2653 28.9583 33.2682C29.946 32.2851 30.4547 30.8715 30.4841 29.4963C30.4856 29.4787 30.465 29.3847 30.4636 29.4023Z" fill="#ADC584"/>
<path d="M31.274 29.6164C31.124 31.2018 30.7623 32.8121 29.5571 33.9335C29.5262 33.9629 29.5806 34.0775 29.5762 34.0877C30.8505 32.9899 31.218 31.309 31.2931 29.6854C31.2872 29.6708 31.2784 29.6061 31.274 29.6164Z" fill="#ADC584"/>
<path d="M32.2764 30.2884C32.3102 31.5446 31.6208 32.6129 30.9373 33.6107C30.9006 33.668 30.9829 33.8737 30.9755 33.8766C31.6928 32.8142 32.4086 31.6841 32.2999 30.3472C32.2955 30.3148 32.2647 30.1738 32.2735 30.281L32.2764 30.2884Z" fill="#ADC584"/>
<path d="M33.1862 30.8783C33.0406 32.1126 32.6922 33.266 32.0484 34.3417C32.0073 34.4093 32.0969 34.612 32.0925 34.6223C32.7598 33.5202 33.1567 32.2962 33.2141 31.0121C33.2126 30.9871 33.1877 30.8607 33.1818 30.8886L33.1862 30.8783Z" fill="#ADC584"/>
<path d="M33.8309 32.4263C33.8309 32.4263 33.8309 32.3844 33.8237 32.3873C33.8165 32.3902 33.8237 32.4292 33.8309 32.4263Z" fill="#ADC584"/>
<path d="M36.9019 23.0777C34.5032 24.1568 33.9049 27.7963 33.4315 30.0649C33.4256 30.0928 33.4535 30.2265 33.4623 30.2059C33.9622 28.0886 34.4988 25.4027 36.2273 23.8845C36.9519 23.2452 37.8719 23.0305 38.7978 23.3417C40.319 23.8409 41.0141 25.3438 41.2888 26.8188C41.305 26.9231 41.3094 26.785 41.305 26.7527C40.9935 24.7384 39.3594 21.9752 36.9048 23.0851L36.9019 23.0777Z" fill="#ADC584"/>
<path d="M37.8825 24.7826C36.5143 24.1541 35.5309 26.1495 35.084 27.1208C34.4858 28.4169 34.1433 29.8406 33.9477 31.2482C33.9492 31.2732 33.9624 31.3702 33.9712 31.3496C34.2667 29.9787 34.5299 28.6123 35.1193 27.3368C35.6176 26.2597 36.4878 24.5566 37.9002 24.9118C37.9002 24.9118 37.9105 24.7884 37.8825 24.7826Z" fill="#ADC584"/>
<path d="M38.2822 26.1221C35.7601 25.9127 35.0897 30.1178 34.5032 31.8267C34.4899 31.8576 34.5267 31.9281 34.5223 31.9384C35.2749 29.8563 35.7571 26.7575 38.2998 26.294C38.3145 26.2882 38.3071 26.1206 38.2822 26.1221Z" fill="#ADC584"/>
<path d="M36.1146 29.9963C36.1146 29.9963 36.1146 29.9545 36.1074 29.9574C36.1002 29.9602 36.1074 29.9992 36.1146 29.9963Z" fill="#ADC584"/>
<path d="M38.1956 21.7501C38.1956 21.7501 38.1941 21.9381 38.2191 21.9367C40.2341 21.6247 42.033 22.8819 42.4003 24.9079C42.415 24.9872 42.4208 24.9167 42.4135 24.877C42.1226 22.7864 40.3061 21.3999 38.1985 21.7574L38.1956 21.7501Z" fill="#ADC584"/>
<path d="M40.6493 22.1301C40.6493 22.1301 40.6493 22.0882 40.642 22.0911C40.6348 22.094 40.6421 22.133 40.6493 22.1301Z" fill="#ADC584"/>
<path d="M72.2254 43.2C72.2254 43.2 72.2401 43.0663 72.2136 43.0428C70.8263 41.4079 68.9936 39.8319 66.7361 39.8148C66.7288 39.8177 66.7259 39.8956 66.7303 39.9705C65.3032 39.749 63.8378 40.0712 62.4048 40.3889C62.3901 40.3948 62.4033 40.4917 62.418 40.4859C64.1876 40.1783 66.1527 39.8693 67.8766 40.5344C69.652 41.2216 70.788 42.7185 71.9446 44.1389C71.9417 44.1316 71.9593 44.0052 71.9373 43.9714C70.9688 42.5524 69.7461 41.1158 68.1515 40.3904C67.9457 40.3023 67.7429 40.2215 67.5386 40.1584C69.4536 40.4914 70.7719 41.9324 72.2357 43.2044L72.2254 43.2Z" fill="#ADC584"/>
<path d="M65.4813 38.9788L65.496 39.1008C68.1372 37.6264 70.9781 40.0177 72.7475 41.798C72.7475 41.798 72.7607 41.6819 72.7387 41.6481C71.2426 39.5283 68.024 37.4502 65.4857 38.9685L65.4813 38.9788Z" fill="#ADC584"/>
<path d="M69.7495 38.6097C69.7495 38.6097 69.7157 38.8874 69.7847 38.9109C70.2565 39.0459 70.718 39.2192 71.153 39.4542C71.3705 39.5716 71.5734 39.695 71.782 39.8331C71.9599 39.9579 72.1421 40.1577 72.3655 40.2046C72.3729 40.2017 72.3582 40.0798 72.3552 40.0724C71.8115 39.31 70.6269 38.8636 69.7598 38.6141L69.7495 38.6097Z" fill="#ADC584"/>
<path d="M64.7091 21.7936C62.2357 20.0649 59.4771 18.6889 56.839 17.2306C56.839 17.2306 56.8316 17.3188 56.8522 17.3276C59.4756 18.8344 62.0167 20.5616 64.7238 21.9156C64.7238 21.9156 64.7327 21.8098 64.7165 21.7907L64.7091 21.7936Z" fill="#ADC584"/>
<path d="M58.9407 19.244C58.9407 19.244 58.9245 19.3954 58.9583 19.416C61.9859 21.0593 64.887 22.7702 67.1723 25.3922C67.1723 25.3922 67.1826 25.3114 67.1635 25.285C65.0972 22.5072 61.93 20.8345 58.9304 19.2397L58.9407 19.244Z" fill="#ADC584"/>
<path d="M64.2606 23.5062C64.2606 23.5062 64.2312 23.6884 64.2738 23.731C65.3893 24.6652 66.1373 25.7463 67.0161 26.8774C67.0161 26.8774 67.0191 26.757 67.0073 26.7276C66.3666 25.4671 65.3334 24.3978 64.2532 23.5092L64.2606 23.5062Z" fill="#ADC584"/>
<path d="M53.0934 34.5025C50.589 33.7832 48.6315 32.0868 48.0393 29.4775C48.0202 29.4085 48.029 29.5157 48.0276 29.5334C48.4874 32.0251 50.495 34.3151 53.0993 34.6024C53.0993 34.6024 53.1037 34.5069 53.0831 34.4981L53.0934 34.5025Z" fill="#ADC584"/>
<path d="M53.9428 33.4725C51.9911 32.8985 50.3832 32.0762 49.4074 30.1914C49.4221 30.2281 49.3883 30.4206 49.4309 30.5058C50.2656 32.1232 52.0395 33.6801 53.9678 33.6415C53.9825 33.6356 53.9708 33.4784 53.9502 33.4696L53.9428 33.4725Z" fill="#ADC584"/>
<path d="M54.9614 32.8862C53.6504 32.4649 52.5378 31.9216 51.6987 30.7831C51.7075 30.8051 51.6693 31.0079 51.7207 31.0725C52.4673 32.0861 53.6739 32.9924 54.9804 33.0405C54.9878 33.0376 54.9863 32.8848 54.9584 32.8789L54.9614 32.8862Z" fill="#ADC584"/>
<path d="M53.6896 35.2263C53.6896 35.2263 53.6719 35.097 53.6631 35.1176C53.3015 36.7706 54.1582 39.1887 55.9556 39.6114C55.9556 39.6114 55.9645 39.5057 55.9439 39.4968C54.4287 38.4585 53.3911 37.2716 53.6822 35.2292L53.6896 35.2263Z" fill="#ADC584"/>
<path d="M54.8496 34.8646C54.7834 34.8911 54.7172 34.9176 54.6466 34.9543C54.6319 34.9602 54.6554 35.0617 54.6628 35.0588C54.7319 35.0397 54.7981 35.0132 54.8643 34.9867C54.8864 34.9778 54.857 34.8616 54.8496 34.8646Z" fill="#ADC584"/>
<path d="M71.664 47.6762C73.4081 54.7414 65.001 58.9147 61.1016 63.2103C61.0781 63.2368 61.131 63.369 61.131 63.369C65.0539 58.8765 73.658 54.8971 71.6772 47.5601C71.6537 47.5014 71.6625 47.6512 71.6713 47.6733L71.664 47.6762Z" fill="#ADC584"/>
<path d="M70.4711 47.1237C71.751 50.5144 69.7447 53.7032 67.5532 56.131C65.6865 58.1987 63.4715 60.0564 61.2448 61.7142C61.2183 61.7333 61.2668 61.8332 61.2624 61.8435C64.1873 59.5229 67.2591 57.399 69.3463 54.2205C70.7339 52.1059 71.5321 49.4346 70.4799 47.0179C70.474 47.0032 70.4725 47.1061 70.4814 47.1281L70.4711 47.1237Z" fill="#ADC584"/>
<path d="M72.7313 45.2731C73.1427 47.1536 73.2234 49.0386 72.9441 50.9399C72.9426 50.9575 72.9558 51.0119 72.9602 51.0016C73.269 49.0459 73.2191 47.0889 72.7475 45.1643C72.7284 45.0953 72.7298 45.2481 72.7386 45.2701L72.7313 45.2731Z" fill="#ADC584"/>
<path d="M73.0811 45.6373C73.1795 45.9899 73.2779 46.3425 73.3837 46.6921C73.4145 46.7906 73.4028 46.5481 73.3881 46.5114C73.2853 46.1691 73.1898 45.8238 73.087 45.4815C73.062 45.3977 73.0767 45.6049 73.0811 45.6373Z" fill="#ADC584"/>
<path d="M69.1922 45.2918C70.2194 48.0082 70.0575 51.0129 68.5391 53.5036C67.3956 55.3758 65.6436 56.8351 63.9136 58.1579C63.8872 58.177 63.9357 58.2769 63.9283 58.2798C66.3932 56.4074 68.8213 54.3792 69.6225 51.2466C70.1326 49.2615 69.9901 47.0944 69.1922 45.2066C69.1863 45.1919 69.1863 45.2771 69.1922 45.2918Z" fill="#ADC584"/>
<path d="M62.574 42.0259C62.574 42.0259 62.574 42.1112 62.5814 42.1082C64.3538 42.1489 66.0146 42.4218 67.277 43.7658C67.277 43.7658 67.2844 43.6777 67.2653 43.6512C66.1072 42.1206 64.3406 42.052 62.5637 42.0215L62.574 42.0259Z" fill="#ADC584"/>
<path d="M72.3493 33.3673C71.9759 35.417 70.6325 37.1731 68.6586 37.9288C66.4569 38.7756 63.9878 37.8462 62.0623 39.5114C62.0403 39.5202 62.08 39.598 62.0726 39.601C64.1171 37.999 66.9948 39.2251 69.2494 38.0844C70.9852 37.2024 72.1728 35.4404 72.3831 33.5157C72.386 33.4804 72.3552 33.3394 72.3464 33.36L72.3493 33.3673Z" fill="#ADC584"/>
<path d="M45.0755 42.0568C43.3382 42.6156 41.745 42.9378 39.9049 42.7707C38.0928 42.6096 36.3218 42.1252 34.5816 41.6114C31.2895 40.6278 27.3919 39.3241 24.0907 41.0028C24.0614 41.0146 24.0966 41.1879 24.1143 41.1894C27.7151 40.3025 31.1146 41.0216 34.6316 41.9919C37.8223 42.8712 42.0066 44.1028 45.1048 42.3007C45.1416 42.286 45.0902 42.051 45.0755 42.0568Z" fill="#ADC584"/>
<path d="M40.9166 43.6602C38.8473 43.6446 36.9014 43.2983 34.9011 42.7949C32.9288 42.2973 30.9447 41.7704 28.8929 41.884C28.8782 41.8899 28.8899 42.0471 28.9149 42.0456C30.9799 42.0715 32.9537 42.5515 34.9364 43.0535C36.8734 43.5481 38.9266 44.0985 40.9343 43.7895C40.949 43.7836 40.9343 43.6617 40.9166 43.6602Z" fill="#ADC584"/>
<path d="M45.4065 40.8587C43.5972 41.5145 42.076 42.0379 40.1081 41.8709C38.3944 41.7215 36.7557 41.1842 35.1816 40.5102C35.1919 40.5146 35.1463 40.7629 35.2183 40.7937C38.2048 42.0786 42.5801 43.2338 45.4359 41.0174C45.4579 41.0086 45.4241 40.8602 45.4168 40.8631L45.4065 40.8587Z" fill="#ADC584"/>
<path d="M45.0447 39.9978C43.0943 40.7697 41.263 41.1786 39.1731 40.7706C39.1731 40.7706 39.1599 40.9293 39.1907 40.9425C41.1322 41.3843 43.3221 41.275 45.0741 40.2417C45.1182 40.224 45.055 40.0022 45.0477 40.0051L45.0447 39.9978Z" fill="#ADC584"/>
<path d="M44.6764 39.3539C43.333 39.4482 41.9882 39.9011 40.6463 40.0631C40.6316 40.069 40.6404 40.2188 40.6654 40.2173C41.9661 40.123 43.4917 40.1006 44.7116 39.6125C44.7484 39.5978 44.7087 39.3495 44.6837 39.3509L44.6764 39.3539Z" fill="#ADC584"/>
<path d="M44.0621 38.4155C43.8196 38.4698 43.5844 38.6066 43.3404 38.6786C43.0891 38.7536 42.8348 38.7785 42.579 38.7785C42.5643 38.7843 42.5659 39.0226 42.6085 39.0227C43.0833 39.0375 43.7169 38.9803 44.0916 38.6597C44.1225 38.6302 44.0841 38.4066 44.0621 38.4155Z" fill="#ADC584"/>
<path d="M37.7073 46.3763C36.6064 46.7572 35.8097 48.0474 35.4423 49.0892C35.4011 49.1994 35.526 49.5329 35.5172 49.5534C35.7818 49.0215 36.0625 48.5087 36.4388 48.0428C36.8386 47.5505 37.3236 47.1434 37.7528 46.6819C37.7837 46.6525 37.7264 46.3602 37.7117 46.3661L37.7073 46.3763Z" fill="#ADC584"/>
<path d="M46.8455 38.2552C46.6176 38.9002 46.597 39.5731 46.719 40.2401C46.791 40.6545 46.9262 40.9924 47.0893 41.3787C47.3391 41.9605 47.2127 41.9003 46.8438 42.4484C45.981 43.7225 45.8177 45.2535 46.0822 46.7241C44.5346 46.4997 42.9605 46.6353 41.4966 47.1954C41.1586 47.3307 40.8367 47.5277 40.4928 47.6482C39.9401 47.8438 39.9313 47.8217 39.6021 47.4251C39.1407 46.8684 38.8717 46.3028 38.2662 45.8548C38.2662 45.8548 38.2207 46.231 38.303 46.3088C38.9981 47.0021 39.5316 47.6749 39.9092 48.5975C39.9151 48.6122 39.921 48.6269 39.9416 48.6357C41.8714 47.4716 44.0451 47.0449 46.2718 47.3896C46.335 47.3984 46.2541 46.8769 46.2439 46.8299C45.925 45.6281 46.1793 44.3674 46.7923 43.3212C47.0407 42.898 47.4669 42.557 47.5301 42.0545C47.5493 41.9105 47.5302 41.7562 47.5022 41.6225C47.2436 40.4648 46.5191 40.4224 46.9439 38.7356C46.9792 38.6107 46.8602 38.2919 46.8705 38.2537L46.8455 38.2552Z" fill="#ADC584"/>
<path d="M51.8452 39.4162C51.1177 39.5794 50.4945 40.0248 49.7288 40.1352C49.4231 40.1808 48.2194 40.0489 48.1077 40.281C48.0739 40.3457 48.0959 40.5925 48.1488 40.6395C48.162 40.6513 48.1752 40.663 48.1885 40.6748C48.1914 40.6821 48.1914 40.6821 48.2032 40.6689C48.2149 40.6557 48.2311 40.6321 48.2429 40.6189C48.4119 40.5939 48.6279 40.6864 48.7793 40.7025C49.1555 40.748 49.5333 40.7332 49.9139 40.6832C50.6032 40.5948 51.4087 40.3919 51.8952 39.8819C51.9422 39.829 51.8908 39.3809 51.8364 39.3941L51.8452 39.4162Z" fill="#ADC584"/>
<path d="M49.388 36.6836C49.0808 36.9172 48.8912 37.4447 48.6589 37.7592C48.3179 38.228 47.9299 38.6645 47.5124 39.0701C47.439 39.1421 47.5756 39.505 47.5609 39.5108C48.3296 38.9391 49.1821 38.0867 49.4453 37.1464C49.457 37.0905 49.3997 36.6703 49.3806 36.6865L49.388 36.6836Z" fill="#ADC584"/>
<path d="M46.8568 35.8136C46.8376 35.8724 46.8949 35.9943 46.8861 36.0149C46.9509 35.793 47.0201 35.5608 47.0849 35.3388C47.0997 35.2903 47.0482 35.1831 47.06 35.1699C46.9923 35.3845 46.9245 35.599 46.8568 35.8136Z" fill="#ADC584"/>
<path d="M45.5447 32.9389C45.4182 33.0917 45.4035 33.3533 45.3521 33.5443C45.28 33.8117 45.1904 34.0777 45.0934 34.3466C44.9023 34.8491 44.67 35.334 44.404 35.7983C44.3702 35.863 44.4554 36.076 44.4481 36.079C45.011 35.2487 45.5475 34.2245 45.6005 33.2063C45.6034 33.171 45.5608 32.9154 45.5447 32.9389Z" fill="#ADC584"/>
<path d="M45.5859 32.232C42.9947 32.6807 40.8519 32.4389 38.4181 31.4272C38.4181 31.4272 38.4048 31.6285 38.4386 31.649C40.4374 33.0649 43.318 33.5313 45.6417 32.7124C45.7078 32.6859 45.6329 32.2217 45.5859 32.232Z" fill="#ADC584"/>
<path d="M44.5534 33.2522C43.9464 33.1201 43.2527 33.2613 42.6251 33.2056C41.9799 33.1485 41.3582 33.0223 40.7409 32.8432C40.7409 32.8432 40.688 33.3075 40.7953 33.3413C41.4125 33.5204 42.0445 33.651 42.6794 33.7037C43.2791 33.7535 44.0389 33.8415 44.593 33.5857C44.6371 33.568 44.5989 33.2595 44.5534 33.2522Z" fill="#ADC584"/>
<path d="M42.4993 50.4492C41.5955 49.703 40.4138 50.0736 39.3497 50.1841C38.7192 50.2489 38.1519 50.2373 37.6184 49.8627C37.0879 49.4956 36.8763 49.0093 36.1531 49.1197C36.1208 49.1241 36.1517 49.4356 36.1869 49.4385C36.8777 49.4177 37.1466 49.9833 37.6537 50.3344C38.0902 50.6369 38.5928 50.7 39.1146 50.6616C40.3153 50.5732 41.4074 49.9573 42.5184 50.7313C42.5184 50.7313 42.5523 50.4962 42.4993 50.4492Z" fill="#ADC584"/>
<path d="M40.5452 48.5467C40.5452 48.5467 40.5511 48.7744 40.5687 48.7759C40.9038 48.7185 41.236 48.6538 41.5755 48.6713C41.915 48.6888 42.228 48.8107 42.5602 48.8312C42.5852 48.8297 42.5661 48.5903 42.5396 48.5667C41.9944 48.1628 41.1228 48.2218 40.5452 48.5467Z" fill="#ADC584"/>
<path d="M42.6056 49.6051C41.9164 49.2248 41.0184 49.2176 40.2541 49.3104C40.2394 49.3163 40.2497 49.4911 40.2776 49.497C40.6788 49.4984 41.0771 49.535 41.4769 49.5966C41.859 49.6567 42.2426 49.7844 42.6306 49.8167C42.6453 49.8108 42.6321 49.6286 42.6086 49.6125L42.6056 49.6051Z" fill="#ADC584"/>
<path d="M51.0333 46.2512C49.5356 46.5777 48.2819 47.5992 47.3853 48.8101C46.9046 49.4625 46.4783 50.2296 45.7508 50.6485C45.038 51.0615 44.2311 50.9839 43.4404 51.0105C43.4154 51.012 43.4315 51.2868 43.4698 51.297C45.1746 51.6801 46.1079 51.051 47.0413 49.6976C48.1157 48.1428 49.3445 47.2507 51.0494 46.4833C51.0862 46.4686 51.0377 46.2409 51.023 46.2468L51.0333 46.2512Z" fill="#ADC584"/>
<path d="M50.9807 43.2637C50.9807 43.2637 50.9733 43.3944 50.988 43.4312C51.4862 44.2715 51.3597 45.2765 50.6807 45.9657C50.6572 45.9922 50.7013 46.1023 50.6939 46.1053C51.4597 45.441 51.6405 44.0819 50.9733 43.2666L50.9807 43.2637Z" fill="#ADC584"/>
<path d="M36.193 32.2142C36.0945 32.5859 35.9961 32.9577 35.8976 33.3294C35.8917 33.3147 35.8858 33.3 35.8902 33.2897C35.8535 33.3897 35.802 33.4955 35.7579 33.5983C35.7418 33.5366 35.7315 33.4896 35.7315 33.4896C35.6932 33.5645 35.6624 33.6365 35.6315 33.7085C35.6124 33.6395 35.5962 33.5778 35.5889 33.6233C35.4919 34.0201 35.3948 34.4168 35.2978 34.8135C35.2861 34.8693 35.3096 34.9707 35.3345 35.0544C35.2993 35.0089 35.264 34.9634 35.2361 34.9149C35.1479 34.6945 35.1141 34.4183 35.095 34.0936C35.0936 34.0686 35.0377 33.8013 35.0245 33.8321C34.8437 34.1686 34.6291 34.4846 34.3881 34.777C34.2984 34.7873 34.2719 34.849 34.2528 34.9504C34.2528 34.9504 34.2484 34.9607 34.244 34.971C34.247 34.9783 34.244 35.0136 34.2484 35.0459C34.0368 35.2414 33.806 35.3678 33.4988 35.4737C33.4474 35.4942 33.4915 35.9027 33.5473 35.9144C33.5929 35.9218 33.6281 35.9247 33.6737 35.932C33.6722 36.0349 33.681 36.1421 33.7251 36.1671C33.7295 36.2846 33.7589 36.4433 33.7971 36.4536C34.432 36.5915 35.064 36.6369 35.7137 36.5985C35.7357 36.5897 35.7372 36.4869 35.721 36.3826C35.8797 36.481 36.0502 36.5661 36.2442 36.6249C36.2442 36.6249 36.256 36.4412 36.2384 36.3119C36.2545 36.331 36.2736 36.3574 36.2898 36.3765C36.2898 36.3765 36.2927 36.3413 36.2898 36.2913C36.4265 36.3985 36.5823 36.4896 36.7645 36.5615C36.7439 36.5527 36.8277 36.1016 36.7072 36.0561C36.6866 36.0473 36.6764 36.0429 36.6558 36.0341C36.647 36.0121 36.6411 35.9974 36.6352 35.9827C36.5103 35.8196 36.381 35.6669 36.2516 35.5141C36.2076 35.2761 36.1267 35.0528 35.9812 34.8383C35.9783 34.3623 36.0607 33.7158 36.1988 33.2941C36.2135 33.2456 36.2018 33.1736 36.19 33.1016C36.2165 32.9547 36.2459 32.8151 36.265 32.6711C36.2783 32.555 36.1783 32.2627 36.1813 32.2274L36.193 32.2142ZM34.7496 35.1692C34.7496 35.1692 34.7819 35.2074 34.7907 35.2294C34.7937 35.2368 34.7922 35.2544 34.7878 35.2647C34.7466 35.2471 34.7055 35.2294 34.657 35.2148C34.657 35.2148 34.657 35.2148 34.6511 35.2001C34.6482 35.1927 34.6438 35.2456 34.6423 35.3059C34.6129 35.275 34.5806 35.2368 34.5512 35.206C34.5703 35.1898 34.5732 35.112 34.5659 35.0297C34.6144 34.9591 34.6732 34.893 34.729 34.8195C34.729 34.9047 34.7099 35.0913 34.754 35.1589L34.7496 35.1692ZM35.0891 34.7181L35.0597 34.7724C35.0582 34.9179 35.0641 35.0604 35.0773 35.2C34.9598 35.0766 34.8422 34.9532 34.7334 34.8092C34.8422 34.6549 34.9378 34.4889 35.0333 34.3228C35.0436 34.4551 35.0641 34.5917 35.0818 34.721L35.0891 34.7181ZM35.8637 34.6297C35.8343 34.5989 35.8328 34.7443 35.8328 34.7443C35.8387 34.8442 35.8416 34.9368 35.8548 35.0337C35.846 35.0117 35.8254 35.0029 35.8093 34.9838C35.7769 34.903 35.7593 34.8163 35.7314 34.7252C35.7946 34.5636 35.8578 34.402 35.9107 34.2359C35.9078 34.399 35.9151 34.5665 35.9298 34.7311C35.9078 34.6973 35.8857 34.6635 35.8563 34.6326L35.8637 34.6297Z" fill="#ADC584"/>
<path d="M32.4179 46.9841C32.5795 47.6437 32.6542 48.3211 32.6569 49.0103C32.673 49.1998 32.6818 49.3923 32.6832 49.5878C32.8406 49.5759 32.995 49.5567 33.1495 49.5375C33.1142 49.4068 33.0863 49.2731 33.0584 49.1394C33.0614 49.1467 33.0673 49.1614 33.0628 49.1717C32.9967 48.8999 32.9262 48.6384 32.8454 48.3724C32.7177 47.9038 32.5678 47.4439 32.415 46.9767L32.4179 46.9841Z" fill="#ADC584"/>
<path d="M32.4874 48.2868C32.4669 48.1501 32.439 48.0164 32.4155 47.8724C32.4169 48.0679 32.4183 48.2633 32.405 48.4646C32.4827 49.0641 32.6102 50.172 32.543 48.9803C32.5343 48.7878 32.5182 48.5983 32.4976 48.419C32.4903 48.3793 32.4933 48.3441 32.4859 48.3044C32.4859 48.3044 32.483 48.297 32.48 48.2897L32.4874 48.2868Z" fill="#ADC584"/>
<path d="M32.4944 46.2386C32.3548 45.9536 32.196 45.6848 32.0225 45.4219C32.2738 46.1139 32.503 46.8146 32.7101 47.5243C32.6323 47.0952 32.5545 46.6662 32.4944 46.2386Z" fill="#ADC584"/>
<path d="M32.6138 46.5142C32.7033 47.0578 32.8281 47.6044 32.925 48.1451C32.969 48.2979 32.9984 48.4566 33.0174 48.6109C33.0718 48.8107 33.1261 49.0105 33.1731 49.2132C33.1878 49.25 33.1951 49.4175 33.1892 49.5306L33.2039 49.5247C33.2554 49.5041 33.3069 49.4835 33.351 49.4659C33.1616 48.7151 32.9633 47.8997 32.843 47.0871C32.7945 46.9446 32.749 46.8095 32.6902 46.6626C32.6637 46.5964 32.6299 46.5333 32.5932 46.4628C32.5991 46.4775 32.602 46.4848 32.6005 46.5024L32.6138 46.5142Z" fill="#ADC584"/>
<path d="M32.1359 46.7907C31.9626 46.2721 31.7524 45.7682 31.4908 45.2849C31.4305 45.1982 31.3629 45.1145 31.2879 45.0337C31.6921 45.852 32.0183 46.7099 32.2386 47.6018C32.2225 47.327 32.1917 47.0581 32.1359 46.7907Z" fill="#ADC584"/>
<path d="M32.4637 49.5906C32.4432 49.3687 32.4154 49.1498 32.3801 48.9338C32.3653 49.1527 32.3432 49.3746 32.3137 49.5995C32.3637 49.5965 32.4137 49.5936 32.4637 49.5906Z" fill="#ADC584"/>
<path d="M35.9835 44.3475C35.7263 44.3652 35.4088 44.3814 35.0693 44.4065C35.0575 44.2919 35.0267 44.1935 34.9943 44.1979C33.8421 44.1306 32.6898 44.0633 31.5434 44.0107C31.5287 44.0166 31.5243 44.1121 31.5287 44.2296C31.5081 44.2208 31.4905 44.2193 31.4699 44.2105C31.4494 44.2017 31.4758 44.6513 31.5169 44.7115C31.6036 44.8217 31.683 44.9348 31.7624 45.0479C31.7727 45.0949 31.78 45.1346 31.7873 45.1743C31.7227 45.0553 31.6404 44.9348 31.5537 44.8247C31.392 44.5485 31.223 44.2752 31.032 44.0108C31.0408 44.0329 31.032 44.0534 31.0334 44.0784C31.0334 44.121 31.0275 44.1915 31.029 44.2591C30.9261 44.1725 30.8262 44.0931 30.716 44.0094C30.6895 43.9859 30.7042 44.4913 30.7571 44.581C31.4522 45.743 31.9607 46.9711 32.2501 48.2699C32.2398 48.7341 32.1972 49.2029 32.1413 49.6598C32.1339 49.7054 32.131 49.9111 32.1545 50.055C30.9449 50.7606 29.9057 51.7643 28.9738 52.8445C27.2468 54.8563 25.7108 56.9195 23.7486 58.7272C23.7222 58.7463 23.7618 58.9094 23.7692 58.9064C25.8474 57.9215 27.188 55.7746 28.6063 54.0567C29.9968 52.3755 31.6209 50.7883 33.6918 50.1046C34.0769 50.0443 34.4532 49.9619 34.8338 49.8266C34.9367 49.7855 34.8133 49.0935 34.7516 49.1096C34.3018 49.1788 33.8697 49.292 33.4523 49.442C33.3936 48.7412 33.2731 48.0566 33.0865 47.3984C33.0982 47.4278 33.1041 47.4425 33.107 47.4498C33.1599 47.582 33.2099 47.7069 33.2628 47.8391C33.2892 47.9052 33.2863 47.4718 33.2525 47.366C33.1702 47.1603 33.0953 46.9517 33.0204 46.7431C32.9807 46.58 32.9307 46.4126 32.8705 46.2407C32.8514 45.9586 32.8881 45.6882 33.0469 45.4884C33.7421 45.5 34.4035 45.4058 35.0986 45.2043C35.1207 45.1955 35.1339 45.122 35.128 45.0221C35.4293 44.9868 35.7336 44.9588 36.0407 44.9381C36.0981 44.9322 36.0481 44.3387 35.9761 44.3504L35.9835 44.3475ZM32.0225 45.4211C32.1959 45.684 32.3546 45.9528 32.4942 46.2378C32.5574 46.6727 32.6323 47.0944 32.7102 47.5234C32.503 46.8138 32.2738 46.113 32.0225 45.4211ZM33.0584 49.1395C33.0864 49.2732 33.1216 49.4039 33.1495 49.5376C32.9952 49.5567 32.8409 49.5759 32.6836 49.5877C32.6822 49.3923 32.6734 49.1998 32.6572 49.0103C32.6543 48.3212 32.5794 47.6439 32.4178 46.9842C32.5676 47.4441 32.7205 47.9112 32.8483 48.3799C32.9218 48.6488 32.9952 48.9176 33.0658 49.1791C33.0628 49.1718 33.057 49.1571 33.0614 49.1468L33.0584 49.1395ZM32.5499 48.9765C32.6204 50.1754 32.4926 49.0676 32.4118 48.4608C32.4177 48.2625 32.4236 48.0641 32.4221 47.8687C32.45 48.0024 32.4809 48.1434 32.4941 48.283C32.4941 48.283 32.497 48.2904 32.5 48.2977C32.5073 48.3374 32.5044 48.3726 32.5117 48.4123C32.5323 48.5916 32.5485 48.7811 32.5573 48.9736L32.5499 48.9765ZM31.2847 45.026C31.3597 45.1068 31.4273 45.1905 31.4875 45.2772C31.752 45.7679 31.9622 46.2718 32.1326 46.783C32.1855 47.0431 32.2193 47.3193 32.2355 47.594C32.0151 46.7022 31.6888 45.8443 31.2847 45.026ZM32.4632 49.5907C32.4132 49.5936 32.3632 49.5966 32.3132 49.5995C32.3382 49.385 32.3603 49.1631 32.3794 48.9339C32.4147 49.1499 32.4426 49.3688 32.4632 49.5907ZM32.8498 47.084C32.9703 47.8965 33.176 48.7089 33.3582 49.4626C33.3068 49.4832 33.2554 49.5038 33.2113 49.5214L33.1966 49.5273C33.1951 49.4171 33.1878 49.2496 33.1804 49.21C33.1334 49.0072 33.0717 48.8103 33.0247 48.6076C33.0056 48.4533 32.9688 48.2976 32.9321 48.1419C32.8322 47.5939 32.7102 47.0547 32.6206 46.5111C32.6147 46.4964 32.6118 46.489 32.6133 46.4714C32.6397 46.5375 32.6809 46.5977 32.7102 46.6712C32.7661 46.8108 32.8219 46.9503 32.8631 47.0958L32.8498 47.084Z" fill="#ADC584"/>
<path d="M36.6525 21.0898C33.0942 21.5932 32.8515 25.6528 32.4589 28.443C32.453 28.4709 32.4824 28.587 32.4839 28.5693C32.6941 27.1133 32.8001 25.5455 33.341 24.1702C33.9495 22.6229 35.1342 21.791 36.6745 21.294C36.7039 21.2822 36.6701 21.0913 36.6525 21.0898Z" fill="#ADC584"/>
<path d="M38.3908 19.1488C36.3906 18.2619 34.3417 19.5759 33.2805 21.2702C32.059 23.2247 31.715 25.7313 31.246 27.947C31.2401 27.9749 31.268 28.1086 31.2768 28.0881C32.1251 24.6469 33.2454 17.8586 38.4085 19.2781C38.4085 19.2781 38.4143 19.165 38.3938 19.1562L38.3908 19.1488Z" fill="#ADC584"/>
<path d="M40.7483 20.3106C40.3412 20.0388 39.8533 19.7995 39.3947 20.1023C39.3727 20.1111 39.4094 20.2242 39.4094 20.2242C39.9326 19.9552 40.4838 20.3312 40.9026 20.6323C41.3817 20.9774 41.7917 21.3843 42.2429 21.7662C42.2429 21.7662 42.2488 21.6531 42.2327 21.634C41.8212 21.1169 41.2936 20.6719 40.7483 20.3106Z" fill="#ADC584"/>
<path d="M39.5619 18.4762C39.5619 18.4762 39.5398 18.7407 39.5957 18.7524C40.7568 19.0122 41.6694 19.6525 42.4366 20.5471C42.4366 20.5471 42.4439 20.4164 42.4219 20.3826C41.7664 19.3836 40.72 18.7286 39.5619 18.4762Z" fill="#ADC584"/>
<path d="M41.9889 18.723L41.283 18.4089C41.283 18.4089 41.2667 18.5177 41.2976 18.5309C41.5315 18.6248 41.7683 18.726 42.0021 18.8199C42.0021 18.8199 42.0169 18.7288 41.9889 18.723Z" fill="#ADC584"/>
<path d="M65.6029 43.9066C65.6029 43.9066 65.5808 44.0432 65.622 44.0609C66.7316 44.5969 67.5502 45.4709 68.0983 46.5638C68.1042 46.5785 68.1027 46.4683 68.0939 46.4463C67.6119 45.2842 66.7345 44.4338 65.6029 43.9066Z" fill="#ADC584"/>
<path d="M69.1118 36.4187C68.5621 36.6642 67.1878 37.5549 66.6161 37.1275C66.6161 37.1275 66.5999 37.2363 66.6235 37.2524C67.2378 37.7224 68.5326 36.9316 69.1411 36.7052C70.0245 36.3774 70.8402 35.9658 71.1739 35.0312C71.1886 34.9828 71.1342 34.8255 71.1386 34.8153C70.7035 35.6455 69.9348 36.0468 69.1088 36.4114L69.1118 36.4187Z" fill="#ADC584"/>
<path d="M73.1703 32.691C74.0461 35.306 74.4781 37.8345 74.0003 40.5821C73.7533 42.0103 73.4695 43.4105 73.4974 44.8651C73.4944 44.9004 73.5356 45.0884 73.5356 44.9606C73.5196 42.598 74.3942 40.3308 74.3429 37.9653C74.3033 36.0979 73.8434 34.2453 73.1674 32.5132C73.1586 32.4912 73.163 32.6513 73.1703 32.691Z" fill="#ADC584"/>
<path d="M72.7155 34.6878C72.7155 34.6878 72.7052 34.8113 72.7169 34.8406C73.4267 36.5507 73.5633 38.3622 73.0253 40.1284C73.0106 40.1769 73.0576 40.2944 73.0561 40.312C73.6603 38.4768 73.5825 36.4287 72.7155 34.6878Z" fill="#ADC584"/>
<path d="M72.2671 36.3999C72.2097 37.045 72.2082 37.7017 72.1861 38.3497C72.1861 38.3923 72.2434 38.6846 72.2464 38.5641C72.2714 37.8809 72.3067 37.2021 72.3068 36.5204C72.3053 36.4954 72.2774 36.3191 72.2671 36.3999Z" fill="#ADC584"/>
<path d="M57.7833 38.7019C56.127 38.2483 54.8205 36.8793 54.872 35.0691C54.8735 35.0515 54.8485 34.9252 54.8441 34.9781C54.7485 36.7632 55.9374 38.5628 57.7922 38.8091C57.7922 38.8091 57.801 38.7033 57.7833 38.7019Z" fill="#ADC584"/>
<path d="M60.4518 38.0433C58.5426 37.8102 56.8731 36.7483 56.2677 34.8516C56.2265 34.7488 56.2441 35.0059 56.2618 35.05C56.8407 36.8379 58.5206 38.2877 60.4709 38.1549C60.4782 38.152 60.4724 38.0521 60.4621 38.0477L60.4518 38.0433Z" fill="#ADC584"/>
<path d="M62.4331 36.9005C60.7532 36.8569 59.2262 36.2152 58.4517 34.6418C58.437 34.6051 58.4282 34.8387 58.4591 34.8945C59.1542 36.3122 60.8222 37.4343 62.4522 37.0548C62.4669 37.0489 62.4507 36.902 62.4331 36.9005Z" fill="#ADC584"/>
<path d="M63.861 36.1233C62.115 36.0635 60.5439 35.6099 59.3961 34.2115C59.3961 34.2115 59.3858 34.2923 59.4049 34.3187C60.438 35.6011 62.1987 36.5498 63.8772 36.2276C63.8845 36.2247 63.8786 36.1248 63.8639 36.1306L63.861 36.1233Z" fill="#ADC584"/>
<path d="M62.4455 38.1239C61.9693 38.2974 61.4784 38.349 60.9802 38.233C60.9802 38.233 60.9655 38.3667 60.9934 38.3726C61.4872 38.4988 61.9972 38.4737 62.4572 38.2385C62.4793 38.2297 62.4528 38.121 62.4455 38.1239Z" fill="#ADC584"/>
<path d="M66.8703 34.9291C64.7686 35.5996 62.7433 35.6089 61.0135 34.0343C61.0135 34.0343 60.9973 34.143 61.0238 34.1665C62.517 35.5546 65.0625 36.2063 66.8821 35.0437C66.9041 35.0348 66.8777 34.9261 66.8703 34.9291Z" fill="#ADC584"/>
<path d="M65.12 36.5841C65.12 36.5841 65.1082 36.8956 65.1582 36.8927C67.0145 36.951 68.7047 35.8912 69.3824 34.1544C69.4 34.1132 69.353 33.9957 69.3574 33.9854C68.5563 35.6268 66.9616 36.6483 65.1274 36.5812L65.12 36.5841Z" fill="#ADC584"/>
<path d="M63.8529 44.0705C61.1237 42.6827 57.6903 43.6901 55.5929 45.7137C55.5782 45.7196 55.5988 45.771 55.5988 45.771C58.046 43.7693 60.9281 43.6216 63.8749 44.2747C63.8749 44.2747 63.8867 44.091 63.8529 44.0705Z" fill="#ADC584"/>
<path d="M58.9939 45.479L59.0085 45.5583C59.8699 44.6002 61.4851 44.8657 62.6065 45.1328C63.8395 45.4234 64.9036 46.0373 65.8942 46.8084C65.8942 46.8084 65.9118 46.682 65.8824 46.6512C64.423 45.1985 60.6636 43.5156 58.9939 45.479Z" fill="#ADC584"/>
<path d="M61.7071 41.8189C61.322 41.8365 60.9237 42.0129 60.5592 42.1246C60.5298 42.1364 60.5666 42.2923 60.5769 42.2967C60.9517 42.1894 61.3736 42.1145 61.7131 41.9189C61.7278 41.9131 61.7174 41.8233 61.6998 41.8218L61.7071 41.8189Z" fill="#ADC584"/>
<path d="M47.6859 30.3859C47.6859 30.3859 47.708 30.5475 47.7139 30.5196C48.5313 25.9573 50.8728 22.1147 54.3606 19.0915C54.3753 19.0856 54.3489 19.0195 54.3489 19.0195C50.6744 21.6401 48.277 25.9398 47.6756 30.3815L47.6859 30.3859Z" fill="#ADC584"/>
<path d="M36.8495 12.2507C36.8495 12.2507 36.8539 12.4535 36.8715 12.455C39.3392 12.1238 41.6702 12.3671 44.1143 12.7014C44.1143 12.7014 44.1158 12.6412 44.1055 12.6368C41.7922 11.8836 39.2305 11.8946 36.8451 12.261L36.8495 12.2507Z" fill="#ADC584"/>
<path d="M35.3818 12.3102C32.0719 13.3704 28.515 15.5604 26.7967 18.6595C26.7806 18.683 26.8129 18.7638 26.8129 18.7638C27.7683 17.3164 29.0176 16.1348 30.4551 15.1676C32.0204 14.1153 33.787 13.4595 35.4009 12.5071C35.4303 12.4953 35.3921 12.3146 35.3774 12.3205L35.3818 12.3102Z" fill="#ADC584"/>
<path d="M11.7346 33.0273L11.7435 33.1347C12.5165 32.723 13.3028 32.3231 14.0317 31.8437C14.0538 31.8349 14.017 31.7216 14.017 31.7216C13.2292 32.0965 12.4753 32.5774 11.7346 33.0273Z" fill="#ADC584"/>
<path d="M44.552 13.5399C43.0544 13.0569 41.3774 12.8076 39.8063 12.8653C39.7989 12.8682 39.8004 12.9784 39.818 12.9799C41.4068 13.1793 42.9838 13.3919 44.5623 13.6295C44.5623 13.6295 44.5696 13.5414 44.552 13.5399Z" fill="#ADC584"/>
<path d="M45.276 11.811C44.4574 11.4057 43.4491 11.3574 42.5541 11.3577C42.5467 11.3606 42.5467 11.4884 42.5717 11.4869C43.5094 11.5293 44.3765 11.8215 45.2965 11.9476C45.2965 11.9476 45.3039 11.8168 45.2804 11.8007L45.276 11.811Z" fill="#ADC584"/>
<path d="M45.2653 28.3633C42.9211 29.0456 40.6709 29.0257 38.4855 27.8464C38.4855 27.8464 38.4738 27.9448 38.4973 27.961C40.4857 29.202 43.1298 29.5672 45.2844 28.5176C45.3065 28.5088 45.2756 28.3677 45.2683 28.3707L45.2653 28.3633Z" fill="#ADC584"/>
<path d="M45.3026 29.2867C44.4339 29.4809 43.6579 29.6721 42.7526 29.6253C41.8722 29.577 40.9977 29.4156 40.1291 29.2263C40.1291 29.2263 40.1159 29.3424 40.1438 29.3483C41.7473 29.7548 43.7916 30.3685 45.3128 29.4189C45.3349 29.4101 45.3129 29.2911 45.2952 29.2897L45.3026 29.2867Z" fill="#ADC584"/>
<path d="M45.7972 27.6475C44.9433 27.6654 44.1158 27.8346 43.256 27.7951C42.4065 27.7601 41.5835 27.6207 40.7693 27.3755C40.7693 27.3755 40.756 27.4916 40.7869 27.5048C42.3139 28.0187 44.2569 28.4002 45.8104 27.7871C45.8251 27.7812 45.8119 27.6416 45.7972 27.6475Z" fill="#ADC584"/>
<path d="M24.6186 40.2555C24.1027 41.1181 23.3722 41.3592 22.5403 41.7944C22.5183 41.8032 22.5359 41.9325 22.5565 41.9413C24.4936 42.6916 25.3697 39.4267 25.4741 38.1322C25.4771 38.097 25.4286 37.9119 25.4315 37.9192C25.0846 38.6716 25.0699 39.5296 24.6289 40.2599L24.6186 40.2555Z" fill="#ADC584"/>
<path d="M44.2447 37.531C42.7544 36.5764 40.9246 37.2233 39.324 37.5058C37.6588 37.7971 35.9789 37.5404 34.3093 37.416C34.3093 37.416 34.299 37.5394 34.324 37.5379C36.0171 37.849 37.6499 38.2438 39.3798 37.9862C41.1274 37.7301 42.5442 37.3933 44.2843 37.9071C44.2843 37.9071 44.302 37.5677 44.2417 37.5237L44.2447 37.531Z" fill="#ADC584"/>
<path d="M46.9222 44.2655C46.7517 44.7342 46.6194 45.2133 46.5356 45.7069C46.7105 45.2705 46.8061 44.6784 46.9222 44.2655Z" fill="#ADC584"/>
<path d="M46.9222 44.2655C46.7517 44.7342 46.6194 45.2133 46.5356 45.7069C46.7105 45.2705 46.8061 44.6784 46.9222 44.2655Z" fill="#ADC584"/>
<path d="M47.0913 38.488C47.1148 38.6746 47.1412 38.8685 47.1721 39.0521C47.1398 38.8861 47.1177 38.7245 47.0854 38.5585C47.0825 38.5085 47.0016 38.0722 46.9781 38.1839C46.9031 38.6996 46.9266 39.1844 47.0192 39.6928C47.0765 39.9851 47.1661 40.2731 47.2308 40.5625C47.4394 41.5527 47.2851 42.1684 46.8955 43.0486C46.8294 43.2028 46.7588 43.3674 46.6927 43.5217C46.7236 43.3219 46.7427 43.1353 46.7736 42.9355C46.7941 42.8164 46.6766 42.48 46.6795 42.4448C46.287 43.7011 46.0665 44.9823 46.0209 46.2958C45.5564 46.4987 44.8877 46.3828 44.4189 46.4255C43.8177 46.4786 43.2254 46.5963 42.6434 46.761C42.0643 46.933 41.4985 47.1594 40.9679 47.4314C40.4299 47.7063 40.1962 48.0383 39.7583 47.4978C39.7068 47.4331 39.6554 47.3685 39.604 47.3039C39.1807 46.3313 38.5033 45.5543 37.5979 45.0388C37.7199 45.0667 37.839 45.0872 37.9609 45.1151C39.6805 45.4497 41.525 45.9047 43.2578 45.3988C46.2973 44.515 46.4533 41.24 45.9699 38.6043C45.9317 38.381 45.9037 38.6308 45.9214 38.7175C46.1652 40.5628 46.2092 42.846 44.5439 44.0747C43.443 44.8816 42.0248 45.023 40.7123 44.9175C39.294 44.8033 37.8993 44.4922 36.4927 44.2795C35.0759 44.0624 33.5827 43.6969 32.1468 43.7943C32.1321 43.8002 32.1365 44.0029 32.1718 44.0058C33.787 44.1435 35.389 44.5677 36.9865 44.917C36.9865 45.0448 36.988 45.1976 37.0321 45.2226C37.2981 45.3974 37.5479 45.5957 37.7978 45.794C38.4312 46.5887 39.091 47.3643 39.7627 48.1266C39.7627 48.1266 39.7685 48.0987 39.7685 48.0561C39.8479 48.1692 39.939 48.2691 40.0169 48.3146C40.3094 48.4703 40.4387 48.2822 40.7165 48.1455C42.5052 47.2679 44.2939 46.859 46.2942 47.0216C46.2942 47.0216 46.3015 47.0186 46.3089 47.0157C46.3265 46.9745 46.3339 46.929 46.3515 46.8878C46.3633 46.9172 46.3647 46.9422 46.3736 46.9642C46.1354 47.4345 45.9223 47.6049 45.4006 47.6433C44.9111 47.6772 44.4158 47.6538 43.9279 47.6701C43.9132 47.676 43.922 47.8684 43.9499 47.8743C44.7553 47.9696 45.9429 48.3807 46.3926 47.502C46.8527 46.5851 47.1291 45.5286 47.3716 44.5368C47.3878 44.4707 47.3232 44.3091 47.3246 44.2914C47.0483 45.1349 46.8087 46.0488 46.4221 46.8511C46.428 46.7806 46.4309 46.7027 46.4294 46.6351C46.8322 45.3406 47.2423 44.0432 47.6481 42.756C47.6863 42.6384 47.5628 42.2021 47.5628 42.2021C47.5011 42.3035 47.4497 42.4093 47.3982 42.5151C47.4952 42.161 47.5291 41.7981 47.5012 41.4087C47.4997 41.3411 47.485 41.2618 47.4762 41.1972C47.4821 41.2118 47.485 41.2192 47.4909 41.2339C47.5614 41.4528 47.5379 41.0105 47.5276 40.9635C47.463 40.5037 47.4057 40.0409 47.3411 39.581C47.4072 39.8954 47.488 40.2039 47.5644 40.5228C47.6247 40.7799 47.6115 40.3846 47.5968 40.3053C47.4542 39.6295 47.3014 38.9493 47.1516 38.2764C47.0781 37.9649 47.0883 38.3954 47.1016 38.4924L47.0913 38.488ZM46.5456 45.7109C46.6294 45.2173 46.7514 44.7338 46.9322 44.2695C46.8161 44.6824 46.7205 45.2745 46.5456 45.7109Z" fill="#ADC584"/>
<path d="M10.4646 37.4378C10.4646 37.4378 10.4748 37.4848 10.4734 37.4598C10.4543 36.1125 11.5596 35.0397 12.4562 34.1697C12.4709 34.1638 12.4474 34.105 12.4445 34.0977C11.4186 34.9854 10.4323 35.9935 10.4646 37.4378Z" fill="#ADC584"/>
<path d="M24.7859 33.3874L24.805 33.4991C25.1695 32.9187 25.512 32.3044 25.7222 31.6579C25.7354 31.627 25.7002 31.5389 25.7002 31.5389C25.4165 32.1722 25.1445 32.7923 24.7815 33.3977L24.7859 33.3874Z" fill="#ADC584"/>
<path d="M26.1585 32.4702C26.1585 32.4702 26.1585 32.4284 26.1513 32.4313C26.1441 32.4342 26.1513 32.4731 26.1585 32.4702Z" fill="#ADC584"/>
<path d="M26.5838 32.0623C26.5838 32.0623 26.5838 32.0205 26.5766 32.0234C26.5694 32.0262 26.5766 32.0652 26.5838 32.0623Z" fill="#ADC584"/>
<path d="M37.5448 24.1731C37.5448 24.1731 37.5463 24.326 37.5639 24.3274C38.7441 24.2728 39.7993 24.6942 40.2711 25.8518C40.2828 25.8812 40.2828 25.7108 40.2711 25.6814C39.9507 24.6251 38.6633 23.7086 37.5448 24.1731Z" fill="#ADC584"/>
<path d="M35.9166 32.1198C35.9166 32.1198 35.9313 32.1565 35.924 32.1594C36.4017 31.0309 36.7457 29.8026 37.075 28.6227C37.0853 28.5845 37.047 28.489 37.0514 28.4787C36.6149 29.6674 36.218 30.8914 35.9137 32.1124L35.9166 32.1198Z" fill="#ADC584"/>
<path d="M24.0345 23.7957L24.0478 23.8926C25.5823 22.1879 27.0168 20.3613 28.2001 18.3966C28.2089 18.376 28.1854 18.3172 28.1854 18.3172C26.8566 20.1953 25.5235 22.041 24.0272 23.7986L24.0345 23.7957Z" fill="#ADC584"/>
<path d="M25.0081 24.4192L25.0213 24.5161C27.2275 22.679 27.9331 19.7124 29.7307 17.536C29.7469 17.5125 29.7102 17.442 29.7146 17.4317C27.745 19.498 27.1952 22.513 25.0052 24.4118L25.0081 24.4192Z" fill="#ADC584"/>
<path d="M38.0413 13.5453C36.8361 13.1328 35.5251 13.7766 34.4125 14.2133C33.0603 14.7543 31.7125 15.3703 30.4853 16.1596C30.4706 16.1654 30.4926 16.2418 30.4926 16.2418C31.8036 15.6406 33.0897 14.9982 34.4404 14.4748C35.6074 14.0249 36.792 13.5339 38.0604 13.6996C38.0604 13.6996 38.0692 13.5512 38.0413 13.5453Z" fill="#ADC584"/>
<path d="M48.303 14.0499C47.502 13.5183 46.4468 13.2673 45.4959 13.1706C45.4885 13.1735 45.4856 13.3792 45.5208 13.3821C46.0058 13.4863 46.4835 13.5935 46.9582 13.7359C47.4153 13.8768 47.8562 14.0838 48.3191 14.1969C48.3191 14.1969 48.3236 14.0587 48.3 14.0426L48.303 14.0499Z" fill="#ADC584"/>
<path d="M65.8957 20.3055C64.8964 18.3619 62.9991 17.3486 61.1282 16.3588C60.0597 15.7978 58.9824 15.2574 57.9007 14.7273C56.9072 14.2471 55.8829 13.6258 54.7409 13.6056C54.6983 13.6056 54.7173 14.1433 54.807 14.1756C55.0128 14.2637 55.2214 14.3592 55.4272 14.4473C55.5742 14.7293 55.605 14.6999 55.9078 14.8174C56.0562 14.8688 56.2032 14.9378 56.3546 14.9966C57.232 15.5914 58.1388 16.1318 59.0794 16.6076C59.8024 16.9659 60.5461 17.2904 61.3059 17.5488C61.6895 17.6766 62.0614 17.7749 62.4303 17.9085C62.8344 18.1303 63.2386 18.352 63.6457 18.5811C63.6457 18.5811 63.6398 18.5238 63.6383 18.4562C64.5069 19.0716 65.2961 19.787 65.9207 20.6875C65.9119 20.6654 65.934 20.401 65.8913 20.3158L65.8957 20.3055Z" fill="#ADC584"/>
<path d="M68.127 39.7096C67.2143 39.1119 66.1972 38.7433 65.1582 38.5967C65.1391 38.5276 65.1185 38.4762 65.1009 38.4747C64.1852 38.3383 63.3166 38.4473 62.4921 38.709C62.0864 38.8031 61.6822 38.9222 61.2957 39.0854C60.1963 39.2356 59.1117 39.5077 58.0417 39.9017C56.81 40.3604 55.399 40.8823 54.288 39.8527C53.1578 38.7966 53.0594 37.0379 52.2967 35.7496C52.2967 35.7496 52.282 35.9685 52.2923 36.0155C52.7757 38.2251 53.0063 41.6778 56.0075 41.6785C56.7144 41.6769 57.4228 41.5298 58.118 41.3283C57.9622 41.4503 57.8064 41.5723 57.6506 41.6943C55.4739 43.3918 53.1722 45.0541 51.8493 47.5433C51.8287 47.5771 51.8757 47.6947 51.8787 47.702C53.4 45.3038 55.8354 43.6988 58.0445 41.9968C58.5457 41.6088 59.0572 41.2252 59.5848 40.8607C59.7641 40.7975 59.9464 40.7416 60.1183 40.6813C60.9282 40.4255 61.7307 40.1726 62.5405 39.9167C63.972 39.7444 65.4138 39.8322 66.8644 40.1551C66.8644 40.1551 66.8865 39.9332 66.8777 39.7408C67.3421 39.9214 67.7918 40.1505 68.2122 40.4339C68.1548 40.3972 68.3004 39.8447 68.1284 39.7346L68.127 39.7096ZM56.5454 41.0628C55.0566 41.2409 53.7912 40.7417 53.1578 39.3079C52.8022 38.5043 52.5803 37.4597 52.4657 36.5767C52.3453 35.6364 52.7493 36.966 52.8287 37.1643C52.9815 37.5463 53.0829 37.9488 53.2137 38.3396C53.5414 39.3078 53.9925 40.3714 54.9655 40.8428C56.1015 41.4023 57.3259 40.8187 58.412 40.4437C58.8838 40.2805 59.36 40.1497 59.845 40.0408C59.845 40.0408 59.848 40.0482 59.8509 40.0555C59.7304 40.1378 59.6172 40.2172 59.504 40.2965C58.5428 40.6215 57.5566 40.9479 56.5631 41.0642L56.5454 41.0628Z" fill="#ADC584"/>
<path d="M60.8761 46.3691C60.8761 46.3691 60.8732 46.4044 60.8805 46.4014C61.6418 46.5144 62.3811 46.5509 63.1174 46.7932C63.9096 47.0472 64.593 47.4554 65.2646 47.9195C65.2646 47.9195 65.2705 47.849 65.2543 47.8299C64.1624 46.8267 62.362 46.0558 60.8658 46.3647L60.8761 46.3691Z" fill="#ADC584"/>
<path d="M66.0719 45.9951C66.0719 45.9951 66.0645 46.0407 66.0748 46.0451C66.8567 46.5929 67.4195 47.2965 67.8119 48.1706C67.8148 48.178 67.8163 48.1177 67.8104 48.103C67.4386 47.2377 66.8405 46.5312 66.0645 45.9981L66.0719 45.9951Z" fill="#ADC584"/>
<path d="M65.5986 47.7944C65.5986 47.7944 65.5853 47.9105 65.6073 47.9443C66.519 48.9004 67.1996 49.8977 67.6198 51.1612C67.6257 51.1759 67.6213 51.101 67.6184 51.0936C67.2614 49.8389 66.6044 48.6447 65.5942 47.8047L65.5986 47.7944Z" fill="#ADC584"/>
<path d="M42.8449 26.2548C42.8449 26.2548 42.8331 26.3532 42.8537 26.362C44.0339 26.7761 45.4625 26.426 46.3003 25.4943C46.315 25.4884 46.2885 25.4223 46.2885 25.4223C45.1994 26.1734 44.1529 26.4557 42.8376 26.2577L42.8449 26.2548Z" fill="#ADC584"/>
<path d="M44.7247 25.2222C44.7247 25.2222 44.7335 25.4573 44.7482 25.4514C46.0959 25.1337 47.1763 24.2328 47.6819 22.9398C47.6951 22.9089 47.6599 22.8207 47.6599 22.8207C47.0778 24.0506 46.046 24.9236 44.7173 25.2252L44.7247 25.2222Z" fill="#ADC584"/>
<path d="M47.6775 24.2282L47.6996 24.3472C48.3992 23.5816 48.9827 22.7175 49.3414 21.7389C49.3546 21.708 49.3194 21.6199 49.3238 21.6096C48.8754 22.5559 48.3757 23.4376 47.6775 24.2282Z" fill="#ADC584"/>
<path d="M56.8232 14.4851C56.4264 14.1326 55.8547 13.9608 55.3756 13.7435C54.7995 13.4968 54.1969 13.184 53.5826 13.0549C53.5752 13.0578 53.5693 13.2136 53.5899 13.3076C53.3871 13.1843 53.1696 13.0668 52.9579 13.0066C52.132 12.3912 51.2575 11.8889 50.167 11.9333C50.117 11.9362 50.1478 12.5033 50.2345 12.5283C52.4773 13.1903 53.7015 15.2485 55.7826 16.1456C57.4183 16.8461 59.3143 16.897 61.0941 17.233C66.4952 19.9718 71.2378 23.9199 73.5846 29.7214C75.4421 34.3212 74.6834 40.0955 74.7492 45.0116C74.7697 46.4691 74.6932 47.3007 73.8628 48.4425C73.7746 48.563 73.5556 48.7188 73.4939 48.8628C73.3968 49.0891 73.3689 49.2963 73.3439 49.5108C73.1529 48.3942 72.8678 47.2982 72.574 46.2228C72.4241 45.6777 72.4696 46.9207 72.4975 47.0544C72.5562 47.3291 72.6121 47.5965 72.6606 47.8669C72.64 48.1137 72.6649 48.6235 72.6855 48.7176C73.0396 50.4335 73.2218 52.295 72.719 53.9363C72.6705 54.0495 72.622 54.1626 72.5661 54.2787C72.2854 54.8341 71.9018 55.3455 71.5402 55.8481C71.3241 56.1391 71.108 56.43 70.8846 56.7239C70.914 56.6696 70.9478 56.6049 70.9772 56.5506C71.0566 56.408 70.8435 55.7689 70.87 55.7498C69.6427 56.88 69.1855 58.5712 68.1934 59.9055C66.046 61.08 64.4998 62.8406 63.0652 64.795C61.3249 67.1786 59.6273 69.3065 57.5974 71.4565C57.5828 71.4624 57.5842 71.4874 57.5754 71.508C56.0204 72.4369 54.3228 73.0735 52.803 74.0906C52.7501 74.1289 52.7942 74.5373 52.8545 74.5387C57.1064 74.9167 60.9838 70.5447 63.1106 67.3589C64.507 65.2663 66.0606 63.7159 67.8067 61.9435C67.8508 62.0537 67.8729 62.1301 67.8655 62.133C69.0502 60.6194 70.6053 59.0087 71.7855 57.2497C71.79 57.282 71.7914 57.307 71.7767 57.3129C71.7914 57.307 71.7929 57.2894 71.8002 57.2864C71.8002 57.2864 71.8076 57.2835 71.812 57.2732C72.4352 56.6148 72.9261 55.8815 73.2554 55.0851C73.2848 55.2012 73.3054 55.2952 73.3083 55.3026C73.4097 54.9382 73.4862 54.5752 73.545 54.2109C73.6846 53.6863 73.7655 53.1427 73.7773 52.5755C73.7803 52.3272 73.7318 52.0143 73.6774 51.6867C73.6569 51.3796 73.626 51.0681 73.5775 50.7552C73.5716 50.5274 73.5996 50.3203 73.6746 50.1454C74.0994 49.183 74.8813 49.0064 75.0401 47.8266C75.368 45.4287 74.8419 42.793 74.8847 40.3643C74.9172 38.1017 74.9614 35.8258 74.6764 33.5794C73.5775 24.7818 65.4916 16.5046 56.7953 14.4793L56.8232 14.4851Z" fill="#ADC584"/>
<path d="M54.9985 49.428C54.4018 49.3003 53.7713 49.2799 53.1614 49.2257C53.154 49.2287 53.1481 49.427 53.1834 49.4299C53.7831 49.4797 54.4033 49.581 55.0059 49.5529C55.0132 49.55 55.0088 49.4324 54.9912 49.431L54.9985 49.428Z" fill="#ADC584"/>
<path d="M55.8558 48.3948C55.2047 48.0247 54.3096 48.1101 53.6277 48.3233C53.5836 48.341 53.6394 48.6083 53.6615 48.5995C54.026 48.4878 54.3934 48.426 54.777 48.4259C55.1532 48.4287 55.5089 48.5506 55.8822 48.5887C55.8969 48.5828 55.8866 48.408 55.8631 48.3918L55.8558 48.3948Z" fill="#ADC584"/>
<path d="M56.6387 47.1781C55.7584 46.8742 54.7516 46.9788 53.8653 47.2141C53.8359 47.2259 53.8727 47.4242 53.8903 47.4257C54.8354 47.1668 55.6966 47.2313 56.6505 47.2927C56.6505 47.2927 56.6593 47.1869 56.6387 47.1781Z" fill="#ADC584"/>
<path d="M56.9209 46.1366C56.6358 46.0632 56.3066 46.1353 56.0097 46.1603C55.7128 46.1854 55.4056 46.206 55.1087 46.2311C55.0838 46.2325 55.1087 46.4867 55.1411 46.4823C55.438 46.4573 55.7422 46.4293 56.0464 46.4013C56.336 46.3792 56.6755 46.3967 56.9415 46.2732C56.9635 46.2644 56.943 46.1278 56.9253 46.1263L56.9209 46.1366Z" fill="#ADC584"/>
<path d="M55.4088 44.9784C55.4088 44.9784 55.4236 45.1432 55.4309 45.1402C55.9233 44.9006 56.4112 44.6712 56.8977 44.4168C56.9197 44.408 56.8829 44.2947 56.8829 44.2947C56.3891 44.5094 55.9041 44.7461 55.4162 44.9755L55.4088 44.9784Z" fill="#ADC584"/>
<path d="M46.3028 28.0156C46.3028 28.0156 46.291 28.1566 46.3086 28.2007C46.8964 29.8829 47.7445 31.4694 48.9149 32.8162C48.9149 32.8162 48.9296 32.7251 48.9105 32.6986C47.824 31.2416 46.9376 29.73 46.3131 28.0199L46.3028 28.0156Z" fill="#ADC584"/>
<path d="M41.5904 73.6592C39.8356 73.1512 37.8014 73.522 35.9863 73.3961C34.277 73.279 32.5736 73.0062 30.9584 72.3998C26.9462 70.8948 24.8182 67.4088 22.6814 63.9434C20.5226 60.4442 17.936 58.0279 14.8718 55.3341C13.3962 54.0327 12.0324 52.627 11.061 50.9023C9.29164 47.7586 8.90825 44.0944 8.45871 40.5845C8.41611 40.2436 8.32058 40.2392 8.36171 40.5977C8.76859 44.7041 9.30479 49.0912 11.543 52.6609C14.056 56.6831 18.5459 58.9343 21.2573 62.8345C23.6572 66.2969 25.3868 70.4706 29.1124 72.7719C30.9334 73.8925 33.0512 74.4341 35.1661 74.6701C37.1473 74.8915 39.8046 75.2258 41.6829 74.4657C41.7858 74.4246 41.7006 73.7003 41.5933 73.6665L41.5904 73.6592Z" fill="#ADC584"/>
<path d="M36.4516 32.6897C36.4281 32.5883 36.4324 32.7485 36.4368 32.7808C36.6908 34.0341 37.1272 35.3167 37.9167 36.3301C37.9137 36.3228 37.9256 36.1817 37.9006 36.1406C37.2508 35.0286 36.7188 33.9547 36.4442 32.6926L36.4516 32.6897Z" fill="#ADC584"/>
<path d="M37.7977 33.6264C37.7977 33.6264 37.7977 33.5845 37.7905 33.5874C37.7833 33.5903 37.7905 33.6293 37.7977 33.6264Z" fill="#ADC584"/>
<path d="M38.2404 32.9639C38.3371 33.9734 38.6087 35.2708 39.3351 36.0197C39.3351 36.0197 39.341 35.864 39.3292 35.8346C38.8545 34.8827 38.4283 34.0307 38.2875 32.9536C38.2655 32.792 38.2228 32.792 38.2404 32.9639Z" fill="#ADC584"/>
<path d="M39.1955 33.0489C39.1882 32.9666 39.1456 32.8814 39.1588 33.021C39.1953 33.6028 39.2936 34.1685 39.467 34.7297C39.514 34.8899 39.7828 35.9668 40.1021 35.5919C40.1183 35.5684 40.1051 35.3862 40.0728 35.3906C39.7462 35.385 39.6155 34.8663 39.5303 34.6107C39.3452 34.1053 39.2468 33.5822 39.1985 33.0562L39.1955 33.0489Z" fill="#ADC584"/>
<path d="M40.3175 33.5296C40.2099 34.135 40.2743 34.808 40.2653 35.4252C40.2623 35.4604 40.3093 35.7058 40.3182 35.6C40.3434 34.9593 40.3952 34.2995 40.3601 33.6574C40.3542 33.6427 40.3249 33.484 40.3175 33.5296Z" fill="#ADC584"/>
<path d="M41.2136 34.0668C41.1783 34.5325 41.1783 35.0012 41.2033 35.4684C41.2033 35.5111 41.2517 35.6962 41.2459 35.5536C41.243 34.6941 41.3929 33.8757 41.4635 33.0294C41.4665 32.9941 41.4224 32.7987 41.418 32.809C41.2357 33.1632 41.243 33.6715 41.2136 34.0668Z" fill="#ADC584"/>
<path d="M42.4685 33.4525C42.3039 34.149 42.1818 34.8881 42.101 35.6021C42.0921 35.6653 42.1465 35.8225 42.145 35.8401C42.3214 35.1731 42.4479 34.4663 42.5405 33.7816C42.5508 33.7008 42.5449 33.6009 42.52 33.5172C42.5111 33.4951 42.4891 33.3761 42.4685 33.4525Z" fill="#ADC584"/>
<path d="M43.0947 34.7181C43.0637 34.9606 43.0327 35.203 43.0017 35.4455C42.9914 35.5263 43.0017 35.616 43.0237 35.6924C43.0296 35.7071 43.0589 35.8231 43.0722 35.7497C43.1356 35.2897 43.2388 34.8223 43.2493 34.358C43.2493 34.3154 43.1994 34.1053 43.1949 34.1156C43.1198 34.2905 43.1242 34.5359 43.0976 34.7254L43.0947 34.7181Z" fill="#ADC584"/>
<path d="M43.7014 35.0223C43.7043 35.0723 43.7072 35.2501 43.7513 35.2751C43.7925 35.2927 43.7734 35.1384 43.7779 35.1281C43.7442 34.7666 43.8237 34.411 43.8989 34.0656C43.9018 34.0303 43.8651 33.8746 43.8651 33.8746C43.6532 34.198 43.6751 34.6579 43.7043 35.0297L43.7014 35.0223Z" fill="#ADC584"/>
<path d="M46.8414 33.9622C46.8414 33.9622 46.787 34.3163 46.8884 34.378C47.5791 34.8259 48.1979 35.4135 48.9048 35.8379C48.9018 35.8306 48.9165 35.569 48.8739 35.5264C48.3081 34.9007 47.5453 34.4219 46.8414 33.9622Z" fill="#ADC584"/>
<path d="M36.4392 45.8272C35.8778 45.7877 35.2942 46.4387 34.965 46.8517C34.5564 47.3646 34.3109 47.9655 34.1962 48.6164C34.1889 48.662 34.23 48.7648 34.2256 48.7751C34.38 48.2447 34.6166 47.7495 34.9723 47.3174C35.4103 46.7928 36.0085 46.562 36.47 46.0961C36.4936 46.0697 36.4818 45.8272 36.4392 45.8272Z" fill="#ADC584"/>
<path d="M35.7472 45.2704C35.3048 45.3366 34.8624 45.5733 34.4494 45.8834L34.4435 45.8687C34.4435 45.8687 34.4464 45.8761 34.442 45.8863C33.957 46.2508 33.5072 46.7035 33.1839 47.0885C33.1603 47.115 33.2162 47.2545 33.2088 47.2575C33.5895 46.9092 33.9717 46.5858 34.4038 46.3022C34.8432 46.0155 35.3562 45.8274 35.7795 45.5216C35.8133 45.4996 35.7795 45.266 35.7472 45.2704Z" fill="#ADC584"/>
<path d="M36.3744 46.6882C36.198 47.0144 36.0495 47.3465 35.9319 47.6918C35.8996 47.7814 35.9981 48.0062 35.9848 48.037C36.101 47.7093 36.2377 47.3905 36.4052 47.0848C36.5772 46.7689 36.8006 46.475 36.9594 46.1473C36.9726 46.1164 36.9329 45.9108 36.9256 45.9137C36.6728 46.0916 36.5243 46.4236 36.3744 46.6882Z" fill="#ADC584"/>
<path d="M59.9338 20.4906C58.8639 19.7768 57.744 19.1512 56.6402 18.502C56.6402 18.502 56.6329 18.5476 56.6461 18.5593C57.7425 19.254 58.8183 19.9825 59.9485 20.6125C59.9485 20.6125 59.9573 20.5067 59.9338 20.4906Z" fill="#ADC584"/>
<path d="M60.9144 22.1112C60.9144 22.1112 60.9114 22.1891 60.9217 22.1935C61.7359 22.5239 62.3723 22.9851 62.9925 23.5976C62.9925 23.5976 63.0028 23.4742 62.9837 23.4477C62.4884 22.7852 61.7197 22.2918 60.9114 22.1039L60.9144 22.1112Z" fill="#ADC584"/>
<path d="M64.105 25.1197C64.105 25.1197 64.0903 25.2108 64.1094 25.2373C65.4702 26.9339 66.4813 28.779 67.1499 30.8549C67.1675 30.899 67.1587 30.7917 67.1528 30.777C66.5386 28.6879 65.5231 26.7678 64.0976 25.1226L64.105 25.1197Z" fill="#ADC584"/>
<path d="M67.6569 29.2031C68.0566 30.2021 68.3298 31.2261 68.4971 32.284C68.503 32.3413 68.5162 32.3105 68.5089 32.2708C68.3578 31.1467 68.0714 30.0683 67.6511 29.0179C67.6423 28.9959 67.6422 29.1664 67.6599 29.2104L67.6569 29.2031Z" fill="#ADC584"/>
<path d="M68.9684 29.8392C69.2447 30.5296 69.5239 31.2275 69.8075 31.915C69.8134 31.9297 69.8193 31.8165 69.8076 31.7872C69.5225 31.0746 69.2403 30.3695 68.9626 29.654C68.9538 29.632 68.9508 29.7951 68.9684 29.8392Z" fill="#ADC584"/>
</svg>
