<svg width="160" height="100" viewBox="0 0 160 100" fill="none" xmlns="http://www.w3.org/2000/svg">
<path d="M119.47 56.3116C113.389 62.8008 108.457 71.0299 100.376 75.2925C92.3716 79.5094 81.7895 78.143 73.0962 77.2844C64.8145 76.4796 56.167 74.5264 49.7529 68.8715C42.6958 62.6627 39.5672 53.4001 33.2231 46.594C30.0484 43.1842 25.8135 40.9474 22.8648 37.3224C18.5601 32.0247 16.548 24.2653 16.3546 17.541C16.2311 12.8636 17.1328 8.05684 19.5761 4.02162C22.2373 -0.366004 26.5882 -2.94926 30.8314 -5.56744C34.1625 -7.61787 37.3779 -9.76239 39.9073 -12.8024C42.8779 -16.3778 44.8396 -20.6415 47.5896 -24.3783C61.1406 -42.7795 86.5129 -39.5152 104.588 -30.8508C104.488 -30.9045 104.787 -32.4593 104.375 -32.669C87.0807 -41.4896 63.0753 -44.9264 48.8141 -28.5342C45.7574 -25.018 43.7526 -20.7838 41.0564 -16.9906C37.6821 -12.2397 33.151 -9.52193 28.3346 -6.50283C20.6365 -1.6755 16.2908 4.66532 15.9082 13.8509C15.5903 21.2477 17.1692 29.5236 20.6882 36.0561C23.0476 40.4317 26.7093 42.9914 30.4141 46.1267C34.544 49.6223 37.4577 54.0569 40.3095 58.6099C45.6041 67.0839 51.0576 74.0435 60.8189 77.2983C69.8027 80.287 80.2476 80.8035 89.6459 80.4595C101.587 80.0342 108.478 72.0977 115.606 63.5829C119.303 59.1708 123.339 55.3719 127.569 51.5111C131.35 48.0485 134.584 44.43 135.981 39.3783C136.121 38.8699 135.634 37.6919 135.693 37.5278C133.099 45.7106 125.072 50.3417 119.47 56.3116Z" fill="#ADC584"/>
<path d="M114.228 -27.5476C114.228 -27.5476 114.147 -26.7353 114.316 -26.5847C121.597 -20.5589 129.378 -14.7645 133.811 -6.17997C137.064 0.115868 137.128 6.98541 137.085 13.898C137.06 18.9467 138.615 27.8251 134.982 31.6185C134.797 31.8176 135.047 33.34 135.173 33.305C137.086 32.6643 137.28 30.8083 137.458 28.99C137.797 25.4691 137.531 21.8004 137.553 18.2661C137.588 12.2303 137.892 6.08687 136.711 0.132106C134.307 -12.041 124.578 -21.4553 114.22 -27.5288L114.228 -27.5476Z" fill="#ADC584"/>
<path d="M45.5918 4.48787C44.1738 4.72762 43.0652 6.32561 42.3871 7.43933C40.4174 10.6298 39.3302 14.4657 39.2008 18.199C39.1981 18.3093 39.3138 18.7154 39.3192 18.7289C40.1158 15.8049 40.6756 12.9914 42.1044 10.2824C42.8229 8.91857 43.7486 7.25336 45.2392 6.61014C47.0204 5.83505 47.954 7.11513 48.9145 8.46244C48.9091 8.449 48.9387 7.85994 48.8742 7.69857C48.2823 6.29737 47.4645 4.1754 45.6106 4.49595L45.5918 4.48787Z" fill="#ADC584"/>
<path d="M64.104 21.3836C59.9552 20.454 55.879 19.2769 51.6305 18.9176C47.7883 18.5985 43.9945 19.1024 40.1847 18.396C40.1524 18.3933 40.1712 18.9473 40.2519 18.9931C44.0052 21.3913 48.3425 20.6075 52.564 21.0557C57.1784 21.5494 61.6905 22.7237 66.2672 23.5133C71.2098 24.3593 83.6538 25.9324 84.6605 18.6187C84.6766 18.5031 84.5717 18.2018 84.5744 18.1695C82.7067 25.2036 68.9498 22.4556 64.0987 21.3701L64.104 21.3836Z" fill="#ADC584"/>
<path d="M90.0147 3.68032C87.6121 1.38121 85.3145 -1.08471 81.9244 -1.83429C77.6598 -2.78 73.3817 -1.38023 69.8222 -4.62045C69.806 -4.6608 69.7737 -4.66349 69.7495 -4.607C68.081 0.428601 64.8467 4.35911 60.3129 7.10917C60.2106 7.16568 60.1945 7.35934 60.2214 7.58258C55.7496 7.01618 51.3667 6.00867 46.8115 5.03883C46.8115 5.03883 46.8007 5.24594 46.8384 5.26207C52.545 8.1736 59.4491 9.35801 65.8177 9.55544C68.8339 9.64344 71.8447 9.484 74.8232 9.08785C78.052 8.65399 83.4144 7.19479 84.7487 11.5437C84.8671 11.9176 84.808 10.9897 84.773 10.8632C83.116 4.22541 73.6932 7.82396 68.8528 8.01347C66.5174 8.10551 64.2438 8.00119 61.9999 7.77582C63.1273 6.96592 64.1901 6.07264 65.148 5.03416C66.8055 3.24776 67.6478 1.02317 69.1278 -0.816986C69.8893 -1.76127 69.0122 -2.08113 70.8041 -2.12731C71.4364 -2.1463 72.7171 -1.12992 73.4032 -0.93643C75.5126 -0.345224 77.6543 -0.531357 79.8068 -0.378588C85.1638 0.0208257 87.8246 3.51142 91.7204 6.69507C93.2244 7.91852 95.3391 8.67917 95.9363 10.4058C96.3453 11.5838 96.0626 13.3349 96.2751 14.6071C96.45 15.6291 96.6948 16.6701 97.0552 17.649C97.0472 17.5898 98.3546 20.7795 98.204 20.091C98.559 21.7585 98.1178 21.8259 97.0307 23.1657C93.3605 27.645 89.2974 31.9227 84.8873 35.6841C82.9203 37.3603 81.6988 37.0378 79.2369 36.5408C77.0441 36.0922 74.7302 36.394 72.6235 36.0046C70.7858 35.6634 69.0828 33.3964 67.307 32.6249C65.2918 31.762 63.3572 31.6468 61.2505 32.0374C61.1861 27.6639 59.9245 23.6135 56.591 20.47C56.6206 20.505 56.4403 21.5755 56.6797 21.8229C59.4132 24.754 61.248 28.0135 60.941 32.3172C60.9222 32.4651 60.9679 33.6325 61.1778 33.6109C65.359 33.3731 68.889 34.7844 71.7032 37.9172C71.7085 37.9306 71.7274 37.9387 71.7462 37.9468C75.5966 35.4389 79.2071 39.8599 83.0494 39.009C84.7257 38.6347 86.5124 36.391 87.7044 35.2745C89.4103 33.6871 91.057 32.0298 92.6607 30.343C95.7282 27.0876 99.9661 24.066 98.6776 19.3243C97.8464 16.2717 97.1282 12.9554 96.418 9.85433C96.3481 9.52351 96.418 9.1523 96.2701 8.8215C95.3393 6.65112 91.7285 5.3502 89.9824 3.67763L90.0147 3.68032Z" fill="#ADC584"/>
<path d="M42.7912 47.8041C40.3589 46.406 37.4746 45.9064 34.9859 44.5622C32.2981 43.1104 29.9466 41.134 27.6274 39.1604C26.1395 37.8993 24.6571 36.6516 23.3818 35.1807C24.3073 36.4016 25.3862 37.5767 26.64 38.6819C31.3617 42.8766 36.506 46.684 42.8207 48.073C42.8207 48.073 42.8288 47.8202 42.7858 47.7906L42.7912 47.8041Z" fill="#ADC584"/>
<path d="M19.3435 26.9991C19.9727 29.2746 20.8282 31.4907 22.1119 33.4887C22.4967 34.0991 22.9381 34.6557 23.4011 35.188C21.5251 32.725 20.2363 30.0115 19.3435 26.9991Z" fill="#ADC584"/>
<path d="M18.4675 23.4031C18.7148 24.6458 19.0051 25.84 19.3386 26.9858C19.0051 25.762 18.7175 24.5355 18.4837 23.2874C18.4622 23.1556 18.4648 23.3574 18.4675 23.4031Z" fill="#ADC584"/>
<path d="M41.7228 49.074C39.608 48.5474 37.574 47.9104 35.6018 46.9991C35.6207 47.0072 35.5587 47.3595 35.6529 47.3998C37.6062 48.3031 39.6564 49.0584 41.7686 49.4613C41.7686 49.4613 41.8062 49.0875 41.7175 49.0606L41.7228 49.074Z" fill="#ADC584"/>
<path d="M37.0981 48.7889C37.0981 48.7889 37.0981 48.7106 37.0845 48.716C37.071 48.7214 37.0845 48.7944 37.0981 48.7889Z" fill="#ADC584"/>
<path d="M45.1214 44.7347C40.924 45.0101 36.4981 42.881 32.9601 40.7866C29.1126 38.504 25.728 35.5058 22.965 31.9937C22.965 31.9937 22.9623 32.026 22.9811 32.034C25.6042 35.5085 28.7628 38.4879 32.4731 40.7786C35.9411 42.9322 40.9509 45.6234 45.1617 45.0306C45.1886 45.0198 45.1617 44.7186 45.1295 44.7159L45.1214 44.7347Z" fill="#ADC584"/>
<path d="M47.8631 43.0449C44.0558 43.7882 40.5123 42.3043 37.0819 40.7909C37.0819 40.7909 37.0738 40.8877 37.098 40.9092C40.4504 42.5787 44.0719 44.2185 47.898 43.4053C47.9384 43.3891 47.89 43.0341 47.8631 43.0449Z" fill="#ADC584"/>
<path d="M49.5696 41.538C48.0952 41.2855 46.575 41.4258 45.0871 41.1787C43.6261 40.9209 42.1974 40.5097 40.836 39.9156C40.836 39.9156 40.8252 40.0447 40.8494 40.0662C43.314 41.233 46.8251 42.5581 49.5884 41.7801C49.6153 41.7693 49.5884 41.5461 49.5561 41.5434L49.5696 41.538Z" fill="#ADC584"/>
<path d="M51.7426 39.9464C49.7946 39.2126 47.5695 38.9953 45.5139 38.7726C45.5004 38.7779 45.4923 39.1868 45.5569 39.1921C47.6583 39.4122 49.687 39.9577 51.7722 40.2154C51.7722 40.2154 51.7856 39.976 51.7426 39.9464Z" fill="#ADC584"/>
<path d="M53.8465 38.4978C51.094 38.2107 48.5057 38.1387 45.8366 37.319C45.8366 37.319 45.7936 37.6794 45.8824 37.7063C48.3604 38.4776 51.2716 39.1225 53.8627 38.6942C53.8761 38.6888 53.8654 38.5059 53.8331 38.5032L53.8465 38.4978Z" fill="#ADC584"/>
<path d="M55.4797 36.065C53.8653 36.2429 52.407 36.5768 50.7657 36.3755C49.1702 36.1715 47.7012 35.6205 46.3263 34.7978C46.364 34.8139 46.2779 35.1448 46.3694 35.2174C48.928 36.7364 52.6814 37.6527 55.512 36.3017C55.5389 36.2909 55.5174 36.0812 55.4851 36.0785L55.4797 36.065Z" fill="#ADC584"/>
<path d="M56.5065 34.8451C53.3773 35.7228 49.8661 33.7736 46.8285 33.0858C46.8285 33.0858 46.8204 33.1826 46.8392 33.1907C48.5746 33.8223 50.3558 34.2953 52.1047 34.8436C53.5307 35.287 55.1504 36.0585 56.5388 35.1598C56.5926 35.1383 56.52 34.8398 56.5065 34.8451Z" fill="#ADC584"/>
<path d="M56.6591 33.0822C55.6851 32.8323 54.6627 32.6954 53.6753 32.5289C53.6753 32.5289 53.6349 32.9351 53.7183 32.9485C54.7004 33.1016 55.6959 33.3272 56.6914 33.3969C56.7048 33.3915 56.7102 33.093 56.6591 33.0822Z" fill="#ADC584"/>
<path d="M19.5828 26.8571C19.5828 26.8571 19.5883 26.7145 19.5721 26.6742C19.3461 26.2654 19.1605 25.8405 18.9883 25.4102C19.1766 25.8808 19.3703 26.3649 19.5775 26.8436L19.5828 26.8571Z" fill="#ADC584"/>
<path d="M18.9946 25.4245C18.739 24.7468 18.5427 24.0609 18.3545 23.3562C18.5238 24.0529 18.7255 24.7522 18.9946 25.4245Z" fill="#ADC584"/>
<path d="M17.9642 21.249C18.0393 21.9834 18.1763 22.6773 18.3592 23.3686C18.1898 22.6719 18.0608 21.9591 17.9776 21.2436C17.9615 21.2033 17.9615 21.2033 17.9776 21.2436L17.9642 21.249Z" fill="#ADC584"/>
<path d="M16.9216 16.8904C16.4912 14.4106 16.8949 11.987 17.8179 9.73007C16.8492 11.9117 16.4428 14.2895 16.9216 16.8904Z" fill="#ADC584"/>
<path d="M23.2889 2.30139C20.9857 4.34617 18.9837 6.90999 17.8239 9.74526C19.9363 5.00004 24.7312 1.22514 28.9341 -1.6109C34.2671 -5.21111 39.9821 -8.79262 42.6031 -14.9581C42.6193 -14.9958 42.5735 -15.0711 42.587 -15.0765C38.7309 -6.80995 29.7575 -3.45358 23.2889 2.30139Z" fill="#ADC584"/>
<path d="M17.2182 18.1786C17.167 18.0116 17.1293 17.8393 17.0915 17.6669C17.1347 17.8527 17.1724 18.0251 17.2155 18.2109C17.2209 18.2244 17.2101 18.1975 17.2047 18.184L17.2182 18.1786Z" fill="#ADC584"/>
<path d="M16.9209 16.89C16.937 17.0086 16.9667 17.1217 16.9828 17.2402C16.9532 17.1271 16.937 17.0086 16.9209 16.89Z" fill="#ADC584"/>
<path d="M16.9836 17.2402C17.0105 17.3856 17.0455 17.5122 17.0859 17.6523C17.0455 17.5122 17.0186 17.3668 16.9836 17.2402Z" fill="#ADC584"/>
<path d="M52.2367 23.9791C52.2367 23.9791 52.2232 24.1405 52.2555 24.1432C56.4851 24.4165 58.3118 28.3188 59.334 31.8878C59.3771 31.9954 59.3529 31.7399 59.3421 31.713C58.4921 28.0283 56.5255 24.0103 52.2313 23.9657L52.2367 23.9791Z" fill="#ADC584"/>
<path d="M56.1003 23.0261C56.1003 23.0261 56.0572 23.3085 56.1379 23.3542C58.5056 24.7469 59.9987 27.1135 60.0578 29.9135C60.0685 29.9404 60.1035 30.1448 60.1116 30.048C60.1413 27.1188 58.6912 24.4698 56.1003 23.0261Z" fill="#ADC584"/>
<path d="M55.3429 28.7413C55.3429 28.7413 55.3051 28.9592 55.359 29.0157C55.577 29.2093 55.7951 29.4028 56.0212 29.5775C56.0212 29.5775 56.0509 29.3785 56.0078 29.3489C55.7844 29.1419 55.5664 28.9483 55.3429 28.7413Z" fill="#ADC584"/>
<path d="M18.0194 12.8471C17.8067 15.319 17.9115 17.8043 18.3392 20.2384C18.3661 20.3837 18.3769 20.2546 18.3634 20.1819C18.0057 17.7667 17.8875 15.3647 18.0383 12.9332C18.0329 12.9197 18.0114 12.7879 18.006 12.8525L18.0194 12.8471Z" fill="#ADC584"/>
<path d="M20.194 22.1046C20.194 22.1046 20.1725 22.0508 20.1805 22.1099C20.5704 26.166 22.4698 29.8208 25.7495 32.2838C25.7495 32.2838 25.7576 32.187 25.7388 32.1789C22.6178 29.6056 20.6135 26.1955 20.194 22.1046Z" fill="#ADC584"/>
<path d="M38.0851 38.8904C31.8243 35.2178 25.8245 30.9884 22.9432 24.0604C22.9378 24.0469 22.9352 24.1572 22.9459 24.1841C25.7384 30.9292 31.6682 35.9199 38.1201 39.0948C38.1201 39.0948 38.1416 38.9146 38.0986 38.885L38.0851 38.8904Z" fill="#ADC584"/>
<path d="M41.1956 38.24C38.8172 36.7425 36.4657 35.2341 34.2487 33.5159C34.2487 33.5159 34.2056 33.7983 34.2783 33.8629C36.4764 35.573 38.7822 37.2401 41.2278 38.5547C41.2225 38.5413 41.2628 38.2911 41.1956 38.24Z" fill="#ADC584"/>
<path d="M34.3704 38.6172C32.4762 37.5499 30.5902 36.5417 28.8064 35.321C28.8064 35.321 28.7848 35.5012 28.8279 35.5308C30.5686 36.7999 32.4036 38.0314 34.4026 38.8539C34.4026 38.8539 34.4269 38.6414 34.3704 38.6172Z" fill="#ADC584"/>
<path d="M44.5176 63.4308C41.3833 59.3029 40.9289 54.0714 37.8968 49.965C35.2737 46.4125 31.2729 43.5517 27.1483 42.0196C27.1483 42.0196 27.1294 42.4015 27.1832 42.458C27.985 43.1356 28.8029 43.7755 29.6343 44.4101C29.6423 44.5473 29.6638 44.6791 29.7123 44.7221C31.7301 46.9567 34.0385 48.9035 36.0698 51.1328C37.7433 52.9748 39.0077 54.9649 40.3179 57.0303C41.2245 59.9592 42.1095 63.2243 44.6117 64.4851C44.6117 64.4851 44.6172 63.5626 44.5176 63.4308Z" fill="#ADC584"/>
<path d="M66.5714 72.7961C61.2656 71.3934 56.2181 69.7781 51.6954 66.5489C46.7556 63.0185 43.1236 58.0757 41.3723 52.2556C41.3347 52.1614 41.3535 52.4035 41.3696 52.4438C44.5331 63.471 55.2278 71.9059 66.5983 73.0973C66.5983 73.0973 66.6144 72.8256 66.5633 72.8149L66.5714 72.7961Z" fill="#ADC584"/>
<path d="M65.5087 73.925C61.9949 72.9441 58.6074 72.0843 55.3465 70.4094C51.8542 68.6243 48.7305 66.2393 46.0562 63.3781C46.0616 63.3915 46.0239 63.6094 46.0831 63.6793C50.934 68.9769 58.1984 73.6364 65.5464 74.1751C65.5464 74.1751 65.5652 73.9492 65.5141 73.9384L65.5087 73.925Z" fill="#ADC584"/>
<path d="M67.778 70.4282C60.8578 69.6715 55.0651 66.3888 49.8348 61.8983C49.8348 61.8983 49.8214 61.9816 49.8456 62.0032C54.7987 66.3862 60.8793 70.8173 67.8237 70.8156C67.8506 70.8048 67.8426 70.4336 67.778 70.4282Z" fill="#ADC584"/>
<path d="M67.4606 68.6214C64.7512 67.7399 62.101 67.0063 59.5261 65.7589C59.545 65.7669 59.4831 66.1193 59.5772 66.1596C62.0337 67.3452 64.7753 68.5414 67.4928 68.9361C67.4928 68.9361 67.5117 68.6322 67.4552 68.608L67.4606 68.6214Z" fill="#ADC584"/>
<path d="M66.3038 66.3545C65.7415 66.0023 65.0204 65.8384 64.3854 65.5777C63.7505 65.3169 63.1424 65.0454 62.5236 64.747C62.5424 64.7551 62.4724 65.1263 62.5666 65.1666C63.18 65.4516 63.7935 65.7365 64.4284 65.9973C65.0069 66.2338 65.7091 66.6236 66.3253 66.6423C66.3522 66.6315 66.328 66.376 66.2849 66.3464L66.3038 66.3545Z" fill="#ADC584"/>
<path d="M66.029 64.4985C65.5124 64.2216 64.864 64.1223 64.3124 63.953C64.3124 63.953 64.2936 64.1789 64.3447 64.1897C64.8855 64.4101 65.5016 64.7407 66.0747 64.8078C66.0882 64.8025 66.0801 64.5093 66.0424 64.4931L66.029 64.4985Z" fill="#ADC584"/>
<path d="M66.2091 63.3473C65.7892 63.156 65.2081 63.4198 64.8449 63.6432C64.7695 63.689 64.8962 64.0445 64.8962 64.0445C65.0952 63.918 65.3051 63.8184 65.5446 63.7538C65.7706 63.6946 66.029 63.7162 66.2389 63.6166C66.2792 63.6005 66.2414 63.35 66.2038 63.3338L66.2091 63.3473Z" fill="#ADC584"/>
<path d="M84.7986 77.3145C80.5474 77.1434 76.2774 76.4183 72.0613 75.8276C67.8129 75.2343 63.5537 74.458 59.3914 73.3778C59.3914 73.3778 59.3752 73.4935 59.4075 73.4961C63.4703 74.6786 67.5842 75.4818 71.7572 76.1989C76.0972 76.9428 80.4747 77.7809 84.8739 77.9708C93.0129 78.3022 101.074 75.3576 106.997 69.7588C107.053 69.705 106.953 69.4952 106.962 69.4764C100.754 74.6745 92.9376 77.646 84.7986 77.3145Z" fill="#ADC584"/>
<path d="M96.527 9.34756C96.6239 9.58961 96.7154 9.81821 96.7988 10.0656C96.9144 10.2378 97.0436 10.4045 97.1593 10.5766C97.3341 10.8187 97.2615 11.4562 97.248 11.7735C97.283 11.978 97.326 12.1635 97.361 12.368C97.3986 12.4621 97.4175 12.5481 97.4471 12.6611C97.4847 12.7552 97.4981 13.0618 97.5197 13.3496C97.7106 14.88 97.6917 16.744 98.3508 18.0403C98.6198 19.2587 98.7328 19.2291 98.6791 17.9246C98.6737 17.9111 98.6817 17.8923 98.6898 17.8735C98.3401 16.6874 98.0577 15.4744 97.8694 14.2237C97.7752 13.5594 97.7403 12.887 97.6919 12.2199C97.275 10.6707 96.8096 9.31254 96.3845 8.79622C96.4544 8.97104 96.4894 9.17544 96.5459 9.35564L96.527 9.34756Z" fill="#ADC584"/>
<path d="M115.873 13.6204C115.44 13.5129 114.993 13.4888 114.546 13.5427C112.954 13.4624 111.442 13.5838 109.878 13.9285C108.417 13.9047 106.937 14.4188 105.493 14.9033C104.406 14.995 103.324 14.8662 102.296 14.3258C102.334 14.342 102.237 14.8799 102.353 14.974C102.684 15.216 103.014 15.38 103.353 15.5252C101.903 15.8403 100.499 15.8406 99.1804 14.8861C98.7956 13.9636 98.5266 12.9012 98.3007 12.0244C98.1823 11.4946 98.0559 10.9835 97.9214 10.4914C97.8138 9.59839 97.822 8.64355 97.4749 7.81521C96.536 5.58566 94.4347 5.2096 92.5379 4.01854C89.4976 2.11497 87.1596 -0.568784 85.4351 -3.66961C85.4189 -3.70995 85.3732 -3.70722 85.3624 -3.65611C85.3248 -3.59424 85.3006 -3.53775 85.2629 -3.47588C85.1983 -3.71525 85.0585 -4.22087 85.0262 -4.14555C84.8808 -3.72861 84.6898 -3.38699 84.453 -3.12064C83.7104 -3.10432 82.9678 -2.77598 82.1928 -2.60634C78.2349 -1.77152 74.2582 -2.4268 70.5856 -3.99936C70.5856 -3.99936 70.5372 -3.49636 70.6421 -3.42914C73.973 -1.11144 77.7532 0.0280529 81.8349 -0.49748C82.2492 -0.554068 82.6259 -0.626812 82.9622 -0.683382C83.5918 -0.514088 83.9981 -0.707836 84.3775 -0.890834C84.4044 -0.9016 84.4556 -0.890855 84.4878 -0.888174C84.4986 -0.861279 84.5147 -0.820941 84.5201 -0.807493C84.6923 -0.611186 84.8564 -0.396022 85.0286 -0.199716C85.6447 1.14499 85.3165 0.636721 86.4653 1.90867C86.4707 1.92212 86.4788 1.59128 86.4707 1.2201C86.8312 1.57505 87.1998 1.91118 87.5684 2.2473C87.8321 2.67221 88.1791 3.03255 88.806 3.31212C88.7872 3.30406 88.7953 3.12919 88.7953 2.89519C90.275 4.48713 91.9754 5.77239 93.8373 6.91505C94.6229 7.39631 95.2606 7.70281 95.7798 8.02545C95.8121 8.18413 95.839 8.32937 95.8605 8.38316C95.9009 8.52302 95.9412 8.66285 95.9816 8.80271C95.9789 9.147 95.9761 9.56928 96.0461 9.7441C97.3858 13.0925 97.2619 16.7613 98.2195 20.169C97.5604 19.4967 96.7317 18.9859 95.9783 18.4293C95.1631 17.8351 94.3479 17.2408 93.5327 16.6466C93.5327 16.6466 93.3765 17.6607 93.6214 17.8435C94.4985 18.4754 95.3568 19.0992 96.2339 19.731C96.9199 20.2365 97.6867 21.0218 98.5289 21.2152C98.5289 21.2152 98.5504 21.191 98.5477 21.1453C98.58 21.2259 98.6042 21.3255 98.6365 21.4061C98.0902 22.3423 97.5951 23.2892 97.1242 24.1796C95.4531 27.2974 93.4835 29.4739 90.5587 31.4866C89.3586 32.31 88.1317 33.0661 86.9908 33.9594C86.1486 34.624 85.1691 35.9987 84.2409 36.5261C82.465 37.5486 80.9556 36.3897 79.1556 36.1427C77.3233 35.893 76.0937 36.2914 74.3771 36.8379C74.3636 36.8433 74.3717 36.9804 74.3905 36.9885C77.8264 37.4234 81.1627 38.5065 83.872 40.7141C83.9312 40.784 83.9769 40.7813 84.0092 40.706C87.0821 36.8401 92.1002 35.4563 95.2403 31.7194C96.54 30.1698 97.2343 28.3164 98.1869 26.5625C98.7035 25.5913 99.3116 24.6928 99.944 23.8158C99.9816 23.9099 100.049 23.961 100.087 23.8992C100.7 23.0141 101.497 22.1182 102.097 21.1605C103.579 21.5501 104.661 20.7429 105.718 19.6802C106.727 18.6525 107.513 17.8857 108.813 17.2721C108.961 17.2129 109.109 17.1537 109.251 17.081C111.334 16.357 113.416 15.6329 115.515 14.9492C115.542 14.9384 115.561 14.8685 115.574 14.7851C115.736 14.7985 115.897 14.8119 116.064 14.8387C116.115 14.8495 116.137 13.7332 115.927 13.6768L115.873 13.6204ZM97.6738 12.2129C97.7222 12.8799 97.7571 13.5523 97.8512 14.2167C98.0341 15.4539 98.3166 16.6669 98.6717 17.8664C98.677 17.8799 98.669 17.8987 98.6609 17.9175C98.7092 19.2086 98.6016 19.2516 98.3326 18.0333C97.6735 16.737 97.6924 14.873 97.5015 13.3426C97.4934 13.0494 97.4665 12.7482 97.4289 12.654C97.3858 12.5465 97.367 12.4604 97.3428 12.3609C97.3078 12.1565 97.2783 11.9655 97.2298 11.7665C97.2433 11.4491 97.316 10.8116 97.1411 10.5696C97.0254 10.3975 96.8963 10.2307 96.7806 10.0586C96.6972 9.8112 96.6192 9.57721 96.5089 9.34054C96.4524 9.16034 96.4094 8.97473 96.3475 8.78109C96.786 9.29203 97.238 10.6556 97.6549 12.2048L97.6738 12.2129Z" fill="#ADC584"/>
<path d="M120.048 16.3317C120.048 16.3317 120.032 16.5254 120.07 16.5416C124.805 17.5329 128.679 20.3507 131.211 24.4546C131.2 24.4277 131.23 24.2286 131.184 24.1533C128.911 19.9149 124.778 17.0756 120.035 16.3371L120.048 16.3317Z" fill="#ADC584"/>
<path d="M110.067 -26.4758C119.925 -20.6389 129.945 -13.8525 133.084 -2.14493C133.111 -2.07769 133.092 -2.24177 133.1 -2.26061C130.34 -13.8392 120.106 -21.3194 110.075 -26.4946L110.067 -26.4758Z" fill="#ADC584"/>
<path d="M123.228 -15.8588C123.228 -15.8588 123.211 -15.7431 123.241 -15.7082C127.546 -11.1125 130.586 -5.77686 132.003 0.379578C132.028 0.479091 132.028 0.323104 132.017 0.29621C130.758 -5.81454 127.785 -11.5672 123.228 -15.8588Z" fill="#ADC584"/>
<path d="M125.918 -10.4615C125.918 -10.4615 125.881 -10.1656 125.951 -10.0688C128.257 -6.686 129.745 -3.0068 130.508 1.00906C130.54 1.16776 130.546 0.947154 130.538 0.887977C129.874 -3.23017 128.314 -7.0519 125.932 -10.4669L125.918 -10.4615Z" fill="#ADC584"/>
<path d="M56.5123 -4.69065C56.2727 -2.05197 55.2986 0.194204 53.7433 2.31411C53.7298 2.31949 53.7702 2.38132 53.7567 2.38671C55.5649 0.586818 56.496 -2.00093 56.55 -4.51853C56.5527 -4.55081 56.515 -4.72293 56.5123 -4.69065Z" fill="#ADC584"/>
<path d="M57.9961 -4.29809C57.7214 -1.3958 57.0594 1.55228 54.853 3.60511C54.7965 3.65892 54.896 3.86869 54.8879 3.88752C57.2208 1.8777 57.8936 -1.1995 58.031 -4.17169C58.0203 -4.19858 58.0041 -4.31692 57.9961 -4.29809Z" fill="#ADC584"/>
<path d="M59.8308 -3.06804C59.8926 -0.768337 58.6306 1.18744 57.3793 3.01409C57.3121 3.119 57.4627 3.49551 57.4493 3.50089C58.7624 1.55588 60.0728 -0.512836 59.8739 -2.96044C59.8658 -3.01961 59.8093 -3.27781 59.8254 -3.08146L59.8308 -3.06804Z" fill="#ADC584"/>
<path d="M61.4961 -1.98698C61.2296 0.272463 60.5918 2.38406 59.4132 4.35324C59.3378 4.47699 59.5019 4.84814 59.4939 4.86697C60.7155 2.84936 61.4421 0.608643 61.5472 -1.74221C61.5445 -1.78793 61.4988 -2.01925 61.488 -1.96814L61.4961 -1.98698Z" fill="#ADC584"/>
<path d="M62.6777 0.847585C62.6777 0.847585 62.6776 0.769174 62.6641 0.774582C62.6506 0.779989 62.6642 0.852992 62.6777 0.847585Z" fill="#ADC584"/>
<path d="M57.6975 37.7055C57.641 37.7593 57.7513 37.996 57.7378 38.0013C62.1237 34.6085 68.9415 37.2938 69.3798 43.0309C69.3879 43.09 69.4551 43.3752 69.4336 43.1654C69.1649 37.0328 62.635 33.7019 57.684 37.7109L57.6975 37.7055Z" fill="#ADC584"/>
<path d="M67.2172 45.5049C68.1994 42.7719 66.7978 39.5419 64.3171 38.1788C64.3548 38.1949 64.2525 38.6415 64.3709 38.7033C66.674 40.0126 67.7662 42.5864 67.1553 45.2333C67.1365 45.3032 67.2118 45.4915 67.2037 45.5103L67.2172 45.5049Z" fill="#ADC584"/>
<path d="M66.5952 35.0201C66.5952 35.0201 66.5441 35.4774 66.6517 35.5123C69.6328 36.644 71.543 39.5457 71.1527 42.8219C71.1473 42.8864 71.2038 43.1446 71.2199 43.107C71.9143 39.6935 69.8885 36.1516 66.6087 35.0147L66.5952 35.0201Z" fill="#ADC584"/>
<path d="M73.2427 41.4529C73.2024 41.5471 73.3207 41.8429 73.3073 41.8483C74.2114 40.2073 76.0868 39.4726 77.9057 39.6496C80.1308 39.8669 81.6428 41.4615 83.1818 42.8894C83.1818 42.8894 83.2006 42.5075 83.1495 42.4187C81.0187 39.1216 75.269 36.6485 73.2373 41.4395L73.2427 41.4529Z" fill="#ADC584"/>
<path d="M79.217 41.8743C79.217 41.8743 79.1013 42.6382 79.3192 42.7538C80.6618 43.4958 81.999 44.3804 83.4572 44.9046C83.4572 44.9046 83.4761 44.5226 83.4223 44.4662C82.1147 43.4605 80.6376 42.6943 79.217 41.8743Z" fill="#ADC584"/>
<path d="M98.2349 74.6989C93.093 76.3194 87.9351 77.0416 82.5431 76.4378C77.3449 75.85 72.3916 74.2751 67.3548 72.9208C67.3548 72.9208 67.3414 73.0041 67.3602 73.0122C77.2211 76.4768 88.1717 79.2713 98.251 74.9733C98.2913 74.9571 98.2349 74.6989 98.216 74.6908L98.2349 74.6989Z" fill="#ADC584"/>
<path d="M132.965 20.569C132.965 20.569 132.992 20.3242 132.944 20.2812C130.404 17.2881 127.049 14.4029 122.916 14.3717C122.903 14.3771 122.897 14.5196 122.905 14.6568C120.293 14.2513 117.61 14.841 114.987 15.4227C114.96 15.4335 114.984 15.611 115.011 15.6002C118.25 15.0372 121.848 14.4715 125.004 15.6892C128.254 16.9471 130.334 19.6874 132.451 22.2878C132.446 22.2744 132.478 22.0431 132.438 21.9812C130.665 19.3834 128.426 16.7534 125.507 15.4254C125.13 15.2641 124.759 15.1163 124.385 15.0007C127.891 15.6104 130.304 18.2484 132.984 20.5771L132.965 20.569Z" fill="#ADC584"/>
<path d="M120.619 12.8418L120.646 13.0651C125.481 10.366 130.682 14.7436 133.921 18.0028C133.921 18.0028 133.945 17.7903 133.905 17.7284C131.166 13.8478 125.274 10.0433 120.627 12.823L120.619 12.8418Z" fill="#ADC584"/>
<path d="M128.433 12.1666C128.433 12.1666 128.371 12.6749 128.497 12.7179C129.361 12.9652 130.206 13.2823 131.002 13.7125C131.4 13.9276 131.772 14.1534 132.154 14.4061C132.479 14.6347 132.813 15.0004 133.222 15.0864C133.235 15.081 133.208 14.8578 133.203 14.8443C132.208 13.4486 130.039 12.6315 128.451 12.1746L128.433 12.1666Z" fill="#ADC584"/>
<path d="M97.9408 4.64806C93.356 3.33125 89.7723 0.225533 88.6883 -4.55116C88.6533 -4.67756 88.6695 -4.48122 88.6668 -4.44894C89.5087 0.112629 93.1838 4.30497 97.9515 4.83095C97.9515 4.83095 97.9596 4.65611 97.9219 4.63998L97.9408 4.64806Z" fill="#ADC584"/>
<path d="M99.4953 2.76122C95.9223 1.71044 92.9788 0.204923 91.1924 -3.24555C91.2193 -3.17831 91.1575 -2.82594 91.2355 -2.66996C92.7636 0.291053 96.011 3.14134 99.5411 3.07051C99.568 3.05975 99.5465 2.77196 99.5088 2.75583L99.4953 2.76122Z" fill="#ADC584"/>
<path d="M101.36 1.6891C98.9605 0.91775 96.9238 -0.0769368 95.3875 -2.16109C95.4037 -2.12075 95.3337 -1.74954 95.4279 -1.63121C96.7946 0.224354 99.0035 1.88336 101.395 1.97151C101.409 1.96613 101.406 1.68638 101.355 1.67563L101.36 1.6891Z" fill="#ADC584"/>
<path d="M99.0319 5.97346C99.0319 5.97346 98.9996 5.73675 98.9835 5.77441C98.3214 8.80053 99.8898 13.2274 103.18 14.0012C103.18 14.0012 103.197 13.8076 103.159 13.7915C100.385 11.8905 98.4855 9.7177 99.0184 5.97884L99.0319 5.97346Z" fill="#ADC584"/>
<path d="M101.155 5.30907C101.034 5.35757 100.913 5.40607 100.784 5.47342C100.757 5.4842 100.8 5.67005 100.813 5.66466C100.94 5.62963 101.061 5.58111 101.182 5.53261C101.223 5.51645 101.169 5.30369 101.155 5.30907Z" fill="#ADC584"/>
<path d="M104.951 67.8461C103.438 69.3715 101.601 70.5124 99.6553 71.3844C97.6561 72.2779 95.5493 72.9025 93.4291 73.4544C91.4622 73.9606 89.1536 74.8998 87.1411 74.2387C87.1411 74.2387 87.1249 74.4324 87.1626 74.4485C89.2155 75.1715 91.4434 74.4205 93.4802 73.9332C95.8291 73.3677 98.1485 72.6893 100.323 71.6478C104.577 69.6026 107.09 66.2882 109.046 62.089C109.084 62.0271 109.003 61.8254 108.998 61.812C107.781 63.921 106.675 66.1108 104.929 67.8703L104.951 67.8461Z" fill="#ADC584"/>
<path d="M133.983 34.5451C132.99 42.5553 126.134 47.4981 120.36 52.2577C117.457 54.6362 114.68 57.1356 112.583 60.2832C110.382 63.5975 108.736 67.2048 105.62 69.7931C105.579 69.8093 105.638 69.9572 105.638 69.9572C108.647 67.8799 110.272 64.6088 112.169 61.5878C114.612 57.7086 117.941 54.7544 121.506 51.9239C127.084 47.4925 133.329 42.4665 134.061 34.8571C134.067 34.7925 134 34.5074 134.002 34.5531L133.983 34.5451Z" fill="#ADC584"/>
<path d="M131.937 28.7638C135.13 41.698 119.739 49.338 112.601 57.2019C112.558 57.2504 112.655 57.4924 112.655 57.4924C119.836 49.268 135.587 41.983 131.961 28.5514C131.918 28.4438 131.934 28.7181 131.95 28.7585L131.937 28.7638Z" fill="#ADC584"/>
<path d="M129.753 27.7534C132.097 33.9607 128.424 39.7983 124.412 44.2428C120.994 48.0281 116.939 51.429 112.863 54.464C112.815 54.499 112.903 54.6819 112.895 54.7007C118.25 50.4523 123.873 46.5642 127.694 40.7453C130.235 36.8742 131.696 31.9838 129.77 27.5597C129.759 27.5328 129.756 27.7211 129.772 27.7614L129.753 27.7534Z" fill="#ADC584"/>
<path d="M133.891 24.3657C134.644 27.8083 134.792 31.2592 134.281 34.7399C134.278 34.7721 134.302 34.8716 134.31 34.8528C134.875 31.2726 134.784 27.6899 133.921 24.1666C133.886 24.0402 133.888 24.3199 133.905 24.3603L133.891 24.3657Z" fill="#ADC584"/>
<path d="M134.532 25.0307C134.712 25.6762 134.892 26.3217 135.086 26.9618C135.142 27.142 135.121 26.6982 135.094 26.6309C134.906 26.0042 134.731 25.3722 134.543 24.7455C134.497 24.5922 134.524 24.9715 134.532 25.0307Z" fill="#ADC584"/>
<path d="M127.412 24.3985C129.292 29.3713 128.996 34.8719 126.216 39.4317C124.123 42.859 120.915 45.5306 117.748 47.9522C117.7 47.9872 117.789 48.1701 117.775 48.1754C122.288 44.7476 126.733 41.0346 128.199 35.2998C129.133 31.6657 128.872 27.6984 127.412 24.2425C127.401 24.2156 127.401 24.3716 127.412 24.3985Z" fill="#ADC584"/>
<path d="M115.296 18.4202C115.296 18.4202 115.296 18.5762 115.31 18.5709C118.555 18.6454 121.595 19.1449 123.906 21.6054C123.906 21.6054 123.92 21.444 123.885 21.3956C121.765 18.5934 118.531 18.4679 115.278 18.4122L115.296 18.4202Z" fill="#ADC584"/>
<path d="M133.193 2.56915C132.509 6.32149 130.05 9.53638 126.436 10.9198C122.405 12.4701 117.885 10.7686 114.36 13.817C114.32 13.8331 114.393 13.9757 114.379 13.9811C118.122 11.0483 123.39 13.2929 127.518 11.2046C130.695 9.59 132.869 6.36444 133.254 2.8408C133.26 2.77624 133.203 2.51807 133.187 2.55573L133.193 2.56915Z" fill="#ADC584"/>
<path d="M43.0196 51.5357C43.0196 51.5357 43.0062 51.7751 43.0196 51.8477C44.1925 55.2472 46.0543 58.34 48.6533 60.8569C48.6533 60.8569 48.6775 60.7224 48.6479 60.6874C46.1834 57.9606 44.2975 55.0024 43.0196 51.5357Z" fill="#ADC584"/>
<path d="M49.3694 58.1985C47.6798 56.7061 45.0673 54.8966 44.793 52.4947C44.7554 52.2446 44.6962 52.2526 44.7204 52.5082C44.9651 54.5631 46.3534 55.8484 47.8251 57.2252C49.8887 59.1451 52.0868 60.9333 54.441 62.4873C54.441 62.4873 54.4679 62.3205 54.4248 62.291C52.7083 60.9654 51.0187 59.629 49.3829 58.1931L49.3694 58.1985Z" fill="#ADC584"/>
<path d="M51.9591 56.4441C51.9591 56.4441 51.9053 56.7776 51.9833 56.8556C53.1187 57.7429 54.1464 58.7513 55.1177 59.8135C55.1123 59.8001 55.1581 59.5634 55.0989 59.4935C54.1653 58.3694 53.1053 57.3583 51.9645 56.4575L51.9591 56.4441Z" fill="#ADC584"/>
<path d="M83.2623 18.4777C80.082 19.5006 77.1653 20.0904 73.7967 19.7846C70.4792 19.4896 67.237 18.6028 64.0514 17.6622C58.0245 15.8616 50.8892 13.4749 44.8459 16.5481C44.7921 16.5697 44.8566 16.887 44.8889 16.8897C51.481 15.2661 57.7043 16.5825 64.1428 18.3588C69.9841 19.9685 77.6441 22.2232 83.3161 18.9242C83.3834 18.8972 83.2892 18.4669 83.2623 18.4777Z" fill="#ADC584"/>
<path d="M75.6491 21.4117C71.8607 21.3831 68.2984 20.7492 64.6366 19.8276C61.0258 18.9167 57.3936 17.952 53.6374 18.1601C53.6105 18.1708 53.632 18.4586 53.6778 18.4559C57.4581 18.5033 61.0715 19.382 64.7011 20.301C68.2473 21.2065 72.006 22.2142 75.6814 21.6484C75.7083 21.6376 75.6814 21.4144 75.6491 21.4117Z" fill="#ADC584"/>
<path d="M83.8678 16.2836C80.5556 17.4841 77.7707 18.4424 74.168 18.1367C71.0308 17.8631 68.0308 16.8794 65.1493 15.6456C65.1681 15.6536 65.0846 16.1082 65.2165 16.1646C70.6837 18.5168 78.6935 20.6316 83.9216 16.5741C83.9619 16.558 83.9001 16.2863 83.8866 16.2917L83.8678 16.2836Z" fill="#ADC584"/>
<path d="M83.2062 14.7078C79.6357 16.1208 76.2831 16.8694 72.4571 16.1226C72.4571 16.1226 72.4329 16.4131 72.4894 16.4373C76.0436 17.246 80.0527 17.0459 83.26 15.1542C83.3407 15.122 83.225 14.7158 83.2116 14.7212L83.2062 14.7078Z" fill="#ADC584"/>
<path d="M82.5313 13.5287C80.0721 13.7015 77.6101 14.5306 75.1536 14.827C75.1267 14.8378 75.1428 15.1122 75.1885 15.1095C77.5697 14.9367 80.3626 14.8957 82.5958 14.0021C82.6631 13.9752 82.5905 13.5206 82.5447 13.5233L82.5313 13.5287Z" fill="#ADC584"/>
<path d="M81.4069 11.8099C80.963 11.9094 80.5325 12.1597 80.0858 12.2916C79.6257 12.4288 79.1601 12.4745 78.6919 12.4744C78.665 12.4852 78.6679 12.9214 78.7459 12.9214C79.6151 12.9486 80.775 12.8438 81.461 12.2569C81.5174 12.2031 81.4473 11.7937 81.4069 11.8099Z" fill="#ADC584"/>
<path d="M69.7731 26.3836C67.7578 27.0808 66.2994 29.4428 65.6266 31.35C65.5513 31.5517 65.7799 32.1622 65.7638 32.1999C66.2481 31.2261 66.7621 30.2872 67.4509 29.4344C68.1828 28.5332 69.0708 27.7879 69.8565 26.9431C69.913 26.8893 69.8081 26.3541 69.7812 26.3648L69.7731 26.3836Z" fill="#ADC584"/>
<path d="M86.5024 11.5174C86.0853 12.6983 86.0475 13.9302 86.2708 15.1513C86.4026 15.9098 86.6501 16.5284 86.9487 17.2357C87.4061 18.3007 87.1747 18.1905 86.4993 19.1939C84.9198 21.5263 84.6209 24.3291 85.1051 27.0214C82.2719 26.6106 79.3903 26.8588 76.7103 27.8843C76.0915 28.1319 75.5022 28.4924 74.8726 28.7132C73.8609 29.0711 73.8448 29.0308 73.2421 28.3047C72.3973 27.2855 71.905 26.2501 70.7965 25.43C70.7965 25.43 70.7131 26.1186 70.8637 26.2611C72.1363 27.5304 73.1129 28.762 73.8043 30.451C73.8151 30.4779 73.8259 30.5048 73.8635 30.5209C77.3964 28.3897 81.3759 27.6087 85.4521 28.2398C85.5678 28.2559 85.4199 27.3011 85.401 27.215C84.8173 25.0149 85.2829 22.707 86.405 20.7917C86.8598 20.0169 87.6401 19.3927 87.7558 18.4728C87.7908 18.2092 87.7559 17.9268 87.7048 17.682C87.2313 15.5626 85.9049 15.485 86.6826 12.397C86.7472 12.1683 86.5293 11.5847 86.5482 11.5147L86.5024 11.5174Z" fill="#ADC584"/>
<path d="M95.6556 13.643C94.3237 13.9419 93.1829 14.7571 91.7811 14.9592C91.2214 15.0427 89.0178 14.8012 88.8133 15.2263C88.7514 15.3446 88.7917 15.7965 88.8886 15.8825C88.9128 15.9041 88.937 15.9256 88.9612 15.9471C88.9666 15.9605 88.9666 15.9605 88.9882 15.9363C89.0097 15.9121 89.0393 15.869 89.0608 15.8448C89.3702 15.799 89.7657 15.9684 90.0429 15.9979C90.7317 16.0811 91.4232 16.054 92.12 15.9624C93.3819 15.8007 94.8564 15.4292 95.747 14.4956C95.8331 14.3987 95.739 13.5784 95.6395 13.6026L95.6556 13.643Z" fill="#ADC584"/>
<path d="M91.1572 8.64112C90.5948 9.06893 90.2476 10.0346 89.8225 10.6103C89.1982 11.4685 88.4879 12.2675 87.7237 13.0101C87.5891 13.1419 87.8393 13.8062 87.8124 13.817C89.2197 12.7703 90.7803 11.2099 91.262 9.48837C91.2836 9.38616 91.1787 8.61691 91.1437 8.64651L91.1572 8.64112Z" fill="#ADC584"/>
<path d="M86.5233 7.04661C86.4883 7.15423 86.5932 7.37744 86.577 7.41512C86.6957 7.00884 86.8224 6.58372 86.941 6.17744C86.968 6.08865 86.8738 5.89234 86.8954 5.86812C86.7714 6.26095 86.6473 6.65378 86.5233 7.04661Z" fill="#ADC584"/>
<path d="M84.1213 1.78507C83.8899 2.06486 83.863 2.54363 83.7688 2.89332C83.6369 3.38288 83.4728 3.86978 83.2952 4.36204C82.9453 5.28202 82.5202 6.16974 82.0331 7.01982C81.9712 7.13819 82.1273 7.52817 82.1138 7.53355C83.1444 6.01359 84.1266 4.13858 84.2235 2.27457C84.2289 2.21001 84.1509 1.74202 84.1213 1.78507Z" fill="#ADC584"/>
<path d="M84.1971 0.489982C79.4535 1.31155 75.5306 0.868742 71.0751 -0.983354C71.0751 -0.983354 71.0508 -0.614828 71.1127 -0.577187C74.7718 2.01479 80.0453 2.86875 84.2993 1.3695C84.4203 1.32105 84.2832 0.471132 84.1971 0.489982Z" fill="#ADC584"/>
<path d="M82.306 2.35727C81.1948 2.11548 79.9248 2.37398 78.776 2.27206C77.5948 2.16746 76.4567 1.93644 75.3266 1.60858C75.3266 1.60858 75.2297 2.45858 75.4261 2.52039C76.5562 2.84825 77.7131 3.08734 78.8755 3.18388C79.9732 3.27505 81.3642 3.43605 82.3786 2.96778C82.4594 2.93549 82.3894 2.3707 82.306 2.35727Z" fill="#ADC584"/>
<path d="M78.5461 33.8401C76.8915 32.4741 74.7282 33.1525 72.7802 33.3547C71.6259 33.4734 70.5873 33.4521 69.6107 32.7665C68.6394 32.0943 68.252 31.2041 66.9282 31.4061C66.869 31.4142 66.9255 31.9844 66.9901 31.9898C68.2547 31.9518 68.747 32.9872 69.6752 33.6299C70.4743 34.1837 71.3945 34.2991 72.3496 34.229C74.5479 34.067 76.5471 32.9395 78.5811 34.3565C78.5811 34.3565 78.643 33.9261 78.5461 33.8401Z" fill="#ADC584"/>
<path d="M75.7919 32.0272C75.7919 32.0272 75.7919 31.9489 75.7784 31.9543C75.7649 31.9597 75.7784 32.0326 75.7919 32.0272Z" fill="#ADC584"/>
<path d="M74.9688 30.3578C74.9688 30.3578 74.9795 30.7747 75.0118 30.7774C75.6253 30.6723 76.2334 30.5538 76.8549 30.5859C77.4764 30.6181 78.0495 30.8412 78.6576 30.8787C78.7033 30.876 78.6684 30.4376 78.6199 30.3945C77.6218 29.6551 76.0262 29.7631 74.9688 30.3578Z" fill="#ADC584"/>
<path d="M78.7403 32.2963C77.4785 31.5999 75.8345 31.5869 74.4354 31.7567C74.4084 31.7675 74.4273 32.0876 74.4784 32.0983C75.2129 32.1008 75.9421 32.1679 76.6739 32.2806C77.3735 32.3907 78.0757 32.6246 78.786 32.6835C78.8129 32.6728 78.7887 32.3393 78.7457 32.3097L78.7403 32.2963Z" fill="#ADC584"/>
<path d="M79.1686 34.4967C77.1964 33.3513 74.6161 34.0406 72.9425 35.3966C72.894 35.4316 72.9774 35.679 72.9774 35.679C73.9488 35.1812 74.9309 34.8662 76.0152 34.7288C77.1049 34.6048 78.1327 34.8331 79.2089 34.8705C79.2358 34.8598 79.2116 34.5262 79.1686 34.4967Z" fill="#ADC584"/>
<path d="M94.1695 26.1548C91.4277 26.7526 89.1325 28.6225 87.4911 30.8393C86.6112 32.0338 85.8309 33.438 84.499 34.2049C83.194 34.961 81.7168 34.8189 80.2693 34.8676C80.2235 34.8703 80.2531 35.3733 80.3231 35.3921C83.4441 36.0934 85.1527 34.9417 86.8614 32.464C88.8284 29.6178 91.0779 27.9846 94.1991 26.5797C94.2663 26.5528 94.1775 26.1359 94.1506 26.1467L94.1695 26.1548Z" fill="#ADC584"/>
<path d="M94.0724 20.686C94.0724 20.686 94.0589 20.9254 94.0858 20.9926C94.9979 22.5309 94.7664 24.3708 93.5232 25.6326C93.4802 25.681 93.5609 25.8827 93.5474 25.8881C94.9493 24.672 95.2804 22.1839 94.0589 20.6914L94.0724 20.686Z" fill="#ADC584"/>
<path d="M67.0008 0.458129C66.8205 1.13868 66.6402 1.81924 66.4599 2.49979C66.4491 2.47289 66.4383 2.44598 66.4464 2.42715C66.3791 2.61007 66.2849 2.80377 66.2042 2.99207C66.1746 2.87911 66.1558 2.79303 66.1558 2.79303C66.0858 2.93022 66.0293 3.06202 65.9728 3.19383C65.9378 3.06743 65.9082 2.95447 65.8948 3.03785C65.7172 3.76413 65.5395 4.49041 65.3619 5.21668C65.3404 5.3189 65.3834 5.50446 65.4292 5.65777C65.3646 5.5744 65.3 5.49105 65.2489 5.4023C65.0875 4.99888 65.0256 4.49323 64.9907 3.89881C64.988 3.85308 64.8858 3.36358 64.8616 3.42007C64.5306 4.03611 64.1377 4.61449 63.6964 5.14986C63.5323 5.16873 63.4839 5.28169 63.4489 5.46729C63.4489 5.46729 63.4408 5.48615 63.4327 5.50498C63.4381 5.51843 63.4327 5.58298 63.4408 5.64215C63.0533 5.99998 62.6309 6.2314 62.0685 6.4252C61.9744 6.46288 62.0551 7.21062 62.1573 7.23211C62.2407 7.24553 62.3053 7.25088 62.3887 7.26431C62.386 7.45259 62.4021 7.64896 62.4828 7.69467C62.4909 7.90984 62.5447 8.20031 62.6146 8.21912C63.777 8.47166 64.9339 8.55476 66.1232 8.48453C66.1635 8.46838 66.1662 8.2801 66.1367 8.08914C66.4272 8.26928 66.7393 8.4252 67.0945 8.5327C67.0945 8.5327 67.116 8.19644 67.0837 7.95975C67.1133 7.99471 67.1483 8.04312 67.1779 8.07808C67.1779 8.07808 67.1833 8.01352 67.1779 7.92207C67.4281 8.11836 67.7133 8.28506 68.047 8.41677C68.0093 8.40064 68.1627 7.57486 67.9421 7.49154C67.9044 7.47541 67.8856 7.46736 67.8479 7.45123C67.8318 7.41089 67.821 7.38399 67.8103 7.35709C67.5816 7.05859 67.3448 6.7789 67.1081 6.49923C67.0274 6.06351 66.8794 5.65473 66.6131 5.2621C66.6077 4.39063 66.7585 3.20708 67.0114 2.43506C67.0383 2.3463 67.0168 2.21453 66.9953 2.08274C67.0437 1.81375 67.0976 1.55821 67.1326 1.29461C67.1568 1.08212 66.9739 0.546908 66.9793 0.482353L67.0008 0.458129ZM64.3583 5.86786C64.3583 5.86786 64.4175 5.93777 64.4336 5.97811C64.439 5.99156 64.4363 6.02385 64.4282 6.04268C64.3529 6.01043 64.2776 5.97813 64.1888 5.95126C64.1888 5.95126 64.1888 5.95127 64.178 5.92438C64.1726 5.91093 64.1646 6.00775 64.1619 6.11803C64.108 6.06156 64.0488 5.99164 63.995 5.93517C64.03 5.90558 64.0354 5.76304 64.022 5.61242C64.1108 5.48329 64.2184 5.36221 64.3206 5.2277C64.3206 5.3837 64.2856 5.72531 64.3664 5.84902L64.3583 5.86786ZM64.9799 5.04196L64.926 5.14148C64.9233 5.40776 64.9341 5.66868 64.9583 5.9242C64.7431 5.69831 64.5278 5.4724 64.3287 5.20885C64.5278 4.92638 64.7027 4.62241 64.8777 4.31842C64.8965 4.56049 64.9341 4.81065 64.9664 5.04734L64.9799 5.04196ZM66.3978 4.88019C66.344 4.82372 66.3413 5.09 66.3413 5.09C66.352 5.2729 66.3574 5.44236 66.3816 5.61987C66.3655 5.57953 66.3278 5.56342 66.2982 5.52846C66.239 5.38054 66.2068 5.22186 66.1557 5.05511C66.2714 4.75921 66.3871 4.46328 66.484 4.15932C66.4786 4.45788 66.492 4.7645 66.5189 5.06574C66.4785 5.00389 66.4382 4.94204 66.3844 4.88557L66.3978 4.88019Z" fill="#ADC584"/>
<path d="M60.0907 27.4977C60.3864 28.7054 60.5233 29.9455 60.5282 31.2071C60.5577 31.5541 60.5737 31.9065 60.5762 32.2643C60.8644 32.2426 61.1471 32.2075 61.4299 32.1723C61.3654 31.933 61.3143 31.6882 61.2633 31.4434C61.2686 31.4569 61.2794 31.4838 61.2713 31.5026C61.1503 31.005 61.0212 30.5263 60.8733 30.0395C60.6394 29.1814 60.365 28.3396 60.0853 27.4843L60.0907 27.4977Z" fill="#ADC584"/>
<path d="M60.2172 29.8822C60.1796 29.632 60.1286 29.3873 60.0856 29.1237C60.0881 29.4815 60.0907 29.8392 60.0663 30.2078C60.2086 31.3053 60.4421 33.3335 60.319 31.1519C60.303 30.7995 60.2735 30.4525 60.236 30.1243C60.2225 30.0517 60.228 29.9871 60.2145 29.9145C60.2145 29.9145 60.2091 29.901 60.2038 29.8876L60.2172 29.8822Z" fill="#ADC584"/>
<path d="M60.2307 26.1335C59.9751 25.6118 59.6845 25.1197 59.3669 24.6384C59.8269 25.9051 60.2465 27.188 60.6256 28.4871C60.4832 27.7017 60.3408 26.9163 60.2307 26.1335Z" fill="#ADC584"/>
<path d="M60.4492 26.6368C60.6131 27.6321 60.8416 28.6326 61.0189 29.6225C61.0996 29.9022 61.1534 30.1927 61.1883 30.4751C61.2877 30.8409 61.3872 31.2067 61.4733 31.5779C61.5002 31.6451 61.5135 31.9518 61.5027 32.159L61.5296 32.1482C61.6239 32.1105 61.7181 32.0728 61.7989 32.0404C61.4521 30.666 61.0891 29.1732 60.8689 27.6857C60.7802 27.4248 60.6968 27.1774 60.5892 26.9084C60.5407 26.7874 60.4788 26.6718 60.4116 26.5427C60.4223 26.5696 60.4277 26.583 60.425 26.6153L60.4492 26.6368Z" fill="#ADC584"/>
<path d="M59.5741 27.1436C59.2567 26.1941 58.872 25.2717 58.393 24.3869C58.2827 24.2282 58.1589 24.075 58.0216 23.9271C58.7615 25.425 59.3588 26.9957 59.762 28.6284C59.7326 28.1253 59.6763 27.6331 59.5741 27.1436Z" fill="#ADC584"/>
<path d="M60.1738 32.2696C60.1363 31.8634 60.0853 31.4626 60.0208 31.0672C59.9937 31.468 59.9532 31.8743 59.8991 32.2859C59.9907 32.2805 60.0823 32.2751 60.1738 32.2696Z" fill="#ADC584"/>
<path d="M66.6177 22.671C66.1468 22.7034 65.5656 22.7331 64.9441 22.779C64.9226 22.5692 64.8661 22.389 64.8069 22.3971C62.6975 22.2739 60.588 22.1507 58.4894 22.0544C58.4625 22.0651 58.4544 22.24 58.4624 22.4552C58.4248 22.439 58.3925 22.4363 58.3548 22.4202C58.3171 22.4041 58.3655 23.2271 58.4409 23.3374C58.5996 23.5391 58.7449 23.7462 58.8902 23.9532C58.909 24.0393 58.9224 24.1119 58.9359 24.1845C58.8175 23.9667 58.6669 23.7462 58.5081 23.5445C58.2122 23.0389 57.9028 22.5387 57.5531 22.0546C57.5692 22.095 57.553 22.1326 57.5557 22.1783C57.5557 22.2563 57.5449 22.3854 57.5476 22.5092C57.3593 22.3505 57.1763 22.2053 56.9746 22.0521C56.9261 22.009 56.953 22.9343 57.0498 23.0983C58.3224 25.2256 59.2532 27.474 59.7831 29.8516C59.7642 30.7015 59.6861 31.5596 59.5839 32.3961C59.5704 32.4795 59.565 32.8561 59.608 33.1197C57.3936 34.4113 55.4912 36.2489 53.7853 38.2262C50.6236 41.9093 47.8117 45.6864 44.2195 48.9956C44.1711 49.0306 44.2437 49.3292 44.2572 49.3238C48.0618 47.5207 50.5159 43.5904 53.1125 40.4454C55.658 37.3677 58.6313 34.4621 62.4224 33.2104C63.1274 33.0999 63.8162 32.9491 64.513 32.7015C64.7014 32.6261 64.4754 31.3593 64.3624 31.3889C63.5391 31.5156 62.7481 31.7229 61.9839 31.9974C61.8764 30.7144 61.6558 29.4611 61.3142 28.2562C61.3357 28.3099 61.3464 28.3369 61.3518 28.3503C61.4487 28.5924 61.5401 28.821 61.637 29.063C61.6854 29.184 61.6801 28.3906 61.6182 28.1969C61.4675 27.8204 61.3303 27.4385 61.1931 27.0566C61.1205 26.758 61.0291 26.4514 60.9188 26.1368C60.8838 25.6203 60.9511 25.1254 61.2417 24.7596C62.5144 24.7807 63.7252 24.6083 64.9978 24.2395C65.0382 24.2233 65.0624 24.0888 65.0517 23.9059C65.6032 23.8412 66.1602 23.79 66.7225 23.7522C66.8275 23.7414 66.7361 22.6548 66.6042 22.6764L66.6177 22.671ZM59.3664 24.6363C59.6838 25.1177 59.9744 25.6098 60.23 26.1316C60.3456 26.9277 60.4828 27.6996 60.6253 28.485C60.246 27.1859 59.8264 25.9031 59.3664 24.6363ZM61.2629 31.4435C61.314 31.6883 61.3785 31.9276 61.4296 32.1724C61.1471 32.2074 60.8646 32.2425 60.5767 32.2641C60.574 31.9063 60.5579 31.554 60.5283 31.207C60.523 29.9455 60.3859 28.7056 60.09 27.498C60.3644 28.3398 60.6441 29.1951 60.8782 30.053C61.0127 30.5452 61.1472 31.0374 61.2763 31.5161C61.2709 31.5027 61.2602 31.4758 61.2682 31.457L61.2629 31.4435ZM60.3319 31.1452C60.4609 33.34 60.227 31.312 60.0791 30.2012C60.0898 29.8381 60.1006 29.4749 60.098 29.1172C60.1491 29.362 60.2055 29.6201 60.2297 29.8757C60.2297 29.8757 60.2351 29.8891 60.2405 29.9026C60.254 29.9752 60.2486 30.0397 60.262 30.1124C60.2997 30.4405 60.3292 30.7875 60.3454 31.1398L60.3319 31.1452ZM58.0157 23.9131C58.1529 24.061 58.2767 24.2143 58.387 24.3729C58.8712 25.2712 59.256 26.1937 59.568 27.1296C59.6649 27.6057 59.7267 28.1113 59.7563 28.6143C59.3528 26.9817 58.7556 25.4111 58.0157 23.9131ZM60.1731 32.2696C60.0816 32.275 59.9901 32.2803 59.8987 32.2857C59.9444 31.893 59.9848 31.4869 60.0198 31.0673C60.0844 31.4626 60.1355 31.8634 60.1731 32.2696ZM60.881 27.6807C61.1015 29.1681 61.4781 30.6554 61.8117 32.0351C61.7175 32.0728 61.6234 32.1105 61.5426 32.1428L61.5157 32.1536C61.5131 31.9518 61.4996 31.6452 61.4862 31.5726C61.4001 31.2014 61.2871 30.841 61.201 30.4699C61.1661 30.1874 61.0988 29.9024 61.0316 29.6173C60.8487 28.614 60.6254 27.627 60.4613 26.6318C60.4506 26.6049 60.4452 26.5914 60.4479 26.5592C60.4963 26.6802 60.5716 26.7904 60.6254 26.9249C60.7277 27.1804 60.8299 27.4359 60.9052 27.7022L60.881 27.6807Z" fill="#ADC584"/>
<path d="M120.841 21.8621C120.841 21.8621 120.801 22.1123 120.876 22.1445C122.908 23.1258 124.406 24.7258 125.41 26.7267C125.42 26.7536 125.418 26.5518 125.402 26.5115C124.519 24.3841 122.913 22.8272 120.841 21.8621Z" fill="#ADC584"/>
<path d="M127.264 8.15544C126.258 8.60488 123.742 10.2355 122.696 9.45301C122.696 9.45301 122.666 9.65209 122.709 9.68167C123.834 10.5421 126.204 9.09439 127.318 8.67989C128.935 8.07967 130.429 7.3262 131.04 5.61537C131.066 5.5266 130.967 5.2388 130.975 5.21997C130.178 6.73987 128.771 7.47455 127.259 8.14198L127.264 8.15544Z" fill="#ADC584"/>
<path d="M134.695 1.33028C136.298 6.1176 137.089 10.7464 136.214 15.7764C135.762 18.391 135.242 20.9544 135.293 23.6172C135.288 23.6818 135.363 24.026 135.363 23.792C135.334 19.4669 136.935 15.3163 136.841 10.9859C136.769 7.56723 135.927 4.17568 134.689 1.0048C134.673 0.964454 134.681 1.25766 134.695 1.33028Z" fill="#ADC584"/>
<path d="M133.863 4.98662C133.863 4.98662 133.844 5.21259 133.865 5.26638C135.165 8.3969 135.415 11.7132 134.43 14.9465C134.403 15.0353 134.489 15.2505 134.486 15.2828C135.592 11.923 135.45 8.17355 133.863 4.98662Z" fill="#ADC584"/>
<path d="M133.041 8.1213C132.936 9.30212 132.934 10.5044 132.893 11.6906C132.893 11.7686 132.998 12.3038 133.003 12.0833C133.049 10.8325 133.114 9.58988 133.114 8.34185C133.111 8.29612 133.06 7.97336 133.041 8.1213Z" fill="#ADC584"/>
<path d="M84.6474 73.3486C79.5865 72.0507 74.3183 71.2881 69.1793 70.3023C69.1793 70.3023 69.1551 70.5928 69.2116 70.617C74.3425 71.6217 79.4896 72.9007 84.6663 73.5906C84.6663 73.5906 84.6905 73.3781 84.6394 73.3674L84.6474 73.3486Z" fill="#ADC584"/>
<path d="M88.5861 71.8819C85.3386 71.0596 81.8947 70.7216 78.5906 70.1872C78.5906 70.1872 78.5529 70.6391 78.6498 70.6471C81.935 71.1735 85.3036 71.9472 88.6211 72.1643C88.6346 72.1589 88.6373 71.8926 88.5861 71.8819Z" fill="#ADC584"/>
<path d="M93.3784 68.8421C91.277 69.4801 89.2995 69.2573 87.2223 68.6688C84.8412 67.9835 82.4385 67.3225 80.052 66.6237C80.052 66.6237 80.0358 66.8174 80.0735 66.8335C84.4914 68.2015 89.3801 70.7851 94.0161 69.0705C98.3104 67.4771 101.152 63.501 103.541 59.7993C103.571 59.7563 103.512 59.6083 103.512 59.6083C100.802 63.3289 98.0144 67.4395 93.365 68.8475L93.3784 68.8421Z" fill="#ADC584"/>
<path d="M105.36 60.6786C105.36 60.6786 105.36 60.6002 105.347 60.6056C105.333 60.611 105.347 60.684 105.36 60.6786Z" fill="#ADC584"/>
<path d="M106.526 12.3355C103.494 11.5052 101.102 8.99895 101.196 5.68517C101.199 5.6529 101.153 5.4216 101.145 5.51843C100.97 8.7865 103.147 12.0809 106.542 12.5319C106.542 12.5319 106.558 12.3382 106.526 12.3355Z" fill="#ADC584"/>
<path d="M111.411 11.129C107.916 10.7023 104.86 8.75834 103.751 5.28617C103.676 5.09791 103.708 5.56862 103.741 5.6493C104.801 8.92244 107.876 11.5764 111.446 11.3334C111.46 11.3281 111.449 11.1452 111.43 11.1371L111.411 11.129Z" fill="#ADC584"/>
<path d="M115.038 9.03682C111.963 8.95691 109.168 7.78218 107.75 4.90184C107.723 4.8346 107.707 5.2623 107.763 5.36449C109.036 7.95976 112.089 10.0139 115.073 9.31924C115.1 9.30848 115.071 9.0395 115.038 9.03682Z" fill="#ADC584"/>
<path d="M117.653 7.61541C114.456 7.50594 111.58 6.67555 109.479 4.11546C109.479 4.11546 109.46 4.2634 109.495 4.3118C111.386 6.65946 114.61 8.39621 117.682 7.80638C117.696 7.801 117.685 7.61811 117.658 7.62887L117.653 7.61541Z" fill="#ADC584"/>
<path d="M115.061 11.2766C114.189 11.5942 113.29 11.6886 112.378 11.4763C112.378 11.4763 112.351 11.721 112.402 11.7318C113.306 11.9629 114.24 11.9169 115.082 11.4863C115.122 11.4702 115.074 11.2712 115.061 11.2766Z" fill="#ADC584"/>
<path d="M123.162 5.42849C119.314 6.65598 115.606 6.67308 112.44 3.79049C112.44 3.79049 112.41 3.98954 112.459 4.03256C115.192 6.57367 119.852 7.76673 123.183 5.63831C123.224 5.62216 123.175 5.42311 123.162 5.42849Z" fill="#ADC584"/>
<path d="M119.957 8.45808C119.957 8.45808 119.936 9.02832 120.027 9.02292C123.426 9.12965 126.52 7.18955 127.76 4.00997C127.793 3.93465 127.707 3.7195 127.715 3.70067C126.248 6.70547 123.329 8.57558 119.971 8.4527L119.957 8.45808Z" fill="#ADC584"/>
<path d="M117.637 22.163C112.641 19.6224 106.356 21.4665 102.516 25.1713C102.489 25.182 102.527 25.2761 102.527 25.2761C107.007 21.6116 112.283 21.3413 117.678 22.5368C117.678 22.5368 117.699 22.2006 117.637 22.163Z" fill="#ADC584"/>
<path d="M108.742 24.7409L108.769 24.8861C110.346 23.132 113.303 23.6181 115.356 24.1071C117.613 24.6391 119.561 25.7629 121.374 27.1746C121.374 27.1746 121.407 26.9433 121.353 26.8868C118.681 24.2273 111.799 21.1466 108.742 24.7409Z" fill="#ADC584"/>
<path d="M113.71 18.0418C113.005 18.0739 112.276 18.3969 111.608 18.6014C111.554 18.623 111.622 18.9084 111.641 18.9165C112.327 18.7201 113.099 18.5829 113.721 18.2249C113.748 18.2141 113.729 18.0498 113.696 18.0471L113.71 18.0418Z" fill="#ADC584"/>
<path d="M76.022 68.2524C74.0121 67.7929 71.9323 67.5487 69.8821 67.2614C69.8821 67.2614 69.8713 67.4686 69.9036 67.4712C71.935 67.8285 73.9798 68.2583 76.0327 68.4353C76.0327 68.4353 76.0408 68.2604 76.0085 68.2578L76.022 68.2524Z" fill="#ADC584"/>
<path d="M73.143 65.8925C73.143 65.8925 73.143 65.8141 73.1295 65.8195C73.1159 65.8249 73.1295 65.8979 73.143 65.8925Z" fill="#ADC584"/>
<path d="M77.1322 42.1619C75.5738 41.8168 73.9218 42.4466 72.7839 43.5424C72.7355 43.5774 72.8136 43.8117 72.8136 43.8117C74.218 42.9529 75.5338 42.6139 77.1538 42.3719C77.1807 42.3612 77.1645 42.1646 77.1322 42.1619Z" fill="#ADC584"/>
<path d="M22.226 1.94753L22.2422 2.14413C23.6574 1.39042 25.0969 0.658249 26.4313 -0.219366C26.4717 -0.235514 26.4043 -0.442888 26.4043 -0.442888C24.9621 0.243494 23.582 1.12378 22.226 1.94753Z" fill="#ADC584"/>
<path d="M45.812 15.1785C44.8675 16.7576 43.5303 17.1991 42.0073 17.9956C41.967 18.0117 41.9993 18.2485 42.0369 18.2646C45.5831 19.6381 47.187 13.6612 47.3782 11.2914C47.3836 11.2269 47.2948 10.888 47.3002 10.9015C46.6651 12.2788 46.6381 13.8496 45.8309 15.1866L45.812 15.1785Z" fill="#ADC584"/>
<path d="M81.7416 10.1918C79.0135 8.4442 75.6636 9.62853 72.7335 10.1457C69.685 10.679 66.6096 10.2091 63.5531 9.98128C63.5531 9.98128 63.5343 10.2072 63.58 10.2045C66.6796 10.774 69.6688 11.4967 72.8357 11.0252C76.0348 10.5564 78.6286 9.93982 81.8142 10.8804C81.8142 10.8804 81.8466 10.2591 81.7363 10.1784L81.7416 10.1918Z" fill="#ADC584"/>
<path d="M86.6438 22.5197C86.3316 23.3778 86.0894 24.2547 85.936 25.1585C86.2562 24.3596 86.4312 23.2755 86.6438 22.5197Z" fill="#ADC584"/>
<path d="M86.6438 22.5197C86.3316 23.3778 86.0894 24.2547 85.936 25.1585C86.2562 24.3596 86.4312 23.2755 86.6438 22.5197Z" fill="#ADC584"/>
<path d="M86.9528 11.9429C86.9958 12.2845 87.0442 12.6395 87.1007 12.9757C87.0415 12.6718 87.0012 12.3759 86.942 12.072C86.9367 11.9805 86.7887 11.1817 86.7457 11.3862C86.6084 12.3303 86.6514 13.2179 86.8208 14.1485C86.9257 14.6837 87.0898 15.2109 87.2082 15.7407C87.5902 17.5535 87.3076 18.6806 86.5945 20.2919C86.4734 20.5743 86.3442 20.8757 86.2231 21.1581C86.2797 20.7923 86.3146 20.4507 86.3712 20.0848C86.4088 19.867 86.1936 19.2511 86.199 19.1865C85.4805 21.4864 85.0768 23.832 84.9932 26.2366C84.143 26.608 82.9188 26.3958 82.0605 26.4741C80.96 26.5712 79.8756 26.7866 78.8102 27.0881C77.75 27.4031 76.7141 27.8176 75.7428 28.3154C74.758 28.8187 74.3301 29.4266 73.5284 28.437C73.4342 28.3187 73.3401 28.2004 73.2459 28.0821C72.4711 26.3017 71.2308 24.8791 69.5735 23.9354C69.7968 23.9865 70.0147 24.0241 70.238 24.0751C73.386 24.6876 76.7627 25.5206 79.935 24.5945C85.4992 22.9765 85.7848 16.981 84.8999 12.1559C84.8299 11.7471 84.7788 12.2044 84.8111 12.363C85.2575 15.7412 85.338 19.921 82.2894 22.1704C80.274 23.6476 77.6776 23.9065 75.2749 23.7134C72.6785 23.5043 70.1251 22.9347 67.5502 22.5453C64.9565 22.1479 62.2229 21.4789 59.5941 21.6571C59.5672 21.6678 59.5753 22.039 59.6399 22.0444C62.5968 22.2965 65.5295 23.073 68.4542 23.7125C68.4542 23.9465 68.4569 24.2262 68.5376 24.2719C69.0246 24.5919 69.4819 24.9549 69.9393 25.3179C71.0989 26.7727 72.3069 28.1926 73.5364 29.5882C73.5364 29.5882 73.5472 29.5371 73.5472 29.4591C73.6925 29.6662 73.8593 29.8491 74.0019 29.9324C74.5373 30.2174 74.7741 29.873 75.2826 29.6228C78.5572 28.0162 81.8317 27.2676 85.4936 27.5652C85.4936 27.5652 85.507 27.5598 85.5205 27.5544C85.5528 27.4791 85.5662 27.3957 85.5985 27.3204C85.6201 27.3742 85.6228 27.4199 85.6389 27.4603C85.203 28.3211 84.8128 28.6332 83.8576 28.7034C82.9617 28.7655 82.0549 28.7227 81.1616 28.7525C81.1347 28.7632 81.1509 29.1156 81.202 29.1263C82.6764 29.3008 84.8504 30.0534 85.6738 28.4447C86.5161 26.7661 87.022 24.8321 87.4661 23.0164C87.4957 22.8953 87.3773 22.5995 87.38 22.5672C86.8741 24.1112 86.4354 25.7844 85.7277 27.2532C85.7385 27.1241 85.7439 26.9815 85.7412 26.8578C86.4785 24.4879 87.2294 22.1127 87.9721 19.7563C88.0421 19.5411 87.8161 18.7423 87.8161 18.7423C87.7031 18.9279 87.6089 19.1216 87.5147 19.3153C87.6923 18.667 87.7543 18.0027 87.7032 17.2899C87.7005 17.1662 87.6736 17.0209 87.6575 16.9026C87.6682 16.9295 87.6736 16.9429 87.6844 16.9698C87.8135 17.3706 87.7705 16.5609 87.7517 16.4749C87.6333 15.633 87.5284 14.7858 87.4101 13.9439C87.5311 14.5195 87.6791 15.0843 87.819 15.6679C87.9293 16.1386 87.9051 15.4151 87.8782 15.2699C87.6173 14.0326 87.3375 12.7874 87.0631 11.5555C86.9287 10.9854 86.9474 11.7734 86.9716 11.9509L86.9528 11.9429ZM85.9538 25.1659C86.1072 24.2621 86.3306 23.3771 86.6616 22.5271C86.449 23.2829 86.2741 24.3669 85.9538 25.1659Z" fill="#ADC584"/>
<path d="M19.9009 10.0203C19.9009 10.0203 19.9197 10.1064 19.917 10.0606C19.8822 7.59415 21.9056 5.63015 23.547 4.03741C23.5739 4.02665 23.5308 3.91907 23.5255 3.90562C21.6473 5.5307 19.8418 7.3763 19.9009 10.0203Z" fill="#ADC584"/>
<path d="M46.1182 2.6059L46.1531 2.81032C46.8205 1.74771 47.4474 0.623229 47.8323 -0.560351C47.8565 -0.616841 47.7919 -0.7782 47.7919 -0.7782C47.2726 0.381206 46.7747 1.5164 46.1101 2.62474L46.1182 2.6059Z" fill="#ADC584"/>
<path d="M48.6317 0.928599C48.6317 0.928599 48.6318 0.850226 48.6182 0.855633C48.6047 0.86104 48.6182 0.934007 48.6317 0.928599Z" fill="#ADC584"/>
<path d="M49.4106 0.181528C49.4106 0.181528 49.4106 0.103159 49.397 0.108566C49.3835 0.113973 49.397 0.186936 49.4106 0.181528Z" fill="#ADC584"/>
<path d="M65.8413 61.4532C65.47 61.3053 65.0126 61.3323 64.6252 61.2222C64.2243 61.1174 63.853 60.9695 63.4924 60.7706C63.5113 60.7787 63.4386 61.1041 63.5381 61.1579C63.8987 61.3568 64.2754 61.5181 64.6762 61.6229C65.026 61.717 65.5265 61.8755 65.8763 61.7356C65.9166 61.7194 65.879 61.4693 65.8413 61.4532Z" fill="#ADC584"/>
<path d="M64.9448 59.7978C64.9448 59.7978 64.9447 59.7194 64.9312 59.7248C64.9177 59.7302 64.9312 59.8032 64.9448 59.7978Z" fill="#ADC584"/>
<path d="M64.8344 57.9218C64.8344 57.9218 64.8344 57.8434 64.8209 57.8488C64.8073 57.8542 64.8209 57.9272 64.8344 57.9218Z" fill="#ADC584"/>
<path d="M66.4836 56.781C65.5796 56.3159 64.5141 56.0714 63.5536 55.7381C63.5536 55.7381 63.5348 55.9641 63.5859 55.9748C64.0729 56.1388 64.5599 56.3027 65.0522 56.4801C65.5258 56.6495 66.0155 56.8591 66.5025 56.9451C66.5025 56.9451 66.5079 56.8025 66.4836 56.781Z" fill="#ADC584"/>
<path d="M66.6194 55.3223C65.7477 54.7819 64.7226 54.4432 63.7809 54.04C63.7997 54.048 63.7351 54.4327 63.8293 54.473C64.7333 54.8601 65.6911 55.3817 66.6544 55.6047C66.6544 55.6047 66.6625 55.3519 66.6194 55.3223Z" fill="#ADC584"/>
<path d="M66.6643 52.8237C65.658 52.5711 64.6625 52.2674 63.7235 51.8319C63.7235 51.8319 63.6939 52.0309 63.7504 52.0551C64.684 52.4772 65.6769 52.8131 66.6912 52.9689C66.6912 52.9689 66.702 52.8398 66.6831 52.8317L66.6643 52.8237Z" fill="#ADC584"/>
<path d="M64.3554 50.8769C64.3554 50.8769 64.3554 50.7985 64.3419 50.8039C64.3283 50.8093 64.3419 50.8823 64.3554 50.8769Z" fill="#ADC584"/>
<path d="M66.1088 49.832C65.764 49.6732 65.4246 49.5277 65.0799 49.3688C65.0799 49.3688 65.0583 49.5493 65.1014 49.5789C65.4408 49.7243 65.7937 49.8644 66.1331 50.0098C66.1331 50.0098 66.1465 49.8482 66.1088 49.832Z" fill="#ADC584"/>
<path d="M65.3168 47.9335C65.3168 47.9335 65.3168 47.8551 65.3033 47.8605C65.2898 47.8659 65.3033 47.9389 65.3168 47.9335Z" fill="#ADC584"/>
<path d="M67.1273 46.8807C66.6483 46.698 66.1587 46.5663 65.6528 46.4723C65.6528 46.4723 65.6286 46.8408 65.6986 46.8596C66.1748 46.9966 66.6564 47.1471 67.1218 47.3353C67.329 47.424 67.5362 47.5127 67.7299 47.6068C67.9425 47.709 68.2061 47.8998 68.451 47.9267C68.4833 47.9294 68.4483 47.569 68.4187 47.534C68.0878 47.214 67.5631 47.0339 67.1407 46.8754L67.1273 46.8807Z" fill="#ADC584"/>
<path d="M66.495 0.285652C66.495 0.285652 66.5219 0.352873 66.5084 0.358256C67.383 -1.70768 68.0127 -3.95644 68.6156 -6.11644C68.6344 -6.18638 68.5644 -6.36123 68.5725 -6.38006C67.7733 -4.20386 67.0467 -1.96312 66.4896 0.272191L66.495 0.285652Z" fill="#ADC584"/>
<path d="M125.462 14.1809C123.791 13.0866 121.929 12.4119 120.027 12.1434C119.992 12.017 119.955 11.9229 119.922 11.9202C118.246 11.6705 116.656 11.8699 115.146 12.3491C114.404 12.5214 113.664 12.7395 112.956 13.0382C110.944 13.3131 108.958 13.8112 106.999 14.5325C104.744 15.3723 102.161 16.3278 100.127 14.4428C98.0583 12.5094 97.8782 9.28984 96.4819 6.9313C96.4819 6.9313 96.455 7.33207 96.4738 7.41813C97.3588 11.4633 97.7809 17.784 103.275 17.7853C104.569 17.7823 105.866 17.513 107.139 17.1442C106.854 17.3675 106.568 17.5909 106.283 17.8142C102.298 20.9218 98.0846 23.965 95.6627 28.522C95.6251 28.5839 95.7112 28.799 95.7166 28.8125C98.5016 24.4221 102.96 21.4838 107.004 18.3681C107.922 17.6577 108.858 16.9555 109.824 16.2882C110.152 16.1725 110.486 16.0702 110.801 15.9598C112.283 15.4914 113.753 15.0284 115.235 14.56C117.856 14.2447 120.495 14.4054 123.151 14.9964C123.151 14.9964 123.191 14.5903 123.175 14.2379C124.025 14.5685 124.849 14.9879 125.618 15.5069C125.513 15.4396 125.78 14.4282 125.465 14.2266L125.462 14.1809ZM104.26 16.6581C101.534 16.9842 99.2178 16.0703 98.0583 13.4454C97.4072 11.9743 97.0011 10.062 96.7913 8.44556C96.5708 6.72418 97.3105 9.15819 97.4558 9.52126C97.7356 10.2205 97.9212 10.9575 98.1606 11.6729C98.7605 13.4453 99.5864 15.3924 101.368 16.2554C103.447 17.2796 105.689 16.2112 107.677 15.5249C108.541 15.2261 109.413 14.9865 110.3 14.7872C110.3 14.7872 110.306 14.8006 110.311 14.8141C110.091 14.9648 109.883 15.1101 109.676 15.2554C107.917 15.8502 106.111 16.4478 104.292 16.6608L104.26 16.6581Z" fill="#ADC584"/>
<path d="M112.188 26.3708C112.188 26.3708 112.183 26.4354 112.196 26.43C113.59 26.6367 114.943 26.7036 116.291 27.1471C117.741 27.6121 118.993 28.3595 120.222 29.2091C120.222 29.2091 120.233 29.08 120.203 29.0451C118.204 27.2085 114.908 25.7972 112.169 26.3628L112.188 26.3708Z" fill="#ADC584"/>
<path d="M121.701 25.6854C121.701 25.6854 121.687 25.7688 121.706 25.7768C123.137 26.7798 124.168 28.0679 124.886 29.6681C124.891 29.6815 124.894 29.5712 124.883 29.5443C124.203 27.9602 123.108 26.6668 121.687 25.6908L121.701 25.6854Z" fill="#ADC584"/>
<path d="M120.834 28.9818C120.834 28.9818 120.809 29.1943 120.85 29.2562C122.519 31.0064 123.765 32.8323 124.534 35.1453C124.545 35.1722 124.537 35.035 124.531 35.0216C123.878 32.7246 122.675 30.5383 120.826 29.0006L120.834 28.9818Z" fill="#ADC584"/>
<path d="M104.769 -31.9983C104.042 -32.6436 102.995 -32.9581 102.118 -33.3559C101.064 -33.8076 99.9605 -34.3802 98.8358 -34.6166C98.8224 -34.6112 98.8116 -34.3261 98.8493 -34.1539C98.478 -34.3798 98.0798 -34.5949 97.6924 -34.7051C96.1803 -35.8317 94.5794 -36.7511 92.583 -36.6699C92.4915 -36.6645 92.548 -35.6263 92.7067 -35.5807C96.8125 -34.3686 99.0536 -30.6009 102.863 -28.9584C105.858 -27.6762 109.329 -27.5829 112.587 -26.9678C122.475 -21.954 131.157 -14.7261 135.453 -4.10546C138.854 4.31523 137.465 14.8862 137.585 23.886C137.623 26.5542 137.483 28.0767 135.963 30.167C135.801 30.3876 135.4 30.6728 135.287 30.9364C135.11 31.3506 135.058 31.7299 135.013 32.1226C134.663 30.0785 134.141 28.0721 133.603 26.1034C133.329 25.1055 133.412 27.381 133.463 27.6258C133.571 28.1287 133.673 28.6182 133.762 29.1131C133.724 29.565 133.77 30.4983 133.807 30.6705C134.456 33.8119 134.789 37.2198 133.869 40.2244C133.78 40.4316 133.691 40.6387 133.589 40.8512C133.075 41.868 132.373 42.8042 131.711 43.7243C131.315 44.2569 130.92 44.7896 130.51 45.3277C130.564 45.2281 130.626 45.1098 130.68 45.0103C130.825 44.7493 130.435 43.5794 130.484 43.5444C128.237 45.6133 127.4 48.7094 125.584 51.1522C121.653 53.3023 118.822 56.5253 116.196 60.1033C113.01 64.4669 109.902 68.3624 106.186 72.2984C106.159 72.3092 106.162 72.3549 106.145 72.3925C103.299 74.0932 100.191 75.2586 97.4088 77.1206C97.3119 77.1906 97.3926 77.9383 97.5029 77.941C105.287 78.6329 112.385 70.6292 116.279 64.7969C118.835 60.966 121.679 58.1277 124.876 54.883C124.957 55.0847 124.997 55.2246 124.983 55.23C127.152 52.459 129.999 49.5103 132.16 46.2902C132.168 46.3493 132.171 46.3951 132.144 46.4058C132.171 46.3951 132.173 46.3628 132.187 46.3574C132.187 46.3574 132.2 46.352 132.208 46.3332C133.349 45.1279 134.248 43.7855 134.851 42.3275C134.904 42.54 134.942 42.7121 134.947 42.7256C135.133 42.0585 135.273 41.3941 135.381 40.727C135.636 39.7667 135.784 38.7715 135.806 37.7332C135.811 37.2787 135.723 36.7058 135.623 36.106C135.586 35.5438 135.529 34.9736 135.44 34.4007C135.43 33.9838 135.481 33.6046 135.618 33.2845C136.396 31.5225 137.827 31.1993 138.118 29.0394C138.718 24.6496 137.755 19.8245 137.833 15.3784C137.893 11.2362 137.974 7.06974 137.452 2.95727C135.44 -13.1483 120.637 -28.3013 104.717 -32.0091L104.769 -31.9983Z" fill="#ADC584"/>
<path d="M96.0061 36.1683C92.4115 35.2978 88.841 37.1008 86.613 39.8799C86.5834 39.9229 86.6533 40.0977 86.6533 40.0977C89.0428 37.1761 92.3819 36.2769 96.033 36.3916C96.033 36.3916 96.0438 36.1845 96.0061 36.1683Z" fill="#ADC584"/>
<path d="M97.5425 34.5845C96.0251 33.9905 94.2465 34.4213 92.8904 35.2447C92.8366 35.2662 92.9119 35.5325 92.9254 35.5271C94.4941 34.8058 95.9255 34.8727 97.5856 35.0041C97.6125 34.9933 97.6044 34.6221 97.5425 34.5845Z" fill="#ADC584"/>
<path d="M99.9778 33.2235C98.2666 32.5353 96.262 33.0254 94.688 33.8112C94.6207 33.8381 94.7202 34.2039 94.7337 34.1985C96.5042 33.3965 98.1266 33.5118 100.013 33.5059C100.04 33.4951 100.029 33.2342 99.9778 33.2235Z" fill="#ADC584"/>
<path d="M101.429 31.9712C100.336 31.7374 99.1819 31.7001 98.0653 31.6008C98.0519 31.6062 98.0411 31.9693 98.1057 31.9747C99.2034 32.0659 100.339 32.2512 101.442 32.1998C101.455 32.1944 101.447 31.9792 101.415 31.9765L101.429 31.9712Z" fill="#ADC584"/>
<path d="M102.997 30.079C101.805 29.4015 100.166 29.5579 98.9179 29.9482C98.8372 29.9805 98.9394 30.47 98.9798 30.4539C99.6471 30.2493 100.32 30.1362 101.022 30.136C101.711 30.1412 102.362 30.3643 103.045 30.434C103.072 30.4233 103.053 30.1032 103.01 30.0736L102.997 30.079Z" fill="#ADC584"/>
<path d="M104.431 27.852C102.819 27.2957 100.976 27.4871 99.3537 27.9179C99.2999 27.9394 99.3672 28.3025 99.3994 28.3052C101.13 27.8314 102.706 27.9493 104.452 28.0618C104.452 28.0618 104.469 27.8682 104.431 27.852Z" fill="#ADC584"/>
<path d="M104.948 25.9449C104.426 25.8105 103.823 25.9425 103.279 25.9884C102.736 26.0342 102.174 26.072 101.63 26.1178C101.584 26.1205 101.63 26.5859 101.689 26.5778C102.233 26.532 102.79 26.4807 103.347 26.4294C103.877 26.389 104.498 26.4211 104.985 26.195C105.026 26.1789 104.988 25.9287 104.956 25.926L104.948 25.9449Z" fill="#ADC584"/>
<path d="M102.179 23.8247C102.179 23.8247 102.206 24.1263 102.219 24.121C103.121 23.6822 104.014 23.2623 104.905 22.7966C104.945 22.7805 104.878 22.5731 104.878 22.5731C103.973 22.9661 103.086 23.3994 102.192 23.8193L102.179 23.8247Z" fill="#ADC584"/>
<path d="M85.5091 -7.22925C85.5091 -7.22925 85.4875 -6.97098 85.5197 -6.8903C86.5957 -3.81077 88.1483 -0.906409 90.2909 1.55914C90.2909 1.55914 90.3179 1.39236 90.2829 1.34396C88.2939 -1.32344 86.6712 -4.09062 85.528 -7.22122L85.5091 -7.22925Z" fill="#ADC584"/>
<path d="M76.8816 76.3323C73.6691 75.4024 69.9452 76.0812 66.6223 75.8507C63.4932 75.6363 60.3748 75.1368 57.4179 74.0267C50.0727 71.2716 46.177 64.8899 42.2653 58.5458C38.3131 52.1398 33.5779 47.7164 27.9682 42.7848C25.267 40.4024 22.7703 37.829 20.992 34.6717C17.7528 28.9165 17.0509 22.2085 16.228 15.7829C16.15 15.1589 15.9751 15.1509 16.0504 15.8071C16.7953 23.3248 17.7769 31.3561 21.8743 37.8911C26.4748 45.2544 34.6944 49.3757 39.6582 56.5157C44.0516 62.8543 47.218 70.495 54.0384 74.708C57.372 76.7595 61.2491 77.751 65.1208 78.1831C68.7478 78.5883 73.6124 79.2003 77.051 77.8089C77.2394 77.7335 77.0834 76.4075 76.887 76.3457L76.8816 76.3323Z" fill="#ADC584"/>
<path d="M67.4745 1.32893C67.4315 1.14334 67.4395 1.43656 67.4475 1.49574C67.9125 3.79011 68.7114 6.13811 70.1567 7.99343C70.1513 7.97998 70.173 7.7217 70.1272 7.64641C68.9378 5.61071 67.9637 3.64481 67.4611 1.33432L67.4745 1.32893Z" fill="#ADC584"/>
<path d="M69.9399 3.04485C69.9399 3.04485 69.9399 2.96644 69.9263 2.97184C69.9128 2.97725 69.9264 3.05026 69.9399 3.04485Z" fill="#ADC584"/>
<path d="M70.749 1.82994C70.926 3.67793 71.4233 6.053 72.753 7.42417C72.753 7.42417 72.7639 7.13901 72.7424 7.08522C71.8733 5.34255 71.093 3.78276 70.8352 1.81108C70.7949 1.51519 70.7168 1.51522 70.749 1.82994Z" fill="#ADC584"/>
<path d="M72.4976 1.98699C72.4842 1.83635 72.4061 1.68035 72.4303 1.9359C72.4972 3.00113 72.6772 4.0367 72.9946 5.06413C73.0806 5.3573 73.5726 7.32885 74.1573 6.64253C74.1869 6.59947 74.1628 6.26592 74.1035 6.27402C73.5057 6.26361 73.2664 5.31417 73.1104 4.84619C72.7715 3.921 72.5915 2.96341 72.503 2.00041L72.4976 1.98699Z" fill="#ADC584"/>
<path d="M74.5516 2.86668C74.3546 3.97512 74.4726 5.20709 74.456 6.33694C74.4506 6.4015 74.5366 6.85071 74.5528 6.65702C74.599 5.48411 74.6938 4.27619 74.6296 3.10065C74.6188 3.07376 74.5651 2.78328 74.5516 2.86668Z" fill="#ADC584"/>
<path d="M76.1924 3.84994C76.1278 4.7026 76.1278 5.56065 76.1735 6.41597C76.1735 6.49397 76.2622 6.83285 76.2515 6.57195C76.2462 4.99845 76.5207 3.50018 76.6499 1.95086C76.6553 1.88631 76.5746 1.5286 76.5666 1.54743C76.2329 2.19574 76.2463 3.12639 76.1924 3.84994Z" fill="#ADC584"/>
<path d="M78.4895 2.72477C78.1881 3.99978 77.9647 5.35277 77.8166 6.66002C77.8005 6.77568 77.9 7.06345 77.8973 7.09572C78.2202 5.8745 78.4517 4.58071 78.6213 3.32725C78.6401 3.17931 78.6294 2.9964 78.5836 2.8431C78.5675 2.80276 78.5272 2.58489 78.4895 2.72477Z" fill="#ADC584"/>
<path d="M79.6361 5.04207C79.5794 5.48597 79.5227 5.92986 79.4659 6.37376C79.447 6.52173 79.4658 6.68584 79.5062 6.8257C79.5169 6.85259 79.5707 7.06507 79.595 6.93056C79.7111 6.08849 79.8999 5.2329 79.9191 4.38282C79.9192 4.30481 79.8277 3.92018 79.8197 3.93902C79.6822 4.25922 79.6901 4.70848 79.6415 5.05553L79.6361 5.04207Z" fill="#ADC584"/>
<path d="M80.7468 5.59924C80.7521 5.6907 80.7574 6.01621 80.8382 6.06189C80.9135 6.09413 80.8786 5.81168 80.8867 5.79285C80.8251 5.13112 80.9707 4.48003 81.1083 3.84778C81.1137 3.78321 81.0465 3.49807 81.0465 3.49807C80.6585 4.09012 80.6986 4.9321 80.7521 5.61266L80.7468 5.59924Z" fill="#ADC584"/>
<path d="M86.4948 3.65754C86.4948 3.65754 86.3952 4.3058 86.5808 4.41872C87.8454 5.23877 88.9781 6.31438 90.2722 7.09139C90.2668 7.07794 90.2937 6.59915 90.2157 6.52117C89.1799 5.37561 87.7835 4.4991 86.4948 3.65754Z" fill="#ADC584"/>
<path d="M67.4515 25.38C66.4237 25.3076 65.3554 26.4994 64.7527 27.2554C64.0047 28.1943 63.5553 29.2945 63.3453 30.4861C63.3319 30.5695 63.4072 30.7578 63.3991 30.7766C63.6817 29.8056 64.1149 28.899 64.7661 28.108C65.568 27.1476 66.6631 26.7251 67.508 25.8722C67.551 25.8238 67.5295 25.38 67.4515 25.38Z" fill="#ADC584"/>
<path d="M66.1851 24.3598C65.3753 24.4811 64.5654 24.9143 63.8093 25.4821L63.7985 25.4552C63.7985 25.4552 63.8039 25.4686 63.7958 25.4875C62.9079 26.1547 62.0845 26.9834 61.4925 27.6882C61.4495 27.7367 61.5517 27.9922 61.5383 27.9975C62.2352 27.3599 62.9348 26.768 63.7258 26.2487C64.5304 25.724 65.4694 25.3795 66.2443 24.8198C66.3062 24.7794 66.2443 24.3517 66.1851 24.3598Z" fill="#ADC584"/>
<path d="M67.3327 26.9553C67.0098 27.5525 66.738 28.1605 66.5228 28.7926C66.4636 28.9567 66.6438 29.3682 66.6196 29.4246C66.8322 28.8248 67.0824 28.241 67.3892 27.6815C67.704 27.1031 68.113 26.5651 68.4037 25.9652C68.4279 25.9087 68.3553 25.5322 68.3418 25.5376C67.879 25.8631 67.6072 26.4711 67.3327 26.9553Z" fill="#ADC584"/>
<path d="M124.602 -5.05408C125.333 -3.22525 125.833 -1.35053 126.14 0.586154C126.15 0.691062 126.175 0.63454 126.161 0.561915C125.885 -1.49584 125.36 -3.47006 124.591 -5.39302C124.575 -5.43337 124.575 -5.12131 124.607 -5.04062L124.602 -5.05408Z" fill="#ADC584"/>
</svg>
