<svg width="112" height="15" viewBox="0 0 112 15" fill="none" xmlns="http://www.w3.org/2000/svg">
<path fill-rule="evenodd" clip-rule="evenodd" d="M100 12.971C99.859 12.8606 96.5846 10.6784 94.6589 9.85158C88.4162 7.15694 80.6254 6.27798 73.1988 6.37421C67.0977 6.4512 61.027 7.15694 55.1586 8.18989C52.1353 8.71982 49.1634 9.34335 46.1919 9.96681C41.8243 10.8832 37.4576 11.7994 32.9296 12.4179C24.9465 13.5086 15.3851 14.2657 7.73597 11.9111C5.80345 11.3208 3.99235 10.506 2.65678 9.42814C2.30266 9.14584 1.99912 8.8443 1.72594 8.52351C1.5846 8.35422 1.55295 8.30472 1.52694 8.26405C1.51944 8.25232 1.5124 8.24131 1.50334 8.22838C1.18969 7.65096 -0.277411 7.89476 0.0463624 8.48502C0.805205 9.88367 2.75796 11.0513 4.61966 11.8726C10.2958 14.3812 17.9348 14.5993 24.5823 14.2079C30.8655 13.8422 37.0476 12.8863 43.0576 11.6801C44.5186 11.3872 45.9707 11.0857 47.4197 10.7849C53.1757 9.58984 58.8843 8.40462 64.9224 7.80494C73.6744 6.93239 83.2864 7.01579 91.2998 9.69119C94.3149 10.6985 97.6639 12.1934 99.3536 14.1117C99.4891 14.2676 99.8121 14.3869 100 14.3475C100.188 14.3081 100.442 14.1362 100.5 13.9331C100.559 13.7299 100.515 13.4255 100.325 13.2026C100.223 13.0843 100.141 13.0815 100 12.971Z" fill="#418D12"/>
<path d="M98.9729 10.5683C100.711 -0.477041 111.686 2.1549 111.686 2.1549C111.686 2.1549 109.829 13.288 98.9729 10.5683Z" fill="#418D12"/>
</svg>
