<svg width="81" height="80" viewBox="0 0 81 80" fill="none" xmlns="http://www.w3.org/2000/svg">
<path d="M51.7242 13.989C53.8578 13.981 51.6844 19.5317 51.2053 20.3494C52.1964 20.0605 55.1289 18.0558 53.4922 20.9338C52.8025 22.1464 52.1169 22.8335 50.9149 23.5466C53.3952 26.7249 51.9975 31.4438 50.6088 34.7596C51.3563 34.6028 52.0752 34.3296 52.8258 34.1711C57.9305 33.0935 64.0405 33.5086 68.4681 36.4172C76.4274 41.6458 76.9214 53.5452 70.0177 59.9081C67.4016 62.3192 63.4077 63.9466 59.9575 64.6383C49.2085 66.793 40.8788 62.3896 38.7211 51.4856C37.8786 52.1663 37.0963 52.9339 36.2558 53.6253C30.9886 58.1056 18.383 65.3458 11.3285 62.1258C9.19267 61.151 7.52461 59.3713 6.71727 57.1581C3.33694 47.8919 16.4972 39.6314 23.0777 35.4717C28.5344 32.0224 32.3613 29.1285 36.4453 24.1622C39.2633 20.7356 43.0049 18.6802 47.375 20.7513C47.3753 19.8888 47.3897 19.0247 47.37 18.1625C47.3586 17.6644 46.9761 15.9736 47.9955 16.3492C48.318 16.6496 48.1514 20.4563 48.2752 21.2428L48.2858 21.3085C48.8722 19.3572 49.8324 14.6822 51.7242 13.989ZM38.5478 49.8835C38.5031 48.4324 38.7388 47.5549 38.8177 46.2705C33.2353 51.9566 22.9486 60.6056 15.0211 60.4524C14.4386 60.4411 13.3955 60.4647 12.9846 60.0052C12.1855 59.1113 14.5067 59.4328 14.6435 59.4403C21.3378 59.8106 29.4217 53.5472 34.4555 49.1488L37.236 46.7111C37.7288 46.2738 38.1989 45.8003 38.7211 45.3986C39.3525 44.7166 39.4863 43.7399 39.8744 42.9152C40.7956 40.9567 42.1555 39.3494 43.8656 38.0328C44.3855 37.6327 45.0431 37.3244 45.4389 36.7917L45.4744 36.7116C46.2144 35.0338 47.377 33.2281 48.1875 31.4424C48.5813 30.5749 48.7563 28.9258 49.8036 29.8571C49.058 31.7128 48.1953 33.6167 47.2339 35.3705C47.0927 35.628 46.8388 35.9905 46.7952 36.2796C48.5219 35.5305 48.9752 35.8992 49.6589 34.17C50.7214 31.4828 51.9806 28.3027 50.7419 25.4477C49.2328 21.9697 44.8506 19.953 41.3013 21.5325C38.7347 22.6746 37.3161 25.0824 35.5136 27.0844C31.9605 31.0311 27.5802 34.0502 23.1314 36.8874C18.0275 40.1424 10.221 45.6461 8.13122 51.1224C6.71833 54.825 8.28102 59.4996 12.149 60.9405C19.4372 63.6555 33.3699 55.3099 38.5478 49.8835ZM58.9746 34.9633C58.6561 35.3455 58.2056 35.5825 57.8556 35.9314C56.1089 37.673 56.7846 40.5492 57.5569 42.5611C57.8994 42.12 58.1886 41.6424 58.5535 41.2186C61.222 38.12 64.8614 37.6242 68.3322 39.6402C68.8763 39.9561 70.1956 40.5347 69.183 41.151C66.2147 41.098 63.5671 42.2005 61.7502 44.6558C65.6091 44.5141 68.8711 47.8264 68.9747 51.6321C68.9855 52.0294 69.0819 52.9324 68.833 53.2511C68.2608 53.9842 67.5624 52.2946 67.3463 52.0186C65.2594 49.3538 62.5858 48.9902 59.5638 49.8835C60.8838 52.6164 58.8814 56.3296 59.7685 58.9016C59.8586 59.1627 60.2383 59.7003 60.1597 59.9427C59.8991 60.746 58.5125 60.1731 58.0241 59.9508C54.9256 58.54 53.9588 54.4624 54.0517 51.3691C52.4189 52.585 51.1314 54.3119 50.5166 56.2589C50.3036 56.9333 50.058 59 48.9278 57.4541C47.0492 54.8842 47.72 49.7574 50.6088 48.2233C48.3633 47.5356 45.8133 47.4853 43.9608 49.1822C43.6225 49.4922 42.5617 51.258 42.1511 50.173C41.5853 48.678 44.1449 45.9119 45.2239 45.1088C46.9391 43.8139 50.3927 42.6369 52.4469 43.7956C52.3256 43.2292 52.1108 42.6849 52.0033 42.1188C51.4899 39.4166 52.5292 36.5083 54.8352 34.9633C49.8691 36.3531 44.3138 37.5464 41.5125 42.4911C37.8781 48.9064 40.355 58.398 46.8428 62.0252C51.1989 64.4606 56.6136 64.4217 61.3119 63.0813C65.8366 61.7902 69.6316 59.8027 71.9691 55.5649C75.3405 49.4525 73.5795 40.5522 67.2547 37.1472C64.8302 35.8419 61.7349 34.9885 58.9746 34.9633ZM56.9683 35.3928C53.1158 35.2931 51.6361 41.6231 53.9322 44.1897C54.4489 44.7674 54.7108 44.7236 54.0517 45.3191C53.4406 45.0839 52.8681 44.7513 52.2427 44.5541C49.23 43.6038 45.7314 45.3927 43.9124 47.7742C46.3046 46.7139 48.9135 46.1272 51.3466 47.5722C51.7544 47.2957 54.413 46.0385 53.9897 47.1753C53.8527 47.5433 52.8 47.8069 52.443 47.9914C49.0696 49.7353 48.2469 53.0194 49.3994 56.3891C49.9408 54.3441 51.0575 52.473 52.7427 51.1588C53.1877 50.8117 53.9003 50.4521 54.2335 50.0277C54.5792 49.5874 54.4989 48.8021 55.0152 48.4922C56.0877 47.8485 55.2289 50.3247 55.1835 50.543C54.6675 53.0153 55.5269 55.7553 56.9683 57.7546C57.4622 58.3411 58.0642 58.8058 58.7849 59.0817C58.0528 55.8625 59.8219 52.4672 58.4333 49.3716C57.5763 47.461 58.5227 47.6494 59.3425 49.0147C62.4413 47.5717 65.9655 48.7508 67.9828 51.3691C67.7266 47.1363 64.096 45.4214 60.2602 45.5408C59.9995 45.5489 59.6239 45.5203 59.596 45.183C59.561 44.7613 60.4813 44.5777 60.7505 44.3247C61.2369 43.8677 61.6253 43.2991 62.1074 42.8308C63.9186 41.0716 65.1739 40.9491 67.271 40.1989C64.0152 38.8452 61.017 39.3922 58.896 42.3228C58.3483 43.0796 58.313 44.1335 57.3686 43.7956C55.4058 41.8338 55.2308 37.5127 57.0489 35.398L56.9961 35.3783L56.9683 35.3928ZM52.6708 20.7513C52.0561 20.8692 51.5066 21.1225 50.9149 21.3085C50.7591 21.5961 50.2295 22.4608 50.2111 22.745C51.9011 22.2575 51.75 21.5341 52.6638 20.8197L52.6708 20.7513Z" fill="#418D12"/>
<path d="M51.7242 14.8932L51.8039 14.9251C52.198 15.5546 50.0792 21.7314 49.4919 21.983L49.3994 21.9447L49.0312 21.6886C49.4106 19.897 50.4998 16.242 51.7242 14.8932Z" fill="#FFFFFC"/>
<path d="M49.6163 52.9561C50.309 53.001 50.1983 53.7486 49.8038 54.0896C49.064 53.985 49.1522 53.3352 49.6163 52.9561Z" fill="#418D12"/>
<path d="M54.3116 41.5667C54.9323 41.5441 55.3104 42.0064 54.8352 42.5611C54.1515 42.7345 54.0205 42.0877 54.3116 41.5667Z" fill="#418D12"/>
<path d="M55.0692 43.2679C55.7226 43.3408 55.7061 44.0322 55.2819 44.3743C54.5101 44.3983 54.6173 43.6201 55.0692 43.2679Z" fill="#418D12"/>
<path d="M65.2723 47.5722C65.7722 47.5789 66.4736 48.1055 65.8589 48.4867C65.21 48.7517 64.8704 48.0427 65.2723 47.5722Z" fill="#418D12"/>
<path d="M55.9875 51.4856C56.6148 51.43 56.8443 52.1664 56.3861 52.5719C55.7123 52.7613 55.5911 51.8483 55.9875 51.4856Z" fill="#418D12"/>
<path d="M52.8802 49.0147C53.7071 49.0062 53.2243 49.7175 52.6707 49.9939C52.3999 49.9245 52.3121 49.7722 52.1621 49.5537C52.351 49.2169 52.5113 49.1195 52.8802 49.0147Z" fill="#418D12"/>
<path d="M50.9149 50.7734C51.7594 50.9377 51.3629 51.485 50.9149 51.8345C50.0373 51.8966 50.3944 51.0728 50.9149 50.7734Z" fill="#418D12"/>
<path d="M56.3863 48.883C56.9854 48.8919 57.1974 49.5678 56.7877 49.9939C56.1336 50.0083 55.7883 49.2107 56.3863 48.883Z" fill="#418D12"/>
<path d="M50.3608 45.3191C51.0718 45.1431 51.8898 45.4677 51.2057 46.0084C50.4054 46.0597 49.6293 45.5744 50.3608 45.3191Z" fill="#418D12"/>
<path d="M54.3117 39.0923C55.0561 39.1452 54.813 40.1038 54.3117 40.3909C53.6255 40.167 53.8551 39.4236 54.3117 39.0923Z" fill="#418D12"/>
<path d="M47.9772 45.3191C48.8772 45.2524 48.635 46.0124 47.9772 46.2705C47.1229 46.1913 47.1793 45.5166 47.9772 45.3191Z" fill="#418D12"/>
<path d="M61.0074 46.57C61.7959 46.5228 62.2251 47.0476 61.3959 47.3964C60.5452 47.3962 60.0185 46.7439 61.0074 46.57Z" fill="#418D12"/>
<path d="M57.8579 51.625C58.3887 51.6487 58.5211 52.6822 57.9645 52.9561C57.2714 52.8406 57.2518 52.0441 57.8579 51.625Z" fill="#418D12"/>
<path d="M63.4943 46.7647C64.2845 46.7379 64.6531 47.4351 63.8531 47.5722C62.8523 47.5023 62.5737 46.7636 63.4943 46.7647Z" fill="#418D12"/>
<path d="M56.5246 54.0895C57.1304 54.1603 57.4171 55.1328 56.7879 55.3636C56.061 55.3133 56.0133 54.4555 56.5246 54.0895Z" fill="#418D12"/>
<path d="M57.3686 56.53C58.1481 56.4519 58.4112 57.2395 57.8578 57.7545C57.245 57.7767 56.9343 56.9327 57.3686 56.53Z" fill="#418D12"/>
<path d="M64.351 39.6956C65.0866 39.6831 64.9452 40.4991 63.8527 40.6492C63.1055 40.7625 63.276 39.8817 64.351 39.6956Z" fill="#418D12"/>
<path d="M55.2819 36.7917C56.1858 36.7159 55.5974 37.7465 55.0693 38.122C54.2657 38.1679 54.7146 37.1447 55.2819 36.7917Z" fill="#418D12"/>
<path d="M62.1303 40.6492C62.7618 40.4558 62.6848 41.3171 61.7503 41.7253C60.7273 41.6969 61.4051 40.7689 62.1303 40.6492Z" fill="#418D12"/>
<path d="M57.3688 44.5073C59.2219 44.5208 58.3838 46.6555 55.8144 47.1339C53.4766 46.938 55.1199 44.6344 57.3688 44.5073Z" fill="#418D12"/>
<path d="M57.3687 45.3191C57.7526 45.6314 56.0657 46.2247 55.8143 46.2705L55.7061 46.2544C55.7964 45.7361 56.9289 45.3911 57.3687 45.3191Z" fill="#FFFFFC"/>
<path d="M50.2111 37.1863C50.8324 37.246 50.7382 37.9927 50.2111 38.1221C49.5049 37.9699 49.5874 37.3458 50.2111 37.1863Z" fill="#418D12"/>
<path d="M48.5048 37.8881C49.1358 37.876 49.2065 38.403 48.8987 38.831C48.1616 38.8406 47.9151 38.3349 48.5048 37.8881Z" fill="#418D12"/>
<path d="M46.7954 38.831C47.117 38.8052 47.4779 38.8949 47.5282 39.2555C47.3526 39.8747 43.3937 41.9124 42.4221 44.8902C42.2223 45.5027 42.2032 46.1349 42.0968 46.7647C41.8063 47.0258 41.4709 46.7427 41.4013 46.4319C40.8473 43.9578 44.2443 39.408 46.7954 38.831Z" fill="#418D12"/>
<path d="M32.457 31.8717C33.2772 31.9084 33.1159 32.5059 32.5714 32.8094C31.7317 32.843 31.8867 32.1459 32.457 31.8717Z" fill="#418D12"/>
<path d="M28.0548 35.3928C28.8778 35.53 28.5999 36.2019 28.0548 36.4738C27.2087 36.3439 27.4226 35.6219 28.0548 35.3928Z" fill="#418D12"/>
<path d="M30.2576 33.6356C31.0123 33.7358 30.8335 34.4905 30.2576 34.7595C29.3766 34.7627 29.6851 33.9044 30.2576 33.6356Z" fill="#418D12"/>
<path d="M34.4793 29.857C35.3236 29.706 35.3344 30.501 34.7588 30.8949C34.0333 30.97 33.8577 30.1638 34.4793 29.857Z" fill="#418D12"/>
<path d="M33.1847 38.122C34.3397 38.3304 33.0108 39.4669 32.5713 39.6956C31.3672 39.3861 32.5821 38.3953 33.1847 38.122Z" fill="#418D12"/>
<path d="M39.7096 30.8949C40.9168 30.8824 39.8373 32.2385 39.4017 32.5417C38.1085 32.5724 39.2637 31.2236 39.7096 30.8949Z" fill="#418D12"/>
<path d="M25.7364 36.7917C26.9416 37.1657 25.4366 38.1124 25.0197 38.4436C23.7351 37.945 25.09 37.0796 25.7364 36.7917Z" fill="#418D12"/>
<path d="M25.9218 44.3744C27.3179 44.3514 25.9493 45.7166 25.4896 46.0084C24.2156 46.2758 25.3037 44.8052 25.9218 44.3744Z" fill="#418D12"/>
<path d="M33.185 45.6512C34.3965 45.9123 33.0753 47.1267 32.5715 47.3964C31.2433 47.3547 32.7595 45.9347 33.185 45.6512Z" fill="#418D12"/>
<path d="M45.8514 31.4009C46.8471 31.6683 46.0496 33.0291 45.4391 33.2713C44.3994 33.0311 45.2914 31.6725 45.8514 31.4009Z" fill="#418D12"/>
<path d="M40.2862 38.2283C41.5264 38.1545 40.4223 39.5842 39.7097 39.9522C38.3879 39.8411 39.8767 38.5166 40.2862 38.2283Z" fill="#418D12"/>
<path d="M37.1553 26.7852C38.273 27.1069 37.0562 28.3356 36.5411 28.6353C35.3967 28.283 36.5562 27.0748 37.1553 26.7852Z" fill="#418D12"/>
<path d="M16.5839 47.1339C17.7916 47.4928 16.5969 48.5677 15.9953 48.883C14.6463 48.643 16.072 47.4483 16.5839 47.1339Z" fill="#418D12"/>
<path d="M11.6568 53.4772C12.6625 53.4267 12.5377 55.1556 11.964 55.5831C11.0883 55.6178 11.0234 53.8779 11.6568 53.4772Z" fill="#418D12"/>
<path d="M25.0195 51.0446C25.2618 51.025 25.7299 51.1939 25.713 51.4999C25.6899 51.923 24.7707 52.4936 24.4487 52.7342C24.1384 52.8716 23.7682 52.6144 23.8093 52.2671C23.8684 51.7661 24.6445 51.3202 25.0195 51.0446Z" fill="#418D12"/>
<path d="M21.6632 54.6502C21.8156 54.6281 21.9812 54.6331 22.1026 54.7402C22.9345 55.4733 21.351 55.8652 20.909 56.0308C18.7449 56.8416 17.1345 57.3134 14.7872 57.2742C13.541 57.257 14.2435 56.7319 15.1319 56.5969C17.8707 56.1805 19.2387 55.5069 21.6632 54.6502Z" fill="#418D12"/>
<path d="M22.8542 38.8309C23.6327 39.2281 20.8225 40.7777 20.4091 41.0762C16.3674 43.9947 11.4125 47.7686 9.77234 52.5633C9.58164 53.1208 9.55401 54.2506 8.88172 54.3922C8.26708 53.992 8.95501 52.1877 9.15412 51.6427C11.0038 46.58 18.2289 40.982 22.8542 38.8309Z" fill="#418D12"/>
</svg>
