<svg width="187" height="147" viewBox="0 0 187 147" fill="none" xmlns="http://www.w3.org/2000/svg">
<path d="M59.2179 95.2567C62.0964 95.1197 64.4499 95.1878 66.5142 92.8039C70.1779 88.5705 68.1452 81.2232 62.1008 80.4518C53.8373 79.3974 49.2059 90.6556 59.2179 95.2567ZM57.7927 85.1976C59.5634 86.9488 59.4101 87.82 58.2744 90.27C57.685 90.2987 57.0043 89.8978 56.2789 89.8255C53.6671 88.2608 55.0969 84.928 57.7947 85.1935L57.7927 85.1976Z" fill="#DAC1A8"/>
<path d="M162.085 118.763C161.509 121.586 161.216 123.922 158.544 125.597C153.799 128.569 146.85 125.434 147.014 119.343C147.238 111.016 159.073 108.164 162.085 118.763ZM152.364 115.813C153.823 117.831 154.707 117.813 157.302 117.066C157.421 116.488 157.129 115.754 157.169 115.026C156.023 112.205 152.51 113.108 152.359 115.814L152.364 115.813Z" fill="#DAC1A8"/>
<path d="M102.016 54.6859C101.708 54.6243 101.398 54.5619 101.09 54.5002C100.137 54.4153 98.8703 54.8946 98.2066 55.6547C96.6647 57.4238 97.1833 60.6616 99.6364 61.2973C103.823 62.3831 106.468 56.7897 102.014 54.6852L102.016 54.6859ZM102.4 57.226C102.575 57.1135 102.807 57.1911 103.011 57.177C104.162 57.811 103.783 59.1123 102.593 59.202C102.057 58.9009 101.577 57.6516 102.399 57.2252L102.4 57.226Z" fill="#B9A591"/>
<path d="M67.9175 37.1586C67.3025 44.2241 73.7782 47.9044 79.248 46.7774C85.3612 45.5172 88.1221 37.4382 84.2602 32.4571C81.9037 29.4219 77.973 28.0669 73.6069 29.5775C72.9179 29.9792 72.2248 30.3825 71.5358 30.7841C69.6259 32.3578 68.1159 34.8527 67.9133 37.1603L67.9175 37.1586ZM76.8118 33.9202C76.8628 33.1043 77.5612 32.5398 78.0672 31.9146C81.7885 30.2964 85.592 34.4654 82.8411 37.1702C81.1044 38.8795 76.6673 36.1908 76.816 33.9186L76.8118 33.9202Z" fill="#D1BCA7"/>
<path d="M103.54 89.4621C103.58 90.0315 103.618 90.6036 103.658 91.173C103.968 92.8569 105.274 94.3943 106.842 95.2521C110.056 97.0109 114.635 94.4117 114.782 90.8156C115.077 83.6015 104.986 81.5774 103.54 89.4648L103.54 89.4621ZM110.091 85.8471C110.818 87.5518 109.017 88.5055 107.534 88.4118C107.141 87.9365 106.957 87.7137 106.755 87.0891C107.416 85.5335 108.351 85.1121 110.091 85.8471Z" fill="#F7E7D6"/>
<path d="M34.1738 16.5665C32.1346 13.9075 26.9529 13.9723 25.6489 17.5955C24.5648 20.6036 26.3176 24.5353 30.2716 24.5954C31.9835 24.6223 33.3335 23.6088 34.6096 21.9239C34.7641 21.5017 34.9199 21.0775 35.0743 20.6553C35.4032 19.3528 34.9906 17.6274 34.1751 16.5645L34.1738 16.5665ZM31.441 22.3382C31.4048 22.4554 31.3686 22.5726 31.3325 22.6898C31.0737 22.9635 30.8148 23.2373 30.5547 23.513C29.8662 23.8774 28.3808 23.5558 28.2274 22.5393C27.9799 20.8957 29.9822 20.9221 31.081 21.4975C31.2008 21.7766 31.3205 22.0557 31.4403 22.3349L31.441 22.3382Z" fill="#EBE3DD"/>
</svg>
