<svg width="168" height="168" viewBox="0 0 168 168" fill="none" xmlns="http://www.w3.org/2000/svg">
<path d="M125.417 45.1917C122.581 44.6808 120.302 44.0876 117.757 45.949C113.238 49.2549 113.575 56.8708 119.293 58.9756C127.111 61.8529 134.145 51.917 125.417 45.1917ZM124.554 55.3145C123.221 53.2114 123.565 52.3966 125.22 50.263C125.801 50.3669 126.375 50.91 127.066 51.1429C129.261 53.2525 127.121 56.1807 124.551 55.318L124.554 55.3145Z" fill="#DAC1A8"/>
<path d="M67.5071 15.5311C68.7009 12.9083 69.5096 10.6971 72.4888 9.66301C77.7784 7.82867 83.8495 12.4391 82.3264 18.3391C80.2439 26.4051 68.071 26.5354 67.5071 15.5311ZM76.3221 20.582C75.3517 18.2886 74.4857 18.1081 71.7893 18.2552C71.5442 18.792 71.6643 19.5728 71.4628 20.2734C71.9483 23.279 75.5737 23.1859 76.3266 20.5817L76.3221 20.582Z" fill="#DAC1A8"/>
<path d="M94.5536 79.1226C94.8402 79.2516 95.1281 79.3818 95.4148 79.5109C96.3237 79.8067 97.666 79.6232 98.4829 79.031C100.382 77.6519 100.601 74.3802 98.3525 73.2115C94.5151 71.2162 90.6849 76.0755 94.5548 79.1236L94.5536 79.1226ZM94.7476 76.5609C94.5519 76.6314 94.3437 76.504 94.1414 76.472C93.1617 75.5965 93.8225 74.413 95.0019 74.5918C95.4567 75.0052 95.6456 76.3304 94.7489 76.562L94.7476 76.5609Z" fill="#B9A591"/>
<path d="M102.953 84.1096C103.129 84.3698 103.306 84.6317 103.482 84.892C104.101 85.6207 105.34 86.1687 106.346 86.0931C108.686 85.9151 110.589 83.2448 109.288 81.0702C107.068 77.3584 101.258 79.4859 102.953 84.1111L102.953 84.1096ZM104.462 82.0305C104.258 81.9879 104.148 81.7702 103.993 81.6368C103.618 80.3775 104.801 79.7166 105.711 80.4876C105.882 81.0781 105.347 82.3054 104.462 82.0321L104.462 82.0305Z" fill="#B9A591"/>
<path d="M84.1462 137.905C86.3272 131.156 80.8395 126.12 75.2562 125.994C69.0161 125.854 64.5168 133.11 67.1659 138.829C68.7831 142.315 72.3108 144.515 76.9042 144.02C77.6656 143.783 78.4315 143.545 79.1929 143.308C81.4065 142.202 83.4367 140.108 84.1506 137.904L84.1462 137.905ZM74.7527 139.07C74.5204 139.854 73.7134 140.248 73.0803 140.744C69.0911 141.488 66.3173 136.574 69.6038 134.553C71.6791 133.276 75.4018 136.89 74.7483 139.071L74.7527 139.07Z" fill="#D1BCA7"/>
<path d="M65.1264 56.8285C65.2156 56.2647 65.3059 55.6985 65.3951 55.1348C65.4691 53.4241 64.5406 51.6334 63.2041 50.4463C60.4659 48.0128 55.4207 49.5209 54.4728 52.993C52.5705 59.958 61.952 64.1894 65.1275 56.826L65.1264 56.8285ZM57.9329 58.8856C57.606 57.0614 59.5743 56.5349 60.9986 56.9581C61.2752 57.5094 61.405 57.7677 61.4623 58.4218C60.4693 59.7898 59.4641 59.9913 57.9329 58.8856Z" fill="#F7E7D6"/>
<path d="M129.791 113.841C131.183 116.888 136.248 117.985 138.33 114.746C140.06 112.057 139.231 107.832 135.391 106.889C133.729 106.479 132.186 107.165 130.565 108.521C130.32 108.898 130.073 109.277 129.828 109.654C129.216 110.85 129.232 112.624 129.789 113.842L129.791 113.841ZM133.746 108.827C133.808 108.721 133.869 108.615 133.931 108.509C134.244 108.3 134.558 108.091 134.873 107.88C135.626 107.679 137.001 108.325 136.923 109.35C136.797 111.008 134.851 110.534 133.909 109.727C133.855 109.428 133.8 109.129 133.746 108.83L133.746 108.827Z" fill="#EBE3DD"/>
</svg>
