<svg width="67" height="61" viewBox="0 0 67 61" fill="none" xmlns="http://www.w3.org/2000/svg">
<path d="M0.64144 12.9386C2.59241 16.1299 3.98488 18.853 7.95519 19.6972C15.0043 21.194 22.0002 14.2362 19.0947 6.86557C15.1224 -3.21084 -0.43284 -1.37029 0.64144 12.9386ZM11.067 4.95887C10.2024 8.08184 9.12682 8.45787 5.66185 8.71278C5.2616 8.0598 5.28764 7.03125 4.91624 6.15953C5.04587 2.19655 9.68742 1.71854 11.0728 4.95855L11.067 4.95887Z" fill="#DAC1A8"/>
<path d="M65.9853 6.53227C65.8623 6.14228 65.7391 5.75012 65.616 5.36012C65.1172 4.2223 63.7869 3.08212 62.5177 2.80672C59.5651 2.16878 56.2467 4.80543 57.063 8.0007C58.4551 13.4544 66.3983 12.9321 65.9852 6.53011L65.9853 6.53227ZM63.3679 8.57504C63.6036 8.70317 63.6609 9.01579 63.8043 9.23957C63.8095 10.9507 62.1089 11.3413 61.2656 10.0435C61.2698 9.24309 62.375 7.90615 63.3678 8.57287L63.3679 8.57504Z" fill="#B9A591"/>
<path d="M35.9653 44.6731C35.3493 45.0776 34.73 45.4832 34.1139 45.8878C32.4138 47.3058 31.4995 49.7643 31.5136 52.0922C31.5411 56.8631 37.3237 60.4356 41.4605 58.3301C49.7596 54.1071 45.7375 41.3373 35.962 44.6741L35.9653 44.6731ZM44.1209 49.848C42.6571 51.7531 40.4604 50.3054 39.6401 48.5576C39.9294 47.8097 40.0649 47.459 40.6413 46.8339C42.8041 46.6043 43.8616 47.4023 44.1209 49.848Z" fill="#F7E7D6"/>
</svg>
