<svg width="102" height="102" viewBox="0 0 102 102" fill="none" xmlns="http://www.w3.org/2000/svg">
<path d="M67.7958 23.3762C67.7629 21.3117 68.6313 18.6587 70.1013 17.1624C71.7686 15.4653 74.8983 15.9698 76.4467 17.5671C77.8215 18.9854 77.6623 21.3292 77.6535 23.1686C80.09 23.0779 82.5262 23.0686 84.9633 23.0232C89.5835 22.9369 88.9895 21.9038 89.5385 26.6543L93.0663 58.1719C93.6767 64.0212 94.2132 69.5425 94.5782 75.4077C94.6764 76.9849 94.8666 78.5893 94.863 80.1669C94.8565 83.0896 92.7677 85.6408 89.7411 85.5908L73.193 85.3155C71.9746 85.3007 70.7544 85.2328 69.5362 85.1965L57.905 84.8196C48.1682 84.4768 39.0607 84.3489 29.2808 84.5943L20.4821 84.8529C18.6858 84.9165 13.2003 85.4336 11.7979 85.1531C9.69691 85.2497 7.52734 83.1149 7.50632 81.0458C7.49466 79.8981 7.70775 78.7247 7.83567 77.5852C8.24887 73.9046 8.51528 70.2085 8.80654 66.517L9.66384 54.878C9.965 50.4325 10.2289 46.0036 10.4208 41.5535L10.7491 34.1328C10.8403 31.6157 10.0521 26.8241 11.9785 25.0936C13.4936 23.7328 18.3011 24.2334 20.4546 24.2033C22.0064 24.1816 23.5477 23.9738 25.1042 24.0475C25.0687 21.9478 25.6592 19.2924 27.1615 17.7334C28.8653 15.9653 31.8755 16.0614 33.5842 17.7766C34.9374 19.1351 34.4681 22.0398 34.4645 23.8081H46.4628C46.518 23.0947 46.471 22.1591 46.8495 21.5276C46.9966 19.0784 48.6965 16.2917 51.4041 16.3433C52.5996 16.3135 54.0865 16.7855 54.9687 17.6123C56.3363 18.8942 55.9829 21.738 55.9775 23.4937C59.7057 23.6286 64.2858 23.0108 67.7958 23.3762ZM71.768 24.5816C71.7545 25.9353 71.8383 27.3115 72.1252 28.6373C72.2844 29.3725 72.6231 30.1281 72.6593 30.8786C72.7468 32.6795 70.2039 33.4495 69.0606 32.2223C68.0872 31.1778 67.7119 26.1963 67.7958 24.7203C62.0788 24.5994 56.2122 24.9628 50.4648 24.955C50.4343 26.1437 50.501 27.4388 50.7064 28.6101C50.8512 29.4356 51.1887 30.2839 51.161 31.1288C51.0989 33.0227 48.6708 33.7017 47.542 32.2787C46.8792 31.4431 46.3146 26.4599 46.4628 25.2062L46.4142 25.0749C46.1742 24.9817 43.8148 25.1317 43.353 25.1421L33.4608 25.2703C32.0249 25.2881 30.5315 25.4574 29.1019 25.3604C29.0274 27.3448 29.8534 30.0891 29.6924 31.4659C29.5036 33.0813 27.2054 33.7306 26.185 32.4865C25.3528 31.472 25.0978 26.9203 25.1042 25.5C24.1187 25.4275 23.1339 25.4747 22.1472 25.4979L18.1857 25.5823C16.3133 25.6166 12.3876 24.8787 12.2381 27.6C12.1635 28.9583 12.2781 30.3323 12.2274 31.693L12.0252 36.6204C11.9923 37.5705 11.9285 38.5405 11.9994 39.4894C15.0286 39.4033 18.0569 39.4013 21.0864 39.344L34.1874 39.0969C37.2769 39.0668 40.3683 38.8895 43.4584 38.968C45.1263 38.8228 47.0242 38.8977 48.721 38.8581L76.002 38.4949C79.5885 38.4353 83.1806 38.2801 86.768 38.3754C86.6688 37.2219 86.8258 36.0041 86.874 34.8474C87.019 31.3654 87.3674 27.8843 87.4722 24.4035C83.2506 24.1523 79.0212 24.5779 74.7997 24.5803C73.7877 24.5809 72.7769 24.6803 71.768 24.5816ZM32.7343 19.7429C30.4429 19.9058 29.4398 21.1401 29.0762 23.3202C29.0139 23.6941 28.8159 24.0011 29.3131 23.9459H33.0692C33.0704 23.2451 33.3979 19.5373 32.7343 19.7429ZM75.047 19.5932C72.5619 19.7984 72.0619 21.1097 71.768 23.3762C72.1274 23.2995 72.49 23.2084 72.8555 23.1686C73.9582 23.2345 75.0505 23.1427 76.1526 23.1686C76.1568 21.9687 76.0167 20.7855 76.0056 19.5932C75.6914 19.5878 75.3585 19.5619 75.047 19.5932Z" fill="#418D12"/>
<path d="M27.9902 80.1104C30.09 80.1166 32.1764 79.9815 34.2764 79.9863C34.5433 80.0232 34.8075 80.0479 35.0762 80.0656C34.8493 80.1543 28.6413 80.3613 27.9902 80.1104Z" fill="#418D12"/>
<path d="M27.5255 81.4307C27.2215 81.398 26.9083 81.4322 26.6035 81.4484C28.3343 81.4063 30.047 81.1916 31.779 81.3101L31.8549 81.2079C33.015 81.1575 34.1802 81.1444 35.3305 81.3247L30.3897 81.4143C29.4597 81.4352 28.4455 81.5404 27.5255 81.4307Z" fill="#418D12"/>
<path d="M46.8496 21.5276C46.9966 19.0783 48.6966 16.2917 51.4042 16.3432C51.1123 16.5689 50.1893 16.6754 49.7271 16.7785L49.7355 16.8224C51.2607 17.1361 50.0754 17.443 50.9226 17.7337C51.3446 17.8786 51.5807 17.6353 52.0668 17.8635L52.0901 17.9451C47.8355 16.9942 47.8533 23.8184 47.8642 26.4571C47.1821 25.1829 48.3748 21.62 48.184 20.766C48.3599 20.4616 48.4872 19.9331 48.5812 19.5724L48.584 19.5723C48.4284 19.629 48.393 19.832 48.2137 19.8756L48.1872 19.7076C48.0095 19.6616 47.6714 20.008 47.4676 20.0695L47.3909 19.96C47.4168 19.892 47.4301 19.8272 47.4453 19.7563L47.3865 19.7284C47.1174 20.1462 46.9118 21.0242 46.8496 21.5276Z" fill="#418D12"/>
<path d="M88.5521 31.1115C88.8001 31.885 88.7521 32.8592 88.8473 33.6704L89.6655 40.4813C89.1798 40.8034 88.72 41.6945 88.3582 42.1924C88.2578 42.4524 88.1678 42.6735 87.9975 42.8974C87.8654 39.4229 88.1803 34.5153 88.5521 31.1115Z" fill="#FFFFFC"/>
<path d="M54.3022 19.7429L54.4873 19.7275C54.6409 19.9688 54.555 23.0748 54.5538 23.6111C53.318 23.6033 52.0711 23.6834 50.8378 23.6111C49.9357 23.7161 51.0669 21.2734 51.3121 20.9625C52.0158 20.0708 53.2471 19.8809 54.3022 19.7429Z" fill="#FFFFFC"/>
<path d="M29.8037 17.945C30.5717 17.8991 31.2434 17.9756 31.9236 18.3537C26.2046 19.3492 27.3367 26.4929 28.2426 30.7411C28.4568 32.0165 27.1817 32.2587 26.9572 30.6175C26.557 27.69 25.3111 18.5687 29.8037 17.945Z" fill="#FFFFFC"/>
<path d="M47.8644 26.457C47.8535 23.8184 47.8358 16.9942 52.0903 17.945C52.619 18.0166 53.0778 18.1178 53.5635 18.3537C51.8363 18.8989 50.7756 18.7826 49.8256 20.6293C48.688 22.8406 48.8912 26.57 49.3066 28.9939C49.4317 29.7232 50.1997 31.2911 49.363 31.5706C48.0896 31.9961 47.9898 27.229 47.8644 26.457Z" fill="#FFFFFC"/>
<path d="M72.4616 17.5915C73.4031 17.4902 74.1944 17.774 75.0461 18.1465C74.3853 18.2327 73.6956 18.2975 73.0653 18.5241C69.3192 19.871 70.1527 27.6295 71.1301 30.36C71.6703 31.9838 70.132 31.8543 69.8754 30.7367C69.1697 27.6641 68.0228 18.5799 72.4616 17.5915Z" fill="#FFFFFC"/>
<path d="M89.6653 41.1646C89.8614 42.0919 89.8902 43.095 90.1536 43.9992C90.161 44.1686 90.1865 44.3604 90.1536 44.526C90.2949 46.0685 90.5186 47.5999 90.6782 49.1393L91.1234 53.441C91.9693 62.3965 93.0664 70.7515 93.2863 79.7951C93.421 85.3244 88.5995 84.1681 84.6602 84.2185C87.4747 80.326 86.3165 81.0583 86.5926 76.3655C86.7912 72.9868 86.8553 69.6048 86.9723 66.2233L87.6859 47.4991C87.8186 44.3297 87.7494 43.9361 89.6653 41.1646Z" fill="#FFFFFC"/>
<path d="M90.1539 44.526C89.5461 45.2227 88.7648 47.883 88.1697 47.7432C87.8046 47.2549 89.1758 44.0977 90.1539 43.9993C90.1613 44.1686 90.1868 44.3605 90.1539 44.526Z" fill="#418D12"/>
<path d="M92.0208 79.9863C93.2631 80.124 91.4787 82.9541 91.1841 83.3097C90.9468 83.2328 90.8559 83.0396 90.7324 82.8387C90.8689 82.0512 91.4576 80.5386 92.0208 79.9863Z" fill="#418D12"/>
<path d="M89.7958 47.8756C90.0749 47.9414 90.3104 48.083 90.5529 48.2288C89.7715 49.3178 89.4354 50.4816 88.7561 51.6586L88.6364 51.7765C88.485 51.7925 88.4346 51.7586 88.2971 51.6998L88.2559 51.5952C88.3035 50.9916 89.4918 48.5699 89.7958 47.8756Z" fill="#418D12"/>
<path d="M90.1538 51.6586C90.861 51.8014 90.6257 52.3232 90.4271 52.819C90.1137 53.6004 88.9684 56.1458 88.5521 56.7673C88.3351 56.7464 88.1913 56.7478 88.0879 56.5283C88.2295 55.7041 89.738 52.7531 90.1538 51.6586Z" fill="#418D12"/>
<path d="M90.5526 56.3499C91.636 56.3945 89.4651 60.8879 89.2914 61.3194C89.087 61.8274 88.9525 62.7215 88.5527 63.095C88.3499 63.0693 88.154 63.0645 88.0273 62.8777C88.06 62.5027 90.0952 56.823 90.5526 56.3499Z" fill="#418D12"/>
<path d="M90.5513 67.8011C90.7694 67.8894 90.979 68.031 91.1836 68.148C90.355 70.3059 89.4055 72.3483 88.3575 74.4092C88.1329 74.4007 87.8891 74.361 87.7383 74.1779C87.8979 73.3767 89.2745 70.8382 89.6817 69.9141C89.9877 69.2196 90.1933 68.4695 90.5513 67.8011Z" fill="#418D12"/>
<path d="M90.7337 76.8901C90.9517 76.9409 91.2513 76.97 91.2848 77.2473C91.37 77.9579 89.0868 82.8286 88.5531 83.5257C87.3072 83.9008 89.1993 80.6743 89.3641 80.279C89.7777 79.2871 90.1484 77.744 90.7337 76.8901Z" fill="#418D12"/>
<path d="M90.3975 62.6439C91.3533 62.7212 90.7517 63.9223 90.5527 64.4377C90.2317 65.2686 88.5107 69.0912 88.0993 69.6403C87.9222 69.6335 87.8045 69.6257 87.6644 69.5158C87.6317 69.1566 89.8957 63.5195 90.3975 62.6439Z" fill="#418D12"/>
<path d="M90.7329 72.2928C90.9445 72.3265 91.1134 72.3781 91.2259 72.5797C91.2726 72.9331 88.362 79.1613 87.9976 79.8183C87.7482 79.7693 87.5308 79.6594 87.3027 79.552C88.0669 77.924 90.1731 72.9292 90.7329 72.2928Z" fill="#418D12"/>
<path d="M44.4416 40.2044C46.9703 40.4528 51.4477 40.2588 54.0455 40.2002L82.8836 39.7356C84.113 39.7276 85.341 39.6842 86.5706 39.6936L85.4149 70.4318C85.3442 72.028 85.2191 73.646 85.2111 75.2416C85.1958 78.3388 86.1166 82.9737 82.1031 83.9339C81.0564 84.1843 76.6515 84.0556 75.3581 84.0042L52.8086 83.2992C46.5489 83.1153 40.3196 83.0637 34.0547 83.1663L17.7504 83.593C16.5042 83.6454 15.2032 83.6203 13.9662 83.7757C12.0353 83.6602 10.1168 84.0355 9.14688 81.8913C10.5672 82.0319 11.9738 81.7917 13.391 81.7847C16.9949 81.767 20.5644 81.7349 24.1659 81.5783C25.2845 81.5297 26.4175 81.6188 27.5253 81.4307C28.4453 81.5405 29.4595 81.4353 30.3895 81.4144L35.3303 81.3247C40.6849 81.3875 46.0481 81.3239 51.4035 81.3247L51.38 81.2677C50.7321 81.1044 48.8111 81.2078 48.0582 81.2084L41.2605 81.1958C41.7003 81.112 41.6205 80.9942 41.842 80.6348C41.541 80.6004 41.4392 80.5125 41.3065 80.2328L41.1674 80.2061C41.0069 79.9886 40.8112 80.0045 40.5192 80.0059C41.1555 79.9198 41.8832 79.9852 42.5287 79.9852L47.355 79.9907C48.1249 79.9935 48.9019 80.0754 49.6695 79.9864C48.8778 79.9276 48.0516 79.9826 47.2565 79.9844L37.0221 79.984C36.114 79.9834 35.1805 79.933 34.2763 79.9864C32.1763 79.9816 30.0899 80.1167 27.9901 80.1105C23.7814 80.3133 19.8444 80.3199 15.6602 80.3856C13.3824 80.4215 11.1299 80.5607 8.84375 80.49C9.22452 78.0306 9.42378 75.5374 9.62933 73.0567L10.7311 60.2956C10.8078 59.2903 10.8329 58.2815 10.8958 57.2752L11.6759 44.7874C11.7487 43.4793 11.8886 42.1456 11.7973 40.8381C13.9709 40.8919 16.1753 40.7385 18.3507 40.7036L35.1211 40.3303C37.9483 40.2552 41.743 40.5913 44.4416 40.2044Z" fill="#FFFFFC"/>
<path d="M67.5654 55.2955C68.0588 55.4346 67.7943 58.806 67.7951 59.4026C69.7773 59.3243 71.7458 59.2118 73.7308 59.2152V56.7674C72.2193 56.8379 68.2347 57.2989 69.1599 56.339C69.7719 55.7041 71.2073 55.6814 72.0215 55.6346C72.9138 55.486 74.8946 54.8863 75.0339 56.2544C75.0851 56.7564 75.1885 60.1941 74.843 60.3376C74.3414 60.5461 68.7806 60.486 67.8979 60.4312C67.4098 60.4007 67.0456 60.431 66.9352 59.8925C66.7029 58.7585 66.9394 56.2605 67.5654 55.2955Z" fill="#418D12"/>
<path d="M59.1802 64.1299C60.5399 64.1213 59.9976 68.5892 59.8104 69.0747C59.1906 69.5626 53.3784 69.2391 52.5933 69.1277C51.0131 68.9032 52.3598 64.462 52.8084 64.4453C53.0411 64.7662 52.9389 66.2446 52.9363 66.6793C52.8901 67.168 52.8598 67.6583 52.8264 68.1479C54.7817 68.082 56.7181 68.03 58.676 68.0322V65.487C57.4138 65.4547 55.0901 65.9127 54.0193 65.5009C53.8187 65.4236 53.5406 65.2523 53.7505 65.0296C54.3942 64.347 58.1461 64.1685 59.1802 64.1299Z" fill="#418D12"/>
<path d="M59.2859 55.438C61.0331 55.1853 60.5974 59.7544 60.4589 60.1216C60.2035 60.7985 52.6139 60.434 52.1909 60.2236C51.4773 59.8686 52.2473 56.5247 52.5463 55.9599C53.2081 54.711 52.9412 57.9644 52.9372 58.1091C52.8942 58.5394 52.8633 58.9715 52.8272 59.4026C54.9461 59.2809 57.0582 59.1992 59.1811 59.2151C59.2311 58.3989 59.1357 57.5851 59.1811 56.7673C57.477 56.6763 52.8501 57.3584 53.8907 56.2976C54.5766 55.5981 58.2155 55.4491 59.2859 55.438Z" fill="#418D12"/>
<path d="M29.1009 45.8563C29.5171 45.7739 30.0502 45.7135 30.2753 46.1781C30.412 46.4602 30.7397 49.8786 30.6315 50.1312C30.2616 50.9958 27.4801 50.54 26.5487 50.5392C25.5837 50.5384 22.5468 50.9398 22.2322 49.6523C21.8123 47.9328 23.065 43.4235 23.1835 47.4351V49.3297C24.536 49.562 27.7241 49.3273 29.3121 49.3297C29.2605 48.6081 29.1668 47.8874 29.1009 47.1666C27.7141 47.1698 23.2066 47.4421 24.1969 46.5116C24.9342 45.8189 28.0431 45.8428 29.1009 45.8563Z" fill="#418D12"/>
<path d="M44.8463 45.4671C45.0328 45.4526 45.2262 45.4651 45.4135 45.4671C45.6145 45.603 45.7872 45.7699 45.9657 45.9335C45.9038 47.0689 46.5234 50.0225 45.8291 50.4062C45.4292 50.6271 38.3789 51.1496 37.7035 49.6023C37.4298 48.9752 37.6866 45.9425 38.4759 45.6223L38.56 45.6634C38.7869 46.0152 38.654 47.0091 38.6478 47.4352C38.5958 48.0769 38.5793 48.6885 38.6478 49.3298C40.2263 49.5119 43.0745 49.2425 44.8463 49.2459C44.681 48.4674 44.6389 47.6621 44.6326 46.8682C43.3879 46.7033 40.507 47.186 39.6166 46.6276C39.0531 45.7197 43.5407 45.6227 44.8463 45.4671Z" fill="#418D12"/>
<path d="M21.234 64.1299C21.8136 64.349 21.6048 67.5046 21.6052 68.1479C23.5627 68.2961 25.5535 67.9182 27.5266 68.0322V65.6814C26.7956 65.6834 22.2463 66.0219 22.4656 64.9638C22.973 64.3721 24.8323 64.4638 25.6137 64.3578C28.9558 64.514 28.851 63.341 28.7611 66.8924C28.745 67.5309 28.938 68.4434 28.6529 69.0337C28.1599 69.4785 24.5004 69.2827 23.75 69.2869C22.6296 69.293 20.9019 69.7443 20.628 68.1892C20.4409 67.1273 20.6009 65.0204 21.234 64.1299Z" fill="#418D12"/>
<path d="M73.5442 45.0936C73.9291 45.0599 74.5816 44.9336 74.8445 45.3095C75.3155 45.9825 75.4577 49.2792 75.2224 50.356C74.6134 50.3097 73.9998 50.3478 73.3896 50.352L70.174 50.3564C69.2166 50.3486 67.5639 50.4902 66.9828 49.5242C66.5287 48.7692 66.859 45.9291 67.5344 45.5118L67.6334 45.544C67.8619 45.9247 67.7948 46.5234 67.795 46.9595C67.8095 47.6639 67.7755 48.3683 67.795 49.0734C68.5024 49.1545 69.27 49.0812 69.9842 49.0764L74.0518 49.0734C73.9309 48.1942 73.8775 47.2519 73.9072 46.3652C69.6158 46.781 68.5373 46.5905 68.7873 46.2415C69.4794 45.2753 72.43 45.2079 73.5442 45.0936Z" fill="#418D12"/>
<path d="M58.9863 45.3557C59.3511 45.3188 59.8969 45.2292 60.2043 45.4764C60.6916 45.8679 60.6522 50.0049 60.4964 50.2015C59.8688 50.6155 54.1495 50.578 53.3874 50.4714C50.8331 50.1142 52.023 46.1163 52.7733 45.5828L52.8599 45.5978C53.0673 45.9474 52.9488 46.758 52.9378 47.1666C52.9185 47.8896 52.8926 48.6071 52.9378 49.3297C55.033 49.4407 57.1961 49.2156 59.2865 49.0733C59.2423 48.285 59.2015 47.4977 59.1817 46.7082C57.8936 46.5556 54.7176 46.9481 53.804 46.614L53.7433 46.459C53.8917 45.3453 58.0836 45.3908 58.9863 45.3557Z" fill="#418D12"/>
<path d="M27.9908 55.4381C30.3374 54.8948 29.2158 60.2558 29.0686 60.5C28.7205 61.0767 25.4748 60.7863 24.771 60.7901C23.2988 60.7978 21.1554 61.3337 20.8227 59.3493C20.5468 57.7036 21.6144 53.3582 21.7552 57.6809C21.7612 58.3233 21.7311 58.9664 21.7552 59.6087C23.6841 59.7978 25.9854 59.4505 27.9908 59.4704C27.9964 58.5692 27.9511 57.6685 27.9908 56.7674C27.2712 56.7674 21.3542 57.3555 22.8027 56.1036C23.4295 55.5618 27.0823 55.4004 27.9908 55.4381Z" fill="#418D12"/>
<path d="M41.0317 53.2932C42.1535 53.2759 42.5 54.973 42.8896 55.8016C43.1887 56.4369 43.5345 57.0499 43.8435 57.6808C44.8838 57.6587 48.8254 57.5463 49.5252 58.4345C50.2719 59.3821 46.3345 62.0359 45.4136 62.7934C45.607 64.5818 45.8819 66.3606 46.0869 68.148C45.1747 70.5478 41.4806 65.3093 40.4181 65.6814C39.3822 66.5482 37.4133 68.2061 36.317 68.9126C35.7975 69.2477 35.1187 68.8785 35.159 68.234C35.2534 66.722 36.1164 64.479 36.3154 62.644L36.2742 62.6013C35.5335 61.8238 32.5147 59.9294 32.4287 58.9969C32.3125 57.7414 34.3165 58.1042 35.0542 58.1052L38.7567 58.1091C39.0346 57.3445 40.289 53.5875 41.0317 53.2932Z" fill="#418D12"/>
<path d="M41.1841 55.438C41.8967 56.2608 42.1564 57.8631 42.9085 58.5464C43.5761 59.153 46.8722 59.0944 47.8647 59.0303C46.8443 59.9437 44.7833 61.4622 44.1335 62.3371C44.0299 63.6807 44.4911 65.5159 44.6325 66.9072C43.3292 65.9988 42.0497 64.8997 40.6679 64.1299C39.8742 64.1737 37.6087 66.3307 36.863 66.9072C37.0537 65.3902 37.731 63.8677 37.6995 62.3371C37.115 61.3482 35.2252 60.1232 34.2773 59.4026C39.9599 59.412 39.2375 60.4906 41.1841 55.438Z" fill="#FFFFFC"/>
<path d="M62.903 79.9864C63.5582 75.3822 63.8421 70.6352 64.5371 66.0978C64.7503 64.7063 67.0517 65.2201 68.3584 65.1695L75.9143 64.8959C76.5566 64.876 79.8591 64.2716 79.3453 65.7749C79.1901 66.2285 77.278 67.9551 76.8754 68.3482L67.324 77.6127C66.3484 78.5705 64.6264 80.586 63.6417 81.3247C63.0936 81.3883 62.5242 81.3384 61.9724 81.3301C58.4502 81.2765 54.9266 81.3875 51.4038 81.3247L51.3803 81.2677C50.7325 81.1044 48.8114 81.2078 48.0586 81.2084L41.2608 81.1958C41.7007 81.1119 41.6208 80.9942 41.8423 80.6348C41.5413 80.6003 41.4395 80.5125 41.3068 80.2328L41.1678 80.2061C41.0072 79.9885 40.8116 80.0045 40.5195 80.0059C41.1558 79.9198 41.8836 79.9852 42.529 79.9852L47.3553 79.9907C48.1253 79.9935 48.9023 80.0754 49.6698 79.9864C51.0783 79.8951 52.5466 79.9907 53.962 79.9901L62.903 79.9864Z" fill="#418D12"/>
<path d="M75.223 66.2502H77.1512C76.6751 66.6491 76.2537 67.1206 75.8017 67.5476L71.7081 71.4881C69.8935 73.2369 67.0604 75.7006 65.5112 77.625C65.1351 77.9462 64.806 78.3199 64.4297 78.6442C64.8295 74.5923 65.5726 70.5488 65.7882 66.4803C68.6432 66.6429 72.3108 66.3859 75.223 66.2502Z" fill="#FFFFFC"/>
</svg>
