<svg width="81" height="80" viewBox="0 0 81 80" fill="none" xmlns="http://www.w3.org/2000/svg">
<path d="M72.4743 6.7627C73.2765 6.76932 73.6318 7.68113 73.7574 8.35604C74.0457 9.90616 73.3393 11.7122 72.4743 12.9699C74.9249 15.1618 75.5723 20.1183 74.3513 23.0313C74.0549 23.7385 73.608 24.3699 73.3484 25.0966C72.9134 26.3135 72.9152 27.6344 72.4212 28.8396C72.0352 29.781 71.4109 30.5736 70.9584 31.475C70.3496 32.6883 70.079 34.0024 69.2849 35.1311C68.8373 35.7674 68.2118 36.216 67.7237 36.8105C67.2115 37.4344 66.8743 38.1817 66.396 38.8302C65.8573 39.5603 65.1766 40.2077 64.6744 40.9555C64.0748 41.8486 63.7588 42.8771 63.2054 43.7936C62.2335 45.4036 60.5918 46.2466 59.3819 47.6303C58.5479 48.5844 57.8324 49.6352 56.9684 50.5666C52.3965 55.4935 46.1265 60.8239 40.5598 64.7197C33.5594 69.6189 19.2165 76.7603 10.7988 71.6769C5.91494 68.5222 5.04549 62.1963 7.53235 57.2085C11.91 48.4285 19.8977 45.1653 28.3344 41.4772C30.4313 40.5605 32.2677 39.986 34.0218 38.4213C35.1548 37.4105 36.0604 36.3092 37.4007 35.5422C41.9566 32.935 40.5969 33.4256 43.8818 29.5561C44.5419 28.7785 45.3852 28.1667 45.973 27.3246C46.5327 26.5227 46.8423 25.5775 47.4171 24.7866C48.8237 22.8511 49.3362 22.9797 50.5123 20.5389C51.3574 18.785 52.4677 18.4047 53.5437 17.0564C54.4515 15.9191 54.7868 14.8152 55.9468 13.7641C56.801 12.9902 57.9607 12.5703 58.9171 11.9254C60.0121 11.1869 60.8327 10.237 62.1138 9.79377C64.2784 9.04499 67.0212 9.24213 69.0746 10.2384C69.648 9.63669 70.4766 9.25943 70.9794 8.59302C71.4994 7.90398 71.4866 6.99598 72.4743 6.7627ZM64.1416 10.7054C61.7791 10.9975 61.6584 11.6028 59.8724 12.85C58.5744 13.7565 57.0344 14.2992 56.0368 15.5911C55.4016 16.4139 54.9984 17.4024 54.3148 18.1906C53.6265 18.9844 52.6755 19.5082 52.0643 20.3696C51.4354 21.2558 51.1459 22.3353 50.5494 23.2463C50.0315 24.0372 49.2084 24.5613 48.6435 25.3161C47.9743 26.2103 47.6149 27.27 46.9859 28.1861C46.3287 29.1432 45.3644 29.8341 44.6149 30.716C43.4794 32.0522 42.9534 33.3672 41.5248 34.5869C40.146 35.7641 38.5452 36.1792 37.1452 37.2047C35.9013 38.116 35.0166 39.4397 33.7094 40.2867C31.6016 41.6528 29.1749 42.5144 26.8865 43.5225C21.5099 45.8913 15.5227 48.701 11.705 53.2258C9.16777 56.233 7.0265 60.0577 7.56763 64.1208C8.31018 69.6961 11.9235 71.5594 17.019 72.0314C26.2521 72.1311 36.3724 66.6344 43.5188 60.8664C47.5766 57.5911 53.0316 53.1903 56.3437 49.1803C57.0863 48.2811 57.781 47.3253 58.5804 46.4767C59.574 45.4219 60.8598 44.6105 61.758 43.4755C62.5326 42.4967 62.8213 41.2364 63.5254 40.2058C64.0337 39.4619 64.6579 38.8122 65.1938 38.0913C65.6746 37.4446 66.0485 36.7255 66.561 36.1013C67.0974 35.4475 67.773 34.9039 68.2579 34.2103C68.938 33.2377 69.1671 32.0063 69.6971 30.9511C70.1066 30.1357 70.6971 29.4436 71.0545 28.5961C71.8237 26.7722 71.5898 25.3936 72.7184 23.2119C75.6559 17.5327 70.4852 10.0386 64.1416 10.7054ZM72.4743 7.51998L72.4445 7.56434C72.1441 8.01549 71.9652 8.53107 71.6394 8.96815C71.1227 9.66126 70.3765 10.1038 69.7734 10.7054C70.2701 10.9498 70.6824 11.2434 71.1071 11.5938C71.406 11.8446 71.6945 12.0963 71.9651 12.3785C72.5344 11.3623 73.7568 8.42323 72.4743 7.51998Z" fill="#418D12"/>
<path d="M14.2026 61.8756C15.2471 62.0851 14.2604 62.8428 13.8731 63.1267C13.1956 63.1192 13.4751 62.2544 14.2026 61.8756Z" fill="#418D12"/>
<path d="M29.9336 57.732C31.1664 57.622 30.2483 58.5694 29.7085 58.9084C28.9111 59.1203 28.9427 58.2838 29.9336 57.732Z" fill="#418D12"/>
<path d="M39.3507 50.9297C40.5076 51.1877 39.2373 52.1041 38.7824 52.348C37.668 52.1192 38.8929 51.1394 39.3507 50.9297Z" fill="#418D12"/>
<path d="M34.4614 46.5575C35.6147 46.5545 34.6155 47.577 34.0311 47.9295C32.8817 48.0228 33.8403 46.9169 34.4614 46.5575Z" fill="#418D12"/>
<path d="M27.6131 50.5034C28.8091 50.6051 27.7281 51.6581 27.2102 51.8815C25.9565 51.8708 27.1734 50.7503 27.6131 50.5034Z" fill="#418D12"/>
<path d="M22.58 61.8756C23.6148 61.6215 22.9573 62.7153 22.1238 63.1267C21.0767 63.0967 21.8372 62.0481 22.58 61.8756Z" fill="#418D12"/>
<path d="M41.3388 40.86C41.725 40.8276 41.8269 41.0417 41.9785 41.3665C41.7313 41.7326 41.3302 42.0073 40.9886 42.2817L40.8708 42.299C40.6379 42.2337 40.5027 42.0136 40.3604 41.8326C40.6227 41.4567 40.9638 41.1223 41.3388 40.86Z" fill="#418D12"/>
<path d="M19.3903 53.9013C20.653 53.7321 19.4733 54.9614 18.8297 55.3125C17.555 55.1399 19.0172 54.13 19.3903 53.9013Z" fill="#418D12"/>
<path d="M58.4801 16.5503C59.7451 16.4316 58.516 17.7255 58.1171 17.9905C57.0393 17.7574 57.8546 16.7616 58.4801 16.5503Z" fill="#418D12"/>
<path d="M62.8054 17.5722C64.1203 17.5477 62.8358 18.8273 62.5261 19.1098C61.5343 19.3694 62.0097 18.1334 62.8054 17.5722Z" fill="#418D12"/>
<path d="M55.2068 19.6102C56.2499 19.7925 54.8562 21.0316 54.4924 21.203C53.4382 20.7408 54.6035 19.8445 55.2068 19.6102Z" fill="#418D12"/>
<path d="M62.3104 36.4844C63.6994 36.3161 62.5025 37.6439 62.1027 38.0063C61.0558 38.3438 61.6241 37.0347 62.3104 36.4844Z" fill="#418D12"/>
<path d="M70.6217 22.3541C71.8139 22.3108 71.2567 23.6233 70.7691 24.1555C69.7313 24.348 70.3352 22.748 70.6217 22.3541Z" fill="#418D12"/>
<path d="M54.4926 37.7334C55.7998 37.6123 54.5736 38.9709 53.9994 39.3369C53.6653 39.37 53.5597 39.1981 53.3667 38.9466C53.5926 38.4908 54.0756 38.0167 54.4926 37.7334Z" fill="#418D12"/>
<path d="M46.7382 45.0751C48.0791 45.0983 46.6005 46.4359 46.0221 46.7395C44.6788 46.6422 46.3819 45.3195 46.7382 45.0751Z" fill="#418D12"/>
<path d="M51.3264 51.4052C52.7653 51.5752 51.0287 52.8469 50.5699 53.1055C49.2464 53.2816 50.7357 51.7366 51.3264 51.4052Z" fill="#418D12"/>
<path d="M67.9913 29.1742C69.18 28.94 68.2783 30.5544 67.642 30.9937C66.3452 31.2044 67.4952 29.5727 67.9913 29.1742Z" fill="#418D12"/>
<path d="M57.4577 46.1636C58.9035 46.2519 56.9463 47.9589 56.5491 48.1972C55.2472 48.0311 57.0455 46.407 57.4577 46.1636Z" fill="#418D12"/>
<path d="M71.4731 16.5503C72.3969 16.5709 72.5086 18.5776 71.7544 18.9736C70.9603 18.874 71.3231 18.1915 71.3338 17.6612C71.3456 17.0665 70.8525 17.1223 71.4731 16.5503Z" fill="#418D12"/>
<path d="M63.7326 12.1146C63.9937 12.0858 64.2976 12.0911 64.3936 12.3855C64.354 12.5673 62.5231 13.67 62.1026 14.0094C61.3093 14.421 61.182 12.9372 63.7326 12.1146Z" fill="#418D12"/>
<path d="M61.8191 30.7234C63.2336 30.862 60.5803 33.5445 60.2331 33.7738C58.6434 34.0189 61.7047 30.8252 61.8191 30.7234Z" fill="#418D12"/>
<path d="M66.4556 13.396C67.6331 13.3902 66.1181 14.6192 65.9321 14.8147C65.4403 15.3318 65.2038 16.0436 64.7156 16.5503C63.2807 16.1207 65.9299 13.6797 66.4556 13.396Z" fill="#418D12"/>
<path d="M68.6585 14.0094C70.0634 13.7148 68.9526 17.352 68.6585 17.8631C67.6662 17.8708 68.1382 17.1972 68.3135 16.6541C68.6184 15.7091 68.3099 14.2289 68.6585 14.0094Z" fill="#418D12"/>
<path d="M59.6846 22.06C59.9419 22.073 60.1579 22.0941 60.2452 22.3673C60.1851 23.0578 58.3536 26.1802 57.821 26.7741C56.4357 27.1078 58.3761 24.6295 58.4827 24.4514C58.9376 23.6908 59.2988 22.858 59.6846 22.06Z" fill="#418D12"/>
<path d="M67.119 20.893C69.2921 20.8759 65.1985 27.1258 64.4399 27.9106C63.0815 27.9855 65.1506 25.7625 65.3607 25.4211C66.6145 23.3842 66.3976 22.5578 67.119 20.893Z" fill="#418D12"/>
<path d="M55.2067 29.9434C56.404 30.0814 54.975 31.6117 54.7064 31.9667C53.1104 34.0764 48.7472 39.1219 46.3595 40.4756C45.9901 40.5542 45.7964 40.0842 46.0593 39.8248C46.5539 39.3367 47.1637 38.9298 47.6868 38.4634C49.9259 36.4669 52.0353 34.233 53.8403 31.835C54.2795 31.2514 54.7151 30.4565 55.2067 29.9434Z" fill="#418D12"/>
<path d="M47.4743 55.9686C49.2508 56.3665 45.5288 58.5983 45.04 58.9693C38.8689 63.6567 30.6666 68.7339 23.0868 70.5809C22.921 70.6054 22.8014 70.6195 22.6732 70.4864C22.1343 69.9278 23.4893 69.6884 23.7968 69.5942C31.238 67.3134 39.4271 62.4914 45.5455 57.5373C46.1671 57.0342 46.78 56.3565 47.4743 55.9686Z" fill="#418D12"/>
<path d="M57.6035 40.86C59.1508 40.8412 56.6363 43.1081 56.3743 43.3979C50.8326 49.5264 43.7202 55.6045 36.9034 60.1434C30.5705 64.3601 24.3041 67.5444 16.6941 68.4769C16.5005 68.4836 16.3416 68.5103 16.1866 68.3675C15.3069 67.5572 17.8574 67.5387 18.1365 67.4976C31.6738 65.5012 48.1541 51.537 56.8376 41.6775C57.0844 41.3972 57.3138 41.0986 57.6035 40.86Z" fill="#418D12"/>
<path d="M52.8441 23.7037C53.0987 23.6991 53.4917 23.7559 53.4222 24.1025C53.2767 24.8289 50.4526 28.6969 49.8439 29.4772C43.7339 37.3094 37.148 41.695 28.1098 45.7309C21.7891 48.5534 14.3529 51.3648 11.4537 58.2514C11.1856 58.8883 10.9218 59.5545 10.7987 60.2356C9.31294 60.2509 10.7684 57.8787 11.1295 57.1391C14.3151 50.6122 21.3069 47.9392 27.518 45.1775C38.0414 40.4986 45.7648 34.9636 52.0997 24.9009C52.3408 24.518 52.5555 24.1155 52.8148 23.7447L52.8441 23.7037Z" fill="#418D12"/>
</svg>
