<svg width="48" height="48" viewBox="0 0 48 48" fill="none" xmlns="http://www.w3.org/2000/svg">
<path d="M35.0996 11H11.9004C10.8659 11 9.87384 11.4149 9.14239 12.1535C8.41093 12.8921 8 13.8938 8 14.9382V32.0618C8 33.1062 8.41093 34.1079 9.14239 34.8465C9.87384 35.5851 10.8659 36 11.9004 36H35.0996C36.1341 36 37.1262 35.5851 37.8576 34.8465C38.5891 34.1079 39 33.1062 39 32.0618V14.9382C39 13.8938 38.5891 12.8921 37.8576 12.1535C37.1262 11.4149 36.1341 11 35.0996 11ZM11.9004 12.5753H35.0996C35.6901 12.574 36.2589 12.7995 36.6906 13.2062C37.1223 13.6128 37.3846 14.1701 37.4243 14.765C33.5707 16.8444 29.7016 18.908 25.8324 20.9874C25.3098 21.3201 24.7558 21.5998 24.1787 21.8223C23.7261 21.9128 23.2596 21.9048 22.8103 21.7989C22.361 21.6929 21.9393 21.4915 21.5732 21.2079C19.3578 20.0265 17.1424 18.8292 14.9426 17.6478C13.1641 16.7026 11.3543 15.7417 9.57574 14.7807C9.61156 14.1831 9.87219 13.6219 10.3043 13.2119C10.7364 12.8019 11.3074 12.5742 11.9004 12.5753ZM37.4399 32.0618C37.4399 32.6884 37.1933 33.2895 36.7544 33.7326C36.3156 34.1757 35.7203 34.4247 35.0996 34.4247H11.9004C11.2797 34.4247 10.6844 34.1757 10.2456 33.7326C9.8067 33.2895 9.56014 32.6884 9.56014 32.0618V16.5687C13.2421 18.5221 16.9084 20.5069 20.5903 22.4761C21.248 22.8836 21.9562 23.2015 22.6965 23.4212C23.7799 23.5994 24.8903 23.3695 25.8168 22.7754C28.079 21.5781 30.3256 20.3652 32.5878 19.1679C34.2104 18.2858 35.8173 17.4351 37.4399 16.5687V32.0618Z" fill="#418D12"/>
</svg>
