<svg width="102" height="102" viewBox="0 0 102 102" fill="none" xmlns="http://www.w3.org/2000/svg">
<path d="M46.7496 60.7699C47.0594 60.7275 47.2722 60.6972 47.5025 60.945C47.7007 61.5034 47.8951 64.265 47.2064 64.7921C46.9389 64.8033 46.6404 64.8013 46.498 64.5242C46.3311 64.1993 46.0197 61.1544 46.7496 60.7699Z" fill="#418D12"/>
<path d="M46.7493 48.2629C47.0549 48.2488 47.2862 48.2416 47.5117 48.4847C47.683 49.0004 47.961 52.0007 47.2061 52.4939C46.9214 52.5567 46.6268 52.5282 46.4533 52.2597C46.3493 52.0991 45.9805 48.7634 46.7493 48.2629Z" fill="#418D12"/>
<path d="M46.7488 54.4893C47.0488 54.4871 47.2411 54.4822 47.479 54.6764C47.6626 54.9766 47.9111 58.4109 47.2056 58.8731C46.9152 58.8341 46.7062 58.8187 46.491 58.6096C46.3117 58.1824 46.0201 54.8814 46.7488 54.4893Z" fill="#418D12"/>
<path d="M46.749 38.8019C47.5215 38.7509 47.5837 39.1734 47.5956 39.8376C47.61 40.6474 47.7773 45.7789 47.3749 46.2025C47.0605 46.2487 46.6798 46.3086 46.4362 46.0576C46.2842 45.2233 45.9204 39.2133 46.749 38.8019Z" fill="#418D12"/>
<path d="M82.794 25.6523C83.2484 25.6305 83.5955 26.0768 83.4249 26.5244C82.9594 27.7472 78.718 27.7399 77.962 29.4047C77.3619 30.7264 78.4799 34.389 77.2687 34.9639C75.9676 34.6223 76.4493 30.6052 76.5943 29.5737C76.8951 27.4349 80.8076 26.3471 82.794 25.6523Z" fill="#418D12"/>
<path d="M90.0494 17.9926C91.429 17.8862 92.2505 18.7379 92.8235 19.9181C94.5824 20.9068 95.7713 22.7459 93.9288 24.4246C93.1962 25.0919 92.3782 25.1296 91.4423 25.1645C90.5169 26.1309 89.6545 26.3574 88.3134 26.1291C87.7655 26.4 84.5095 27.0791 85.2847 25.5768C85.4223 25.3103 87.6145 24.9122 88.3134 24.7124C88.6102 24.8013 88.8925 24.9322 89.1935 25.018C89.6179 24.9128 89.9645 24.7837 90.3319 24.5429C90.501 24.2819 90.6867 23.9213 90.9423 23.7408C91.6537 23.2392 93.2231 24.5471 93.5319 22.5515C93.7301 21.2701 92.2772 21.5313 91.7925 20.9703C91.5182 20.6527 91.4752 20.0668 91.1975 19.6727C90.9243 19.4734 90.6528 19.3748 90.3319 19.2848C89.6802 19.5036 89.4446 19.6818 89.1919 20.3539C88.9447 21.0117 88.1433 20.8809 87.6157 21.1394C86.9236 21.4789 86.9531 22.1766 86.7133 22.8019C85.972 24.7333 83.7322 20.9113 87.897 19.6727C88.3771 18.7852 89.0483 18.2092 90.0494 17.9926Z" fill="#418D12"/>
<path d="M45.0906 29.1519C46.2927 28.9828 47.7349 30.1404 47.9321 31.31C50.3522 32.1201 50.9672 35.0581 48.8363 36.3764C47.7845 37.027 44.894 36.8491 45.4168 35.5811C45.7775 34.7063 48.1668 36.4806 48.8342 34.4129C49.3561 32.7956 47.4189 32.7434 46.9386 32.2155C46.2096 31.4144 47.203 30.9419 45.0906 30.4185C43.2194 30.8568 43.8858 31.7912 43.1192 32.3105C41.5485 33.3747 41.3941 31.4204 40.6349 34.9639C40.3984 35.0326 40.1468 35.0697 39.905 35.1179C37.5857 35.2319 38.2794 39.071 40.4913 38.5092C40.8957 38.4066 41.2236 38.0755 41.622 37.963C43.0684 37.555 42.4673 38.11 44.0553 37.1414C45.2159 37.535 44.858 38.3182 43.9113 38.7947C43.2963 39.1043 42.6827 39.0089 42.0583 39.2105C41.5214 39.3838 41.1019 39.7464 40.5235 39.8344C37.6024 40.2791 35.2676 35.6646 39.5157 33.7624C39.9185 32.0926 40.7525 31.5814 42.3817 31.0891C42.9869 29.9332 43.7459 29.332 45.0906 29.1519Z" fill="#418D12"/>
<path d="M78.7534 9.42653C80.8628 9.266 82.5884 10.3087 83.3612 12.3344C88.4566 13.3437 87.4792 22.1949 80.8377 19.9181C79.9462 21.5038 78.4156 22.4957 76.5403 22.1549C76.2985 22.1198 76.0652 22.0594 75.8287 21.9993C72.9546 24.5963 68.4433 22.0457 69.0804 18.1938C69.3467 16.5837 70.3044 15.9425 71.5539 15.0475C72.2693 13.1884 73.2532 12.2973 75.3317 12.1746C76.0807 10.7211 77.0298 9.67213 78.7534 9.42653ZM78.7534 10.6646C77.1455 11.0804 76.5975 12.1836 76.16 13.6251C73.0717 13.4052 73.603 13.8806 72.4569 16.2365C71.5818 16.6321 70.8084 16.8498 70.44 17.8583C69.6063 20.1414 71.9718 22.7432 74.2943 21.4891C74.7569 21.2395 75.1394 20.8655 75.5889 20.5968C75.9052 20.6846 76.2214 20.7803 76.5403 20.8574C77.9861 21.3536 79.1648 20.3107 79.8501 19.1447C80.5388 17.9728 80.8705 18.6098 81.8112 18.9844C83.9636 19.8414 86.1578 17.1938 85.1191 15.1899C83.8869 12.813 82.6709 14.6987 81.9491 12.5464C81.4572 11.0799 80.2016 10.5408 78.7534 10.6646Z" fill="#418D12"/>
<path d="M68.134 23.0624C68.3524 23.0501 68.5097 23.107 68.6651 23.2684C69.5758 24.2131 67.2622 24.7574 66.7313 24.9556L62.8135 26.4467C58.5022 28.0756 59.3463 28.1646 59.3608 32.7307L63.4601 32.7267C64.4784 32.7237 66.4253 32.2904 66.5142 33.5218C66.5827 34.4717 66.5162 35.4126 66.5612 36.3565L67.4069 56.8316C67.467 58.2887 67.6599 59.8625 67.4993 61.3104C68.7873 60.7743 70.9842 59.4838 72.1736 59.2784C72.1829 56.5579 72.318 53.8294 72.4184 51.1108L72.7601 41.722C72.8057 40.6979 72.7407 37.8962 72.9222 37.1022C73.3547 36.7866 79.7987 36.7719 80.8814 36.9368C81.5566 37.0396 81.3605 37.8909 81.3779 38.4242L81.8825 53.414C81.912 54.2234 81.8496 54.8506 82.3562 55.5313C82.364 56.1813 82.3682 56.8304 82.3562 57.4806C83.7918 57.0495 85.3746 55.6018 86.5261 56.5726V57.6835C86.9929 57.3848 90.8669 55.1468 90.9298 56.6111C90.9852 57.901 90.9396 59.2113 90.9398 60.5038L90.9402 90.6545C91.6056 90.6579 93.2439 90.4884 93.7665 90.7984C94.3311 91.1333 93.9175 91.9594 93.335 91.9724C92.7895 91.9847 92.2357 91.9453 91.6882 91.9445L24.5914 91.9443L9.42624 91.9433C8.94548 91.9435 7.58546 92.1483 7.20736 91.8042C6.94973 91.5698 7.00346 90.991 7.2627 90.7809C7.59484 90.5117 8.73352 90.6458 9.16423 90.6545L9.1622 59.6077C9.16221 58.8971 8.9812 55.4353 9.30392 54.9996C9.68162 54.8057 10.2201 54.8952 10.6352 54.9157C10.8036 49.7952 9.45298 50.9375 15.6565 50.9387L23.3385 50.919C24.6505 50.9232 24.0846 53.7762 24.0796 54.9157C24.4953 54.9115 25.1743 54.8215 25.5086 55.1024C25.6889 55.5277 25.5807 66.5122 25.5805 67.94H33.1968C33.1962 66.4941 33.0526 58.9224 33.3496 58.1389C33.8273 57.7817 35.0745 58.0191 35.6723 58.0568L35.6699 50.4335C35.6689 49.2768 35.438 46.7746 35.8167 45.7493C36.2016 45.4626 37.7569 45.6082 38.301 45.6219C38.311 45.0669 38.1586 42.2197 38.4476 41.947C39.984 40.4972 39.5176 45.2811 39.5164 45.6219C42.2802 45.6285 42.0967 45.0554 42.0893 47.3645L42.0876 58.0568C42.5892 58.0554 43.8807 57.9502 44.2871 58.1582L44.2606 58.2448L44.317 58.2558C44.4768 58.6359 44.3808 66.8497 44.3788 67.94H46.3668C46.3353 67.3151 46.5269 65.8048 47.4276 66.7704C47.677 67.0378 47.596 67.5918 47.5936 67.94C48.5968 67.9627 49.6029 67.9436 50.6063 67.94C50.3898 65.1165 50.8026 61.3648 50.9349 58.5026L51.7226 38.2783C51.9871 31.4728 50.8608 32.7251 58.0613 32.7307C58.1625 27.7054 57.3469 27.1205 62.1316 25.314L65.5035 24.0573C66.3833 23.7364 67.2481 23.3618 68.134 23.0624Z" fill="#418D12"/>
<path d="M76.3128 56.5726C76.8179 56.5365 77.3123 56.5522 77.8169 56.5726C76.8272 57.1931 75.5805 57.5039 74.533 58.0567L73.5024 58.5363C73.4809 57.8836 73.4995 57.2258 73.5024 56.5726H76.3128Z" fill="#FFFFFC"/>
<path d="M74.271 38.1707H80.1201C80.0998 38.6257 80.2348 40.2405 80.0772 40.5226L79.9482 40.5404H74.0963C74.0688 40.075 74.0045 38.5868 74.1529 38.2039L74.271 38.1707Z" fill="#FFFFFC"/>
<path d="M73.9668 41.7877H80.29C80.277 42.5724 80.3416 43.3522 80.29 44.1369H73.9668C73.9736 43.3536 73.9793 42.5708 73.9668 41.7877Z" fill="#FFFFFC"/>
<path d="M73.6234 52.9893H80.6425C80.6335 53.3522 80.7656 55.1376 80.6425 55.2849C78.3075 55.2843 75.9567 55.3466 73.6234 55.2849C73.6009 54.5207 73.633 53.7543 73.6234 52.9893Z" fill="#FFFFFC"/>
<path d="M74.5337 45.432C76.4992 45.431 78.4769 45.4858 80.4404 45.432V47.9175H79.6907H73.8014C73.756 47.0955 73.8112 46.2572 73.8014 45.432H74.5337Z" fill="#FFFFFC"/>
<path d="M73.8011 49.1548H80.4401C80.5035 50.0114 80.5774 50.8525 80.4401 51.7062H73.623C73.696 50.8569 73.73 50.0047 73.8011 49.1548Z" fill="#FFFFFC"/>
<path d="M21.7023 52.1829C22.0651 52.1688 22.4304 52.1799 22.7934 52.1829V54.9156H13.1897C12.7445 54.9313 12.2988 54.921 11.8535 54.9156V52.1829H21.7023Z" fill="#FFFFFC"/>
<path d="M36.8672 46.9125H40.8659V58.0568H36.8672V46.9125Z" fill="#FFFFFC"/>
<path d="M35.186 59.2783H43.1719V67.94H42.383H34.4258V59.2783H35.186Z" fill="#FFFFFC"/>
<path d="M53.2687 34.0188H65.3581C65.2611 34.9715 65.326 35.916 65.3543 36.8706L66.1681 58.4621C66.2876 61.6275 66.5185 64.7682 66.4454 67.94C65.9593 67.9521 65.473 67.9442 64.987 67.94H51.7871C51.9224 65.9542 51.8927 63.9516 51.978 61.9618L53.0942 36.3652C53.1087 35.9674 52.9854 34.234 53.2687 34.0188Z" fill="#FFFFFC"/>
<path d="M10.4141 56.1829H24.344V90.6545H10.4141V56.1829Z" fill="#FFFFFC"/>
<path d="M20.1838 63.7787C20.6799 63.7783 21.5668 63.6316 21.973 63.9398C22.3603 64.2337 22.2081 64.9116 21.7202 64.9977C21.0211 65.1212 20.2121 65.0387 19.4985 65.0387L14.9508 65.0355C14.6535 65.0351 11.9773 65.1969 13.0352 63.986C13.4321 63.5318 15.1091 63.7812 15.6535 63.781L20.1838 63.7787Z" fill="#418D12"/>
<path d="M80.999 56.5725L81.0431 56.5805C81.5871 57.1245 80.7331 58.7257 81.3905 59.0743C81.9665 59.3799 84.5519 57.9449 85.3524 57.6834C85.3113 58.3962 85.2087 58.8225 85.857 59.2783C87.1338 58.8693 88.4267 58.279 89.6266 57.6834V90.6545H79.3635H67.7598V62.6604C70.7048 61.2249 73.6977 59.8813 76.678 58.5213C78.0994 57.8726 79.5125 57.0572 80.999 56.5725Z" fill="#FFFFFC"/>
<path d="M71.8794 77.6078L74.638 77.6013C74.9989 77.6013 76.5321 77.4604 76.7152 77.8702C76.9124 78.3117 76.8469 84.9976 76.7969 85.8625C76.7728 86.2752 76.7375 86.4509 76.3136 86.5571L73.4775 86.5617C72.6418 86.5625 71.4558 86.8924 71.406 85.8059C71.3491 84.5634 70.9751 78.0013 71.8794 77.6078Z" fill="#418D12"/>
<path d="M73.3489 78.8486H75.5901V85.2965H74.8963H72.6863C72.6584 83.1488 72.6859 80.9968 72.6863 78.8486H73.3489Z" fill="#FFFFFC"/>
<path d="M81.5218 77.6079C82.2093 77.5587 85.9755 77.5298 86.484 77.6974C86.7537 78.1948 86.9774 86.1628 86.3529 86.5572C85.6275 86.6164 81.9095 86.6289 81.4059 86.4486C81.178 85.9307 80.9198 78.0079 81.5218 77.6079Z" fill="#418D12"/>
<path d="M82.4746 78.8486H85.3519V85.2965H82.4746V78.8486Z" fill="#FFFFFC"/>
<path d="M72.1741 65.3502C77.2641 65.338 76.8093 64.3308 76.8147 68.9696C76.8161 70.1404 77.4016 74.3871 76.1611 74.5435C70.5897 74.5533 71.4276 75.5127 71.4248 70.4531L71.4167 67.5916C71.4127 66.6419 71.0627 65.4653 72.1741 65.3502Z" fill="#418D12"/>
<path d="M72.6855 66.6259C73.6536 66.6212 74.6214 66.6154 75.5894 66.6259L75.5916 70.9821C75.5939 71.7337 75.6428 72.5131 75.5894 73.2619H72.6855V66.6259Z" fill="#FFFFFC"/>
<path d="M81.8459 65.3501C82.6534 65.3314 85.8042 65.238 86.4166 65.4657C86.8057 65.8422 86.6692 67.5527 86.6694 68.0749L86.67 70.9207C86.6702 71.7686 87.0836 74.3409 86.1379 74.5435C85.3572 74.5449 81.9858 74.6778 81.4391 74.3829C81.0793 74.1889 81.2355 72.3252 81.2351 71.9301L81.2353 68.4906C81.2377 67.5736 80.8 65.529 81.8459 65.3501Z" fill="#418D12"/>
<path d="M82.4756 66.626H85.353C85.3069 68.8345 85.3516 71.0526 85.353 73.262H82.4756C82.4513 71.051 82.4756 68.8371 82.4756 66.626Z" fill="#FFFFFC"/>
<path d="M34.9471 69.1887H66.5275V90.6545H56.964H25.5801V69.1887H34.9471Z" fill="#FFFFFC"/>
<path d="M36.6197 74.3214C37.3034 74.2853 41.933 74.1654 42.3068 74.4899C42.4665 75.1923 42.7791 81.2032 41.9476 81.3635C41.2917 81.3759 36.6037 81.5315 36.2479 81.184C36.1115 80.6884 36.0489 74.9292 36.2254 74.4744C36.3396 74.3622 36.4693 74.351 36.6197 74.3214Z" fill="#418D12"/>
<path d="M37.4414 75.6028H41.1453V80.1366H37.4414V75.6028Z" fill="#FFFFFC"/>
<path d="M47.3746 74.3213C48.1607 74.3173 52.2108 74.2068 52.6144 74.4315C52.9381 74.6116 52.8461 79.8026 52.8106 80.6141C52.781 81.2938 52.6722 81.3281 52.0042 81.3635C50.42 81.4107 48.1683 81.4685 46.5986 81.3635C46.2984 80.3075 46.1314 74.9614 46.6291 74.4853C46.7885 74.3327 47.1642 74.3381 47.3746 74.3213Z" fill="#418D12"/>
<path d="M48.4574 75.6027C49.5033 75.6087 50.5597 75.5475 51.6034 75.6027V80.1365H50.9697H47.7422V75.6027H48.4574Z" fill="#FFFFFC"/>
<path d="M58.0617 74.3214C59.1102 74.367 63.3446 73.8835 63.6466 74.7627C63.757 75.0836 64.3086 81.1175 63.1157 81.3636C62.1778 81.3648 57.4593 81.5437 57.3443 81.1408C57.2067 80.6587 57.1718 75.9267 57.2652 75.0051C57.3254 74.4094 57.5224 74.4027 58.0617 74.3214Z" fill="#418D12"/>
<path d="M58.4785 75.6028H62.4472V80.1366H58.4785V75.6028Z" fill="#FFFFFC"/>
</svg>
