<svg width="102" height="102" viewBox="0 0 102 102" fill="none" xmlns="http://www.w3.org/2000/svg">
<path d="M21.0141 21.6497C21.7038 21.6298 22.8905 22.5982 23.4551 22.961L29.4137 26.7457C31.787 28.2431 31.3611 28.049 29.1548 30.1261C33.8814 34.526 37.7138 34.8063 43.6495 35.7269C44.9835 34.8227 45.9198 33.871 47.4444 33.1478C53.6124 30.2221 61.83 34.0176 68.4801 33.3957C70.345 33.2211 71.5489 32.4575 73.2166 32.0434L73.3008 32.023C72.9351 31.2979 72.033 30.2042 71.9153 29.4685C72.2645 28.7513 75.9879 27.1364 76.8256 26.6953L79.9276 25.0574C80.5857 24.7101 81.2395 24.3328 81.926 24.0463C82.8717 24.4954 83.4502 26.4146 83.9485 27.3081C84.7075 28.6686 94.944 47.3597 94.9487 47.99C94.4176 48.6919 87.0571 52.2736 85.7319 53.1125C84.4208 53.9425 84.2959 51.8762 83.5333 50.6574C82.2055 51.5997 80.7383 52.121 79.5198 53.295C78.8985 53.8937 78.607 54.7348 78.0693 55.3986C76.6483 57.1523 73.3275 60.4314 71.4523 61.6351C71.6425 61.8929 71.8242 62.1577 72.0091 62.4194C73.0992 63.7108 74.3774 65.1192 73.8981 66.9511C73.3086 69.2044 71.2246 70.1583 69.0654 69.5708C69.3461 71.4241 68.2726 73.2316 66.4832 73.8578C65.0191 74.3702 63.5979 73.5775 62.2994 72.9587C62.49 74.8132 61.742 76.5769 59.8366 77.1768C58.3857 77.6336 56.7499 76.7465 55.4783 76.0837C55.4684 78.0105 54.1629 79.7272 52.0671 79.6056C50.5038 79.515 46.9133 77.8125 45.5291 77.1282C44.8032 76.7692 44.0288 76.2944 43.2397 76.1032L43.1576 76.0837C42.2865 77.0499 41.7187 77.6981 40.3801 77.9683C38.0909 78.4298 36.13 77.0523 35.6814 74.7897C31.9841 76.257 28.6266 73.6918 29.798 70.1663C25.9429 70.6663 23.5784 67.0495 26.0665 63.7677C21.5097 65.2246 18.8449 59.6642 22.263 57.1356C20.7651 54.874 19.3947 49.98 17.2833 48.6578C16.9025 51.0875 15.3997 49.4738 14.2257 48.7235C12.5442 47.6488 8.48734 45.2597 7.10945 43.9811C6.84247 43.2383 12.0924 35.5333 12.8171 34.3738L18.5201 25.3106C19.0201 24.529 20.41 22.1472 21.0141 21.6497ZM28.1638 31.3206C24.3528 35.3849 21.3031 40.5396 18.8609 45.5548C18.5989 46.0929 18.3782 46.6686 18.0459 47.1678C20.4706 49.3326 21.8797 53.3032 23.3822 56.2082C25.1317 55.1033 25.6601 52.983 28.1678 53.4799C30.0465 53.852 31.5466 55.6679 31.2728 57.6099C34.5659 54.2451 39.0804 57.2065 38.2073 61.0193C41.4593 60.8532 43.517 63.1408 42.6684 66.3911C44.8373 66.3399 46.6456 68.1384 46.6595 70.3077C46.6707 72.0461 45.0893 73.4721 44.0995 74.7897C45.763 75.6362 51.2372 78.6215 52.8174 78.0944C53.89 77.7368 54.6842 75.9958 53.6381 75.2091C52.4012 74.2789 49.0808 72.9272 48.318 71.8511C47.7572 71.06 48.5246 70.4191 49.4522 71.0169C51.938 72.619 55.617 75.0272 58.3274 75.7872C59.7942 76.1984 61.2071 74.6662 60.8544 73.2139C60.4779 71.6632 58.5495 71.2319 57.3709 70.4356C56.8386 70.076 50.5871 65.4169 53.0765 64.9453C53.6246 64.8415 56.4027 67.9274 57.1633 68.4906C58.9991 69.8597 63.9244 72.7595 65.7913 72.5254C67.6361 72.2941 68.2849 69.776 67.0507 68.4938C66.2899 67.7033 64.5009 66.6451 63.5371 65.9135C62.8106 65.3621 55.7668 59.928 58.4521 59.6624C59.1167 59.5967 61.8844 62.6645 62.5964 63.2948C63.8029 64.3622 67.8745 67.5001 69.4057 68.2436C70.8921 68.9654 72.7516 67.3836 72.549 65.8171C72.4332 64.922 70.7945 63.1227 70.1996 62.3662C65.241 56.0614 59.9817 50.2506 53.4628 45.4699C49.959 42.9004 49.8482 43.2219 46.5858 44.8426C43.2772 46.4859 38.5925 48.5187 35.1383 46.2146C32.6044 44.5242 34.6606 43.0478 36.1876 41.7642C37.8445 40.3715 40.7074 38.357 42.0848 36.8641C38.7013 36.7124 33.7896 35.3611 31.0499 33.5459C30.0351 32.8735 29.1743 31.9768 28.1638 31.3206ZM73.9142 33.1789C67.6546 36.6814 60.7578 33.878 54.1426 33.5084C49.3396 33.2403 47.398 34.578 43.7543 37.5091C41.1485 39.6051 37.6002 42.2013 35.4148 44.5152C38.5796 47.2621 43.6461 44.772 46.6928 43.1149C50.2588 41.1753 52.0075 42.483 55.1215 44.9147C60.001 48.6899 64.5362 53.033 68.4112 57.8452C69.1585 58.7733 69.8577 59.7491 70.6522 60.6378C71.2555 59.9565 72.0229 59.4746 72.6952 58.8696C73.8553 57.8255 74.9579 56.7015 76.0353 55.5737C77.1306 54.4268 77.9092 52.8663 79.0457 51.8788C80.0705 50.9885 81.7605 49.993 82.9896 49.4037C82.0222 47.6589 74.9402 33.8307 73.9142 33.1789ZM81.5049 25.7994C80.0868 26.6617 74.6938 29.1656 73.9142 30.1261C74.1551 30.4281 74.323 30.808 74.5043 31.1489C75.5359 33.0867 76.7409 34.8804 77.8526 36.7692C80.5649 41.3772 83.3343 46.7027 85.5697 51.5469C87.7735 50.4809 91.3056 48.6518 93.256 47.3465C92.7804 46.715 92.4155 46.0112 92.032 45.3221C88.9833 39.8446 86.2046 34.216 83.114 28.7646C82.7749 28.1664 81.829 26.1485 81.5049 25.7994ZM21.343 23.4809C21.0814 24.1455 20.6142 24.7717 20.2302 25.3727L11.8575 38.5984C10.8378 40.2265 9.77794 41.8374 8.78725 43.4823C10.0768 43.9879 15.6039 48.0894 16.1462 48.1359C16.2007 48.0721 16.2208 48.0329 16.2404 47.9514C18.1721 42.271 23.8894 33.772 27.8019 29.5543C28.2401 29.082 28.74 28.6335 29.1548 28.145C28.1748 27.8367 27.2235 27.0561 26.3551 26.5073L23.065 24.4577C22.5252 24.1216 21.9462 23.6794 21.343 23.4809ZM34.0782 57.6099C32.9618 57.7302 32.5741 58.4048 31.8763 59.2028C30.2969 61.009 28.54 62.9549 27.0428 64.8063C25.4316 66.7987 26.9896 68.9588 29.3697 68.8787C31.227 68.4187 35.6467 62.8703 36.5159 61.414C37.6712 59.4782 35.9433 57.1483 34.0782 57.6099ZM38.7543 62.4194C37.0843 62.7083 36.4412 64.0048 35.4216 65.2218L32.8194 68.3595C32.352 68.9301 31.858 69.4935 31.4314 70.0947C30.2421 71.7714 31.699 74.0273 33.7135 73.8893C35.3672 73.7155 36.227 72.0784 37.201 70.9123L39.2625 68.4149C39.7757 67.8045 41.272 66.3889 41.4123 65.6103L41.4294 65.5187C41.7177 63.9373 40.4343 62.266 38.7543 62.4194ZM42.6684 67.7543C41.1933 67.9135 40.7583 68.7952 39.8697 69.8609C38.9324 70.9846 36.846 72.9195 36.9968 74.409C37.1492 75.9135 38.4521 76.6885 39.8562 76.6518C41.5597 76.4044 43.6399 73.2 44.6386 71.8586C45.8571 70.2222 44.8191 67.7583 42.6684 67.7543ZM27.2436 54.8999C25.9041 55.1344 23.1551 57.9938 22.4656 58.9807C21.352 60.5741 22.9724 62.8221 24.904 62.6356C26.4844 62.4376 28.4786 60.027 29.4181 58.8275C30.6957 57.1961 29.4046 54.5658 27.2436 54.8999Z" fill="#418D12"/>
<path d="M72.1651 39.2923C73.2545 39.2837 75.1275 42.6098 75.0576 43.2477C75.0369 43.4384 74.7837 43.5896 74.6394 43.699C74.0922 43.7322 73.3415 41.7675 72.9485 41.1836C72.4443 40.434 71.3695 39.9887 72.1651 39.2923Z" fill="#418D12"/>
<path d="M73.0387 36.5781C74.7561 36.7491 79.5639 43.9813 78.1857 44.729C77.3213 44.7871 77.1796 43.4639 76.8963 42.8354C75.9714 40.7832 74.8777 39.2849 73.2132 37.8252C72.7118 37.3856 72.5777 37.1029 73.0387 36.5781Z" fill="#418D12"/>
<path d="M27.2444 40.4823C28.3282 40.5365 27.5741 41.3891 27.1791 41.8105C26.2802 42.7683 25.9352 43.9874 25.267 44.729C23.2397 44.536 26.6372 40.8481 27.2444 40.4823Z" fill="#418D12"/>
<path d="M27.0327 37.501C28.6772 37.6374 26.3878 39.033 26.2555 39.1507C24.4247 40.7807 23.5792 44.3748 23.0119 44.729C21.0511 44.4437 24.8674 38.2311 27.0327 37.501Z" fill="#418D12"/>
</svg>
