<svg width="102" height="102" viewBox="0 0 102 102" fill="none" xmlns="http://www.w3.org/2000/svg">
<path d="M40.4043 18.5846C41.0234 18.5183 41.5366 19.2141 41.0157 19.6901C40.6483 20.0259 37.401 21.1871 36.5291 21.6029C29.9552 24.7372 24.15 29.5037 20.0798 35.5837C19.6675 36.1994 18.7988 37.8428 18.2359 38.2026C17.1718 38.1753 17.4094 37.2131 17.7926 36.5909C22.1536 29.5121 28.2669 23.8706 35.8507 20.3548C37.2463 19.7078 38.9038 18.9444 40.4043 18.5846Z" fill="#418D12"/>
<path d="M64.6055 19.7201C65.6172 19.7753 66.6639 20.4944 67.5548 20.9329C73.7427 23.9778 79.5252 28.6883 83.1426 34.6246C83.7106 35.5567 86.7122 40.7593 86.4437 41.6311C86.3708 41.8682 86.0652 42.0114 85.865 42.1204C84.9207 42.129 84.5555 40.4306 84.2495 39.7338C80.8777 32.0565 74.3746 25.8225 66.8551 22.2003C66.227 21.8977 62.6163 20.7068 64.6055 19.7201Z" fill="#418D12"/>
<path d="M80.704 75.4609C82.7224 76.0628 79.8182 78.391 79.0359 79.2049C62.5689 96.3361 38.6806 94.5064 22.0583 78.547C20.8798 77.2603 21.843 76.3182 22.9562 77.3497C24.0734 78.3849 25.1434 79.4714 26.3172 80.4454C42.4844 93.8612 64.3485 92.884 78.7203 77.4468C79.2995 76.8246 79.8638 75.856 80.6444 75.4882L80.704 75.4609Z" fill="#418D12"/>
<path d="M47.5762 7.02026C48.5941 7.05945 50.299 8.75088 51.107 9.37509C57.0188 13.9427 63.7405 19.2624 65.5962 26.9445C67.5527 35.0431 61.9278 43.698 56.2367 49.1311C56.6395 51.899 57.0658 58.1047 58.2874 59.9276C58.3311 60.438 58.6934 61.3161 58.3763 61.7544C58.1492 62.0684 57.6187 62.0873 57.3413 61.8393C56.2976 60.9049 54.9543 51.1024 54.8308 49.5642C41.363 40.6539 36.3112 34.4337 43.2753 18.8097C44.9001 15.1646 46.0658 13.4591 46.9003 9.302C47.0515 8.54825 46.87 7.47472 47.5762 7.02026ZM48.3153 9.02974C48.1263 12.725 46.2335 15.9644 44.6912 19.2147C42.3874 24.0692 40.5155 29.4571 42.2565 34.8009C43.9666 40.0501 48.2259 43.0687 52.4557 46.2321C53.1584 46.7576 53.9913 47.217 54.6184 47.8232C54.6308 46.7594 54.3511 41.7957 53.9853 40.9886C53.2309 39.3244 49.0907 36.0733 47.6358 35.1655C47.1678 34.8734 43.8833 33.5319 45.0932 32.63C45.6623 32.2057 46.926 33.1185 47.4023 33.3924C49.7473 34.7399 52.1242 36.4767 53.8477 38.5958C53.7004 37.1397 53.2518 31.8517 52.7559 30.9048C51.8704 29.2136 48.6773 27.0997 46.9656 26.4146C46.5236 26.2375 44.0359 25.7279 45.087 24.7816C46.4184 23.5833 51.6082 27.6087 52.5597 28.4494C52.5201 26.1006 50.7034 19.5812 50.0115 17.3732C49.6682 16.2777 48.1637 14.0479 49.5127 13.5397C49.7208 13.5503 49.8932 13.5483 50.0549 13.6977C51.4857 15.0178 53.1141 24.416 53.8477 27.2963C54.4856 25.9032 56.152 22.7782 57.4242 22.2734C58.0135 22.0395 58.4898 22.595 58.1681 23.16C57.8587 23.7032 57.4019 24.179 57.0196 24.6724C55.9241 26.0873 54.5451 28.5652 54.3053 30.2651C54.2166 30.8932 54.5993 32.5605 54.7019 33.2884C54.9559 35.0898 55.2448 36.9893 55.3023 38.8078L55.3482 38.7381C56.1817 37.4551 59.8117 29.6764 60.9177 29.4146C61.2795 29.3288 61.671 29.5951 61.7365 29.9597C61.8505 30.594 60.3922 32.3517 60.0639 32.9406C58.7773 35.2493 57.6374 37.6386 56.3337 39.938C55.3245 41.7182 55.5846 40.7494 55.7275 42.9037C55.8211 44.3178 55.8233 45.8593 56.2367 47.2198L56.2905 47.1461C56.7335 46.5472 57.2796 46.0195 57.7737 45.4621C59.4857 43.5305 60.9139 41.3436 62.0877 39.0496C64.8672 33.6175 65.5384 28.9977 62.7109 23.564C59.7156 17.8079 53.6684 12.7366 48.3153 9.02974Z" fill="#418D12"/>
<path d="M48.8569 40.0924C49.6023 40.0713 52.7741 42.9699 52.9992 43.3941C53.2443 43.8558 52.96 44.1636 52.5599 44.3585L52.4888 44.3702C51.7898 44.4913 48.8613 41.6575 48.5015 41.1449C48.2224 40.747 48.5186 40.3225 48.8569 40.0924Z" fill="#418D12"/>
<path d="M60.0865 37.0963C62.9597 37.0648 58.5691 42.8569 58.2884 43.0852C57.4519 43.1436 57.1435 42.7099 57.4991 41.9324C57.8788 41.1016 59.6389 37.6595 60.0865 37.0963Z" fill="#418D12"/>
<path d="M94.0868 40.7446C94.1673 40.8588 94.0864 42.9749 94.0762 43.3169C93.5625 60.4398 86.3784 79.0916 65.5188 75.8175C64.5881 75.6715 63.6709 75.4896 62.7266 75.4609C61.4428 76.6745 59.5367 79.9658 58.6267 80.6262C58.1258 80.9896 57.4082 80.4228 57.5622 79.8626C58.7083 77.6385 60.8802 75.9249 61.958 74.0231C59.4243 69.1375 59.504 61.4504 61.8138 56.5255C67.6728 44.0327 80.3947 46.1391 91.2169 41.9872C92.1912 41.6134 93.1061 41.0996 94.0868 40.7446ZM92.5144 43.0852C91.4653 43.3383 90.4636 43.8339 89.4279 44.1586C87.5608 44.7441 85.6429 45.195 83.7388 45.6446C80.1758 46.4859 76.5362 46.8128 73.077 48.1016C62.7132 51.963 58.9536 63.1051 63.0997 72.9613C63.9886 71.8931 65.0883 71.0153 65.9639 69.9344C65.1063 67.2184 64.0859 60.941 65.2073 58.6831C65.5037 58.086 66.3928 57.9247 66.5604 58.7203C66.6799 59.2873 66.3966 60.3179 66.3352 60.9333C66.0665 63.6295 66.4655 66.1317 67.0963 68.7574C68.0441 67.7999 70.5409 65.6294 71.1986 64.6025C72.2678 62.9328 72.3192 57.644 71.9375 55.4213C71.8231 54.7549 71.54 54.0299 71.5339 53.357C71.5277 52.6886 72.3809 52.3087 72.7881 52.9306C73.7191 54.3525 73.8141 60.6898 73.2354 62.788C74.0926 62.0078 74.8461 61.1203 75.6911 60.327C76.5317 59.5383 77.6799 58.704 78.4039 57.8314C78.5358 56.622 78.6758 55.4099 78.6928 54.1921C78.7053 53.288 78.5533 52.3756 78.684 51.4769C80.5838 48.9172 80.0644 55.7338 80.0867 56.1598C81.3639 54.7073 82.8172 53.4024 84.133 51.9808C84.807 51.2528 85.969 49.6824 86.6611 49.1311C86.7476 49.016 89.5974 44.8226 89.7112 47.0951C89.7922 48.7186 80.9585 57.2216 78.8016 59.3154C78.1905 59.9085 77.5423 60.4567 76.997 61.1135C78.3045 60.5302 83.2983 59.2048 84.6664 59.7501C85.0255 59.8931 85.2825 60.3125 85.0825 60.6822C84.7616 61.2759 83.6206 61.1114 83.0706 61.1444C80.3037 61.3114 76.2842 62.4067 74.1432 63.9931C72.9027 64.9123 69.7949 68.0294 68.8398 69.2821C72.6802 69.0921 74.3807 69.5098 78.2557 67.5306C78.7358 67.2853 79.644 66.7222 80.1423 67.1557C81.1856 68.0639 79.2105 68.7474 78.6386 69.006C75.3094 70.5109 71.1189 71.3554 67.5005 70.39C66.4151 71.5845 65.0329 72.7886 64.0693 74.0231C69.7447 75.2437 76.0962 74.722 81.0589 71.5235C89.6016 66.0175 91.9281 54.1939 92.5626 44.6961C92.5879 44.3176 92.7275 43.3781 92.607 43.0629L92.5144 43.0852Z" fill="#418D12"/>
<path d="M63.2507 65.3761C64.5705 65.0916 64.7917 67.4191 64.0699 67.8494C62.814 67.901 62.3576 65.5613 63.2507 65.3761Z" fill="#418D12"/>
<path d="M68.8397 72.0981C70.1881 72.1214 72.335 71.5126 72.7739 72.6818C72.6494 73.0839 72.5538 73.3201 72.1207 73.4675C71.532 73.5018 67.0906 73.9228 68.3279 72.2766C68.4481 72.1168 68.6569 72.1196 68.8397 72.0981Z" fill="#418D12"/>
<path d="M7.92755 35.7717C8.98922 36.201 9.99773 36.8198 11.0364 37.3107C21.67 42.336 35.6283 42.4719 43.2408 52.4744C47.3135 57.8258 48.7186 64.9999 48.2693 71.6062C48.1536 73.3091 47.8041 74.9626 47.5758 76.6492C51.014 78.9711 54.8139 81.0695 58.7938 82.3154C59.375 82.4973 60.0087 82.6308 60.5673 82.871C61.4801 83.2635 60.9611 84.3048 60.0852 84.2181C56.8212 83.5655 52.7358 81.5034 49.9254 79.8489C49.0186 79.315 48.1924 78.653 47.2555 78.1707C46.66 78.4555 45.9383 78.6109 45.2996 78.7779C34.7366 81.5392 23.4775 78.6048 16.4251 69.97C10.0889 62.2122 7.81642 49.942 7.81712 40.2534C7.81722 38.7722 7.77779 37.2446 7.92755 35.7717ZM9.19858 37.9866C9.18956 47.3679 10.1578 56.2299 14.6735 64.7007C20.9138 76.4066 33.1106 80.5788 45.8516 77.1499C44.3545 76.1988 42.2896 74.6594 41.0022 73.4675C38.3901 74.7433 31.8599 74.7479 29.0985 73.8137C28.0681 73.4653 28.1765 72.3581 29.1519 72.4481C29.7699 72.5051 30.3948 72.7117 31.0082 72.8198C33.7935 73.3113 37.1043 73.3796 39.7643 72.3969C37.7231 71.0821 36.0417 69.1608 34.1706 67.6222C30.1227 67.5692 26.3204 67.5453 22.3709 66.3572C22.0332 66.2556 19.6211 65.5302 20.7574 64.7359C21.3355 64.3319 24.1786 65.3699 24.9151 65.532C27.4976 66.1012 30.1645 66.242 32.8018 66.1934C31.885 65.2977 30.904 64.4686 29.9874 63.5693L27.8382 61.4249C27.4277 61.0121 26.9866 60.4768 26.4987 60.1615C24.7573 59.0357 20.6925 57.8904 18.5723 57.6196C17.7211 57.5111 14.9843 57.8125 16.4283 56.1598C19.1382 55.9076 21.9541 56.666 24.3876 57.8314C20.919 54.2772 17.1371 49.8613 14.2089 45.7906C13.7501 45.1527 13.1629 44.466 12.8468 43.7496C12.7843 43.0831 13.534 42.7316 13.9957 43.2012C14.6138 43.8297 15.3286 44.983 15.8832 45.7392C18.9961 49.9848 22.3051 53.3468 25.7435 57.1911C25.2946 55.5822 24.7721 49.6423 26.2027 49.3126C27.4506 49.025 26.8264 51.0624 26.7686 51.6281C26.5545 53.7261 26.779 57.3951 27.6609 59.1648C28.2146 60.2756 32.6675 64.0815 33.9216 65.376C33.311 61.509 32.9062 58.5394 33.5455 54.5158C33.6238 54.023 33.6809 52.6205 34.3292 52.5095C35.6151 52.2894 35.1336 53.7883 35.0201 54.4915C34.5529 57.3814 34.4041 65.6057 36.1473 67.4901C37.3432 68.7829 39.5884 70.7143 41.0022 71.5729C40.9986 70.7004 41.1698 69.8762 41.2947 69.0177C41.8931 64.9069 41.1684 63.0141 40.7163 59.3445C40.6378 58.7066 41.4021 58.3235 41.8622 58.8068C43.1847 60.1957 42.8374 68.2002 42.4703 70.4414C42.3497 71.1771 42.1788 71.9369 42.1513 72.6818C43.2082 73.3537 45.1954 74.9475 46.1973 75.8193C47.8894 68.6868 46.8226 60.748 42.9333 54.4899C36.1357 43.5524 19.6932 43.6032 9.19858 37.9866Z" fill="#418D12"/>
<path d="M44.503 66.795C46.0192 66.606 45.5045 69.26 44.9554 69.7769C43.5868 70.2027 44.1261 67.1172 44.503 66.795Z" fill="#418D12"/>
<path d="M37.5528 76.1503C38.4116 76.1513 39.2868 76.0975 40.1432 76.1503C40.4605 76.9187 40.3781 77.356 39.524 77.4385C39.0794 77.4421 35.9791 77.7373 36.9155 76.4567C37.0894 76.219 37.2725 76.188 37.5528 76.1503Z" fill="#418D12"/>
</svg>
