<svg width="204" height="53" viewBox="0 0 204 53" fill="none" xmlns="http://www.w3.org/2000/svg">
<path d="M178.159 51.9698H26.2177C12.3019 51.9698 1.02686 40.6637 1.02686 26.7097V26.3314C1.02686 12.3774 12.3019 1.07129 26.2177 1.07129H178.159C192.075 1.07129 203.35 12.3774 203.35 26.3314V26.7097C203.35 40.6637 192.075 51.9698 178.159 51.9698Z" fill="#FFFFFC"/>
<path d="M42.7744 23.3471L38.6667 5.63144C37.8493 5.5684 37.2206 5.52637 36.7805 5.52637C34.2028 5.52637 31.625 6.11479 29.0472 7.29163C26.4694 8.46848 24.3528 10.0236 22.7181 11.915C21.0624 13.8273 20.2451 15.7817 20.2451 17.7992C20.2451 19.4383 20.6642 20.6152 21.5025 21.3297C22.3408 22.0442 23.5983 22.4015 25.2958 22.4015C25.2958 22.3384 25.1911 22.0862 24.9605 21.6239C24.73 21.1616 24.6252 20.363 24.6252 19.1862C24.6252 16.6013 25.233 14.4157 26.4695 12.6505C27.685 10.8642 29.4245 9.56126 31.646 8.69964L38.3733 33.6866C37.4931 35.641 36.55 36.7968 35.544 37.1751C35.4183 36.2924 35.1039 35.5989 34.6009 35.1156C34.098 34.6322 33.4483 34.3801 32.6309 34.3801C31.604 34.3801 30.7867 34.6743 30.2208 35.2837C29.655 35.8721 29.3825 36.7127 29.3825 37.7425C29.3825 38.7722 29.7388 39.5708 30.4514 40.2223C31.1639 40.8737 32.1909 41.1889 33.5321 41.1889C35.5441 41.1889 37.1578 40.4744 38.3523 39.0244C39.5679 37.5744 40.6157 35.7881 41.5378 33.6866L53.316 5.75753H50.2143L42.7744 23.3261V23.3471Z" fill="#418D12"/>
<path d="M178.264 16.918C175.309 16.918 172.878 17.8636 170.971 19.776C169.064 21.6884 167.681 23.937 166.822 26.5639C165.983 29.1698 165.543 31.5655 165.543 33.751C165.543 33.8141 165.543 33.8561 165.543 33.8981C165.124 34.7387 164.726 35.3692 164.37 35.7685C163.825 36.3779 163.133 36.6721 162.253 36.6721C160.995 36.6721 160.367 36.0207 160.367 34.6967C160.367 34.3184 160.472 33.6249 160.702 32.6162C160.912 31.6075 161.184 30.4307 161.498 29.0857L163.992 17.3803H157.056C155.526 17.3803 154.205 17.6955 153.157 18.305C152.089 18.9144 151.125 20.0702 150.286 21.7725C149.448 23.4747 148.693 25.9124 148.023 29.1067C147.96 29.3589 147.897 29.6321 147.834 29.9263C147.771 30.2205 147.708 30.5147 147.646 30.8089C147.31 32.5322 146.975 33.8981 146.703 34.8859C146.409 35.8736 146.011 36.6931 145.508 37.3446C144.984 37.9961 144.313 38.3113 143.454 38.3113C142.301 38.3113 141.673 37.8069 141.61 36.7982C142.155 36.8613 142.595 36.7142 142.951 36.3359C143.307 35.9576 143.496 35.3902 143.496 34.6337C143.496 33.8771 143.265 33.3307 142.804 32.8684C142.343 32.4061 141.757 32.1749 141.044 32.1749C140.206 32.1749 139.514 32.4901 138.99 33.0996C138.466 33.709 138.173 34.5496 138.11 35.6214C137.02 36.3149 135.532 36.9663 133.688 37.5968C134.966 36.0627 135.972 34.1713 136.685 31.9648C137.397 29.7582 137.754 27.2784 137.754 24.5044C137.754 19.4608 135.742 16.939 131.718 16.939C128.763 16.939 126.311 17.8847 124.362 19.797C122.413 21.7094 121.009 23.958 120.128 26.5849C119.248 29.1908 118.808 31.5865 118.808 33.709C118.808 33.7931 118.808 33.8981 118.808 33.9822C118.452 34.6757 118.117 35.2641 117.76 35.6634C117.194 36.3359 116.44 36.6721 115.497 36.6721C114.805 36.6721 114.323 36.504 114.03 36.1468C113.736 35.8105 113.611 35.3062 113.611 34.6757C113.611 34.1503 113.715 33.4148 113.925 32.4901C114.135 31.5655 114.365 30.5988 114.617 29.6321C115.036 28.0349 115.35 26.669 115.56 25.5552C115.769 24.4414 115.895 23.4326 115.895 22.508C115.895 20.7217 115.434 19.3767 114.491 18.4941C113.548 17.6115 112.269 17.1702 110.677 17.1702C108.581 17.1702 106.737 18.0528 105.165 19.8181L105.689 17.3593H98.8985L93.9106 40.9802H100.701L103.907 25.8073C104.285 24.5254 104.788 23.4747 105.416 22.6761C106.045 21.8775 106.779 21.4782 107.575 21.4782C108.707 21.4782 109.272 22.2768 109.272 23.895C109.272 24.5675 109.168 25.4291 108.937 26.5008C108.707 27.5726 108.476 28.6654 108.225 29.7582C108.162 29.9683 108.036 30.4937 107.868 31.2713C107.701 32.0488 107.533 32.8684 107.365 33.709C107.219 34.5496 107.135 35.2851 107.135 35.9576C107.135 37.4707 107.575 38.7316 108.476 39.7613C109.377 40.7911 110.781 41.2954 112.689 41.2954C114.323 41.2954 115.895 40.707 117.425 39.5302C118.117 39.0048 118.766 38.2273 119.374 37.2185C119.709 38.1012 120.191 38.8367 120.841 39.4041C122.182 40.6019 124.026 41.1904 126.353 41.1904C128.197 41.1904 130.272 40.8541 132.514 40.1606C134.778 39.4671 136.727 38.6265 138.361 37.6178C138.634 38.7106 139.2 39.6142 140.017 40.2867C140.834 40.9592 141.924 41.2954 143.307 41.2954C144.963 41.2954 146.262 40.8541 147.184 39.9925C148.107 39.1309 148.819 37.954 149.301 36.441C149.783 34.9489 150.37 32.6583 151.02 29.569C151.523 27.2784 152.026 25.4921 152.508 24.2102C152.99 22.9283 153.577 22.0036 154.268 21.3942C154.96 20.8058 155.861 20.4905 156.951 20.4905L154.876 29.8422C154.184 32.8054 153.849 34.9489 153.849 36.2728C153.849 37.7019 154.331 38.8787 155.274 39.8454C156.238 40.8121 157.6 41.2744 159.403 41.2744C162.043 41.2744 164.265 39.9085 166.025 37.1555C166.34 38.0801 166.822 38.8577 167.45 39.4461C168.729 40.665 170.531 41.2744 172.815 41.2744C177.405 41.2744 180.109 38.9418 180.968 34.2764C180.151 35.0119 179.249 35.6004 178.243 36.0627C177.238 36.525 176.294 36.7772 175.414 36.7772C173.465 36.7772 172.501 35.4743 172.501 32.8684C172.501 32.6162 172.522 32.1329 172.585 31.4604C174.471 31.3343 176.253 30.8299 177.908 29.9263C179.564 29.0226 180.905 27.8458 181.911 26.3537C182.917 24.8617 183.42 23.2435 183.42 21.4782C183.42 18.4521 181.701 16.939 178.243 16.939M130.922 35.075C130.02 36.2939 129.119 36.9243 128.218 36.9243C127.317 36.9243 126.688 36.6721 126.332 36.1468C125.976 35.6214 125.808 34.6127 125.808 33.0996C125.808 31.5024 126.101 29.6321 126.709 27.5306C127.317 25.4291 128.092 23.6008 129.056 22.1087C130.02 20.5956 131.026 19.8391 132.074 19.8391C132.766 19.8391 133.248 20.1333 133.499 20.7217C133.772 21.3101 133.897 22.2978 133.897 23.6638C133.897 25.9965 133.625 28.182 133.08 30.1995C132.535 32.238 131.802 33.8561 130.922 35.096M178.83 25.1138C178.181 26.2907 177.342 27.2574 176.294 28.0139C175.247 28.7705 174.115 29.1698 172.92 29.1908C173.465 26.711 174.262 24.4624 175.351 22.4659C176.441 20.4695 177.531 19.4608 178.621 19.4608C179.417 19.4608 179.794 20.1123 179.794 21.3942C179.794 22.6761 179.48 23.916 178.83 25.0928" fill="#418D12"/>
<path d="M179.459 0H24.5412C11.0027 0 0 11.0329 0 24.6086V28.3914C0 41.9671 11.0027 53 24.5412 53H179.459C192.997 53 204 41.9671 204 28.3914V24.6086C204 11.0329 192.997 0 179.459 0ZM201.883 28.3914C201.883 40.7902 191.824 50.8775 179.459 50.8775H76.5157L78.9258 39.5504C79.5755 40.6852 80.9168 41.2526 82.9287 41.2526C85.7579 41.2526 88.0214 40.3699 89.7608 38.5837C91.4793 36.7974 92.7158 34.6538 93.4284 32.111C94.1619 29.5682 94.5182 27.0674 94.5182 24.5876C94.5182 21.9397 93.9942 20.0274 92.9673 18.8715C91.9404 17.7157 90.5362 17.1273 88.7758 17.1273C86.6801 17.1273 84.8358 17.7998 83.264 19.1657L84.0185 15.6142H77.2283L73.6445 32.5313C72.9529 34.1075 72.3452 35.2002 71.8212 35.7887C71.2973 36.3981 70.6057 36.6923 69.7255 36.6923C68.468 36.6923 67.8393 36.1039 67.8393 34.9481C67.8393 34.3806 67.9441 33.5611 68.1327 32.4893C68.3213 31.4806 68.4052 30.7661 68.4052 30.3247C68.4052 28.8327 68.0699 27.7399 67.3992 27.0254C66.7286 26.3109 65.5759 25.9326 63.9412 25.9326C63.2496 25.9326 62.5999 25.9956 61.9712 26.1217C62.5999 25.4913 63.2496 24.7347 63.8993 23.8521C64.4652 23.0956 64.9891 22.4861 65.4502 22.0028C65.9112 21.5404 66.4561 21.0991 67.0429 20.7209C67.001 21.3513 67.2106 21.9187 67.6507 22.4021C68.0908 22.8854 68.7405 23.1376 69.6207 23.1376C70.5638 23.1376 71.2973 22.8644 71.8003 22.318C72.3242 21.7716 72.5757 21.0151 72.5757 20.0694C72.5757 17.9889 71.6117 16.9592 69.6626 16.9592C68.6567 16.9592 67.6297 17.2954 66.5819 17.9679C65.534 18.6404 64.3814 19.6491 63.1239 20.973C61.8665 22.297 60.1689 24.2094 58.0313 26.7312L60.0641 17.3795H53.2739L48.2441 41.0004H55.0343L57.1091 31.0393C57.9893 30.3458 58.618 29.8834 58.9743 29.6523C59.3306 29.4211 59.7288 29.295 60.127 29.295C61.3216 29.295 61.9083 30.0515 61.9083 31.5646C61.9083 32.0059 61.8245 32.6154 61.6778 33.414C61.4683 34.7379 61.3425 35.6205 61.3425 36.0619C61.3425 37.701 61.8245 38.9829 62.7676 39.9076C63.7107 40.8323 65.1568 41.2946 67.0429 41.2946C69.0549 41.2946 70.8153 40.433 72.3242 38.7308L69.7465 50.9195H24.5412C12.1763 50.9195 2.11672 40.8323 2.11672 28.4334V24.6507C2.11672 12.2518 12.1763 2.16455 24.5412 2.16455H179.459C191.824 2.16455 201.883 12.2518 201.883 24.6507V28.4334V28.3914ZM79.6593 36.0619L82.4467 22.8434C82.8868 22.1289 83.3897 21.5615 83.9765 21.1412C84.5634 20.7419 85.1292 20.5317 85.6951 20.5317C87.2669 20.5317 88.0423 21.8347 88.0423 24.4615C88.0423 26.1638 87.8118 27.9921 87.3507 29.9675C86.8897 31.9429 86.1771 33.6241 85.1921 35.0531C84.2071 36.4611 82.9496 37.1757 81.4407 37.1757C80.4976 37.1757 79.9108 36.8184 79.6593 36.0829" fill="#418D12"/>
</svg>
