<svg width="48" height="48" viewBox="0 0 48 48" fill="none" xmlns="http://www.w3.org/2000/svg">
<path d="M24 13.7778C22.8133 13.7778 21.6533 14.1199 20.6666 14.7609C19.6799 15.4018 18.9108 16.3129 18.4567 17.3788C18.0026 18.4447 17.8838 19.6176 18.1153 20.7491C18.3468 21.8807 18.9182 22.9201 19.7574 23.7359C20.5965 24.5517 21.6656 25.1072 22.8295 25.3323C23.9933 25.5574 25.1997 25.4419 26.2961 25.0004C27.3925 24.5589 28.3295 23.8112 28.9888 22.8519C29.6481 21.8926 30 20.7648 30 19.6111C30 18.064 29.3679 16.5803 28.2426 15.4863C27.1174 14.3923 25.5913 13.7778 24 13.7778ZM24 24.1481C23.077 24.1481 22.1748 23.882 21.4073 23.3835C20.6399 22.885 20.0418 22.1764 19.6886 21.3473C19.3354 20.5183 19.2429 19.6061 19.423 18.726C19.6031 17.8459 20.0475 17.0374 20.7002 16.4029C21.3528 15.7684 22.1843 15.3363 23.0896 15.1612C23.9948 14.9862 24.9331 15.076 25.7859 15.4194C26.6386 15.7628 27.3674 16.3443 27.8802 17.0904C28.393 17.8366 28.6667 18.7137 28.6667 19.6111C28.6667 20.2069 28.546 20.7969 28.3114 21.3473C28.0769 21.8978 27.7332 22.3979 27.2998 22.8193C26.8665 23.2406 26.352 23.5747 25.7859 23.8028C25.2197 24.0308 24.6128 24.1481 24 24.1481ZM24 6C20.2882 6.00386 16.7295 7.43912 14.1049 9.99086C11.4802 12.5426 10.004 16.0024 10 19.6111C10 24.5402 12.3617 29.7854 16.8333 34.781C18.8563 37.0536 21.1331 39.1003 23.6217 40.8833C23.7336 40.9593 23.8668 41 24.0033 41C24.1398 41 24.2731 40.9593 24.385 40.8833C26.8713 39.0999 29.1458 37.0532 31.1667 34.781C35.635 29.7854 38 24.5402 38 19.6111C37.996 16.0024 36.5198 12.5426 33.8951 9.99086C31.2705 7.43912 27.7118 6.00386 24 6ZM30.1833 33.9076C28.3208 35.9815 26.2493 37.8689 24 39.5416C21.7504 37.8669 19.6789 35.9773 17.8167 33.9011C14.8583 30.5972 11.3333 25.4282 11.3333 19.6111C11.3333 16.345 12.6679 13.2127 15.0433 10.9032C17.4188 8.59374 20.6406 7.29629 24 7.29629C27.3594 7.29629 30.5812 8.59374 32.9567 10.9032C35.3321 13.2127 36.6667 16.345 36.6667 19.6111C36.6667 25.4282 33.1417 30.5972 30.1833 33.9076Z" fill="#418D12"/>
</svg>
