<svg width="22" height="22" viewBox="0 0 22 22" fill="none" xmlns="http://www.w3.org/2000/svg">
<path d="M10.1544 21.0279L9.89037 20.8491C8.56911 19.9247 7.34136 18.8733 6.22463 17.71C4.2625 15.6544 2.0625 12.573 2.0625 8.93612C2.0625 4.46187 5.69388 0 11 0C16.3061 0 19.9375 4.46187 19.9375 8.9375C19.9375 12.5744 17.7375 15.6557 15.7754 17.7086C14.6586 18.8719 13.4309 19.9233 12.1096 20.8477C11.9978 20.9257 11.9098 20.9853 11.8456 21.0265C11.5665 21.2121 11.2819 21.3881 11 21.5669C10.7181 21.3881 10.4335 21.2121 10.1544 21.0279ZM11 11.6875C11.7293 11.6875 12.4288 11.3978 12.9445 10.882C13.4603 10.3663 13.75 9.66685 13.75 8.9375C13.75 8.20815 13.4603 7.50868 12.9445 6.99296C12.4288 6.47723 11.7293 6.1875 11 6.1875C10.2707 6.1875 9.57118 6.47723 9.05546 6.99296C8.53973 7.50868 8.25 8.20815 8.25 8.9375C8.25 9.66685 8.53973 10.3663 9.05546 10.882C9.57118 11.3978 10.2707 11.6875 11 11.6875Z" fill="#F53420"/>
</svg>
