<svg width="81" height="80" viewBox="0 0 81 80" fill="none" xmlns="http://www.w3.org/2000/svg">
<path d="M18.2592 29.4158C18.9464 29.5659 18.282 30.3862 18.1325 30.7792C17.2302 33.1506 17.4825 35.7576 18.14 38.157C18.2556 38.5789 19.0183 39.8212 18.0998 39.7548C16.9013 38.2142 16.3988 33.5105 16.9366 31.7187C17.1273 31.083 17.6439 29.7456 18.2592 29.4158Z" fill="#418D12"/>
<path d="M21.556 21.8447C21.0629 18.7091 21.8745 15.4822 23.6851 12.8849C25.1368 10.8024 25.5096 11.2863 27.1182 12.1538C27.8937 12.5721 28.6045 12.6999 28.4366 13.7767C28.2241 15.1396 25.6474 14.3616 25.5343 19.3277C25.5198 19.9689 25.6148 20.6121 25.5388 21.2506C27.5163 20.7658 29.0121 20.385 31.0816 21.2046C32.4876 21.7613 32.1195 21.8692 33.7135 21.8447C33.434 22.2728 33.1556 22.7033 32.9249 23.1605C32.4452 24.0855 32.1104 25.0139 31.8621 26.025C31.7313 26.531 31.6234 27.0703 31.4451 27.5608C30.2876 26.1864 29.4645 25.4686 27.5849 25.3094C25.6481 25.1452 23.5137 25.7852 22.0234 27.0433C18.1163 30.3417 20.0785 38.3183 21.6201 42.2822C22.5631 44.7071 23.4651 46.1947 23.6616 48.9753C23.8449 51.5694 23.1232 55.2216 24.8618 57.2949C25.2766 57.7897 26.1274 59.1558 24.7406 58.8561C24.1774 58.7346 23.669 57.9392 23.3916 57.4772C21.5849 54.4675 22.817 50.9778 22.2146 47.7138C21.8841 45.9231 21.0504 44.3163 20.4024 42.6308C18.8801 38.6703 17.1413 30.9897 20.1451 27.266C13.716 26.0127 10.2769 32.0094 12.3077 37.7617C12.5257 38.3791 12.8106 38.9741 13.0501 39.5836C14.0723 42.1855 14.5136 44.2289 15.1654 46.9102C16.9276 54.1602 19.9087 63.731 27.7012 66.6231C28.2004 66.8085 28.7099 66.9055 29.2212 67.0438C28.0112 65.6541 26.892 64.0978 26.294 62.3361C26.129 61.8496 25.7254 60.4564 26.7412 60.6125C27.4171 60.7163 27.4485 61.6922 27.636 62.1914C28.179 63.6361 29.1674 65.0135 30.2101 66.1374C30.4829 66.4316 31.069 66.8947 31.2518 67.1925L31.2385 67.2764C32.162 68.2271 33.3613 68.9413 34.2087 67.5085C34.5599 67.7655 34.8709 68.0739 35.2149 68.3408L35.1602 68.38C34.3541 68.9647 33.9891 69.7078 32.7284 69.5294C31.7684 69.3936 30.4859 67.9003 29.5495 68.3472L29.5668 68.3971C26.497 68.1061 23.7863 66.2535 21.6912 64.0958C17.0263 59.2916 15.0755 52.5269 13.6896 46.1272C13.2767 44.221 12.8348 42.3492 12.1079 40.5303C11.7223 39.5653 11.2549 38.6461 10.9576 37.6456C9.74946 33.5814 10.7813 28.5891 14.8741 26.6464C16.8848 25.6919 15.7931 26.5116 17.0416 24.8247C18.141 23.3396 19.7965 22.3549 21.556 21.8447ZM22.2873 25.3128C23.6646 24.5864 25.1118 24.0802 26.6756 23.9774C25.9677 23.6422 25.1945 23.3353 24.8668 22.5672C24.6904 21.321 24.2082 20.6022 24.2462 18.9903C24.3374 17.5153 24.8418 15.2271 25.9921 14.2129C26.3821 13.8691 26.9093 13.7653 27.1773 13.5261C27.0982 13.1817 26.4063 13.3709 26.1493 13.3646C25.7531 12.9814 25.552 12.4698 25.099 13.09C23.2363 15.6403 22.3226 18.6196 22.8252 21.7767C23.1777 23.9908 23.3941 23.4694 22.2873 25.3128ZM21.556 23.1605C20.1543 23.7335 18.682 24.4522 17.9337 25.8528H18.6477C19.3398 25.8692 20.041 25.931 20.6877 26.1994C20.8841 26.0781 21.0815 25.9628 21.2843 25.8528C21.4223 25.1767 22.3687 23.1371 21.556 23.1605ZM28.069 22.0688C24.8827 22.1503 26.9504 22.8156 27.6676 23.9774C27.9766 24.0111 28.3929 24.1769 28.6621 24.1717C29.2482 23.2533 29.8234 23.0375 30.4898 22.3446C29.7001 22.155 28.8863 21.9706 28.069 22.0688ZM29.8574 24.5653C30.6557 24.8994 31.2541 25.4235 31.8621 26.025C32.1104 25.0139 32.4452 24.0855 32.9249 23.1605C32.022 22.8497 30.4715 23.9697 29.8574 24.5653Z" fill="#418D12"/>
<path d="M24.1598 19.1005L24.2462 18.9903C24.2083 20.6022 24.6904 21.3209 24.8669 22.5672V22.7153C25.1467 23.2437 24.6058 23.483 24.2694 23.0056C23.9428 22.5422 22.6358 18.5103 24.1598 19.1005Z" fill="#418D12"/>
<path d="M24.1599 19.1005L24.2463 18.9903C24.2083 20.6022 24.6905 21.3209 24.8669 22.5672V22.7153C24.3294 22.0656 23.899 19.6987 24.1599 19.1005Z" fill="#418D12"/>
<path d="M51.294 17.0583C51.7967 14.1477 53.1594 11.473 55.3011 9.40685C56.4409 8.30723 60.1503 5.40451 61.579 5.63814C62.5456 5.79618 62.8962 6.57581 63.2544 7.36926C64.8009 8.4364 64.5181 10.5513 62.8087 10.8198C62.4117 10.8822 61.9934 10.8224 61.6019 10.907C59.0156 11.4659 57.079 15.4242 56.5515 17.7732C59.177 18.5382 61.5478 20.1458 62.6604 22.7153C68.2319 24.0107 71.689 29.6082 70.3643 35.1478C70.0587 36.4261 69.5365 37.6485 69.0744 38.8752C67.6531 42.6471 66.7812 46.5542 65.677 50.4225C63.6575 57.4975 59.7384 67.4938 53.0778 71.5774C50.9831 72.8616 48.0125 73.8025 45.6337 72.7939C43.4528 74.3114 41.3947 74.2035 39.8098 71.9311C38.4822 70.0278 39.1408 71.0416 37.2168 69.8814C36.4892 69.4425 35.8848 68.9061 35.2148 68.3971C33.9839 69.6974 32.7009 70.1452 31.2281 68.9047C30.5922 68.3691 30.3945 68.421 29.5667 68.3971L29.5494 68.3472C30.4858 67.9003 31.7683 69.3936 32.7283 69.5294C33.989 69.7078 34.354 68.9647 35.1601 68.38L35.2148 68.3408C34.8708 68.0739 34.5598 67.7655 34.2086 67.5085C33.3612 68.9413 32.1618 68.2271 31.2384 67.2764L31.2517 67.1925C31.7881 67.6527 32.2762 68.0457 32.9248 68.3408C33.5628 68.1863 33.8325 67.906 34.2086 67.3891C32.505 65.9191 31.1612 63.3494 30.3562 61.3016C26.4011 51.2403 29.5709 40.9372 30.9748 30.8221C31.1258 29.735 31.2293 28.6382 31.445 27.5608C31.6233 27.0703 31.7312 26.531 31.862 26.025C32.1103 25.0139 32.4451 24.0855 32.9248 23.1605C33.1554 22.7033 33.4339 22.2728 33.7134 21.8447C35.0928 19.3989 38.2275 17.8394 41.0145 17.7738C41.5983 17.76 42.195 17.8127 42.7759 17.7732C46.0001 15.7961 47.5095 15.3225 51.294 17.0583ZM40.5251 19.1005C34.309 19.9472 33.0404 25.3557 32.3206 30.6664C31.5287 36.5077 30.1865 42.2941 29.9329 48.1964C29.6062 55.8008 31.2 64.8755 38.3879 68.9549C37.8303 67.3946 36.4114 61.6638 37.1262 60.1188C37.379 59.5724 38.1919 59.6102 38.3542 60.1953C38.4839 60.663 38.3748 62.1239 38.4267 62.7492C38.6162 65.0313 39.75 70.7938 41.9401 72.1514C45.0864 74.1021 51.0164 64.31 51.8989 62.203C52.1158 61.6852 52.4534 60.081 53.3509 60.591C54.9922 61.5236 49.475 68.8491 48.1681 70.3107C47.7017 70.8325 47.1675 71.3003 46.7214 71.8374C50.2761 71.861 52.6504 70.608 55.1426 68.1472C62.2365 61.1427 63.7926 50.8367 66.6101 41.7807C67.4081 39.2157 69.2086 35.4397 69.2215 32.9428C69.2365 30.0599 67.9372 27.3683 65.7101 25.5653C63.6136 24.0657 61.4464 23.6499 58.9615 24.1717C64.6945 31.1489 61.2454 42.795 58.1689 50.2535C57.8054 51.1346 55.7909 56.0694 55.1937 56.5674C54.7515 56.936 54.2808 56.5447 54.1478 56.0999L54.1312 56.046C54.1279 56.0352 54.125 56.0242 54.1219 56.0135L54.1351 55.955C54.2983 55.2502 54.7654 54.5549 55.0872 53.9071C59.0108 46.0083 66.5112 25.6039 53.0337 22.406C46.6648 20.8947 43.1939 26.505 41.9219 31.9852C40.5784 37.7732 41.9065 42.6405 39.1339 48.4675C37.9042 51.0517 37.0439 52.5507 37.0276 55.5377C37.0243 56.1641 37.1228 56.7621 37.009 57.3852C36.9061 57.5535 36.8165 57.7255 36.6142 57.7824C35.4389 58.1133 35.6464 55.4589 35.67 54.8741C35.7911 51.8692 36.8869 50.1649 38.1219 47.5408C39.7344 44.1144 39.7433 40.4364 39.9459 36.7266C40.2334 31.4641 42.0142 24.391 47.1375 21.7308C45.2786 19.8525 43.2923 18.8325 40.5251 19.1005ZM61.2384 6.99731C59.81 7.41814 56.4008 10.1301 55.3869 11.2749C54.2589 12.5484 53.354 14.3549 52.8912 15.9846C52.304 18.0528 52.2353 19.4653 50.2111 20.8602C51.332 20.8514 52.3544 20.875 53.4544 21.1325C54.2198 21.3403 54.9556 21.6367 55.7181 21.8447C53.6069 17.6716 56.6511 11.7943 60.5508 9.84646C61.624 9.31042 62.6722 9.76778 62.922 8.90939C61.7964 8.29051 61.7595 7.18034 61.2384 6.99731ZM47.3331 17.3466C46.264 17.3802 45.3706 17.6896 44.4809 18.2719C45.979 18.9122 47.2106 19.7853 48.2862 21.0153L48.4589 21.2507C49.0033 20.0996 50.1037 19.3028 50.8534 18.2719C49.7086 17.8205 48.5919 17.3069 47.3331 17.3466ZM56.3242 19.1005C56.4533 20.31 57.0886 21.5686 57.4014 22.7853C57.5481 22.9269 57.6989 23.043 57.8647 23.1605C58.7272 23.04 59.4644 22.6675 60.4158 22.5672C60.6276 22.5666 60.8403 22.5614 61.052 22.5672C60.1008 21.0372 58.122 19.4941 56.3242 19.1005Z" fill="#418D12"/>
<path d="M56.3242 12.19C57.0104 12.3998 56.3079 13.4673 56.1235 13.8171C55.5581 14.8902 55.099 15.9852 54.73 17.1414C54.5407 17.7344 54.5428 18.9119 53.8446 19.1005C52.5546 18.6195 54.9792 12.4611 56.3242 12.19Z" fill="#418D12"/>
<path d="M43.1843 23.3869C43.3913 23.4346 43.4527 23.6325 43.5311 23.8066C43.3035 24.0827 42.9997 24.3075 42.7327 24.5461C39.0788 27.8121 38.4802 33.5013 38.5108 38.1142C38.5171 39.0722 38.8052 41.4722 38.6783 42.1703C38.5801 42.2507 38.5121 42.2413 38.388 42.2557C37.8447 41.9766 37.9493 41.0358 37.9057 40.5182C37.4412 34.9947 37.8269 26.5985 43.1843 23.3869Z" fill="#418D12"/>
<path d="M63.2548 36.4394C64.0887 36.4506 63.666 38.1336 63.5977 38.8133C63.1544 43.216 61.6032 47.867 59.4979 51.7508C59.2215 52.2606 58.7948 53.188 58.3585 53.5442C57.5438 53.6438 58.3196 52.5924 58.4384 52.3274C60.4662 47.8024 62.1012 42.9497 62.9015 38.0403C62.9755 37.5866 62.9062 36.7705 63.2548 36.4394Z" fill="#418D12"/>
</svg>
