<svg width="40" height="40" viewBox="0 0 40 40" fill="none" xmlns="http://www.w3.org/2000/svg">
<path d="M7.49016 13.267C8.67931 17.9045 11.0927 22.1372 14.478 25.5225C17.8633 28.9077 22.096 31.3212 26.7335 32.5103C30.3018 33.4187 33.3335 30.3503 33.3335 26.667V25.0003C33.3335 24.0803 32.5852 23.342 31.6702 23.2503C30.1528 23.0995 28.6634 22.7411 27.2435 22.1853L24.7102 24.7187C20.5854 22.7413 17.2592 19.4151 15.2818 15.2903L17.8152 12.757C17.2588 11.3372 16.8999 9.84773 16.7485 8.33033C16.6585 7.41366 15.9202 6.66699 15.0002 6.66699H13.3335C9.65016 6.66699 6.58183 9.69866 7.49016 13.267Z" stroke="#418D12" stroke-linecap="round" stroke-linejoin="round"/>
</svg>
