<svg width="57" height="23" viewBox="0 0 57 23" fill="none" xmlns="http://www.w3.org/2000/svg">
<g clip-path="url(#clip0_1258_16988)">
<mask id="mask0_1258_16988" style="mask-type:alpha" maskUnits="userSpaceOnUse" x="0" y="3" width="24" height="17">
<path d="M21.7143 3.36115H2.28571C1.02335 3.36115 0 4.31627 0 5.49448V17.2278C0 18.406 1.02335 19.3611 2.28571 19.3611H21.7143C22.9767 19.3611 24 18.406 24 17.2278V5.49448C24 4.31627 22.9767 3.36115 21.7143 3.36115Z" fill="white"/>
</mask>
<g mask="url(#mask0_1258_16988)">
<path d="M21.7143 3.36115H2.28571C1.02335 3.36115 0 4.31627 0 5.49448V17.2278C0 18.406 1.02335 19.3611 2.28571 19.3611H21.7143C22.9767 19.3611 24 18.406 24 17.2278V5.49448C24 4.31627 22.9767 3.36115 21.7143 3.36115Z" fill="#F8DB04"/>
<path fill-rule="evenodd" clip-rule="evenodd" d="M0 3.36115H24V11.8945H0V3.36115Z" fill="#0B70BC"/>
<path d="M21.7151 3.89447H2.28655C1.33978 3.89447 0.572266 4.61081 0.572266 5.49447V17.2278C0.572266 18.1115 1.33978 18.8278 2.28655 18.8278H21.7151C22.6619 18.8278 23.4294 18.1115 23.4294 17.2278V5.49447C23.4294 4.61081 22.6619 3.89447 21.7151 3.89447Z" stroke="black" stroke-opacity="0.1" stroke-width="1.14286"/>
</g>
</g>
<path d="M32.096 15.1531V8.36914H33.104V15.1531H32.096ZM29.12 12.2411V11.2971H36.08V12.2411H29.12ZM41.0666 17.4571C40.256 17.4571 39.488 17.3291 38.7626 17.0731C38.048 16.8065 37.472 16.4545 37.0346 16.0171L37.5946 15.1051C37.9573 15.4785 38.4426 15.7878 39.0506 16.0331C39.6693 16.2785 40.3413 16.4011 41.0666 16.4011C41.9946 16.4011 42.704 16.1985 43.1946 15.7931C43.696 15.3878 43.9466 14.8438 43.9466 14.1611C43.9466 13.4785 43.7013 12.9345 43.2106 12.5291C42.7306 12.1238 41.968 11.9211 40.9226 11.9211H40.1226V11.0731L43.5786 6.73714L43.7386 7.18514H37.4986V6.16114H44.6986V6.97714L41.2426 11.3131L40.6826 10.9451H41.1146C42.4586 10.9451 43.4613 11.2438 44.1226 11.8411C44.7946 12.4385 45.1306 13.2065 45.1306 14.1451C45.1306 14.7745 44.9813 15.3398 44.6826 15.8411C44.384 16.3425 43.9306 16.7371 43.3226 17.0251C42.7253 17.3131 41.9733 17.4571 41.0666 17.4571ZM51.0099 17.4571C50.1139 17.4571 49.3405 17.3291 48.6899 17.0731C48.0499 16.8171 47.5539 16.4491 47.2019 15.9691C46.8605 15.4785 46.6899 14.9025 46.6899 14.2411C46.6899 13.6011 46.8552 13.0571 47.1859 12.6091C47.5272 12.1505 48.0179 11.7985 48.6579 11.5531C49.3085 11.3078 50.0925 11.1851 51.0099 11.1851C51.9165 11.1851 52.6952 11.3078 53.3459 11.5531C53.9965 11.7985 54.4925 12.1505 54.8339 12.6091C55.1859 13.0571 55.3619 13.6011 55.3619 14.2411C55.3619 14.9025 55.1859 15.4785 54.8339 15.9691C54.4819 16.4491 53.9805 16.8171 53.3299 17.0731C52.6792 17.3291 51.9059 17.4571 51.0099 17.4571ZM51.0099 16.4811C52.0019 16.4811 52.7752 16.2785 53.3299 15.8731C53.8952 15.4678 54.1779 14.9185 54.1779 14.2251C54.1779 13.5318 53.8952 12.9878 53.3299 12.5931C52.7752 12.1878 52.0019 11.9851 51.0099 11.9851C50.0179 11.9851 49.2445 12.1878 48.6899 12.5931C48.1352 12.9878 47.8579 13.5318 47.8579 14.2251C47.8579 14.9185 48.1352 15.4678 48.6899 15.8731C49.2445 16.2785 50.0179 16.4811 51.0099 16.4811ZM51.0099 11.8411C50.1779 11.8411 49.4685 11.7291 48.8819 11.5051C48.3059 11.2811 47.8632 10.9611 47.5539 10.5451C47.2445 10.1185 47.0899 9.61181 47.0899 9.02514C47.0899 8.40648 47.2499 7.87848 47.5699 7.44114C47.9005 6.99314 48.3592 6.65181 48.9459 6.41714C49.5325 6.18248 50.2205 6.06514 51.0099 6.06514C51.7992 6.06514 52.4872 6.18248 53.0739 6.41714C53.6712 6.65181 54.1352 6.99314 54.4659 7.44114C54.7965 7.87848 54.9619 8.40648 54.9619 9.02514C54.9619 9.61181 54.8072 10.1185 54.4979 10.5451C54.1885 10.9611 53.7352 11.2811 53.1379 11.5051C52.5512 11.7291 51.8419 11.8411 51.0099 11.8411ZM51.0099 11.0731C51.8845 11.0731 52.5672 10.8918 53.0579 10.5291C53.5485 10.1665 53.7939 9.68114 53.7939 9.07314C53.7939 8.43314 53.5379 7.93714 53.0259 7.58514C52.5245 7.22248 51.8525 7.04114 51.0099 7.04114C50.1672 7.04114 49.4952 7.22248 48.9939 7.58514C48.4925 7.93714 48.2419 8.42781 48.2419 9.05714C48.2419 9.67581 48.4819 10.1665 48.9619 10.5291C49.4525 10.8918 50.1352 11.0731 51.0099 11.0731Z" fill="#080A07"/>
<defs>
<clipPath id="clip0_1258_16988">
<rect width="24" height="16" fill="white" transform="translate(0 3.36115)"/>
</clipPath>
</defs>
</svg>
