<svg width="67" height="22" viewBox="0 0 67 22" fill="none" xmlns="http://www.w3.org/2000/svg">
<g clip-path="url(#clip0_482_18983)">
<mask id="mask0_482_18983" style="mask-type:alpha" maskUnits="userSpaceOnUse" x="0" y="3" width="24" height="16">
<path d="M21.7143 3H2.28571C1.02335 3 0 3.95513 0 5.13333V16.8667C0 18.0449 1.02335 19 2.28571 19H21.7143C22.9767 19 24 18.0449 24 16.8667V5.13333C24 3.95513 22.9767 3 21.7143 3Z" fill="white"/>
</mask>
<g mask="url(#mask0_482_18983)">
<path d="M21.7143 3H2.28571C1.02335 3 0 3.95513 0 5.13333V16.8667C0 18.0449 1.02335 19 2.28571 19H21.7143C22.9767 19 24 18.0449 24 16.8667V5.13333C24 3.95513 22.9767 3 21.7143 3Z" fill="#F8DB04"/>
<path fill-rule="evenodd" clip-rule="evenodd" d="M0 3H24V11.5333H0V3Z" fill="#0B70BC"/>
<path d="M21.7141 3.53333H2.28557C1.3388 3.53333 0.571289 4.24967 0.571289 5.13333V16.8667C0.571289 17.7503 1.3388 18.4667 2.28557 18.4667H21.7141C22.6609 18.4667 23.4284 17.7503 23.4284 16.8667V5.13333C23.4284 4.24967 22.6609 3.53333 21.7141 3.53333Z" stroke="black" stroke-opacity="0.1" stroke-width="1.14286"/>
</g>
</g>
<path d="M32.096 14.792V8.008H33.104V14.792H32.096ZM29.12 11.88V10.936H36.08V11.88H29.12ZM41.0666 17.096C40.256 17.096 39.488 16.968 38.7626 16.712C38.048 16.4453 37.472 16.0933 37.0346 15.656L37.5946 14.744C37.9573 15.1173 38.4426 15.4267 39.0506 15.672C39.6693 15.9173 40.3413 16.04 41.0666 16.04C41.9946 16.04 42.704 15.8373 43.1946 15.432C43.696 15.0267 43.9466 14.4827 43.9466 13.8C43.9466 13.1173 43.7013 12.5733 43.2106 12.168C42.7306 11.7627 41.968 11.56 40.9226 11.56H40.1226V10.712L43.5786 6.376L43.7386 6.824H37.4986V5.8H44.6986V6.616L41.2426 10.952L40.6826 10.584H41.1146C42.4586 10.584 43.4613 10.8827 44.1226 11.48C44.7946 12.0773 45.1306 12.8453 45.1306 13.784C45.1306 14.4133 44.9813 14.9787 44.6826 15.48C44.384 15.9813 43.9306 16.376 43.3226 16.664C42.7253 16.952 41.9733 17.096 41.0666 17.096ZM51.0099 17.096C50.1139 17.096 49.3405 16.968 48.6899 16.712C48.0499 16.456 47.5539 16.088 47.2019 15.608C46.8605 15.1173 46.6899 14.5413 46.6899 13.88C46.6899 13.24 46.8552 12.696 47.1859 12.248C47.5272 11.7893 48.0179 11.4373 48.6579 11.192C49.3085 10.9467 50.0925 10.824 51.0099 10.824C51.9165 10.824 52.6952 10.9467 53.3459 11.192C53.9965 11.4373 54.4925 11.7893 54.8339 12.248C55.1859 12.696 55.3619 13.24 55.3619 13.88C55.3619 14.5413 55.1859 15.1173 54.8339 15.608C54.4819 16.088 53.9805 16.456 53.3299 16.712C52.6792 16.968 51.9059 17.096 51.0099 17.096ZM51.0099 16.12C52.0019 16.12 52.7752 15.9173 53.3299 15.512C53.8952 15.1067 54.1779 14.5573 54.1779 13.864C54.1779 13.1707 53.8952 12.6267 53.3299 12.232C52.7752 11.8267 52.0019 11.624 51.0099 11.624C50.0179 11.624 49.2445 11.8267 48.6899 12.232C48.1352 12.6267 47.8579 13.1707 47.8579 13.864C47.8579 14.5573 48.1352 15.1067 48.6899 15.512C49.2445 15.9173 50.0179 16.12 51.0099 16.12ZM51.0099 11.48C50.1779 11.48 49.4685 11.368 48.8819 11.144C48.3059 10.92 47.8632 10.6 47.5539 10.184C47.2445 9.75733 47.0899 9.25067 47.0899 8.664C47.0899 8.04533 47.2499 7.51733 47.5699 7.08C47.9005 6.632 48.3592 6.29066 48.9459 6.056C49.5325 5.82133 50.2205 5.704 51.0099 5.704C51.7992 5.704 52.4872 5.82133 53.0739 6.056C53.6712 6.29066 54.1352 6.632 54.4659 7.08C54.7965 7.51733 54.9619 8.04533 54.9619 8.664C54.9619 9.25067 54.8072 9.75733 54.4979 10.184C54.1885 10.6 53.7352 10.92 53.1379 11.144C52.5512 11.368 51.8419 11.48 51.0099 11.48ZM51.0099 10.712C51.8845 10.712 52.5672 10.5307 53.0579 10.168C53.5485 9.80533 53.7939 9.32 53.7939 8.712C53.7939 8.072 53.5379 7.576 53.0259 7.224C52.5245 6.86133 51.8525 6.68 51.0099 6.68C50.1672 6.68 49.4952 6.86133 48.9939 7.224C48.4925 7.576 48.2419 8.06667 48.2419 8.696C48.2419 9.31467 48.4819 9.80533 48.9619 10.168C49.4525 10.5307 50.1352 10.712 51.0099 10.712ZM61.421 17.096C60.557 17.096 59.789 16.872 59.117 16.424C58.445 15.9653 57.917 15.3147 57.533 14.472C57.149 13.6187 56.957 12.5947 56.957 11.4C56.957 10.2053 57.149 9.18667 57.533 8.344C57.917 7.49066 58.445 6.84 59.117 6.392C59.789 5.93333 60.557 5.704 61.421 5.704C62.285 5.704 63.053 5.93333 63.725 6.392C64.397 6.84 64.925 7.49066 65.309 8.344C65.7037 9.18667 65.901 10.2053 65.901 11.4C65.901 12.5947 65.7037 13.6187 65.309 14.472C64.925 15.3147 64.397 15.9653 63.725 16.424C63.053 16.872 62.285 17.096 61.421 17.096ZM61.421 16.04C62.0823 16.04 62.6583 15.864 63.149 15.512C63.6397 15.1493 64.0237 14.6267 64.301 13.944C64.5783 13.2507 64.717 12.4027 64.717 11.4C64.717 10.3973 64.5783 9.55467 64.301 8.872C64.0237 8.17867 63.6397 7.656 63.149 7.304C62.6583 6.94133 62.0823 6.76 61.421 6.76C60.781 6.76 60.2103 6.94133 59.709 7.304C59.2077 7.656 58.8183 8.17867 58.541 8.872C58.2637 9.55467 58.125 10.3973 58.125 11.4C58.125 12.4027 58.2637 13.2507 58.541 13.944C58.8183 14.6267 59.2077 15.1493 59.709 15.512C60.2103 15.864 60.781 16.04 61.421 16.04Z" fill="#080A07"/>
<defs>
<clipPath id="clip0_482_18983">
<rect width="24" height="16" fill="white" transform="translate(0 3)"/>
</clipPath>
</defs>
</svg>
