<svg width="192" height="50" viewBox="0 0 192 50" fill="none" xmlns="http://www.w3.org/2000/svg">
<path d="M191.433 26.0603C191.433 29.9636 188.149 33.2295 182.218 35.9229C176.327 38.5983 168.027 40.61 158.444 42.0995C139.289 45.0769 115.149 45.947 95.2511 45.947C75.3364 45.947 50.2702 45.9461 30.8808 43.5266C21.1775 42.3158 12.953 40.5052 7.51415 37.8172C4.79596 36.4738 2.82009 34.9335 1.68791 33.1835C0.569599 31.4549 0.249156 29.4843 0.908387 27.1922C2.25081 22.5246 6.31203 18.3705 12.3914 14.8145C18.46 11.2648 26.4687 8.35349 35.5719 6.14015C53.7765 1.71396 76.2667 0.100859 96.1408 1.69573C114.739 3.18819 138.648 5.17558 157.906 8.8988C167.539 10.7612 175.972 13.0515 181.986 15.9141C188.044 18.7983 191.433 22.1568 191.433 26.0603Z" stroke="#F8DB04"/>
<path d="M187.95 31.5224C186.841 35.4853 183.064 38.6076 177.194 41.0401C171.343 43.4649 163.534 45.1526 154.581 46.3214C136.681 48.6582 114.339 48.9052 94.2492 48.9052C74.1939 48.9052 49.3779 46.4428 30.2934 41.5865C20.7444 39.1567 12.6751 36.1384 7.35456 32.5582C4.69556 30.7689 2.75497 28.8603 1.64694 26.8456C0.547271 24.846 0.257284 22.7257 0.921478 20.4566C1.57365 18.2285 3.51774 16.1553 6.63439 14.2553C9.7413 12.3612 13.9447 10.6815 18.9889 9.2112C29.0744 6.27137 42.4282 4.1945 56.8616 2.87802C85.7276 0.245112 118.81 0.662146 138.487 3.24754C157.251 5.71298 170.809 8.74117 179.084 13.2073C183.213 15.4356 185.981 17.9978 187.444 20.9823C188.902 23.9574 189.097 27.4199 187.95 31.5224Z" stroke="#F8DB04"/>
</svg>
