<svg width="344" height="343" viewBox="0 0 344 343" fill="none" xmlns="http://www.w3.org/2000/svg">
<path fill-rule="evenodd" clip-rule="evenodd" d="M166.657 342C202.484 340.282 232.502 327.21 256.802 307.572C224.993 326.606 188.342 337.224 156.377 337.44C118.394 337.696 82.2464 322.898 55.0851 296.728C81.9572 325.08 120.215 341.994 166.657 342ZM156.37 336.44C190.115 336.212 229.158 324.313 262.109 303.1C272.839 293.683 282.373 282.967 290.72 271.409C258.173 308.615 214.633 335.663 171.514 329.904C111.592 321.901 52.2154 290.069 21.5046 240.18C26.5 254.923 33.3379 268.472 41.8442 280.544C69.6197 316.097 111.732 336.741 156.37 336.44ZM20.1063 235.867C49.8977 287.612 110.397 320.732 171.647 328.913C213.331 334.481 255.601 309.025 287.814 273.179C290.828 269.825 293.752 266.382 296.577 262.869C313.714 236.55 325.094 206.682 330.811 178.179C332.154 171.487 332.633 164.646 332.334 157.729C330.145 143.653 326.814 130.109 322.48 117.303C314.656 99.1877 302.629 81.5277 287.897 65.6391C274.356 51.0346 258.572 37.9731 241.75 27.4716C219.154 18.2065 193.906 12.8015 167.216 12.8015C157.399 12.8015 147.858 13.4766 138.638 14.78C94.6449 28.1548 55.8792 56.7509 32.3521 94.989C19.397 120.683 11.7441 149.454 11.7441 178.376C11.7441 198.859 14.6273 218.178 20.1063 235.867ZM144.881 12.994C160.963 8.6791 177.667 6.38965 194.519 6.38965H194.53L194.541 6.38941C194.925 6.38089 195.308 6.37454 195.691 6.37036C209.536 10.435 223.397 16.6108 236.697 24.4124C215.397 16.4089 191.921 11.8015 167.216 11.8015C159.6 11.8015 152.148 12.2062 144.881 12.994ZM242.208 26.5784C228.354 17.9369 213.793 11.0196 199.189 6.39221C232.426 7.17183 262.738 24.2248 286.306 51.8968C273.257 41.8575 258.411 33.2302 242.208 26.5784ZM247.276 29.8372C277.229 49.6798 303.399 77.4657 318.809 107.241C311.191 87.8022 301.194 70.3147 289.348 55.5741C276.95 45.5184 262.787 36.7626 247.276 29.8372ZM292.988 58.6061C305.616 75.2152 315.985 95.0054 323.415 116.946C329.229 130.418 332.743 144.16 333.332 157.639C334.132 162.79 334.779 168.011 335.268 173.292C335.922 180.36 335.973 187.255 335.474 193.966C339.986 180.811 342.606 168.104 342.958 156.607C344.021 121.857 324.885 85.9166 293.012 58.627C293.004 58.6201 292.996 58.6131 292.988 58.6061ZM334.125 197.758C334.968 189.89 335.047 181.759 334.272 173.384C334.012 170.574 333.707 167.782 333.358 165.008C333.189 169.512 332.675 173.974 331.792 178.376C326.647 204.025 316.92 230.816 302.532 255.162C316.178 236.779 327.088 216.878 334.125 197.758ZM297.37 263.479C312.889 244.172 325.445 222.71 333.602 201.946C328.415 238.195 306.976 268.655 278.443 291.396C274.946 294.183 271.343 296.854 267.653 299.403C278.976 288.687 288.877 276.514 297.37 263.479ZM335.107 197.985C340.452 183.434 343.57 169.32 343.958 156.638C345.072 120.203 324.237 82.6158 290.061 54.8647C265.184 23.9479 232.18 5.02436 195.83 5.36888C188.265 3.15587 180.702 1.56874 173.234 0.686123C140.668 -3.16228 108.102 9.43609 80.7687 32.0024C29.3167 58.8228 -2.40938 109.933 0.143334 170.585C0.974448 190.332 5.66783 208.567 13.3837 225.118C19.0605 246.389 28.6245 265.239 41.0366 281.134C68.0087 319.406 111.678 343 166.682 343C205.425 341.148 237.398 326.115 262.73 303.89C300.469 279.571 330.233 243.094 335.107 197.985ZM14.3186 224.744C10.2216 209.346 8.17227 192.672 8.56961 174.924C9.12518 150.107 15.4031 126.956 26.0169 106.243C16.3223 128.96 10.7441 153.607 10.7441 178.376C10.7441 197.302 13.1947 215.249 17.8754 231.849C16.6273 229.517 15.4408 227.148 14.3186 224.744ZM15.8682 230.188C16.9291 232.251 18.0376 234.287 19.1919 236.294C22.1799 245.915 25.9326 255.058 30.4051 263.649C24.4261 253.389 19.5134 242.201 15.8682 230.188ZM11.977 219.45C5.69047 204.425 1.88058 188.08 1.14245 170.543C-1.32284 111.968 28.4052 62.3103 77.1086 35.1109C58.8167 51.086 43.0624 71.5515 31.4995 94.4591C16.9851 118.046 8.23279 145.289 7.56986 174.901C7.21764 190.634 8.77822 205.531 11.977 219.45ZM81.3319 32.8334C74.6382 38.3662 68.2565 44.504 62.2649 51.1524C53.0262 61.404 44.727 72.8576 37.6526 85.1581C60.406 53.0842 94.1531 28.7343 132.226 15.7966C113.755 19.0452 96.6614 24.856 81.3319 32.8334ZM85.0456 29.8511C101.162 22.0335 119.098 16.541 138.434 13.7999C155.772 8.53667 173.913 5.62575 192.249 5.40342C185.839 3.68427 179.442 2.42678 173.116 1.67921C142.316 -1.96056 111.441 9.26469 85.0456 29.8511ZM329.95 140.039C329.743 139.107 329.523 138.176 329.29 137.244C329.515 138.172 329.735 139.104 329.95 140.039Z" fill="#F8DB04"/>
</svg>
