<svg width="162" height="50" viewBox="0 0 162 50" fill="none" xmlns="http://www.w3.org/2000/svg">
<path fill-rule="evenodd" clip-rule="evenodd" d="M157.703 32.8264C156.576 33.8716 155.167 34.855 153.489 35.7795C148.6 38.473 141.67 40.5185 133.603 42.0396C117.489 45.0784 97.1547 45.9697 80.3671 45.9697C67.7825 45.9697 52.8038 45.9683 39.2274 44.935C34.4937 43.9703 29.9345 42.8354 25.7113 41.5316C17.6808 39.0525 10.9548 35.9896 6.54877 32.3927C4.13188 30.4196 2.45847 28.3301 1.62054 26.1144C2.98088 21.9576 6.15998 18.2115 10.7705 14.9396C15.8236 11.3537 22.517 8.39654 30.1604 6.14191C32.6661 5.4028 35.269 4.74061 37.9434 4.15713C41.2001 3.6486 44.5744 3.20449 48.0247 2.82268C56.3956 1.89636 65.1861 1.3396 73.7902 1.11516C76.2454 1.21513 78.6727 1.3805 81.0551 1.61246C96.7667 3.14211 116.91 5.17465 133.121 8.97704C141.234 10.8799 148.283 13.2091 153.282 16.0961C154.153 16.5993 154.954 17.1144 155.683 17.642C156.521 18.7101 157.179 19.8386 157.662 21.0336C158.854 23.9839 159.025 27.4476 158.069 31.5946C157.972 32.0144 157.85 32.425 157.703 32.8264ZM156.617 34.9954C143.154 44.7016 107.178 46.9697 80.3671 46.9697C70.3671 46.9697 58.8144 46.9697 47.6419 46.4466C58.4592 48.1434 69.6713 49 79.5211 49C96.4896 49 115.304 48.7458 130.36 46.3612C137.892 45.1683 144.411 43.4524 149.268 41.0107C152.614 39.3283 155.1 37.3391 156.617 34.9954ZM39.088 45.9271C52.3946 48.634 67.0477 50 79.5211 50C112.373 50 152.469 49.0531 158.559 33.3929C160.767 31.2824 162 28.8608 162 26.0861C162 22.5483 159.936 19.5207 156.384 16.9163C150.628 9.70445 137.381 5.46984 116.928 2.20952C106.014 0.46979 90.2409 -0.312701 73.7975 0.114646C61.8006 -0.370937 49.1441 0.692966 37.76 3.17364C17.9648 6.26768 2.35308 11.7551 0.315154 20.2019C-0.188156 22.2881 -0.076834 24.2666 0.564869 26.1368C0.467781 26.4565 0.380605 26.7789 0.303547 27.104C-2.64262 39.532 16.2774 44.185 39.088 45.9271ZM31.5931 44.2188C16.9012 40.4805 4.93534 34.9427 1.20758 27.6449C0.764846 29.7783 1.04699 31.5996 1.89538 33.1906C2.79669 34.8807 4.3816 36.3925 6.61401 37.731C11.0988 40.4201 17.9413 42.2604 26.1137 43.4976C27.8874 43.7661 29.7177 44.0055 31.5931 44.2188ZM1.16156 24.4902C4.42815 16.753 13.6361 10.699 25.6182 6.54586C22.2071 7.36003 19.0413 8.26935 16.1907 9.27742C11.9647 10.7719 8.47727 12.4678 5.91889 14.36C3.35729 16.2546 1.80616 18.2857 1.28726 20.4365C0.950705 21.8314 0.914619 23.182 1.16156 24.4902ZM85.1601 1.01005C107.736 3.24401 137.542 6.64501 152.531 14.5405C151.992 14.1184 151.417 13.707 150.804 13.3058C143.937 8.80941 132.611 5.7221 116.771 3.19705C108.463 1.87273 97.2983 1.10515 85.1601 1.01005ZM158.225 19.8349C160.05 21.7608 161 23.8391 161 26.0861C161 27.9326 160.38 29.6415 159.174 31.2216C160.093 26.8134 159.771 23.0616 158.225 19.8349Z" fill="#F8DB04"/>
</svg>
