<svg width="103" height="49" viewBox="0 0 103 49" fill="none" xmlns="http://www.w3.org/2000/svg">
<path fill-rule="evenodd" clip-rule="evenodd" d="M99.2675 33.1008C98.6798 33.8173 98.0045 34.4948 97.2487 35.1362C94.2042 37.7199 89.8712 39.6963 84.7845 41.1738C74.6161 44.1274 61.752 45 51.0977 45C43.8396 45 35.3758 44.9975 27.4711 44.2507C23.6783 43.2009 20.0186 41.8953 16.6933 40.3372C8.6214 36.5549 2.81587 31.4487 1.48514 25.1134C3.44355 16.622 10.3322 10.1108 19.4099 5.9862C19.8457 5.78819 20.2861 5.59587 20.731 5.40929C23.8426 4.51581 27.189 3.78065 30.6648 3.19686C37.1359 2.10999 44.0022 1.55613 50.5571 1.46773C50.8553 1.50709 51.1524 1.54897 51.4485 1.59336C61.4471 3.09282 74.1981 5.07671 84.4445 8.77873C89.5679 10.6298 93.9872 12.8842 97.1108 15.6629C97.2918 15.8239 97.4684 15.9866 97.6403 16.1509C99.9826 19.9001 100.744 24.6302 99.7985 30.8514C99.6792 31.6369 99.5012 32.3862 99.2675 33.1008ZM98.0495 35.7668C88.5353 44.0149 67.213 46 51.0977 46C45.6901 46 39.5684 46 33.4887 45.6848C39.3211 46.8613 45.2168 47.4551 50.49 47.4551C61.2291 47.4551 73.063 47.2089 82.5107 44.9377C89.7205 43.2045 95.2841 40.3621 98.0495 35.7668ZM27.2875 45.2374C35.0465 47.3765 43.3352 48.4551 50.49 48.4551C70.7632 48.4551 95.398 47.5897 100.162 33.5848C101.972 31.3181 103 28.6595 103 25.5475C103 21.5959 101.293 18.2941 98.4228 15.516C94.4755 9.30191 86.3341 5.52419 74.1498 2.57622C68.0808 1.10784 59.6359 0.349798 50.616 0.466875C40.6751 -0.831733 29.633 0.603354 20.3986 4.46433C9.66348 7.55621 1.55252 12.5524 0.392693 19.8489C0.0997889 21.6916 0.135992 23.4468 0.459795 25.114C0.356348 25.5848 0.267245 26.0616 0.192938 26.5444C-1.7842 39.3912 11.727 43.7551 27.2875 45.2374ZM22.0455 43.5961C20.2094 43.3199 18.4308 42.9895 16.7351 42.594C11.5849 41.393 7.33118 39.6199 4.55669 37.0574C1.9791 34.6768 0.623474 31.5688 1.09109 27.3752C3.75989 34.6535 12.0827 40.0749 22.0455 43.5961ZM1.19669 22.511C3.30507 16.4617 7.87612 11.5355 13.7915 7.85089C12.7045 8.31909 11.6703 8.81445 10.696 9.33742C5.40165 12.1792 2.0599 15.7305 1.38029 20.0059C1.24467 20.8591 1.18483 21.6942 1.19669 22.511ZM57.8347 1.56398C70.3878 3.57068 85.3316 6.56546 94.4904 12.4489C90.173 8.57923 83.3555 5.83236 73.9146 3.54817C69.5794 2.49929 63.9908 1.81603 57.8347 1.56398ZM100.186 19.2373C101.362 21.1332 102 23.2244 102 25.5475C102 27.4303 101.594 29.1359 100.834 30.6849C101.476 26.2224 101.256 22.4548 100.186 19.2373Z" fill="#F8DB04"/>
</svg>
