<svg width="48" height="48" viewBox="0 0 48 48" fill="none" xmlns="http://www.w3.org/2000/svg">
<path fill-rule="evenodd" clip-rule="evenodd" d="M45.5951 32.8735C44.1978 36.2927 41.8693 38.6883 39.1206 40.3644C34.5434 43.1553 28.709 44 23.8125 44C19.9156 44 15.4253 43.9886 11.4561 42.938C6.31238 39.378 1.98349 33.489 1.14649 25.3139C1.88899 17.0428 4.80784 10.7502 8.59912 6.64826C10.3675 5.38754 12.3492 4.39935 14.4359 3.66188C17.9701 2.41284 21.7508 1.90569 25.2205 2.01418C29.5986 3.42457 34.7187 5.28819 38.9068 8.4646C40.8405 9.93115 42.5748 11.6769 43.9373 13.7945C45.6923 17.8501 46.3612 23.2546 45.8136 30.8382C45.7622 31.5488 45.6889 32.2267 45.5951 32.8735ZM44.7743 36.4669C39.9949 43.2991 30.841 45 23.8125 45C20.8158 45 17.3484 45 14.003 44.4815C17.1909 46.1575 20.5152 47 23.4054 47C28.4102 47 33.7437 46.7501 37.9635 44.6156C40.0483 43.5611 41.8557 42.0475 43.2172 39.8613C43.8266 38.8827 44.353 37.759 44.7743 36.4669ZM11.0358 43.8595C15.0745 46.6109 19.5869 48 23.4054 48C32.9082 48 44.4705 47.1403 46.567 33.1374C47.4791 30.8591 48 28.1668 48 24.9922C48 20.2062 46.781 16.3948 44.8229 13.3235C42.7742 8.64092 39.2901 5.55867 34.4153 3.07695C32.0291 1.86211 28.8535 1.14383 25.3941 1.01944C24.934 0.871701 24.4836 0.729324 24.0451 0.591283C18.7196 -1.08522 12.6455 0.84017 7.92979 5.89939C3.67821 8.96325 0.578029 13.5661 0.092759 19.9898C-0.0486203 21.8613 -0.0252281 23.6406 0.141381 25.3273C0.122824 25.5395 0.105671 25.7528 0.0899404 25.9674C-0.759387 37.5521 4.5244 42.0855 11.0358 43.8595ZM8.51739 41.9043C8.38813 41.8454 8.2599 41.7849 8.13274 41.7226C5.86481 40.6124 3.96333 38.969 2.69609 36.5121C1.83493 34.8424 1.24752 32.7598 1.0624 30.1544C2.48949 35.0842 5.23005 39.0067 8.51739 41.9043ZM4.39768 10.7633C3.0744 13.1049 1.98459 15.8087 1.21644 18.8552C1.64456 15.6695 2.77618 12.9865 4.39768 10.7633ZM21.7574 1.10475C18.6839 1.35626 15.5297 2.06634 12.6107 3.29584C15.5778 1.44844 18.763 0.708441 21.7574 1.10475ZM29.8535 2.56303C33.1561 3.81874 36.6047 5.44444 39.5976 7.73371C38.0228 6.30536 36.1479 5.08111 33.9616 3.96811C32.7854 3.36928 31.3922 2.89554 29.8535 2.56303ZM46.8869 22.5763C46.9614 23.351 47 24.1557 47 24.9922C47 25.1299 46.999 25.2667 46.997 25.4025C46.9866 24.4202 46.9499 23.479 46.8869 22.5763Z" fill="#F8DB04"/>
</svg>
