<svg width="81" height="80" viewBox="0 0 81 80" fill="none" xmlns="http://www.w3.org/2000/svg">
<path d="M46.3387 5.60108C48.2005 5.45612 49.435 7.82468 48.1014 9.20646C47.3206 10.0155 46.5208 9.5766 45.6945 10.0435C43.4528 11.3099 41.4594 14.362 40.7928 16.7573C41.5816 16.7409 42.3703 16.7787 43.1587 16.7573C43.5923 16.5419 44.0039 16.1544 44.3933 15.8619C47.7458 13.3439 52.0817 13.8574 55.8855 14.9223C56.1462 14.9953 58.3323 15.4125 57.7155 16.0787C56.9073 16.9517 51.3231 13.6944 46.6419 19.2114C48.8211 18.3005 51.1162 17.8764 53.4805 18.0611C54.3787 18.1312 54.5669 18.083 54.642 19.02C60.745 20.3367 67.2788 25.1644 70.5397 30.3817C76.9317 40.6086 72.8573 53.7739 65.5187 62.3822C60.5834 68.1714 52.4087 72.8675 44.6889 73.4681C30.5542 75.0897 14.4973 68.4936 9.38559 54.4206C6.64076 46.8641 6.14256 37.1289 12.556 31.2067C14.1022 29.7791 16.0722 28.5447 17.4708 27.1844C18.2831 26.3944 18.7681 25.3003 19.5419 24.462C21.493 22.3476 24.2677 21.2367 27.1372 21.1198C24.5572 18.7376 21.1853 18.252 17.7906 18.3444C15.7888 18.3987 17.13 17.55 18.0636 17.1775C22.4333 15.4344 28.3848 14.7652 31.7322 18.7987C32.828 17.89 35.5828 17.1719 37.0219 17.1372C37.6975 14.1273 39.2795 11.41 41.3714 9.16388C42.5047 7.94699 44.6127 5.83602 46.3387 5.60108ZM52.4972 20.3564C50.8602 20.7964 48.9059 21.7494 47.4956 22.6834C50.607 23.2241 53.5803 28.1573 55.9334 30.5806C56.2447 30.9011 57.5637 31.7675 56.667 32.1655C56.3348 32.313 53.3816 30.5311 52.9194 30.2581C50.3405 28.7344 48.7327 27.4161 45.6655 27.463C47.5055 29.9286 49.2077 34.5078 49.0922 37.6544C48.3267 38.8995 47.9591 36.9412 47.7447 36.4119C47.0233 34.63 45.7536 32.3764 44.1575 31.2723C42.1652 29.8939 37.7795 30.4487 36.5455 28.1903C35.8137 28.5406 35.1427 29.0095 34.4117 29.357C31.3466 30.8144 28.1308 31.9172 25.8862 34.5962C25.6702 34.8544 24.5325 36.7194 24.2389 35.5569C24.0484 34.8025 25.2122 31.9097 25.6045 31.0939C26.4031 29.4331 27.8394 27.3205 29.3586 26.3423C28.3584 26.0676 27.3553 25.7059 26.3478 25.4751C23.2347 24.7622 22.4372 25.2678 20.1945 27.0258L15.681 30.6162C14.9678 31.1761 14.2325 31.7186 13.5739 32.3428C9.54504 36.1611 8.2386 42.8434 9.36814 48.1551C10.7829 56.9469 15.3331 63.4094 23.0309 67.6591C35.6639 74.6333 51.8522 73.5189 62.4117 63.3422C68.835 57.1517 73.3713 47.3961 71.8741 38.4264C70.9734 33.0317 67.7139 28.0697 63.2695 24.8989C60.9167 23.2205 55.5164 20.2514 52.4972 20.3564ZM44.6889 7.9223C40.3127 10.7304 37.6987 16.838 37.7277 21.8995C37.73 22.3019 37.9517 23.5037 37.5694 23.7695C36.6492 24.4094 36.6725 21.8737 36.6525 21.5306C31.0462 21.4048 31.3309 18.6642 27.9767 17.3566C26.0898 16.6209 22.2281 16.8009 20.3481 17.4666C23.257 17.5341 25.6734 18.3894 27.8923 20.3398C29.4595 21.7173 30.7106 23.132 33.0412 22.4706C33.8266 22.2478 34.1286 21.762 34.4841 22.6834C34.1722 23.1883 33.6872 23.3753 33.1348 23.5036C31.1827 23.9567 29.6748 23.2716 28.2116 22.0725C25.452 22.6125 22.427 22.995 20.3481 25.1198C23.5462 23.6756 24.5148 23.785 28.1211 24.8741C29.94 25.4234 29.9736 25.5628 31.7709 24.9272C32.4641 24.682 35.0672 23.9453 35.5431 24.8506C36.055 25.8244 33.9766 25.3923 33.5097 25.4764C30.3444 26.0466 28.0778 28.673 26.6202 31.3808C26.2783 32.0148 25.9634 32.6498 25.7748 33.3489C28.6267 30.1001 32.5928 29.5147 36.0487 27.2776C36.8714 25.1323 38.652 24.6522 40.7928 24.7241C41.2517 22.0998 44.2083 21.8823 46.3387 22.2125C48.7255 20.3278 50.7878 20.0967 53.2528 19.02L53.1859 19.013C50.3725 18.7309 47.7411 19.8816 45.1667 20.8078C44.6194 21.0047 41.7684 22.0141 41.3678 21.6178C40.8492 20.5078 44.043 20.4044 44.9236 19.8081C45.3627 19.5109 45.6227 18.9069 45.9516 18.4945C47.5569 16.4814 49.5375 15.3479 52.1737 15.1678C49.6914 14.7654 47.1745 15.2401 45.1033 16.7369C43.2797 18.0545 41.903 19.9797 39.9733 21.1198C40.002 21.2939 40.7 24.5642 39.4487 23.4705C37.875 22.095 39.2659 16.575 39.9992 15.0082C41.1648 12.5176 42.8436 10.3375 45.2628 8.94133C44.9027 8.51701 44.8702 8.16415 44.6889 7.9223ZM39.8059 25.665C38.0833 25.8941 35.6531 27.0717 38.3398 28.4298C41.8417 30.1998 43.2734 28.15 46.6419 32.3773C47.0036 32.9584 47.3375 33.565 47.7062 34.1391C46.6992 30.448 44.393 25.2484 39.8059 25.665ZM44.4162 23.1272C43.2869 23.1595 42.0864 23.6808 41.7141 24.8297C42.9553 25.0117 44.1286 25.7161 44.9916 26.6155C47.8642 25.9484 49.8584 27.4881 52.1737 28.6372C52.7125 29.0389 53.3294 29.4064 53.9148 29.7378C53.5597 29.1491 52.9487 28.6612 52.5056 28.1314C50.3272 25.5273 48.2409 22.8605 44.4162 23.1272ZM36.5455 18.7987C35.3816 19.038 34.2797 19.2953 33.2077 19.8306C33.4752 19.9122 33.745 19.9891 34.0055 20.0916C34.8777 20.3473 35.7395 20.5334 36.6525 20.5444C36.6378 20.1411 36.8502 18.7567 36.5455 18.7987ZM41.7141 18.2281C41.2289 18.2837 40.753 18.33 40.2636 18.3245C40.2317 18.5934 39.9723 19.6548 40.122 19.8306C40.6027 19.5633 41.608 18.688 41.7233 18.2372L41.7141 18.2281Z" fill="#418D12"/>
<path d="M46.1891 6.79817C47.1458 6.79462 48.1244 7.61836 47.2397 8.42637C46.1612 8.89822 45.5681 7.5685 46.1891 6.79817Z" fill="#FFFFFC"/>
<path d="M17.7757 34.9456C18.6823 35.0145 18.1826 35.7894 17.9085 36.2537C16.7279 38.2552 16.0306 40.5353 15.7937 42.8425C15.7179 43.5814 15.9878 44.3933 15.3623 44.8984C14.5888 44.6591 14.82 43.7281 14.8471 43.0887C14.9389 40.9206 16.0629 36.5186 17.7757 34.9456Z" fill="#418D12"/>
<path d="M21.137 40.6236C21.4172 40.6347 21.5014 40.7353 21.6628 40.962C21.5989 44.5948 22.7559 49.3948 25.703 51.8098C26.0858 52.1236 27.4223 52.9055 26.4551 53.3822C25.9347 53.2845 25.4839 52.8603 25.1003 52.5239C22.1595 49.9455 20.9145 45.8055 20.7267 42.0044C20.7031 41.5247 20.5464 40.8002 21.137 40.6236Z" fill="#418D12"/>
<path d="M59.8324 26.0916C60.1981 26.1058 60.596 26.3567 60.9063 26.5339C64.855 28.7875 67.8291 32.7039 69.1039 37.0458C69.2885 37.6737 69.7705 38.5337 69.1853 39.0616C68.2436 39.1045 68.1438 37.1644 67.7766 36.1926C66.6172 33.1255 64.5436 30.2178 61.8558 28.3297C61.41 28.0166 58.681 26.8422 59.8324 26.0916Z" fill="#418D12"/>
<path d="M22.984 29.9266C24.3937 29.7619 22.8572 31.4005 22.6392 31.7247C19.3748 36.5808 18.0378 44.4544 20.5603 49.8036C20.8901 50.5031 21.364 51.0414 21.7576 51.6905L21.7815 51.7306C21.6514 51.8827 21.5117 52.0108 21.3614 52.1416C20.912 52.2041 20.6551 51.7866 20.4292 51.4555C16.7193 46.0158 18.1617 35.8686 22.1662 30.7906C22.4065 30.4859 22.6587 30.1458 22.984 29.9266Z" fill="#418D12"/>
<path d="M69.0395 43.8675C70.4169 43.6986 69.2683 47.2266 69.0891 47.9462C67.72 53.4414 64.6431 58.4909 60.4799 62.3206C57.8608 64.7298 53.6906 67.3822 49.9938 67.2278C49.5394 67.2097 49.0933 66.715 49.5222 66.5239C49.6697 66.4581 50.7614 66.3705 51.0233 66.3241C59.7889 64.7723 67.2994 54.6552 68.5634 46.0027C68.6517 45.3986 68.587 44.3273 69.0395 43.8675Z" fill="#418D12"/>
</svg>
