<svg width="1280" height="152" viewBox="0 0 1280 152" fill="none" xmlns="http://www.w3.org/2000/svg">
<path fill-rule="evenodd" clip-rule="evenodd" d="M298.634 12.8911C136.149 -16.1149 0 12.8929 0 12.8929V151.999H1280V58.3617C1280 58.3617 1016.56 74.2999 847.702 70.9048C681.858 67.5704 461.118 41.897 298.634 12.8911Z" fill="#CCF0B5"/>
<path d="M487 142.622C485.971 137.115 484.254 131.688 481.887 126.34C428.933 89.0951 371.903 48.5915 316.014 15.9587C295.037 12.2999 280.242 9.56992 260.026 6.98389C337.045 49.4074 412.177 96.0332 483.804 147.055C484.863 145.574 485.931 144.093 486.99 142.622H487Z" fill="#ADC584"/>
<path d="M159.226 0.0546875C245.352 46.0765 328.997 95.3469 408.533 152.004C411.608 147.72 414.684 143.446 417.769 139.162C348.948 90.1484 278.191 42.4967 204.427 1.35543C188.873 0.359026 175.858 0.36181 159.226 0.0546875Z" fill="#ADC584"/>
<path fill-rule="evenodd" clip-rule="evenodd" d="M108.189 151.434C72.7103 129.506 36.6334 108.542 0 88.5581V106.522C26.2672 120.98 52.2445 135.954 77.9155 151.434H108.189Z" fill="#ADC584"/>
<path fill-rule="evenodd" clip-rule="evenodd" d="M158.597 151.433C107.141 115.338 54.229 81.3893 0 49.6333V67.9625C44.5495 94.3013 88.2063 122.132 130.879 151.433H158.597Z" fill="#ADC584"/>
<path fill-rule="evenodd" clip-rule="evenodd" d="M219.451 151.434C148.916 101.95 75.6446 56.5062 0 15.2417V33.2528C65.8125 69.4775 129.804 108.908 191.722 151.434H219.451Z" fill="#ADC584"/>
<path fill-rule="evenodd" clip-rule="evenodd" d="M262.258 151.433H289.856C215.415 98.6142 137.902 48.1242 57.7702 4.61621C53.7693 4.99244 49.1767 5.50915 45.5069 5.96559C41.7406 6.43405 38.4056 6.78212 34.7472 7.31161C30.4312 7.93628 28.8671 8.02513 26.5523 8.42204C26.0825 8.50259 23.9874 8.80763 23.481 8.89165C105.79 52.2015 185.864 98.6596 262.258 151.433Z" fill="#ADC584"/>
<path fill-rule="evenodd" clip-rule="evenodd" d="M123.8 0.355469C203.535 43.9619 280.726 94.3232 354.75 147.064L354.76 147.054C353.708 148.515 352.657 149.974 351.607 151.433H333.54C254.341 95.971 171.661 47.3658 86.0283 2.18642C99.9838 1.17698 109.565 0.564096 123.8 0.355469Z" fill="#ADC584"/>
</svg>
