<svg width="119" height="133" viewBox="0 0 119 133" fill="none" xmlns="http://www.w3.org/2000/svg">
<path d="M48.4813 66.6414C45.29 68.5923 42.5668 69.9848 41.7226 73.9551C40.2258 81.0042 47.1837 88.0002 54.5543 85.0947C64.6307 81.1223 62.7902 65.5671 48.4813 66.6414ZM56.461 77.067C53.338 76.2024 52.962 75.1268 52.7071 71.6618C53.3601 71.2615 54.3886 71.2876 55.2603 70.9162C59.2233 71.0458 59.7013 75.6874 56.4613 77.0728L56.461 77.067Z" fill="#DAC1A8"/>
<path d="M54.8873 131.985C55.2773 131.862 55.6695 131.738 56.0595 131.615C57.1973 131.116 58.3375 129.786 58.6129 128.517C59.2508 125.564 56.6142 122.246 53.4189 123.062C47.9652 124.454 48.4875 132.398 54.8895 131.985L54.8873 131.985ZM52.8446 129.367C52.7165 129.603 52.4038 129.66 52.18 129.804C50.4689 129.809 50.0783 128.108 51.3761 127.265C52.1765 127.269 53.5135 128.374 52.8467 129.367L52.8446 129.367Z" fill="#B9A591"/>
<path d="M78.0407 48.2388C78.4307 48.1157 78.8228 47.9925 79.2128 47.8694C80.3506 47.3706 81.4908 46.0404 81.7662 44.7712C82.4042 41.8185 79.7675 38.5001 76.5722 39.3164C71.1185 40.7085 71.6408 48.6517 78.0428 48.2387L78.0407 48.2388ZM75.9979 45.6214C75.8698 45.8571 75.5571 45.9143 75.3334 46.0577C73.6223 46.0629 73.2316 44.3624 74.5294 43.519C75.3298 43.5232 76.6668 44.6284 76.0001 45.6213L75.9979 45.6214Z" fill="#B9A591"/>
<path d="M67.2306 15.9167C67.7943 16.252 68.3604 16.5897 68.924 16.9249C70.7357 17.7538 73.5448 17.6979 75.3575 16.6724C79.5716 14.2832 80.7273 7.5853 76.339 4.63349C68.8505 -0.405901 59.9035 8.69974 67.233 15.9192L67.2306 15.9167ZM68.1815 10.6779C67.7627 10.7762 67.3604 10.4633 66.9498 10.3486C65.1167 8.30673 66.7345 6.02365 69.1293 6.67612C69.9788 7.63838 70.0837 10.4182 68.1839 10.6804L68.1815 10.6779Z" fill="#DAC1A8"/>
<path d="M16.7468 101.965C16.3422 101.349 15.9366 100.729 15.5321 100.113C14.1141 98.4133 11.6555 97.499 9.32761 97.5131C4.55679 97.5406 0.984219 103.323 3.08976 107.46C7.31274 115.759 20.0826 111.737 16.7457 101.962L16.7468 101.965ZM11.5719 110.12C9.66676 108.657 11.1145 106.46 12.8622 105.64C13.6102 105.929 13.9608 106.064 14.5859 106.641C14.8155 108.804 14.0175 109.861 11.5719 110.12Z" fill="#F7E7D6"/>
<path d="M112.217 64.5625C111.507 64.3667 110.793 64.1692 110.083 63.9734C107.896 63.6322 105.445 64.5681 103.706 66.1151C100.14 69.2847 101.273 75.9868 105.585 77.7048C114.235 81.152 121.173 69.7018 112.214 64.5607L112.217 64.5625ZM113.713 74.1048C111.316 74.2626 110.953 71.6568 111.725 69.887C112.478 69.6107 112.83 69.481 113.68 69.5015C115.281 70.9746 115.379 72.2958 113.713 74.1048Z" fill="#F7E7D6"/>
</svg>
