<svg width="97" height="116" viewBox="0 0 97 116" fill="none" xmlns="http://www.w3.org/2000/svg">
<path d="M47.8675 0.641379C44.6762 2.59234 41.9531 3.98482 41.1089 7.95513C39.6121 15.0042 46.5699 22.0002 53.9405 19.0947C64.0169 15.1223 62.1764 -0.432901 47.8675 0.641379ZM55.8472 11.067C52.7243 10.2024 52.3482 9.12676 52.0933 5.66179C52.7463 5.26154 53.7748 5.28758 54.6466 4.91618C58.6095 5.04581 59.0875 9.68736 55.8475 11.0728L55.8472 11.067Z" fill="#DAC1A8"/>
<path d="M54.2741 65.9846C54.6641 65.8615 55.0562 65.7383 55.4462 65.6152C56.584 65.1164 57.7242 63.7862 57.9996 62.517C58.6376 59.5644 56.0009 56.2459 52.8056 57.0622C47.3519 58.4544 47.8742 66.3975 54.2762 65.9845L54.2741 65.9846ZM52.2313 63.3672C52.1032 63.6029 51.7905 63.6602 51.5668 63.8036C49.8557 63.8088 49.465 62.1082 50.7628 61.2648C51.5632 61.269 52.9002 62.3743 52.2335 63.3671L52.2313 63.3672Z" fill="#B9A591"/>
<path d="M67.5805 112.588C67.8235 112.259 68.0681 111.928 68.3111 111.599C68.9377 110.527 69.0771 108.78 68.5531 107.592C67.3318 104.829 63.2475 103.697 61.1439 106.237C57.5529 110.571 62.6484 116.687 67.5822 112.586L67.5805 112.588ZM64.3888 111.673C64.4239 111.939 64.2048 112.169 64.1082 112.417C62.7276 113.428 61.4113 112.282 61.9645 110.837C62.6142 110.369 64.3456 110.477 64.3905 111.672L64.3888 111.673Z" fill="#F6E7D6"/>
<path d="M16.133 35.9648C15.7285 35.3488 15.3229 34.7295 14.9183 34.1134C13.5003 32.4133 11.0418 31.499 8.71384 31.5131C3.94302 31.5406 0.370449 37.3232 2.476 41.46C6.69897 49.7591 19.4688 45.737 16.1319 35.9615L16.133 35.9648ZM10.9581 44.1204C9.05299 42.6566 10.5007 40.4599 12.2485 39.6396C12.9964 39.9289 13.3471 40.0644 13.9722 40.6408C14.2018 42.8036 13.4037 43.8611 10.9581 44.1204Z" fill="#F7E7D6"/>
<path d="M91.2386 82.4627C90.645 82.1201 90.0491 81.7752 89.4555 81.4326C87.5668 80.6132 85.1423 80.8816 83.2145 81.8665C79.2629 83.8839 78.7128 90.181 82.1914 92.7371C89.169 97.8654 98.0951 89.1856 91.2363 82.4603L91.2386 82.4627ZM90.3496 91.4009C88.155 90.9814 88.4392 88.5513 89.5481 87.1393C90.2904 87.0669 90.6383 87.0329 91.3985 87.2503C92.4935 88.9509 92.2727 90.163 90.3496 91.4009Z" fill="#DAC1A8"/>
</svg>
