<svg width="1280" height="106" viewBox="0 0 1280 106" preserveAspectRatio="none" fill="none" xmlns="http://www.w3.org/2000/svg">
<path fill-rule="evenodd" clip-rule="evenodd" d="M275.636 54.9804L275.605 54.9729L275.605 54.9719L275.636 54.9804ZM275.605 54.9729C275.55 55.2083 275.53 55.4737 275.51 55.7438C275.456 56.4552 275.4 57.1992 274.698 57.5118C274.079 57.7859 273.369 57.6631 272.71 57.5332C269.534 56.9168 266.337 56.394 263.131 55.9389L262.955 57.7602C263.248 57.8939 263.55 58.07 263.834 58.3172C263.634 58.5751 263.475 58.7027 263.383 58.7773C263.323 58.8251 263.291 58.8512 263.292 58.8757C263.294 58.9051 263.343 58.9323 263.45 58.9921C263.615 59.0835 263.917 59.2509 264.394 59.6179C264.581 59.5694 264.665 59.4475 264.734 59.3459C264.89 59.1192 264.976 58.9934 265.988 60.0094C266.129 60.151 266.249 60.2625 266.346 60.3533C266.552 60.5448 266.659 60.6439 266.655 60.7388C266.651 60.8405 266.521 60.9375 266.252 61.1384C266.198 61.1787 266.139 61.2231 266.074 61.2725C266.545 61.87 266.742 62.2387 266.848 62.436C266.912 62.5566 266.942 62.6131 266.98 62.6187C267.013 62.6237 267.053 62.5889 267.127 62.5234C267.176 62.4798 267.24 62.4226 267.328 62.3545C267.852 63.013 268.245 63.8016 268.471 64.6423C268.22 64.7519 268.056 64.7941 267.953 64.8206C267.871 64.8418 267.828 64.853 267.81 64.8805C267.791 64.9109 267.804 64.9614 267.83 65.0676C267.88 65.2702 267.981 65.6758 268.008 66.5324C268.027 66.5258 268.046 66.5192 268.065 66.5126C268.542 66.3458 268.834 66.2437 268.302 69.5741C268.13 69.5258 268.006 69.4796 267.915 69.4456C267.793 69.4004 267.729 69.3766 267.687 69.3971C267.638 69.4203 267.617 69.4996 267.572 69.6681C267.518 69.8667 267.432 70.1891 267.229 70.6892C268.073 71.9161 266.625 73.5796 266.121 73.9143C265.963 73.5975 265.899 73.3771 265.861 73.2474C265.835 73.1585 265.822 73.1123 265.799 73.1069C265.774 73.1011 265.738 73.1432 265.663 73.2308C265.542 73.373 265.318 73.6351 264.872 74.0072C264.945 75.4841 262.677 75.8735 262.588 75.8208C262.448 75.737 262.518 75.5717 262.592 75.3958C262.605 75.3639 262.619 75.3311 262.632 75.2989C261.995 75.5341 261.328 75.6828 260.652 75.7571C260.08 76.8527 258.501 76.3851 257.596 76.117C257.251 76.0147 257.003 75.9415 256.947 75.9951C257.072 75.8759 257.174 75.7912 257.25 75.729C257.348 75.648 257.399 75.6051 257.393 75.5739C257.386 75.5388 257.306 75.5184 257.136 75.475C256.942 75.4255 256.631 75.3463 256.179 75.1815C256.001 75.3928 255.821 75.59 255.576 75.6182C255.043 75.6787 252.946 74.5075 253.348 74.146C253.417 74.0834 253.475 74.0374 253.521 74.0015C253.593 73.9442 253.633 73.9126 253.635 73.8794C253.636 73.8385 253.578 73.7953 253.449 73.6988C253.324 73.6053 253.133 73.4618 252.863 73.2218C252.394 73.6114 252.16 73.6871 251.671 73.1935C250.768 72.2848 250.052 71.0972 250.656 71.1926C251.214 71.2799 251.209 71.2706 251.003 70.9005C250.915 70.7421 250.791 70.5178 250.658 70.2068C250.466 70.2098 250.11 70.2102 249.965 70.0908C249.54 69.7384 249.204 66.4162 249.675 66.5864C249.756 66.6156 249.819 66.6426 249.869 66.664C249.955 66.7008 250.001 66.7207 250.029 66.7056C250.061 66.6877 250.067 66.6203 250.079 66.473C250.089 66.3432 250.105 66.1513 250.149 65.8763C249.204 65.1228 250.087 62.9147 250.613 63.1562C250.677 63.1856 250.728 63.2124 250.768 63.2341C250.841 63.2728 250.883 63.2951 250.918 63.2867C250.966 63.2751 250.999 63.2055 251.079 63.0406C251.127 62.9407 251.192 62.8058 251.287 62.6276C250.568 61.7837 251.827 60.4905 252.654 59.7337C252.717 59.8441 252.765 59.9351 252.802 60.0073C252.874 60.1451 252.91 60.2148 252.956 60.222C253.003 60.2294 253.061 60.1712 253.177 60.0532C253.28 59.949 253.428 59.7982 253.656 59.6048C253.403 59.0496 253.836 58.5866 254.325 58.218C255.012 57.7002 255.449 57.4533 255.734 57.3659C255.692 56.6909 255.652 55.8556 255.656 55.0351C253.065 54.7686 250.472 54.5569 247.872 54.3993C247.199 54.3597 246.508 54.2993 245.811 54.2383C244.163 54.094 242.477 53.9465 240.89 54.0631C239.789 54.1472 239.103 54.266 238.405 55.1218C238.26 55.2959 236.904 57.8151 237.506 57.8597C235.627 57.7186 233.749 57.5763 231.871 57.434C229.992 57.2916 228.114 57.1493 226.235 57.0081C226.122 57.3606 225.971 57.7954 225.751 58.3406C227.526 60.9293 224.324 64.364 223.492 64.9182C223.159 64.2539 223.028 63.7961 222.953 63.5314C222.903 63.3567 222.877 63.2661 222.833 63.2559C222.786 63.245 222.717 63.327 222.574 63.4972C222.331 63.7866 221.874 64.3308 220.944 65.1067C221.02 66.5565 220.536 67.1323 219.483 67.6996C219.042 67.9368 216.723 69.0489 216.289 68.8009C215.997 68.6335 216.145 68.282 216.3 67.9177C216.325 67.8581 216.35 67.798 216.374 67.7385C215.072 68.2144 213.714 68.5181 212.331 68.6671C211.167 70.9004 207.913 69.9408 206.071 69.3976C205.38 69.1939 204.888 69.0488 204.779 69.1525C205.033 68.9092 205.242 68.7364 205.396 68.6096C205.596 68.4448 205.701 68.3577 205.689 68.2941C205.674 68.2227 205.511 68.181 205.165 68.0925C204.769 67.9916 204.136 67.83 203.214 67.4942C202.85 67.9201 202.483 68.3273 201.979 68.3822C200.896 68.4963 196.616 66.1108 197.44 65.3766C197.58 65.2518 197.697 65.1596 197.79 65.0871C197.941 64.968 198.025 64.9022 198.028 64.8331C198.031 64.7477 197.911 64.6573 197.642 64.4551C197.387 64.2637 196.999 63.9722 196.456 63.4898C195.498 64.2802 195.017 64.4344 194.022 63.4313C192.181 61.5727 190.726 59.1579 191.957 59.3472C193.089 59.5238 193.078 59.5051 192.66 58.7508C192.481 58.4284 192.227 57.9716 191.956 57.3382C191.572 57.3442 190.847 57.3433 190.549 57.099C189.677 56.3777 188.995 49.599 189.955 49.9462C190.121 50.0053 190.25 50.0603 190.353 50.1036C190.527 50.1776 190.622 50.2177 190.678 50.1869C190.744 50.1503 190.755 50.0135 190.78 49.7141C190.802 49.4496 190.834 49.0581 190.924 48.4968C189.353 47.2459 190.163 45.0744 191.08 43.2834C191.318 42.8093 191.495 42.7814 191.866 42.9526C191.998 43.0136 192.102 43.0693 192.185 43.1143C192.334 43.194 192.42 43.2403 192.492 43.2233C192.59 43.1998 192.66 43.0547 192.827 42.7088C192.924 42.5067 193.055 42.236 193.243 41.8809C192.89 41.4643 192.628 40.9768 192.72 40.429C192.879 39.4999 194.799 37.1032 196.029 35.9759C196.157 36.1994 196.254 36.3837 196.331 36.5305C196.479 36.814 196.554 36.9574 196.648 36.972C196.745 36.987 196.863 36.8673 197.101 36.6251C197.31 36.412 197.612 36.1041 198.075 35.7097C197.548 34.5783 198.435 33.6321 199.434 32.879C199.899 32.5256 200.305 32.238 200.669 32.0001C201.283 23.5981 201.79 15.1869 202.178 6.76986C201.094 6.57187 200.113 6.50162 199.015 6.55866C199.061 5.94535 199.103 5.32695 199.144 4.71306C199.162 4.46762 199.185 4.20921 199.346 4.02331C199.582 3.74614 200.014 3.75999 200.378 3.80643L223.151 6.45195C225.029 6.67105 226.906 6.88888 228.783 7.1067C230.66 7.32445 232.536 7.54219 234.413 7.76121C235.351 7.86944 236.29 7.97895 237.229 8.08846C238.168 8.19801 239.107 8.30756 240.045 8.41583C240.16 8.42945 240.366 8.43596 240.613 8.44381C241.357 8.46739 242.48 8.50298 242.678 8.77946C242.924 9.12581 242.52 10.3054 242.307 10.9281C242.269 11.0396 242.236 11.134 242.215 11.2017C241.348 11.0955 240.48 10.9939 239.612 10.8923C239.517 10.8803 239.414 10.8716 239.334 10.9256C239.234 10.9909 239.217 11.1217 239.203 11.2391C238.788 14.7489 238.221 18.2528 237.655 21.76C237.123 25.0478 236.592 28.3385 236.183 31.6397C237.351 31.7075 238.459 31.9502 239.585 32.1967C239.983 32.284 240.384 32.3718 240.791 32.4525C242.527 32.798 244.297 32.9505 246.057 33.1019C246.532 33.1418 247.005 33.1827 247.478 33.2236C247.951 33.2644 248.423 33.3053 248.898 33.3452C248.932 32.8543 249.169 32.1415 249.35 31.6187L248.433 31.5018C248.249 31.4783 248.036 31.4327 247.942 31.2694C247.875 31.1508 247.895 30.9973 247.913 30.8574C248.451 27.2661 248.783 23.6393 248.912 20.0049C248.916 19.8742 248.92 19.7408 248.923 19.6059C248.938 19.0623 248.953 18.4937 249.055 17.9776C249.079 17.8569 249.113 17.7328 249.198 17.6381C249.289 17.5351 249.431 17.4936 249.563 17.46C249.974 17.3564 250.391 17.3364 250.805 17.3524C250.841 17.1497 250.881 16.9477 250.92 16.7453C251.016 16.2587 251.111 15.7692 251.166 15.2613C251.232 14.671 251.297 14.0817 251.361 13.4924L251.364 13.4696C251.429 12.8746 251.494 12.2797 251.561 11.6838L252.361 4.41081C252.387 4.40849 252.417 4.40555 252.45 4.40225C252.833 4.36476 253.703 4.27955 254.059 4.48081L254.09 4.38083C254.213 3.97319 254.336 3.56847 254.406 3.14917C253.831 3.04362 253.456 2.57844 253.327 2.01612C253.215 1.53397 253.214 0.745063 253.511 0.315088C253.797 -0.102493 254.261 -0.125827 254.522 0.370728C254.761 0.829288 254.8 1.34923 254.839 1.87275C254.865 2.2244 254.892 2.57766 254.979 2.915C255.063 3.23806 255.204 3.54761 255.345 3.85618C255.56 4.32687 255.773 4.79529 255.78 5.30591C255.782 5.36573 255.778 5.434 255.735 5.47906C255.699 5.52307 255.641 5.5345 255.587 5.54527L255.581 5.54647C255.095 5.63799 254.802 5.59192 254.417 5.53144C254.353 5.52145 254.287 5.51107 254.217 5.50084C254.03 9.53135 253.634 13.549 253.036 17.5364C253.677 17.5907 254.318 17.7229 254.468 18.1228C254.524 18.2793 254.465 18.5651 254.413 18.8126C254.387 18.9372 254.364 19.0523 254.358 19.136C254.336 19.442 254.323 19.749 254.311 20.0561C254.3 20.3194 254.289 20.5826 254.273 20.8452C254.204 22.0013 254.104 23.1489 253.976 24.2976C253.834 25.5739 253.745 26.8598 253.656 28.1491C253.582 29.2216 253.507 30.2964 253.402 31.3701C253.383 31.5557 253.353 31.7583 253.21 31.8776C253.021 32.0305 252.756 31.9558 252.511 31.8864C252.4 31.8553 252.294 31.8252 252.2 31.8174C252.03 31.8053 251.851 31.8077 251.672 31.8101C251.594 31.8111 251.516 31.8121 251.438 31.812C251.515 32.3951 251.549 32.9865 251.538 33.5768C252.529 33.662 253.521 33.7462 254.513 33.8304C255.506 33.9147 256.498 33.9989 257.49 34.0842C257.541 33.7989 257.619 33.4975 257.688 33.2334C257.744 33.0201 257.793 32.8313 257.817 32.6949C258.097 31.0613 258.377 29.4321 258.666 27.7996C258.052 27.712 257.435 27.647 256.806 27.6401C256.601 27.6368 256.378 27.6313 256.226 27.4973C255.858 27.1708 256.69 26.5214 257.07 26.2246C257.127 26.1805 257.174 26.1441 257.205 26.1178C257.358 25.9906 257.515 25.8639 257.699 25.7864C258.092 25.6163 258.445 25.6873 258.816 25.7618C258.901 25.7788 258.987 25.796 259.074 25.8106C259.367 25.8613 259.663 25.8814 259.96 25.9015C260.278 25.923 260.596 25.9446 260.912 26.0039C261.478 26.1083 262.071 26.294 262.44 26.7677C262.592 26.966 262.939 27.5469 262.937 27.9227C262.935 28.0417 262.905 28.1388 262.82 28.1967C262.669 28.3014 262.473 28.3038 262.291 28.2944C261.802 28.2686 261.316 28.2112 260.832 28.1402C260.788 29.4556 260.668 30.7656 260.458 32.0598C260.441 32.1669 260.422 32.3182 260.4 32.4979C260.34 32.9965 260.253 33.7132 260.09 34.3061C260.727 34.3599 261.365 34.4149 262.003 34.47C262.641 34.525 263.278 34.58 263.915 34.6338C263.994 34.222 264.083 33.8113 264.189 33.4075C264.216 33.3054 264.247 33.1994 264.325 33.1312C264.423 33.0428 264.569 33.0431 264.7 33.0507C264.796 33.0561 264.892 33.061 264.988 33.0657C265.051 33.0688 265.113 33.0718 265.176 33.0748C265.335 33.0825 265.494 33.0901 265.652 33.0989C265.924 33.1153 266.214 33.1339 266.43 33.2991C266.746 33.5458 266.783 34.0047 266.796 34.4053C266.799 34.5662 266.806 34.7231 266.809 34.8839C267.281 34.9235 267.751 34.9641 268.222 35.0047C268.693 35.0453 269.163 35.0859 269.635 35.1255C270.127 35.1699 270.654 35.2234 271.029 35.5464C271.666 36.0957 271.567 37.0965 271.411 37.9252C270.739 41.4832 270.253 45.0981 269.769 48.6963L269.768 48.6995C269.531 50.4626 269.295 52.2218 269.037 53.9683C269.788 54.0184 270.535 54.1 271.281 54.1952L271.28 54.0987C271.245 53.2562 271.411 52.3356 271.571 51.4431C271.649 51.0073 271.727 50.5777 271.779 50.1676C271.788 50.0954 271.799 50.0096 271.855 49.9618C271.906 49.9178 271.98 49.909 272.049 49.904C272.884 49.8408 273.733 49.8758 274.56 50.0089C274.681 50.0289 274.814 50.0552 274.884 50.1558C274.937 50.235 274.938 50.3346 274.94 50.43L274.94 50.4335C274.937 50.7221 274.936 51.0109 274.935 51.2997C274.934 51.5885 274.932 51.8773 274.93 52.1659C274.932 52.2946 274.928 52.4317 274.847 52.5314C274.727 52.6858 274.496 52.6746 274.302 52.65C273.812 52.592 273.327 52.5301 272.838 52.4676C272.829 52.6062 272.82 52.7446 272.811 52.8828C272.799 53.0564 272.788 53.2297 272.776 53.4029C272.768 53.5257 272.76 53.6485 272.752 53.7712C272.738 53.9796 272.725 54.1878 272.711 54.3961C273.685 54.5522 274.65 54.743 275.605 54.9729ZM267.941 41.1698C268.505 41.2601 268.393 42.1447 267.829 42.0544C229.317 35.7899 223.827 34.1994 267.941 41.1698ZM204.417 9.59649C205.06 8.5771 206.12 8.76873 208.872 9.2659C211.058 9.66096 214.312 10.2489 219.272 10.5755C220.21 10.6355 220.761 10.8939 220.693 12.5089C220.582 15.1247 220.533 17.2593 220.493 18.9962C220.389 23.4825 220.347 25.3163 219.46 25.9388C218.846 26.3692 217.829 26.2206 216.108 25.9691C215.076 25.8184 213.792 25.6308 212.191 25.5088C202.969 24.8072 203.054 24.3667 203.456 22.2916C203.492 22.1055 203.531 21.9062 203.566 21.6925C203.657 21.1322 203.719 19.4288 203.79 17.4673C203.909 14.1755 204.055 10.1567 204.412 9.59591L204.417 9.59649ZM225.756 35.363C227.538 34.7006 234.256 35.6041 232.686 36.2476C232.287 36.4098 231.809 36.3089 231.364 36.2151C231.226 36.1858 231.09 36.1572 230.961 36.1375C229.962 35.9809 228.81 35.8758 227.834 35.7868C226.341 35.6506 225.259 35.5519 225.761 35.3635L225.756 35.363ZM219.494 30.687C219.368 30.1851 219.285 29.8531 219.086 29.6205C218.697 29.1656 217.865 29.0914 215.406 28.872C214.776 28.8158 214.038 28.75 213.174 28.6658C186.744 26.0948 218.222 28.0168 219.353 28.7392C220.025 29.1688 220.989 33.007 221.071 33.4761C221.134 33.8052 220.66 33.9098 220.531 33.6274C219.888 32.2642 219.656 31.3343 219.494 30.687ZM208.204 64.2464C198.754 63.0401 193.58 54.2891 196.79 45.4754C201.863 31.5425 219.989 35.5212 222.222 47.6714C223.805 56.299 217.515 65.435 208.204 64.2464ZM229.707 55.5434C229.541 55.3728 229.599 54.9208 229.691 54.1982C229.877 52.7462 230.202 50.2013 229.129 46.6498C228.737 45.3522 230.882 48.3411 230.514 53.61L230.513 53.6311C230.48 54.1233 230.344 56.1939 229.708 55.5388L229.707 55.5434ZM229.481 39.5672C227.45 39.496 224.337 38.6997 227.94 38.7605C229.393 38.7867 230.416 38.7139 231.136 38.6626C231.867 38.6106 232.286 38.5808 232.526 38.6992C232.99 38.9281 233.066 39.6946 229.481 39.5672ZM233.916 33.538C230.615 33.511 227.404 33.4222 224.186 32.6996C221.363 25.7212 221.381 25.5443 221.759 21.9216C221.965 19.9456 222.278 16.9443 222.294 11.2548C222.295 10.3134 233.061 11.8921 234.556 12.1113L234.685 12.1301C234.865 12.1563 235.034 12.1762 235.19 12.1948C235.708 12.2562 236.094 12.3019 236.353 12.5075C237.106 13.1035 236.799 15.0437 235.604 22.6104C235.161 25.4104 234.597 28.9808 233.92 33.5386L233.916 33.538ZM234.683 43.7812C234.567 44.2663 233.845 44.1971 233.902 43.6815C233.956 43.1839 235.547 34.0627 235.782 33.0011C236.228 30.9665 235.676 39.7021 234.683 43.7812ZM257.339 71.5779C251.449 69.2208 254.513 59.9756 260.515 61.9848C266.96 64.1421 263.772 74.1511 257.339 71.5779ZM268.036 45.1309C261.113 44.0866 251.001 42.4839 242.34 40.9564C227.583 38.3524 241.133 40.2914 254.068 42.1424C259.662 42.9429 265.14 43.7269 268.165 44.1199C268.811 44.2025 268.681 45.227 268.036 45.1309ZM52.8053 16.6191C55.0433 16.6487 57.3907 18.0528 57.8964 20.274C58.2944 22.0236 57.4946 23.8551 56.3483 25.219C53.7465 28.3132 49.5483 29.5369 45.5524 29.7002C45.2487 29.7125 44.9235 29.714 44.5856 29.7055C41.5151 29.628 38.8812 31.9257 38.5019 35.031L38.4938 35.0975C38.1572 37.8852 38.0212 41.0915 38.0784 44.8973C50.77 47.1625 63.7575 49.3889 77.0246 51.5715C77.063 50.4847 77.1303 49.4733 77.2268 48.5254C77.2234 47.9845 77.1825 47.401 77.1174 46.8111C76.8658 44.5335 74.9455 42.842 72.7035 42.895C72.4663 42.9006 72.2381 42.8993 72.0244 42.8906C69.1273 42.7719 66.0836 41.8818 64.1973 39.6313C63.3661 38.6395 62.7862 37.307 63.0748 36.0347C63.4414 34.4193 65.1432 33.3982 66.7658 33.3768C68.3882 33.3555 69.9205 34.1229 71.2858 35.0191C72.7254 35.9641 74.0551 37.1086 75.068 38.5183L75.1148 38.5834C75.6626 39.3448 76.275 40.1962 76.7686 42.1279C76.9186 42.6259 77.1102 43.3952 77.2868 44.282C77.3393 43.0241 77.4405 42.0493 77.5699 40.8027C77.5946 40.5645 77.6204 40.3161 77.647 40.0542C77.848 38.0786 77.53 36.9327 77.2034 35.7556C77.0136 35.0717 76.8209 34.3773 76.7254 33.5035C76.4034 30.5583 76.6947 27.3485 78.5463 25.0682C79.3623 24.0635 80.5493 23.254 81.825 23.3296C83.4447 23.426 84.7169 24.968 85.0117 26.5987C85.3064 28.2293 84.8249 29.9024 84.1915 31.4293C82.9776 34.3557 81.6247 35.5105 80.5271 36.4472C79.5164 37.3099 78.7223 37.9877 78.4526 39.6941C78.4193 39.9047 78.3788 40.1365 78.3346 40.3899C78.1475 41.4619 77.8931 42.9193 77.829 44.7779C77.9483 44.2581 78.0822 43.7473 78.2322 43.2373C78.7259 41.3088 79.3379 40.4581 79.8852 39.6972L79.9316 39.6328C80.9445 38.2232 82.2741 37.0785 83.7138 36.1337C85.079 35.2373 86.6114 34.4699 88.2338 34.4912C89.8563 34.5128 91.5582 35.5339 91.9248 37.1493C92.2134 38.4218 91.6335 39.7538 90.8024 40.7457C88.9161 42.9961 85.8725 43.886 82.9754 44.0048C82.7552 44.0137 82.5195 44.0148 82.2745 44.0086C80.0484 43.9522 78.1388 45.6233 77.8638 47.8817L77.8579 47.9301C77.7207 49.0704 77.6295 50.307 77.5833 51.6633C92.4991 54.1142 107.768 56.5095 123.366 58.8416C123.414 57.3238 123.506 55.9198 123.642 54.6104C123.638 53.9173 123.584 53.1697 123.499 52.4139C123.169 49.4958 120.653 47.3286 117.715 47.3964C117.404 47.4036 117.105 47.402 116.825 47.3908C113.029 47.2388 109.041 46.0983 106.569 43.2148C105.48 41.9441 104.72 40.2368 105.098 38.6067C105.578 36.537 107.808 35.2286 109.935 35.2013C112.06 35.1739 114.068 36.1572 115.857 37.3054C117.744 38.5162 119.486 39.9826 120.813 41.7888L120.875 41.8722C121.592 42.8478 122.395 43.9386 123.042 46.4135C123.238 47.0517 123.489 48.0373 123.721 49.1736C123.79 47.5617 123.922 46.3126 124.092 44.7153C124.124 44.4101 124.158 44.0922 124.193 43.7566C124.456 41.2254 124.039 39.7573 123.611 38.2491C123.363 37.3728 123.11 36.4831 122.985 35.3636C122.563 31.5901 122.945 27.4775 125.371 24.5559C126.44 23.2686 127.996 22.2315 129.667 22.3283C131.79 22.4517 133.457 24.4275 133.843 26.5169C134.229 28.606 133.598 30.7496 132.768 32.7059C131.178 36.4555 129.405 37.935 127.967 39.1353C126.642 40.2405 125.602 41.109 125.248 43.2953C125.205 43.5653 125.152 43.8627 125.094 44.1877C124.848 45.5612 124.515 47.4275 124.431 49.8089C124.587 49.1429 124.763 48.4884 124.96 47.8351C125.606 45.3641 126.408 44.2742 127.126 43.2992L127.186 43.2167C128.513 41.4107 130.256 39.9441 132.142 38.7335C133.931 37.5851 135.939 36.6018 138.065 36.6291C140.191 36.6567 142.421 37.9651 142.902 40.0348C143.28 41.6651 142.52 43.3717 141.431 44.6427C138.959 47.5259 134.971 48.6661 131.175 48.8184C130.886 48.8298 130.577 48.8312 130.256 48.8233C127.339 48.751 124.837 50.8921 124.477 53.7856L124.469 53.8476C124.278 55.3979 124.155 57.0871 124.099 58.951C273.611 81.2707 453.346 97.7813 643.083 101.823C847.811 106.184 1038.68 106.43 1198.06 103.271C1198.1 102.518 1198.16 101.802 1198.23 101.12C1198.22 100.579 1198.18 99.9952 1198.12 99.4053C1197.87 97.1278 1195.95 95.4363 1193.7 95.4892C1193.55 95.493 1193.39 95.4937 1193.24 95.4911C1193.17 95.4899 1193.1 95.4878 1193.02 95.4848C1190.13 95.3662 1187.08 94.4761 1185.2 92.2255C1184.37 91.2338 1183.79 89.9013 1184.07 88.629C1184.44 87.0136 1186.14 85.9924 1187.77 85.9711C1189.39 85.9497 1190.92 86.7172 1192.29 87.6133C1193.73 88.5583 1195.06 89.7029 1196.07 91.1126L1196.11 91.1777C1196.66 91.9392 1197.28 92.7905 1197.77 94.7221C1197.92 95.2202 1198.11 95.9895 1198.29 96.8763C1198.34 95.6186 1198.44 94.6438 1198.57 93.3976C1198.59 93.1591 1198.62 92.9107 1198.65 92.6484C1198.85 90.6729 1198.53 89.527 1198.2 88.3498C1198.01 87.6659 1197.82 86.9715 1197.73 86.0977C1197.4 83.1526 1197.69 79.9427 1199.55 77.6625C1200.36 76.6577 1201.55 75.8483 1202.83 75.9239C1204.44 76.0202 1205.72 77.5623 1206.01 79.193C1206.31 80.8235 1205.82 82.4966 1205.19 84.0235C1203.98 86.95 1202.62 88.1047 1201.53 89.0415C1200.52 89.9041 1199.72 90.582 1199.45 92.2883C1199.42 92.4991 1199.38 92.7311 1199.33 92.9847C1199.15 94.0567 1198.89 95.5134 1198.83 97.3722C1198.95 96.8524 1199.08 96.3415 1199.23 95.8316C1199.73 93.903 1200.34 93.0523 1200.89 92.2914L1200.93 92.227C1201.94 90.8175 1203.27 89.6728 1204.71 88.7279C1206.08 87.8316 1207.61 87.0641 1209.23 87.0855C1210.86 87.107 1212.56 88.1282 1212.92 89.7436C1213.21 91.0159 1212.63 92.348 1211.8 93.34C1209.92 95.5903 1206.87 96.4802 1203.98 96.5991C1203.76 96.608 1203.52 96.6091 1203.27 96.6029C1201.05 96.5465 1199.14 98.2176 1198.86 100.476L1198.86 100.524C1198.76 101.379 1198.68 102.287 1198.63 103.26C1214.02 102.954 1229.12 102.616 1243.92 102.247C1243.92 100.007 1244.01 98.0278 1244.19 96.2481C1244.19 95.6395 1244.14 94.9831 1244.06 94.3195C1243.78 91.7572 1241.59 89.8543 1239.04 89.9138C1238.77 89.9202 1238.51 89.9187 1238.27 89.9089C1234.97 89.7754 1231.51 88.774 1229.36 86.2422C1228.42 85.1265 1227.76 83.6274 1228.09 82.1961C1228.5 80.3787 1230.44 79.2299 1232.29 79.2059C1234.13 79.1819 1235.88 80.0453 1237.43 81.0534C1239.07 82.1166 1240.58 83.4042 1241.73 84.9901L1241.79 85.0635C1242.41 85.9201 1243.11 86.8779 1243.67 89.0508C1243.84 89.6112 1244.06 90.4766 1244.26 91.4743C1244.32 90.0594 1244.43 88.9628 1244.58 87.5609C1244.61 87.2925 1244.64 87.013 1244.67 86.7179C1244.9 84.4954 1244.53 83.2063 1244.16 81.882C1243.95 81.1127 1243.73 80.3314 1243.62 79.3484C1243.25 76.0351 1243.58 72.424 1245.69 69.8587C1246.62 68.7284 1247.97 67.8178 1249.42 67.9028C1251.26 68.0112 1252.71 69.746 1253.05 71.5806C1253.38 73.4149 1252.84 75.2972 1252.11 77.0149C1250.73 80.3072 1249.19 81.6063 1247.94 82.6601C1246.79 83.6306 1245.89 84.3932 1245.58 86.3128C1245.55 86.5503 1245.5 86.8118 1245.45 87.0976C1245.24 88.3035 1244.95 89.9418 1244.87 92.0321C1245.01 91.4474 1245.16 90.8727 1245.33 90.299C1245.9 88.1295 1246.59 87.1725 1247.21 86.3165L1247.27 86.2438C1248.42 84.6581 1249.93 83.3703 1251.57 82.3074C1253.12 81.299 1254.87 80.4356 1256.71 80.4596C1258.56 80.4839 1260.5 81.6327 1260.91 83.45C1261.24 84.8813 1260.58 86.38 1259.64 87.4959C1257.49 90.0276 1254.03 91.0287 1250.73 91.1624C1250.48 91.1725 1250.21 91.1737 1249.93 91.1667C1247.4 91.1033 1245.23 92.9832 1244.91 95.5239L1244.91 95.5783C1244.67 97.5178 1244.55 99.705 1244.55 102.231C1256.58 101.93 1268.4 101.608 1280 101.267V106H1198.55C1198.22 106 1199.15 106 1198.56 106C1198.3 106 1198.44 105.998 1198.28 106H1198.22C1198.07 106 1198.43 106 1198.07 106C1197.46 106 1198.78 106 1197.99 106H0V91.5216V37.8158C12.124 40.1653 24.5635 42.4814 37.3018 44.7586C37.2555 41.3889 37.361 38.4831 37.6233 35.9161C37.6186 35.1723 37.5622 34.37 37.4723 33.5589C37.1253 30.4272 34.4767 28.1014 31.3842 28.1742C31.0571 28.182 30.7423 28.1802 30.4475 28.1682C26.4515 28.0051 22.2534 26.7812 19.6516 23.6867C18.505 22.323 17.7052 20.4908 18.1033 18.7414C18.6089 16.5202 20.9563 15.1161 23.1943 15.0868C25.4321 15.0574 27.5457 16.1127 29.4287 17.3448C31.4145 18.6443 33.2486 20.218 34.6456 22.1564L34.7101 22.2457C35.4657 23.2928 36.3104 24.4634 36.9913 27.1194C37.1982 27.8043 37.4625 28.8621 37.7061 30.0814C37.7785 28.3516 37.918 27.0112 38.0965 25.297C38.1306 24.9695 38.1661 24.6282 38.2029 24.2681C38.4801 21.5517 38.0415 19.9761 37.591 18.3576C37.3292 17.4172 37.0635 16.4624 36.9317 15.2609C36.4876 11.2113 36.8893 6.79781 39.4433 3.66241C40.5687 2.28092 42.206 1.16794 43.9656 1.27184C46.1997 1.40434 47.9544 3.52464 48.3611 5.7669C48.7675 8.00891 48.1034 10.3094 47.2298 12.4089C45.5555 16.4328 43.6894 18.0205 42.1755 19.3086C40.7814 20.4947 39.686 21.4268 39.314 23.773C39.2681 24.0625 39.2123 24.3812 39.1513 24.7294L39.1511 24.7308C38.893 26.2048 38.5423 28.2077 38.4539 30.7633C38.6184 30.0486 38.8032 29.3461 39.0101 28.645C39.691 25.9932 40.5351 24.8235 41.2901 23.7773L41.354 23.6887C42.7511 21.7506 44.5851 20.1766 46.5709 18.8774C48.4539 17.645 50.5676 16.5897 52.8053 16.6191ZM257.024 69.2068C261.336 72.1037 263.996 64.8707 259.631 63.6768C256.349 62.7754 254.419 67.4579 257.024 69.2068ZM204.482 62.3539C190.958 56.6394 197.408 36.5734 210.041 38.432C222.164 40.2154 224.389 54.6832 216.148 61.2191C211.134 65.1949 205.507 62.7894 204.604 62.4034C204.534 62.3732 204.492 62.3554 204.482 62.3539ZM199.645 55.4988C199.835 56.1429 200.126 56.4984 200.73 56.2193L200.729 56.2238C202.418 55.4422 202.018 53.9211 201.669 52.7707C201.602 52.5494 201.551 52.2623 201.497 51.9515C201.418 51.5054 201.331 51.0105 201.173 50.5917C200.547 48.9314 198.758 49.5879 198.596 51.1C198.525 51.7419 198.658 52.1854 199.282 54.2778L199.284 54.283L199.29 54.3047C199.395 54.6543 199.513 55.0495 199.645 55.4988ZM204.613 41.6892C200.849 43.2415 198.509 47.3486 201.406 47.0943L201.402 47.0936C201.427 47.0914 201.451 47.0893 201.476 47.0873C201.505 47.085 201.534 47.0828 201.563 47.0807L201.611 47.0771C202.471 47.0144 203.017 46.9745 204.973 44.4231C206.308 42.6789 205.417 41.3568 204.613 41.6892ZM203.813 59.9793C204.396 60.3455 206.374 60.8021 207.264 61.0066L207.269 61.0073C210.855 61.8292 209.252 59.2436 208.751 58.9446C208.303 58.6738 207.791 58.5638 207.278 58.4534C206.972 58.3877 206.666 58.3219 206.372 58.2221C206.099 58.1273 205.861 57.9956 205.636 57.8704C205.101 57.573 204.632 57.3129 203.903 57.6749C202.98 58.1368 202.757 59.318 203.813 59.9793ZM207.33 52.4585C206.19 49.0213 211.599 48.3961 211.654 51.6784C211.696 54.3011 208.076 54.7066 207.33 52.4585ZM210.557 43.242C211.031 43.271 211.637 43.3082 212.523 43.6761C212.584 43.7013 212.66 43.7368 212.749 43.7779C213.384 44.0734 214.638 44.6562 215.246 43.7686C216.84 41.4463 209.104 40.0507 208.722 41.4109C208.532 42.0864 209.278 42.9596 209.873 43.1482C210.077 43.2125 210.297 43.226 210.557 43.242ZM213.071 57.6304C212.444 58.4118 212.477 60.4123 213.818 60.1867C215.77 59.8621 219.299 56.3486 217.711 55.0987C216.642 54.255 215.651 55.3261 214.928 56.1073C214.847 56.195 214.769 56.279 214.695 56.3563C214.473 56.5887 214.205 56.7604 213.936 56.9321C213.623 57.1328 213.31 57.3333 213.071 57.6304ZM217.142 51.2626C217.971 53.0445 220.671 52.4807 219.177 47.3957C218.261 44.2765 215.506 45.867 216.385 48.0287C216.697 48.8 216.772 49.4113 216.838 49.9521C216.896 50.4228 216.947 50.84 217.142 51.2626Z" fill="#B0E48F"/>
</svg>
