<svg width="360" height="73" viewBox="0 0 360 73" fill="none" xmlns="http://www.w3.org/2000/svg">
<path fill-rule="evenodd" clip-rule="evenodd" d="M26.7535 9.3963C28.1522 9.41442 29.6193 10.2737 29.9354 11.633L29.9355 11.6328C30.1843 12.7036 29.6843 13.8246 28.9678 14.6592C27.3417 16.5529 24.7178 17.3017 22.2204 17.4017C22.0306 17.4092 21.8274 17.4101 21.6162 17.4049C19.6971 17.3575 18.0509 18.7636 17.8138 20.664L17.8088 20.7047C17.6554 21.9484 17.5687 23.3283 17.5468 24.8873C26.3736 28.3178 34.5386 31.4314 42.1705 34.2645C42.1879 33.3324 42.2379 32.4858 42.3212 31.7079C42.319 31.3707 42.2922 31.007 42.2495 30.6393C42.0846 29.2197 40.8265 28.1654 39.3576 28.1983C39.2022 28.2019 39.0527 28.2011 38.9127 28.1956C37.0146 28.1217 35.0205 27.5669 33.7846 26.1641C33.24 25.5459 32.8601 24.7153 33.0492 23.9223C33.2894 22.9154 34.4044 22.2789 35.4674 22.2656C36.5303 22.2523 37.5343 22.7306 38.4288 23.2892C39.372 23.8783 40.2432 24.5917 40.9068 25.4704L40.9374 25.5109C41.2963 25.9855 41.6976 26.5162 42.021 27.7202C42.1193 28.0307 42.2448 28.5102 42.3605 29.0629C42.3949 28.2788 42.4612 27.6712 42.546 26.8941L42.546 26.8939L42.546 26.8934L42.5463 26.891C42.5624 26.7435 42.5792 26.5898 42.5965 26.4277C42.7281 25.1963 42.5198 24.482 42.3058 23.7483L42.3058 23.7483C42.1815 23.322 42.0553 22.8892 41.9927 22.3445C41.7817 20.5088 41.9725 18.5081 43.1857 17.0867C43.7203 16.4605 44.498 15.9559 45.3338 16.003C46.395 16.0631 47.2285 17.0243 47.4216 18.0407C47.6147 19.0571 47.2992 20.0999 46.8843 21.0516C46.089 22.8757 45.2026 23.5955 44.4835 24.1794C43.8213 24.7171 43.3009 25.1396 43.1243 26.2032C43.1026 26.3337 43.0762 26.4773 43.0475 26.6341L43.0471 26.6361L43.0469 26.6371L43.0469 26.6374C42.9243 27.3056 42.7577 28.2135 42.7157 29.372C42.7939 29.048 42.8816 28.7296 42.9799 28.4118C43.3034 27.2097 43.7043 26.6794 44.0629 26.2052L44.0933 26.165C44.7569 25.2864 45.628 24.5729 46.5713 23.984C47.4657 23.4253 48.4697 22.9469 49.5326 22.9602C50.5957 22.9736 51.7107 23.6101 51.9509 24.617L51.951 24.6169C52.1401 25.4101 51.7601 26.2404 51.2155 26.8587C49.9797 28.2614 47.9856 28.8161 46.0875 28.8901C45.9432 28.8957 45.7888 28.8964 45.6283 28.8925C44.1698 28.8574 42.9187 29.899 42.7385 31.3066L42.7347 31.3368C42.6193 32.2488 42.5535 33.2597 42.5361 34.4002C52.7531 38.1894 62.014 41.4747 70.6299 44.3437C70.6629 43.6672 70.7109 43.0276 70.7741 42.4202C70.7713 41.9819 70.7375 41.5091 70.6835 41.0311C70.4753 39.1856 68.8861 37.815 67.0307 37.8579C66.8344 37.8624 66.6455 37.8614 66.4686 37.8543C64.0711 37.7582 61.5522 37.0369 59.9911 35.2133C59.3031 34.4097 58.8233 33.3299 59.0621 32.299C59.3655 30.99 60.7739 30.1626 62.1167 30.1453C63.4594 30.128 64.7275 30.7498 65.8574 31.476C67.0489 32.2418 68.1493 33.1692 68.9875 34.3115L69.0262 34.3642C69.4796 34.9812 69.9864 35.671 70.3949 37.2363C70.5191 37.6399 70.6776 38.2632 70.8238 38.9818C70.8672 37.9626 70.9509 37.1727 71.058 36.1627L71.0581 36.1622L71.0584 36.1592C71.0787 35.9671 71.0999 35.7671 71.1219 35.556C71.2882 33.9552 71.025 33.0266 70.7547 32.0728L70.7547 32.0727L70.7547 32.0726C70.5977 31.5185 70.4382 30.9559 70.3591 30.2479C70.0927 27.8614 70.3337 25.2605 71.8661 23.4128C72.5414 22.5986 73.5237 21.9427 74.5795 22.004C75.92 22.082 76.9728 23.3316 77.2168 24.653C77.4606 25.9742 77.0622 27.3299 76.538 28.5671C75.5334 30.9385 74.4138 31.8742 73.5054 32.6332C72.669 33.3323 72.0117 33.8815 71.7886 35.2642C71.761 35.435 71.7274 35.6231 71.6908 35.8286C71.5359 36.6973 71.3255 37.8776 71.2725 39.3836C71.3712 38.9624 71.482 38.5485 71.6062 38.1353C72.0148 36.5726 72.5212 35.8833 72.9742 35.2667L73.0125 35.2145C73.8508 34.0723 74.9512 33.1448 76.1427 32.3791C77.2725 31.6529 78.5407 31.031 79.8833 31.0483C81.2261 31.0657 82.6346 31.8932 82.938 33.2021L82.9381 33.202C83.1769 34.2331 82.6969 35.3125 82.0091 36.1163C80.448 37.9398 77.9291 38.6609 75.5316 38.7572C75.3493 38.7644 75.1543 38.7653 74.9515 38.7603C73.1092 38.7146 71.5289 40.0686 71.3013 41.8986L71.2964 41.9378C71.1991 42.7293 71.1298 43.5781 71.0879 44.496C115.084 59.1098 142.313 62.8531 194.5 67.5C242.462 71.7706 276.669 73.2359 309.682 72.2603C309.675 70.9245 309.724 69.7541 309.831 68.7079C309.828 68.3707 309.803 68.007 309.763 67.6393C309.606 66.2197 308.415 65.1654 307.023 65.1983C306.876 65.2019 306.734 65.2011 306.601 65.1956C304.803 65.1217 302.914 64.5668 301.743 63.1641C301.227 62.5459 300.867 61.7153 301.047 60.9223C301.274 59.9154 302.33 59.2789 303.338 59.2656C304.345 59.2523 305.296 59.7306 306.143 60.2892C307.037 60.8783 307.862 61.5917 308.491 62.4703L308.52 62.5107C308.86 62.9854 309.24 63.5161 309.546 64.7202C309.639 65.0307 309.758 65.5102 309.868 66.0629C309.9 65.2794 309.963 64.6721 310.043 63.8958L310.043 63.8949L310.053 63.8014L310.08 63.5427L310.091 63.4276C310.216 62.1962 310.019 61.482 309.816 60.7482L309.816 60.748C309.698 60.3218 309.579 59.8891 309.519 59.3445C309.32 57.5088 309.5 55.5081 310.65 54.0867C311.156 53.4605 311.893 52.9559 312.685 53.003C313.69 53.0631 314.48 54.0243 314.663 55.0407C314.845 56.0571 314.547 57.0999 314.154 58.0516C313.4 59.8757 312.56 60.5955 311.879 61.1794C311.252 61.7171 310.759 62.1396 310.591 63.2032C310.571 63.3337 310.546 63.4774 310.519 63.6343L310.518 63.6377C310.402 64.3058 310.244 65.2137 310.204 66.372C310.278 66.048 310.362 65.7296 310.455 65.4118C310.761 64.2097 311.141 63.6795 311.481 63.2052L311.509 63.165C312.138 62.2864 312.963 61.5729 313.857 60.9839C314.704 60.4253 315.656 59.9469 316.663 59.9602C317.67 59.9736 318.726 60.6101 318.953 61.617C319.133 62.4101 318.773 63.2404 318.257 63.8587C317.086 65.2614 315.197 65.8161 313.399 65.8901C313.262 65.8957 313.116 65.8964 312.964 65.8925C311.582 65.8574 310.397 66.899 310.226 68.3066L310.222 68.3368C310.087 69.4691 310.023 70.7538 310.03 72.2499C319.396 71.9681 328.67 71.49 338.138 70.8236C338.136 70.815 338.136 70.8062 338.135 70.7973C338.107 68.988 338.161 67.4335 338.302 66.0641C338.3 65.6763 338.27 65.258 338.223 64.8352C338.041 63.2026 336.65 61.9902 335.027 62.0281C334.855 62.0322 334.69 62.0312 334.535 62.025C332.437 61.9399 330.233 61.3019 328.867 59.6887C328.265 58.9778 327.845 58.0226 328.054 57.1106C328.32 55.9527 329.552 55.2207 330.727 55.2054C331.902 55.1901 333.012 55.7402 334 56.3826C335.043 57.06 336.006 57.8804 336.739 58.8909L336.773 58.9375C337.17 59.4833 337.613 60.0936 337.971 61.4782C338.079 61.8353 338.218 62.3867 338.346 63.0224C338.384 62.1206 338.457 61.4217 338.551 60.528L338.584 60.2155L338.607 59.9918C338.752 58.5757 338.522 57.7543 338.285 56.9105L338.285 56.9103C338.148 56.4201 338.008 55.9224 337.939 55.2962C337.706 53.1851 337.917 50.8843 339.258 49.2497C339.849 48.5295 340.708 47.9493 341.632 48.0035C342.805 48.0726 343.726 49.1779 343.94 50.3468C344.153 51.5156 343.804 52.7149 343.346 53.8094C342.467 55.9071 341.487 56.7348 340.692 57.4063C339.96 58.0247 339.385 58.5106 339.19 59.7337C339.18 59.798 339.168 59.8652 339.156 59.9351C339.147 59.9914 339.137 60.0496 339.126 60.1096L339.104 60.2332C338.969 61.0016 338.785 62.0457 338.738 63.3778C338.825 63.0052 338.922 62.639 339.03 62.2735C339.388 60.8911 339.831 60.2813 340.227 59.7359L340.261 59.6897C340.994 58.6794 341.957 57.8588 343 57.1815C343.988 56.5391 345.098 55.9889 346.273 56.0042C347.448 56.0197 348.68 56.7516 348.946 57.9096C349.155 58.8216 348.735 59.7765 348.133 60.4875C346.767 62.1006 344.563 62.7385 342.465 62.8236C342.306 62.8301 342.135 62.8308 341.958 62.8264C340.346 62.786 338.963 63.9838 338.764 65.6026L338.759 65.6373C338.581 67.1019 338.51 68.7881 338.542 70.7925C338.542 70.7933 338.542 70.7942 338.542 70.7951C345.547 70.2984 352.661 69.6989 360 69V73H0V18C5.95821 20.3585 11.6368 22.5891 17.0656 24.7003C17.0878 23.4248 17.1539 22.2678 17.2647 21.2056C17.2618 20.7504 17.2265 20.2594 17.1704 19.7631C16.9534 17.8466 15.2981 16.4232 13.3653 16.4678C13.1608 16.4725 12.9641 16.4715 12.7798 16.4641C10.2824 16.3643 7.65852 15.6153 6.03239 13.7215C5.31577 12.887 4.81591 11.7657 5.06469 10.6951C5.38074 9.33579 6.84784 8.47653 8.24659 8.45856C9.64519 8.44059 10.9662 9.08638 12.1431 9.84045C13.3842 10.6357 14.5305 11.5988 15.4037 12.785L15.444 12.8397C15.9162 13.4805 16.4442 14.1968 16.8697 15.8223C16.999 16.2414 17.1642 16.8887 17.3165 17.635C17.3617 16.5764 17.4489 15.7561 17.5605 14.7072L17.5605 14.707L17.5606 14.7061C17.5819 14.5059 17.604 14.2974 17.627 14.0773C17.8002 12.415 17.5261 11.4507 17.2445 10.4602L17.2445 10.4602C17.0809 9.88473 16.9148 9.30039 16.8324 8.56514C16.5549 6.08686 16.806 3.38589 18.4022 1.4671C19.1056 0.621653 20.1289 -0.0594634 21.2287 0.00411765C22.625 0.0852066 23.7217 1.38278 23.9758 2.755C24.2298 4.12706 23.8148 5.5349 23.2688 6.81973C22.2223 9.28227 21.056 10.2539 20.1098 11.0422C19.2385 11.7681 18.5539 12.3385 18.3214 13.7743C18.2927 13.9513 18.2579 14.1461 18.2199 14.3589L18.2197 14.3597L18.2196 14.3603L18.2196 14.3605L18.2196 14.3605C18.0583 15.2626 17.8391 16.4883 17.7838 18.0522C17.8867 17.6148 18.0021 17.185 18.1314 16.7559C18.5571 15.1331 19.0846 14.4172 19.5564 13.7769L19.5964 13.7227C20.4696 12.5367 21.6158 11.5734 22.857 10.7783C24.0339 10.0241 25.3549 9.37833 26.7535 9.3963ZM146.993 58.5223C149.586 60.4635 151.479 56.0556 148.798 55.1709C146.782 54.5036 145.427 57.3504 146.993 58.5223ZM118.719 37.8623C112.495 36.6131 108.263 44.1422 110.969 49.2738C109.343 46.9513 108.968 43.8415 110.26 40.8067C113.875 32.3139 125.041 35.3788 126.036 43.0024C126.442 46.119 125.216 49.2551 123.004 51.1561C126.929 46.9524 125.582 39.2396 118.719 37.8623ZM111.685 48.1287C111.782 48.5352 111.952 48.7656 112.337 48.6119L112.337 48.6147C113.415 48.1842 113.215 47.2258 113.035 46.4995C113.001 46.3598 112.978 46.1799 112.954 45.9851L112.954 45.9849L112.954 45.9848V45.9847C112.92 45.7049 112.882 45.3946 112.797 45.1291C112.461 44.0769 111.325 44.4264 111.175 45.3608C111.11 45.7574 111.178 46.0373 111.499 47.3581L111.569 47.647C111.605 47.7957 111.644 47.9559 111.685 48.1287ZM115.231 39.7091C112.834 40.5508 111.243 43.0266 113.056 42.9633L113.053 42.9627C113.099 42.9611 113.142 42.9602 113.185 42.9593C113.722 42.9484 114.064 42.9415 115.366 41.4198C116.255 40.3796 115.743 39.5288 115.231 39.7091ZM114.136 51.0493C114.487 51.2959 115.705 51.6444 116.253 51.8005L116.256 51.8011C118.464 52.4291 117.549 50.7698 117.247 50.5676C116.977 50.3847 116.661 50.2997 116.345 50.2142C116.157 50.1635 115.968 50.1126 115.788 50.0409C115.621 49.9731 115.477 49.8835 115.341 49.7983C115.017 49.596 114.734 49.4191 114.267 49.6202C113.677 49.8771 113.499 50.6039 114.136 51.0493ZM116.573 46.4904C115.974 44.3171 119.365 44.1054 119.293 46.1469C119.233 47.7782 116.965 47.9119 116.573 46.4904ZM118.884 40.8683C119.179 40.9018 119.555 40.9447 120.095 41.2023C120.132 41.22 120.179 41.2446 120.232 41.2729C120.619 41.4774 121.381 41.8805 121.789 41.3488C122.858 39.9577 118.083 38.8376 117.8 39.6704C117.66 40.084 118.096 40.651 118.461 40.7877C118.586 40.8343 118.723 40.8499 118.884 40.8683ZM119.982 49.8921C119.566 50.3573 119.521 51.6015 120.364 51.5051C121.591 51.3672 123.905 49.2991 122.956 48.4704C122.317 47.9111 121.664 48.5444 121.188 49.0063L121.188 49.0066C121.157 49.0364 121.127 49.0654 121.098 49.0934C121.077 49.1141 121.056 49.1341 121.035 49.1534C120.889 49.2905 120.716 49.3885 120.544 49.4864C120.342 49.6009 120.14 49.7153 119.982 49.8921ZM122.726 46.0679C123.184 47.2023 124.885 46.9402 124.12 43.7313C123.651 41.7629 121.883 42.6614 122.359 44.0335C122.529 44.523 122.556 44.9053 122.579 45.2435C122.6 45.5379 122.618 45.7989 122.726 46.0679ZM159.082 49.29L159.062 49.2843L159.063 49.2837L159.082 49.29ZM159.062 49.2843C158.475 49.1102 157.88 48.9601 157.278 48.8314C157.302 48.6265 157.327 48.4218 157.351 48.2167L157.352 48.2115C157.374 48.0205 157.397 47.8291 157.42 47.637C157.723 47.6918 158.023 47.7461 158.327 47.7982C158.446 47.8198 158.59 47.8343 158.67 47.7423C158.724 47.683 158.73 47.5979 158.733 47.5179C158.744 47.3423 158.754 47.1666 158.764 46.9909L158.765 46.9797L158.765 46.9685C158.775 46.7929 158.785 46.6172 158.796 46.4416L158.796 46.4394C158.798 46.3801 158.801 46.3182 158.77 46.2671C158.73 46.2024 158.648 46.1817 158.573 46.1653C158.062 46.0556 157.534 46.0061 157.012 46.0181C156.969 46.0189 156.922 46.022 156.889 46.0476C156.852 46.0755 156.843 46.1284 156.835 46.173C156.789 46.4262 156.727 46.6904 156.664 46.9587L156.664 46.9589C156.535 47.5084 156.402 48.075 156.396 48.5997L156.393 48.6597C155.932 48.5762 155.469 48.5011 155.002 48.4454C155.22 47.3677 155.425 46.2814 155.63 45.1927L155.63 45.1925C156.049 42.9723 156.47 40.742 157.005 38.553C157.129 38.0431 157.223 37.4244 156.844 37.0622C156.621 36.8493 156.294 36.7988 155.989 36.7551C155.697 36.715 155.404 36.6744 155.112 36.6338C154.821 36.5932 154.529 36.5526 154.236 36.5126C154.238 36.4626 154.239 36.4132 154.24 36.3637C154.24 36.338 154.241 36.3123 154.242 36.2865C154.242 36.2627 154.243 36.2388 154.244 36.2148C154.249 35.9654 154.24 35.679 154.052 35.5154C153.922 35.4056 153.742 35.3846 153.574 35.3655C153.475 35.3549 153.376 35.345 153.278 35.335C153.231 35.3303 153.185 35.3256 153.138 35.3209C153.086 35.3155 153.034 35.3101 152.982 35.3045C152.9 35.2955 152.809 35.2905 152.745 35.3422C152.695 35.3821 152.672 35.4469 152.652 35.5095C152.572 35.757 152.504 36.0093 152.441 36.2626C152.046 36.2083 151.65 36.1533 151.254 36.0982C150.858 36.0432 150.463 35.9882 150.068 35.934C150.189 35.5708 150.267 35.1282 150.32 34.8203C150.34 34.7094 150.356 34.616 150.37 34.55C150.544 33.7526 150.661 32.9424 150.732 32.1265C151.031 32.1864 151.332 32.2379 151.636 32.2699C151.749 32.2817 151.871 32.2866 151.968 32.2265C152.023 32.1933 152.045 32.134 152.05 32.06C152.063 31.8265 151.867 31.4543 151.778 31.326C151.563 31.0196 151.2 30.8848 150.851 30.8014C150.656 30.7543 150.458 30.7305 150.261 30.7067C150.077 30.6845 149.893 30.6624 149.712 30.6213C149.658 30.6094 149.605 30.5959 149.553 30.5825C149.324 30.5241 149.106 30.4684 148.856 30.5613C148.739 30.6035 148.637 30.677 148.537 30.7511C148.522 30.7621 148.503 30.7762 148.479 30.7927C148.47 30.7991 148.46 30.8059 148.45 30.8131C148.203 30.9851 147.664 31.3615 147.882 31.5764C147.973 31.6646 148.111 31.6754 148.239 31.6841C148.631 31.7089 149.013 31.7695 149.393 31.844C149.159 32.849 148.932 33.8524 148.704 34.8584C148.685 34.9424 148.648 35.0581 148.607 35.1887L148.606 35.189C148.555 35.3508 148.496 35.5356 148.455 35.7111C147.841 35.6258 147.225 35.5411 146.61 35.4564C145.994 35.3715 145.378 35.2867 144.763 35.2013C144.789 34.8348 144.787 34.4662 144.758 34.1013C144.806 34.1039 144.855 34.1058 144.904 34.1077C145.015 34.1121 145.127 34.1165 145.233 34.1296C145.291 34.1374 145.356 34.1596 145.424 34.1826C145.575 34.2337 145.737 34.2888 145.86 34.2C145.953 34.1305 145.979 34.0056 145.996 33.8909C146.097 33.2275 146.178 32.5625 146.259 31.8989L146.259 31.8976C146.357 31.0992 146.454 30.303 146.585 29.5144C146.701 28.8047 146.801 28.0948 146.882 27.3786C146.901 27.216 146.916 27.0528 146.931 26.8895C146.949 26.6991 146.967 26.5087 146.99 26.3192C146.997 26.2674 147.016 26.1967 147.036 26.1201C147.076 25.968 147.122 25.7923 147.092 25.6931C147.012 25.4398 146.617 25.3367 146.219 25.282C146.721 22.8235 147.099 20.3397 147.347 17.8411C147.39 17.8497 147.431 17.8583 147.47 17.8665L147.471 17.8666C147.709 17.9168 147.89 17.955 148.196 17.914L148.199 17.9134C148.234 17.9085 148.27 17.9033 148.294 17.8771C148.322 17.8505 148.327 17.8082 148.328 17.771C148.34 17.4534 148.222 17.1554 148.104 16.8558C148.026 16.6595 147.948 16.4625 147.906 16.259C147.863 16.0465 147.858 15.8262 147.853 15.6068V15.6067C147.846 15.2801 147.838 14.9557 147.704 14.6629C147.558 14.3458 147.268 14.3451 147.076 14.5953C146.877 14.8528 146.852 15.3431 146.906 15.6464C146.968 16.0001 147.187 16.3014 147.542 16.3858C147.484 16.644 147.395 16.8914 147.304 17.1406L147.304 17.1407L147.282 17.202C147.067 17.0653 146.522 17.0898 146.283 17.1006L146.226 17.103L145.491 21.5966C145.43 21.9654 145.369 22.3336 145.309 22.7018C145.249 23.07 145.189 23.4382 145.128 23.807C145.077 24.121 145.002 24.4218 144.926 24.7213L144.926 24.7216C144.895 24.8459 144.864 24.97 144.835 25.0947C144.578 25.0712 144.317 25.07 144.058 25.121C143.974 25.1376 143.884 25.1587 143.824 25.2198C143.768 25.2758 143.743 25.3518 143.724 25.426C143.643 25.7434 143.616 26.0961 143.589 26.4335C143.582 26.5172 143.576 26.6001 143.569 26.6812C143.37 28.9357 143.045 31.1786 142.592 33.3929C142.577 33.4792 142.56 33.574 142.598 33.6499C142.65 33.7544 142.782 33.7897 142.896 33.8103L143.463 33.9129C143.333 34.2319 143.163 34.6672 143.125 34.9711C142.831 34.9308 142.537 34.8899 142.244 34.849C142.052 34.8223 141.861 34.7957 141.669 34.7692C141.567 34.7551 141.465 34.7411 141.363 34.7271C140.271 34.5755 139.173 34.4229 138.102 34.1514C137.852 34.088 137.605 34.0204 137.359 33.9531C136.666 33.7631 135.983 33.576 135.258 33.4958C135.62 31.4576 136.059 29.43 136.497 27.4041L136.497 27.4034C136.964 25.2426 137.431 23.0838 137.804 20.9165C137.817 20.844 137.832 20.7632 137.896 20.7259C137.948 20.695 138.012 20.7038 138.07 20.7143L138.073 20.7148L138.073 20.7148C138.61 20.8062 139.147 20.8975 139.683 20.9917C139.698 20.9502 139.721 20.8929 139.749 20.8246L139.749 20.8245C139.902 20.4445 140.192 19.7248 140.05 19.5015C139.936 19.3232 139.237 19.2644 138.774 19.2255C138.621 19.2125 138.493 19.2017 138.421 19.1895C137.84 19.0916 137.259 18.9928 136.677 18.8941C136.096 18.7953 135.514 18.6966 134.933 18.5986C133.77 18.4012 132.608 18.2045 131.445 18.0078C130.283 17.8111 129.121 17.6145 127.958 17.417L113.853 15.0288C113.628 14.988 113.359 14.9653 113.203 15.1298C113.097 15.2401 113.074 15.3999 113.055 15.5519C113.009 15.932 112.963 16.315 112.914 16.6946C113.601 16.6951 114.21 16.7708 114.879 16.9293C114.362 22.1473 113.773 27.3579 113.116 32.5592C112.882 32.6952 112.619 32.8606 112.318 33.0651C111.671 33.5004 111.087 34.0595 111.379 34.7798C111.077 35.0098 110.879 35.1912 110.742 35.3168C110.586 35.4596 110.509 35.5301 110.449 35.5177C110.39 35.5055 110.348 35.414 110.265 35.2329C110.222 35.1392 110.168 35.0215 110.095 34.8784C109.292 35.5387 108.018 36.9655 107.888 37.5376C107.813 37.875 107.96 38.1866 108.167 38.457C108.038 38.6716 107.948 38.8355 107.88 38.9579C107.765 39.1674 107.717 39.2553 107.655 39.2667C107.61 39.2749 107.558 39.2433 107.468 39.1889C107.417 39.1582 107.354 39.1202 107.274 39.078C107.048 38.9595 106.937 38.9711 106.773 39.2579C106.143 40.3409 105.568 41.664 106.506 42.4927C106.432 42.8386 106.399 43.0808 106.377 43.2444C106.352 43.4297 106.34 43.5144 106.298 43.5349C106.262 43.5522 106.204 43.5242 106.098 43.4726C106.035 43.4423 105.956 43.4039 105.855 43.3618C105.268 43.1146 105.472 47.3495 105.992 47.8262C106.169 47.9878 106.622 48.0121 106.861 48.0209C107.009 48.4234 107.152 48.7155 107.253 48.9217C107.49 49.4042 107.496 49.4161 106.796 49.2694C106.035 49.1115 106.863 50.6598 107.95 51.8749C108.537 52.5308 108.842 52.4507 109.465 51.9908C109.787 52.3083 110.02 52.5022 110.172 52.6295C110.333 52.7639 110.405 52.824 110.4 52.877C110.396 52.9198 110.342 52.958 110.244 53.027C110.184 53.0691 110.107 53.1226 110.016 53.1955C109.479 53.6249 112.068 55.2472 112.746 55.2117C113.063 55.1941 113.304 54.953 113.545 54.7002C114.109 54.939 114.498 55.0602 114.741 55.1357C114.954 55.2021 115.055 55.2333 115.061 55.2781C115.067 55.3181 114.998 55.3688 114.869 55.4647C114.769 55.5385 114.633 55.639 114.466 55.7819C114.538 55.721 114.84 55.8273 115.264 55.9764C116.394 56.3742 118.39 57.0768 119.188 55.727C120.055 55.6796 120.911 55.5352 121.738 55.282C121.721 55.3183 121.703 55.3547 121.686 55.391C121.578 55.6123 121.473 55.8259 121.65 55.9395C121.913 56.1078 123.394 55.4924 123.676 55.3594C124.351 55.0413 124.671 54.6993 124.671 53.7958C125.276 53.3441 125.578 53.0208 125.739 52.8489C125.834 52.7478 125.879 52.699 125.909 52.7074C125.936 52.7152 125.949 52.7723 125.974 52.8825C126.013 53.0495 126.079 53.3383 126.265 53.7619C126.802 53.4448 128.909 51.4149 127.887 49.7481C128.042 49.4165 128.15 49.1512 128.232 48.9359C129.398 49.085 130.564 49.2348 131.73 49.3846C132.896 49.5344 134.061 49.6843 135.227 49.8334C134.854 49.786 135.781 48.2647 135.877 48.1613C136.34 47.6523 136.771 47.6008 137.46 47.5846C138.453 47.5639 139.499 47.7107 140.521 47.8542L140.521 47.8542C140.953 47.9149 141.382 47.975 141.8 48.0217C143.415 48.2045 145.024 48.4209 146.629 48.6711C146.6 49.1809 146.598 49.7013 146.602 50.1221C146.422 50.1672 146.141 50.3063 145.697 50.6056C145.38 50.8187 145.095 51.0923 145.235 51.4456C145.086 51.5583 144.989 51.6472 144.921 51.7086C144.845 51.7781 144.807 51.8124 144.778 51.8063C144.75 51.8003 144.73 51.7558 144.689 51.6678C144.668 51.6217 144.642 51.5637 144.606 51.493C144.066 51.9363 143.239 52.6987 143.66 53.2467C143.595 53.3543 143.55 53.436 143.516 53.4966C143.462 53.5965 143.438 53.6386 143.408 53.6442C143.386 53.6483 143.361 53.6331 143.317 53.6066C143.292 53.5918 143.261 53.5735 143.222 53.5531C142.902 53.3859 142.28 54.7293 142.845 55.2284C142.808 55.3979 142.792 55.5167 142.782 55.597C142.769 55.6881 142.764 55.7298 142.743 55.7399C142.725 55.7484 142.697 55.7344 142.645 55.7088C142.614 55.6939 142.576 55.675 142.526 55.6542C142.238 55.533 142.339 57.6086 142.593 57.8415C142.679 57.9204 142.901 57.9318 143.021 57.9362C143.093 58.1338 143.164 58.2773 143.213 58.3786C143.329 58.6153 143.332 58.6213 142.987 58.5488C142.614 58.4697 143.022 59.2312 143.555 59.8254C143.844 60.1481 143.991 60.1087 144.297 59.882C144.457 60.0399 144.572 60.1354 144.646 60.1975C144.724 60.2617 144.758 60.2905 144.756 60.3158C144.754 60.3364 144.728 60.3548 144.681 60.388C144.652 60.4089 144.614 60.4355 144.569 60.4722C144.307 60.6837 145.575 61.48 145.909 61.4599C146.063 61.4503 146.181 61.3337 146.299 61.2082C146.576 61.3254 146.767 61.3848 146.886 61.4218C146.99 61.4543 147.04 61.4697 147.043 61.4917C147.046 61.5113 147.012 61.5362 146.948 61.5834C146.899 61.6196 146.833 61.6689 146.751 61.7389C146.788 61.7074 146.94 61.761 147.151 61.8358C147.707 62.032 148.675 62.3742 149.067 61.712C149.491 61.688 149.911 61.6173 150.316 61.492C150.307 61.5116 150.298 61.5312 150.288 61.5506L150.288 61.5509C150.236 61.6578 150.187 61.7582 150.272 61.8149C150.326 61.8505 151.751 61.6827 151.754 60.7625C152.044 60.5458 152.192 60.3902 152.272 60.3059C152.322 60.2538 152.346 60.2289 152.361 60.2333C152.375 60.2374 152.382 60.2665 152.395 60.3226C152.415 60.4044 152.447 60.5435 152.536 60.7456C152.86 60.554 153.817 59.5675 153.331 58.7775C153.474 58.4733 153.538 58.2758 153.578 58.1542C153.612 58.0509 153.627 58.0023 153.658 57.9895C153.686 57.9781 153.725 57.9951 153.799 58.0271C153.855 58.0512 153.93 58.0839 154.036 58.1196C154.476 56.0673 154.291 56.1212 153.988 56.2093L153.952 56.2197C153.963 55.6865 153.913 55.4312 153.889 55.3036C153.876 55.2367 153.87 55.205 153.883 55.1867C153.894 55.1702 153.922 55.1646 153.974 55.1542C154.039 55.1411 154.142 55.1202 154.302 55.0603C154.188 54.5304 153.969 54.0275 153.665 53.6012C153.607 53.6406 153.565 53.674 153.533 53.6995C153.485 53.7378 153.46 53.7582 153.439 53.754C153.416 53.7493 153.399 53.7131 153.362 53.6361C153.303 53.5101 153.192 53.2745 152.918 52.8878C152.96 52.8592 152.999 52.8335 153.034 52.8103C153.208 52.6942 153.292 52.6382 153.298 52.5751C153.303 52.5162 153.24 52.4512 153.118 52.3254C153.06 52.2658 152.989 52.1926 152.906 52.1C152.308 51.4356 152.25 51.5109 152.146 51.6467C152.099 51.7076 152.043 51.7806 151.925 51.8047C151.64 51.5609 151.457 51.4471 151.358 51.3849C151.292 51.3442 151.263 51.3257 151.263 51.3074C151.263 51.2921 151.284 51.277 151.322 51.2492C151.383 51.2059 151.485 51.1317 151.618 50.978C151.45 50.8151 151.268 50.6958 151.089 50.6031L151.258 49.4771C153.241 49.8646 155.216 50.294 157.175 50.7808C157.582 50.8831 158.02 50.9826 158.415 50.8325C158.862 50.6611 158.921 50.2006 158.978 49.7603V49.7601C158.999 49.593 159.021 49.4288 159.062 49.2843ZM154.737 40.456C155.085 40.5305 154.986 41.0766 154.638 41.0021C130.844 35.8506 127.475 34.6827 154.737 40.456ZM116.181 18.759C116.615 18.1465 117.27 18.3003 118.968 18.6991C120.318 19.0161 122.326 19.4878 125.407 19.8528C125.989 19.9207 126.324 20.0994 126.229 21.1007C126.074 22.7227 125.974 24.0477 125.893 25.1258C125.682 27.9104 125.596 29.0486 125.023 29.4065C124.626 29.6539 123.997 29.5283 122.933 29.3158C122.295 29.1884 121.501 29.0299 120.508 28.9017C114.784 28.1644 114.851 27.8934 115.169 26.617C115.198 26.5025 115.228 26.3799 115.257 26.2482C115.332 25.9031 115.426 24.8465 115.535 23.6298L115.535 23.6296C115.716 21.5878 115.938 19.0953 116.179 18.7585L116.181 18.759ZM128.639 35.4688C129.771 35.1155 133.928 35.8964 132.929 36.2451C132.674 36.3328 132.38 36.2545 132.106 36.1817C132.021 36.1589 131.937 36.1367 131.857 36.1203C131.24 35.9903 130.526 35.8874 129.92 35.8002L129.92 35.8001C128.994 35.6667 128.323 35.57 128.642 35.4693L128.639 35.4688ZM124.889 32.3583C124.827 32.0424 124.786 31.8333 124.67 31.6823C124.442 31.3868 123.926 31.3135 122.401 31.0968C122.01 31.0413 121.553 30.9763 121.017 30.8958C104.632 28.4344 124.184 30.6574 124.865 31.1433C125.269 31.4322 125.745 33.8489 125.781 34.1431C125.81 34.3497 125.511 34.3992 125.44 34.2195C125.084 33.3514 124.969 32.7659 124.889 32.3583ZM130.477 47.3027V47.3026C130.64 46.4063 130.926 44.8354 130.373 42.5933C130.171 41.7741 131.41 43.7016 131.009 46.9639L131.008 46.977C130.972 47.2819 130.819 48.5641 130.444 48.1363L130.443 48.1391C130.345 48.0276 130.396 47.7487 130.477 47.3027ZM130.823 38.2033C129.56 38.0927 127.646 37.4961 129.889 37.6516C130.794 37.7154 131.434 37.7036 131.884 37.6952C132.341 37.6868 132.603 37.6819 132.749 37.7634C133.03 37.9208 133.053 38.3996 130.823 38.2033ZM133.783 34.6014C131.727 34.4767 129.729 34.3166 127.748 33.7624C126.216 29.3334 126.233 29.2241 126.586 26.9851C126.779 25.7638 127.072 23.9089 127.268 20.3737C127.299 19.7887 133.956 21.1216 134.881 21.3067L134.96 21.3226C135.072 21.3447 135.176 21.3626 135.273 21.3792C135.594 21.4344 135.832 21.4754 135.987 21.6116C136.437 22.0066 136.183 23.2023 135.191 27.8656C134.824 29.5912 134.356 31.7916 133.786 34.6019L133.783 34.6014ZM133.927 40.9921C133.839 41.2897 133.392 41.2232 133.444 40.9045C133.494 40.5971 134.783 34.9807 134.964 34.3287C135.308 33.0789 134.679 38.4896 133.927 40.9921ZM147.139 59.0066C143.546 57.3494 145.756 51.704 149.431 53.1488C153.377 54.7 151.064 60.816 147.139 59.0066ZM154.667 42.9207C150.387 42.0455 144.138 40.7191 138.791 39.4868C129.68 37.3863 138.061 39.0341 146.06 40.6071L146.062 40.6074C149.521 41.2875 152.908 41.9536 154.78 42.2966C155.18 42.3691 155.066 43.0015 154.667 42.9207Z" fill="#B0E48F"/>
</svg>
