<svg width="768" height="97" viewBox="0 0 768 97" preserveAspectRatio="none" fill="none" xmlns="http://www.w3.org/2000/svg">
<path fill-rule="evenodd" clip-rule="evenodd" d="M47.8056 15.2407C50.0436 15.2701 52.3909 16.6638 52.8966 18.8686C53.2946 20.6053 52.4949 22.4233 51.3485 23.7771C48.7467 26.8485 44.5486 28.0631 40.5526 28.2253C40.2489 28.2375 39.9238 28.239 39.5858 28.2305C36.5153 28.1536 33.8815 30.4343 33.5022 33.5167L33.494 33.5827C33.2831 35.3173 33.1509 37.215 33.0957 39.3203C45.6376 42.8926 58.6306 46.3588 72.0339 49.6967C72.0734 48.708 72.1377 47.7828 72.2271 46.9116C72.2237 46.3746 72.1828 45.7954 72.1176 45.2099C71.866 42.9492 69.9458 41.2701 67.7037 41.3227C67.4666 41.3283 67.2384 41.327 67.0246 41.3183C64.1275 41.2006 61.0839 40.317 59.1976 38.0831C58.3663 37.0986 57.7865 35.776 58.075 34.5131C58.4417 32.9096 60.1435 31.896 61.766 31.8748C63.3884 31.8536 64.9208 32.6154 66.286 33.5049C67.7257 34.443 69.0554 35.579 70.0683 36.9784L70.115 37.0429C70.6628 37.7987 71.2753 38.6438 71.7689 40.5612C71.9189 41.0556 72.1105 41.8192 72.2871 42.6995C72.3396 41.4508 72.4407 40.4832 72.5701 39.2458C72.5948 39.0094 72.6206 38.7628 72.6473 38.5028C72.8482 36.5419 72.5303 35.4044 72.2036 34.236C72.0139 33.5571 71.8212 32.8678 71.7256 32.0005C71.4037 29.0771 71.6949 25.8909 73.5466 23.6275C74.3625 22.6301 75.5495 21.8267 76.8253 21.9017C78.445 21.9973 79.7171 23.528 80.012 25.1467C80.3066 26.7652 79.8252 28.426 79.1918 29.9416C77.9779 32.8464 76.625 33.9927 75.5274 34.9225C74.5167 35.7788 73.7225 36.4517 73.4528 38.1454C73.4199 38.3522 73.3799 38.5797 73.3363 38.828L73.3359 38.8299L73.3352 38.8339L73.3348 38.836C73.1477 39.9002 72.8934 41.3468 72.8292 43.1917C72.9485 42.6758 73.0825 42.1687 73.2325 41.6625C73.7262 39.7482 74.3381 38.9038 74.8855 38.1485L74.9318 38.0845C75.9447 36.6854 77.2744 35.5491 78.7141 34.6113C80.0793 33.7216 81.6117 32.9598 83.234 32.981C84.8566 33.0023 86.5584 34.016 86.925 35.6194C87.2136 36.8825 86.6338 38.2047 85.8027 39.1893C83.9164 41.423 80.8727 42.3064 77.9756 42.4243C77.7555 42.4332 77.5197 42.4343 77.2747 42.4281C75.0486 42.3722 73.1391 44.0309 72.8641 46.2726L72.8582 46.3206C72.7275 47.3987 72.6385 48.5635 72.5904 49.8351C87.3583 53.5058 102.623 57.0206 118.329 60.3498C118.311 57.5619 118.414 55.1254 118.642 52.9517C118.638 52.2637 118.584 51.5216 118.499 50.7714C118.169 47.8748 115.653 45.7236 112.715 45.7909C112.404 45.7981 112.105 45.7964 111.825 45.7853C108.029 45.6344 104.041 44.5024 101.569 41.6402C100.48 40.3788 99.7202 38.6842 100.098 37.0661C100.579 35.0116 102.809 33.7129 104.935 33.6858C107.061 33.6586 109.069 34.6347 110.858 35.7743C112.744 36.9762 114.486 38.4318 115.814 40.2247L115.875 40.3074C116.593 41.2759 117.395 42.3586 118.042 44.8153C118.239 45.4487 118.49 46.4271 118.721 47.555C118.79 45.955 118.922 44.7151 119.092 43.1295L119.092 43.128C119.124 42.8256 119.158 42.5105 119.193 42.178C119.456 39.6655 119.04 38.2081 118.612 36.7111C118.363 35.8413 118.111 34.9581 117.985 33.8469C117.563 30.1012 117.945 26.0189 120.371 23.1189C121.441 21.8411 122.996 20.8116 124.668 20.9077C126.79 21.0303 128.457 22.9915 128.843 25.0654C129.229 27.1391 128.598 29.267 127.769 31.2088C126.178 34.9307 124.405 36.3993 122.967 37.5907C121.643 38.6878 120.602 39.5499 120.249 41.72C120.205 41.9881 120.152 42.2833 120.094 42.6058C119.849 43.9692 119.515 45.8218 119.431 48.1856C119.588 47.5246 119.763 46.8749 119.96 46.2263C120.607 43.7736 121.409 42.6917 122.126 41.724L122.187 41.642C123.514 39.8494 125.256 38.3936 127.143 37.1919C128.931 36.052 130.939 35.0759 133.065 35.1031C135.191 35.1305 137.421 36.4291 137.902 38.4836C138.28 40.1019 137.52 41.7959 136.431 43.0575C133.959 45.9195 129.971 47.0513 126.175 47.2024C125.886 47.2138 125.578 47.2151 125.257 47.2073C122.34 47.1355 119.837 49.2608 119.477 52.133L119.469 52.1945C119.173 54.587 119.04 57.3129 119.066 60.5058C198.985 77.4013 290.303 89.4867 385.85 92.8538C497.393 96.7846 602.078 97.3475 691.99 95.0698C691.985 93.863 692.029 93.4815 692.123 92.6503C692.153 92.3906 692.187 92.087 692.227 91.7006C692.224 91.1636 692.183 90.5844 692.118 89.9989C691.866 87.7381 689.946 86.0591 687.704 86.1116C687.467 86.1173 687.238 86.116 687.025 86.1073C684.128 85.9895 681.084 85.106 679.198 82.8721C678.366 81.8876 677.786 80.5649 678.075 79.302C678.442 77.6986 680.143 76.6849 681.766 76.6637C683.388 76.6425 684.921 77.4044 686.286 78.2939C687.726 79.2319 689.055 80.368 690.068 81.7673L690.115 81.8318C690.663 82.5877 691.275 83.4328 691.769 85.3502C691.919 85.8446 692.11 86.6082 692.287 87.4885C692.339 86.243 692.44 85.2772 692.569 84.0444L692.569 84.042L692.57 84.0351L692.57 84.0341L692.571 84.0233L692.581 83.9337L692.611 83.6391L692.633 83.4356L692.647 83.2918C692.848 81.3308 692.53 80.1934 692.204 79.0249C692.014 78.3461 691.821 77.6568 691.726 76.7895C691.404 73.866 691.695 70.6799 693.547 68.4164C694.362 67.4191 695.549 66.6157 696.825 66.6907C698.445 66.7863 699.717 68.317 700.012 69.9357C700.307 71.5542 699.825 73.2149 699.192 74.7305C697.978 77.6354 696.625 78.7816 695.527 79.7115C694.517 80.5678 693.722 81.2406 693.453 82.9344C693.436 83.0408 693.417 83.1527 693.397 83.2702C693.377 83.3837 693.356 83.5024 693.335 83.6263C693.147 84.6903 692.893 86.1364 692.829 87.9807C692.949 87.4648 693.082 86.9577 693.232 86.4515C693.726 84.5371 694.338 83.6927 694.885 82.9374L694.932 82.8735C695.945 81.4744 697.274 80.3381 698.714 79.4002C700.079 78.5105 701.612 77.7487 703.234 77.7699C704.857 77.7913 706.558 78.8049 706.925 80.4084C707.214 81.6715 706.634 82.9936 705.803 83.9782C703.916 86.212 700.873 87.0954 697.976 87.2133C697.755 87.2222 697.52 87.2233 697.275 87.2171C695.049 87.1611 693.139 88.8199 692.864 91.0616L692.858 91.1096C692.771 91.825 692.669 92.2995 692.576 92.7357C692.437 93.3781 692.597 93.9453 692.569 95.0698C708.243 94.6715 723.187 94.1792 737.919 93.611C737.896 91.0583 737.985 88.8383 738.189 86.8649C738.186 86.2608 738.139 85.6092 738.065 84.9505C737.779 82.4072 735.593 80.5183 733.042 80.5774C732.772 80.5837 732.513 80.5823 732.269 80.5725C728.973 80.44 725.509 79.446 723.363 76.9329C722.417 75.8254 721.757 74.3373 722.085 72.9166C722.503 71.1127 724.439 69.9724 726.286 69.9485C728.132 69.9247 729.875 70.7817 731.429 71.7824C733.067 72.8377 734.58 74.1158 735.733 75.69L735.786 75.7626C736.409 76.613 737.106 77.5636 737.668 79.7208C737.839 80.277 738.057 81.136 738.258 82.1263C738.317 80.7209 738.433 79.6319 738.58 78.2389C738.608 77.9735 738.637 77.6969 738.668 77.4051C738.896 75.199 738.534 73.9194 738.163 72.6049C737.947 71.8414 737.728 71.0655 737.619 70.09C737.252 66.8011 737.584 63.2167 739.691 60.6703C740.619 59.5483 741.97 58.6444 743.422 58.7288C745.265 58.8364 746.713 60.5584 747.048 62.3794C747.383 64.2003 746.836 66.0686 746.115 67.7737C744.733 71.0416 743.194 72.3311 741.945 73.3773C740.795 74.3406 739.891 75.0975 739.584 77.003C739.546 77.2384 739.5 77.4977 739.45 77.781C739.237 78.9781 738.948 80.6047 738.875 82.6801C739.01 82.0996 739.163 81.5292 739.333 80.9597C739.895 78.8061 740.592 77.8561 741.214 77.0064L741.267 76.9345C742.42 75.3605 743.933 74.0822 745.571 73.0271C747.125 72.0261 748.868 71.1691 750.715 71.193C752.561 71.217 754.497 72.3573 754.915 74.1612C755.243 75.582 754.583 77.0696 753.638 78.1773C751.491 80.6903 748.028 81.6841 744.731 81.8168C744.48 81.8267 744.212 81.828 743.933 81.821C741.4 81.7581 739.227 83.6241 738.914 86.1461L738.908 86.2001C738.647 88.3229 738.532 90.7446 738.558 93.5863C748.606 93.1967 758.424 92.7682 768 92.3017V97H0V82.6283V29.3189C10.3986 32.6527 21.1839 35.9187 32.327 39.1011C32.3755 37.408 32.4741 35.8471 32.6236 34.3953C32.6189 33.657 32.5625 32.8606 32.4726 32.0555C32.1255 28.947 29.4769 26.6383 26.3845 26.7105C26.0573 26.7183 25.7426 26.7165 25.4477 26.7046C21.4518 26.5426 17.2536 25.3278 14.6518 22.2561C13.5052 20.9025 12.7055 19.0838 13.1035 17.3473C13.6092 15.1425 15.9565 13.7488 18.1945 13.7197C20.4323 13.6905 22.5459 14.738 24.429 15.9611C26.4147 17.2509 28.2488 18.813 29.6459 20.7371L29.7104 20.8258C30.4659 21.8651 31.3107 23.0271 31.9915 25.6636C32.1984 26.3434 32.4627 27.3933 32.7063 28.6037C32.7787 26.8869 32.9182 25.5564 33.0967 23.8551C33.1308 23.53 33.1664 23.1907 33.2031 22.8333C33.4803 20.1369 33.0417 18.5729 32.5912 16.9663C32.3295 16.0329 32.0637 15.0851 31.9319 13.8926C31.4878 9.87281 31.8895 5.49188 34.4436 2.37961C35.569 1.00831 37.2062 -0.0964489 38.9659 0.00667878C41.1999 0.138204 42.9547 2.24286 43.3613 4.46857C43.7677 6.69404 43.1037 8.97754 42.23 11.0615C40.5557 15.0557 38.6896 16.6318 37.1757 17.9104C35.7816 19.0877 34.6862 20.0129 34.3143 22.3418C34.2683 22.6291 34.2125 22.9455 34.1516 23.2911L34.1513 23.2925C33.8932 24.7557 33.5426 26.7438 33.4541 29.2805C33.6187 28.5711 33.8034 27.8738 34.0103 27.1778C34.6913 24.5456 35.5353 23.3846 36.2903 22.346L36.3542 22.2581C37.7513 20.3343 39.5854 18.7719 41.5711 17.4823C43.4542 16.259 45.5678 15.2115 47.8056 15.2407ZM252.024 74.4075C256.336 77.283 258.996 70.1035 254.631 68.9183C251.35 68.0236 249.42 72.6715 252.024 74.4075ZM199.482 67.6052C185.958 61.9329 192.409 42.0149 205.042 43.8598C217.164 45.6301 219.39 59.9911 211.148 66.4788C206.134 70.4253 200.507 68.0375 199.604 67.6543L199.603 67.6538C199.569 67.6394 199.542 67.6279 199.522 67.6197C199.501 67.611 199.487 67.6059 199.482 67.6052ZM194.646 60.8007C194.835 61.44 195.126 61.7929 195.73 61.5159L195.729 61.5204C197.418 60.7445 197.018 59.2346 196.669 58.0927C196.602 57.873 196.552 57.588 196.497 57.2796C196.418 56.8368 196.331 56.3456 196.174 55.9298C195.547 54.2818 193.758 54.9334 193.596 56.4343C193.526 57.0715 193.658 57.5117 194.283 59.5887L194.284 59.5938L194.291 59.6154C194.395 59.9624 194.513 60.3547 194.646 60.8007ZM199.613 47.093C195.849 48.6338 193.509 52.7106 196.406 52.4582L196.402 52.4575C196.441 52.454 196.48 52.4509 196.518 52.448L196.611 52.4412C197.471 52.3788 198.017 52.3393 199.973 49.8067C201.308 48.0754 200.417 46.7631 199.613 47.093ZM198.813 65.2481C199.396 65.6116 201.375 66.0649 202.265 66.2679L202.269 66.2685C205.855 67.0844 204.252 64.5178 203.751 64.221C203.303 63.9523 202.792 63.8431 202.278 63.7335C201.973 63.6683 201.666 63.603 201.372 63.5038C201.099 63.4098 200.862 63.279 200.636 63.1548C200.101 62.8596 199.633 62.6014 198.903 62.9607C197.98 63.4193 197.757 64.5917 198.813 65.2481ZM202.33 57.7828C201.19 54.371 206.599 53.7504 206.654 57.0084C206.696 59.6118 203.077 60.0144 202.33 57.7828ZM205.558 48.6343C206.031 48.6631 206.637 48.7 207.523 49.0652C207.584 49.0902 207.66 49.1254 207.749 49.1661C208.384 49.4594 209.638 50.0381 210.246 49.157C211.84 46.8519 204.105 45.4666 203.722 46.8167C203.532 47.4873 204.278 48.354 204.873 48.5412C205.078 48.6051 205.298 48.6185 205.558 48.6343ZM208.072 62.9165C207.445 63.6922 207.477 65.678 208.819 65.454C210.77 65.1318 214.3 61.6442 212.712 60.4035C211.642 59.566 210.651 60.6293 209.928 61.4047C209.847 61.4918 209.769 61.5752 209.695 61.6519C209.473 61.8825 209.205 62.053 208.937 62.2234C208.623 62.4226 208.31 62.6217 208.072 62.9165ZM212.143 56.5957C212.971 58.3645 215.671 57.8048 214.177 52.7574C213.261 49.6612 210.507 51.24 211.385 53.3858C211.698 54.1513 211.772 54.7581 211.838 55.2949C211.896 55.7621 211.947 56.1763 212.143 56.5957ZM270.636 60.2861L270.605 60.2787L270.605 60.2777L270.636 60.2861ZM270.605 60.2787C269.65 60.0504 268.685 59.861 267.712 59.7062C267.733 59.3776 267.755 59.0492 267.777 58.7202L267.778 58.6981C267.798 58.3967 267.819 58.0948 267.838 57.7918C268.328 57.8539 268.813 57.9153 269.303 57.9729C269.496 57.9973 269.727 58.0084 269.847 57.8552C269.928 57.7562 269.932 57.6201 269.93 57.4924C269.933 57.2059 269.934 56.9192 269.935 56.6326C269.936 56.3459 269.938 56.0593 269.94 55.7728L269.94 55.7693C269.939 55.6746 269.937 55.5757 269.884 55.4971C269.815 55.3972 269.681 55.3712 269.56 55.3513C268.733 55.2192 267.884 55.1844 267.05 55.2472C266.981 55.2521 266.906 55.2609 266.855 55.3045C266.799 55.352 266.788 55.4371 266.779 55.5088C266.727 55.9159 266.65 56.3418 266.572 56.7743C266.411 57.6603 266.246 58.5746 266.28 59.4109L266.281 59.5067C265.536 59.4122 264.788 59.3312 264.037 59.2815C264.295 57.5479 264.531 55.8017 264.769 54.0516L264.769 54.0484C265.253 50.4767 265.739 46.8885 266.412 43.3568C266.567 42.5342 266.667 41.5407 266.029 40.9955C265.655 40.6749 265.127 40.6218 264.636 40.5777C264.165 40.5385 263.697 40.4984 263.228 40.4583L263.223 40.4579C262.752 40.4175 262.281 40.3772 261.809 40.3379C261.808 40.298 261.807 40.2583 261.806 40.2188C261.805 40.1795 261.804 40.1403 261.803 40.1011C261.802 40.0636 261.801 40.0261 261.8 39.9884C261.798 39.9468 261.797 39.905 261.797 39.8629C261.784 39.4651 261.746 39.0097 261.431 38.7648C261.214 38.6008 260.924 38.5823 260.653 38.5661C260.494 38.5574 260.335 38.5498 260.176 38.5422C260.018 38.5346 259.859 38.527 259.7 38.5183C259.569 38.5107 259.423 38.5104 259.325 38.5982C259.248 38.6658 259.216 38.771 259.189 38.8724C259.083 39.2732 258.995 39.6808 258.915 40.0896C258.278 40.0362 257.641 39.9816 257.003 39.927C256.365 39.8724 255.728 39.8177 255.091 39.7644C255.253 39.1758 255.34 38.4643 255.401 37.9693C255.422 37.7911 255.441 37.6409 255.458 37.5346C255.668 36.25 255.789 34.9496 255.832 33.644C256.316 33.7144 256.802 33.7714 257.292 33.797C257.473 33.8063 257.67 33.8039 257.82 33.7C257.905 33.6425 257.935 33.5462 257.937 33.428C257.939 33.055 257.593 32.4785 257.44 32.2816C257.071 31.8114 256.478 31.6271 255.912 31.5234C255.596 31.4646 255.278 31.4432 254.96 31.4218C254.664 31.4018 254.368 31.3819 254.074 31.3316C253.987 31.3171 253.901 31.3 253.816 31.2831C253.445 31.2092 253.092 31.1387 252.699 31.3075C252.516 31.3845 252.358 31.5102 252.205 31.6365C252.174 31.6626 252.127 31.6986 252.071 31.7423C251.691 32.0369 250.859 32.6818 251.227 33.0058C251.378 33.1388 251.601 33.1443 251.806 33.1475C252.435 33.1544 253.052 33.2189 253.667 33.3058C253.377 34.9263 253.097 36.5435 252.817 38.1651C252.793 38.3005 252.744 38.488 252.689 38.6998C252.62 38.9619 252.541 39.261 252.49 39.5441C251.498 39.4594 250.506 39.3758 249.513 39.2921C248.521 39.2086 247.529 39.125 246.539 39.0404C246.55 38.4545 246.515 37.8674 246.439 37.2886C246.516 37.2888 246.594 37.2878 246.672 37.2867C246.851 37.2844 247.03 37.282 247.2 37.2941C247.294 37.3017 247.4 37.3316 247.511 37.3626C247.756 37.4314 248.021 37.5056 248.21 37.3538C248.353 37.2353 248.384 37.0343 248.403 36.85C248.508 35.7842 248.582 34.7173 248.656 33.6528C248.745 32.373 248.834 31.0966 248.976 29.8297C249.104 28.6895 249.204 27.5504 249.273 26.4028C249.29 26.1428 249.3 25.8822 249.311 25.6216L249.311 25.6195C249.324 25.3147 249.336 25.0099 249.358 24.7062C249.364 24.6231 249.388 24.5089 249.414 24.3851C249.465 24.1395 249.524 23.8558 249.468 23.7004C249.318 23.3035 248.678 23.1723 248.036 23.1184C248.634 19.1604 249.03 15.1724 249.218 11.1717C249.252 11.1767 249.286 11.1818 249.319 11.1869C249.353 11.192 249.385 11.1971 249.417 11.202C249.802 11.2621 250.095 11.3078 250.581 11.2169L250.587 11.2158C250.642 11.2051 250.699 11.1937 250.736 11.15C250.778 11.1053 250.782 11.0375 250.781 10.9782C250.774 10.4713 250.56 10.0063 250.345 9.53912C250.204 9.23283 250.063 8.92557 249.979 8.60489C249.892 8.27003 249.866 7.91938 249.839 7.57033C249.8 7.05068 249.761 6.53457 249.522 6.07939C249.261 5.5865 248.797 5.60966 248.511 6.02416C248.215 6.45096 248.215 7.23405 248.327 7.71264C248.457 8.27081 248.831 8.73256 249.407 8.83733C249.336 9.25354 249.214 9.65527 249.09 10.0599L249.06 10.1591C248.704 9.95937 247.834 10.0439 247.451 10.0811C247.417 10.0844 247.387 10.0873 247.361 10.0897L246.561 17.3089C246.495 17.9005 246.429 18.491 246.364 19.0816L246.362 19.1044C246.297 19.6893 246.232 20.2742 246.166 20.8601C246.112 21.3643 246.016 21.8497 245.921 22.3328C245.881 22.5337 245.842 22.7345 245.805 22.9358C245.392 22.9199 244.974 22.9398 244.564 23.0426C244.432 23.0759 244.289 23.1171 244.199 23.2194C244.114 23.3133 244.08 23.4365 244.055 23.5563C243.953 24.0686 243.938 24.6328 243.924 25.1725L243.924 25.1743C243.92 25.3077 243.917 25.4395 243.912 25.5687C243.784 29.1763 243.451 32.7763 242.913 36.3411C242.895 36.48 242.876 36.6323 242.943 36.7501C243.036 36.9121 243.249 36.9574 243.434 36.9807L244.35 37.0968C244.169 37.6157 243.933 38.3233 243.898 38.8105C243.424 38.771 242.951 38.7304 242.479 38.6899C242.005 38.6493 241.532 38.6087 241.058 38.569C239.297 38.4188 237.527 38.2674 235.791 37.9245C235.384 37.8444 234.984 37.7572 234.585 37.6705C233.46 37.4258 232.351 37.1849 231.184 37.1176C231.592 33.8408 232.124 30.5744 232.655 27.3108C233.222 23.8295 233.788 20.3514 234.203 16.8676C234.218 16.7511 234.234 16.6212 234.334 16.5564C234.414 16.5028 234.518 16.5114 234.612 16.5233C235.48 16.6242 236.348 16.7251 237.215 16.8304C237.237 16.7631 237.269 16.67 237.307 16.559C237.52 15.9409 237.924 14.7699 237.678 14.4261C237.48 14.1516 236.358 14.1163 235.614 14.0929C235.366 14.0851 235.161 14.0786 235.045 14.0651C234.107 13.9576 233.168 13.8489 232.229 13.7401C231.29 13.6314 230.351 13.5228 229.414 13.4153C227.536 13.198 225.66 12.9818 223.784 12.7657C221.907 12.5495 220.029 12.3332 218.151 12.1157L195.378 9.48974C195.014 9.44364 194.582 9.4299 194.346 9.70502C194.186 9.88955 194.162 10.146 194.145 10.3897C194.103 10.999 194.061 11.6129 194.015 12.2217C195.113 12.165 196.095 12.2348 197.179 12.4313C196.79 20.7863 196.284 29.1354 195.669 37.4753C195.306 37.7115 194.899 37.997 194.435 38.3478C193.435 39.0953 192.548 40.0346 193.076 41.1576C192.612 41.5491 192.31 41.8547 192.101 42.0663C191.863 42.3066 191.746 42.4255 191.649 42.4106C191.554 42.3961 191.479 42.2538 191.331 41.9723C191.254 41.8267 191.158 41.6437 191.029 41.4218C189.799 42.5408 187.879 44.9199 187.72 45.8421C187.628 46.3858 187.89 46.8698 188.244 47.2833C188.055 47.6358 187.925 47.9045 187.827 48.1051C187.66 48.4484 187.591 48.5924 187.492 48.6158C187.421 48.6326 187.334 48.5867 187.186 48.5075C187.102 48.4629 186.998 48.4076 186.866 48.3471C186.495 48.1772 186.318 48.2048 186.08 48.6754C185.163 50.4532 184.354 52.6087 185.925 53.8503C185.835 54.4075 185.802 54.7961 185.78 55.0586C185.756 55.3559 185.744 55.4916 185.678 55.528C185.622 55.5585 185.528 55.5187 185.353 55.4453C185.251 55.4023 185.121 55.3477 184.956 55.2891C183.996 54.9444 184.678 61.6731 185.549 62.389C185.847 62.6316 186.572 62.6325 186.957 62.6265C187.227 63.2552 187.481 63.7087 187.66 64.0287C188.079 64.7774 188.089 64.796 186.957 64.6207C185.726 64.4328 187.181 66.8298 189.022 68.6747C190.017 69.6703 190.498 69.5173 191.456 68.7327C191.999 69.2115 192.387 69.5009 192.642 69.6909C192.911 69.8916 193.032 69.9813 193.028 70.0661C193.025 70.1347 192.942 70.2 192.79 70.3183C192.697 70.3902 192.58 70.4818 192.44 70.6056C191.617 71.3344 195.896 73.7023 196.979 73.589C197.483 73.5346 197.85 73.1303 198.214 72.7076C199.137 73.0409 199.77 73.2014 200.165 73.3015C200.511 73.3893 200.675 73.4307 200.689 73.5016C200.701 73.5647 200.596 73.6512 200.396 73.8148C200.243 73.9407 200.033 74.1121 199.779 74.3536C199.888 74.2507 200.381 74.3948 201.071 74.5969C202.913 75.1361 206.168 76.0886 207.331 73.8718C208.715 73.7239 210.072 73.4224 211.374 72.95C211.351 73.0092 211.325 73.0687 211.3 73.128C211.146 73.4895 210.997 73.8385 211.29 74.0046C211.724 74.2508 214.042 73.1469 214.483 72.9114C215.536 72.3483 216.02 71.7768 215.944 70.3376C216.874 69.5676 217.331 69.0273 217.574 68.7401C217.717 68.5711 217.786 68.4897 217.833 68.5006C217.878 68.5107 217.903 68.6006 217.953 68.774C218.029 69.0367 218.159 69.4912 218.492 70.1506C219.325 69.6005 222.527 66.1911 220.751 63.6215C220.971 63.0803 221.122 62.6487 221.235 62.2989C223.114 62.439 224.993 62.5803 226.871 62.7216C228.749 62.8628 230.628 63.0041 232.506 63.1442C231.904 63.0999 233.26 60.5993 233.406 60.4265C234.103 59.577 234.789 59.459 235.891 59.3755C237.477 59.2598 239.163 59.4063 240.812 59.5494C241.509 59.61 242.199 59.67 242.873 59.7093C245.472 59.8657 248.065 60.0759 250.656 60.3404C250.652 61.1549 250.692 61.984 250.734 62.654C250.449 62.7408 250.012 62.9858 249.325 63.4998C248.836 63.8657 248.403 64.3253 248.656 64.8764C248.428 65.0683 248.28 65.2181 248.177 65.3215C248.061 65.4386 248.004 65.4964 247.957 65.4891C247.911 65.4819 247.874 65.4127 247.803 65.2759C247.765 65.2042 247.718 65.114 247.654 65.0044C246.828 65.7556 245.568 67.0392 246.287 67.8769C246.192 68.0538 246.127 68.1877 246.079 68.2868C245.999 68.4506 245.966 68.5196 245.918 68.5311C245.884 68.5395 245.842 68.5173 245.769 68.4789C245.728 68.4573 245.677 68.4307 245.613 68.4015C245.087 68.1619 244.204 70.3537 245.149 71.1017C245.105 71.3745 245.09 71.565 245.079 71.6939C245.067 71.8401 245.062 71.907 245.029 71.9248C245.002 71.9398 244.955 71.92 244.869 71.8835C244.819 71.8623 244.756 71.8354 244.675 71.8065C244.204 71.6375 244.54 74.9352 244.965 75.285C245.11 75.4035 245.466 75.4031 245.658 75.4001C245.791 75.7089 245.916 75.9315 246.003 76.0887C246.209 76.4561 246.214 76.4653 245.656 76.3787C245.052 76.284 245.769 77.4628 246.671 78.3648C247.161 78.8548 247.394 78.7796 247.863 78.3929C248.133 78.6311 248.325 78.7736 248.45 78.8663C248.579 78.9622 248.636 79.005 248.635 79.0457C248.634 79.0786 248.594 79.11 248.521 79.1669C248.476 79.2025 248.418 79.2481 248.348 79.3103C247.947 79.6691 250.043 80.8317 250.576 80.7717C250.822 80.7436 251.002 80.5479 251.179 80.3382C251.632 80.5017 251.942 80.5804 252.136 80.6295C252.306 80.6725 252.387 80.6928 252.394 80.7276C252.4 80.7586 252.348 80.8012 252.25 80.8816C252.175 80.9434 252.072 81.0274 251.948 81.1458C252.004 81.0925 252.251 81.1652 252.596 81.2667C253.501 81.5329 255.08 81.9971 255.652 80.9095C256.328 80.8358 256.995 80.6881 257.632 80.4547C257.619 80.4868 257.606 80.519 257.592 80.5509C257.518 80.7255 257.449 80.8896 257.588 80.9727C257.678 81.025 259.945 80.6385 259.873 79.1725C260.318 78.8032 260.542 78.543 260.663 78.4019C260.738 78.3149 260.774 78.2731 260.799 78.2789C260.822 78.2842 260.836 78.3301 260.861 78.4184C260.899 78.547 260.963 78.7658 261.121 79.0803C261.625 78.748 263.073 77.0968 262.229 75.879C262.432 75.3825 262.519 75.0625 262.572 74.8654C262.617 74.6982 262.639 74.6194 262.687 74.5965C262.73 74.576 262.794 74.5998 262.915 74.6445C263.006 74.6783 263.13 74.7242 263.302 74.7721C263.834 71.4663 263.542 71.5676 263.065 71.7333C263.046 71.7398 263.027 71.7464 263.008 71.7529C262.981 70.9026 262.881 70.5 262.83 70.2989C262.804 70.1934 262.792 70.1434 262.811 70.1131C262.828 70.0858 262.871 70.0748 262.954 70.0537C263.057 70.0274 263.221 69.9855 263.472 69.8767C263.245 69.0422 262.852 68.2595 262.329 67.6059C262.241 67.6734 262.176 67.7302 262.127 67.7734C262.053 67.8385 262.014 67.873 261.98 67.8681C261.943 67.8625 261.912 67.8064 261.848 67.6867C261.743 67.4909 261.546 67.1249 261.074 66.5318C261.139 66.4827 261.199 66.4386 261.253 66.3987C261.522 66.1993 261.652 66.103 261.656 66.002C261.659 65.9078 261.552 65.8094 261.346 65.6193C261.249 65.5292 261.129 65.4186 260.988 65.278C259.976 64.2695 259.89 64.3943 259.735 64.6194C259.665 64.7203 259.581 64.8413 259.395 64.8894C258.917 64.5251 258.615 64.359 258.451 64.2682C258.343 64.2089 258.294 64.1818 258.293 64.1527C258.291 64.1283 258.324 64.1024 258.383 64.055C258.476 63.981 258.634 63.8543 258.834 63.5983C258.55 63.3529 258.249 63.1781 257.955 63.0454L258.132 61.2376C261.337 61.6893 264.535 62.2082 267.711 62.82C268.37 62.9491 269.08 63.0709 269.699 62.7988C270.4 62.4885 270.456 61.75 270.51 61.0439C270.53 60.7758 270.55 60.5123 270.605 60.2787ZM262.942 46.5774C263.505 46.667 263.393 47.5451 262.829 47.4555C224.317 41.2373 218.827 39.6585 262.942 46.5774ZM199.417 15.2371C200.06 14.2252 201.121 14.4154 203.872 14.9089C206.058 15.3011 209.312 15.8847 214.273 16.2089C215.21 16.2684 215.761 16.525 215.693 18.128C215.582 20.7245 215.533 22.8433 215.493 24.5675C215.39 29.0206 215.348 30.8409 214.46 31.4589C213.847 31.8861 212.829 31.7385 211.108 31.4889C210.077 31.3393 208.793 31.1531 207.192 31.032C197.969 30.3355 198.055 29.8983 198.457 27.8385C198.493 27.6538 198.531 27.4559 198.566 27.2438C198.658 26.6877 198.719 24.9968 198.79 23.0498C198.91 19.7823 199.055 15.7932 199.413 15.2365L199.417 15.2371ZM220.756 40.8134C222.538 40.156 229.256 41.0527 227.687 41.6915C227.287 41.8526 226.809 41.7524 226.365 41.6592C226.226 41.6302 226.09 41.6018 225.962 41.5822C224.962 41.4268 223.81 41.3225 222.834 41.2341C221.341 41.0989 220.259 41.001 220.761 40.814L220.756 40.8134ZM214.494 36.1719C214.368 35.6738 214.285 35.3442 214.087 35.1133C213.698 34.6617 212.866 34.5881 210.406 34.3704C209.776 34.3145 209.038 34.2493 208.174 34.1657C181.744 31.6136 213.222 33.5215 214.354 34.2385C215.025 34.665 215.989 38.4748 216.071 38.9405C216.134 39.2672 215.66 39.371 215.531 39.0906C214.889 37.7375 214.656 36.8145 214.494 36.1719ZM203.205 69.4838C193.755 68.2864 188.581 59.5999 191.79 50.8512C196.864 37.0212 214.99 40.9705 217.222 53.031C218.806 61.595 212.516 70.6635 203.205 69.4838ZM224.707 60.8449C224.541 60.6756 224.599 60.227 224.691 59.5097C224.877 58.0684 225.202 55.5423 224.13 52.0169C223.737 50.7289 225.882 53.6958 225.514 58.9258L225.513 58.9468C225.481 59.4353 225.344 61.4906 224.708 60.8404L224.707 60.8449ZM224.481 44.9867C222.45 44.916 219.338 44.1255 222.94 44.1859C224.393 44.2119 225.416 44.1396 226.136 44.0887C226.867 44.0371 227.286 44.0075 227.526 44.1251C227.99 44.3523 228.066 45.1131 224.481 44.9867ZM228.916 39.0019C225.615 38.9752 222.404 38.887 219.187 38.1697C216.363 31.2428 216.382 31.0672 216.759 27.4712C216.965 25.5098 217.278 22.5307 217.295 16.8831C217.295 15.9487 228.061 17.5157 229.557 17.7333L229.685 17.752C229.866 17.778 230.034 17.7978 230.19 17.8162C230.708 17.8772 231.094 17.9225 231.353 18.1266C232.106 18.7182 231.799 20.6441 230.604 28.155C230.162 30.9343 229.598 34.4783 228.921 39.0025L228.916 39.0019ZM229.683 49.1696C229.567 49.6511 228.845 49.5824 228.902 49.0706C228.956 48.5766 230.548 39.5227 230.783 38.469C231.228 36.4494 230.676 45.1206 229.683 49.1696ZM252.34 76.7612C246.45 74.4214 249.513 65.2445 255.516 67.2388C261.96 69.3802 258.773 79.3154 252.34 76.7612ZM263.037 50.5093C256.113 49.4727 246.001 47.8818 237.34 46.3656C222.584 43.7808 236.133 45.7055 249.068 47.5428L249.069 47.543C254.663 48.3375 260.141 49.1157 263.165 49.5058C263.812 49.5877 263.682 50.6047 263.037 50.5093Z" fill="#B0E48F"/>
</svg>
